<svg width="32" height="32" viewBox="0 0 32 32" fill="none" xmlns="http://www.w3.org/2000/svg">
<rect width="32" height="32" rx="2" fill="#DE0E27"/>
<path d="M17.4775 3.09726C18.5089 4.72403 15.3807 5.40838 13.5997 5.44117C13.4127 5.44481 12.9656 5.44542 12.8514 5.37741C12.8514 5.37073 12.8532 5.34948 12.8526 5.35616C12.8514 5.37741 15.0211 3.16345 16.2869 2C16.2869 2 17.2297 2.70742 17.4769 3.09726H17.4775Z" fill="white"/>
<path d="M20.4295 5.97886C21.4561 7.07066 21.5174 7.13624 22.0446 7.73679L22.4686 8.22621C24.9165 11.47 14.8687 13.4593 9.61574 12.7537C9.19905 12.6979 7.13992 12.3857 7.50133 11.7366C8.13102 10.831 8.63335 10.1394 9.00832 9.6617C9.33329 9.26154 9.76516 8.72657 10.098 8.33309C10.0901 8.36952 10.0792 8.4181 10.0713 8.45392C11.3359 9.6362 20.3062 8.33977 20.1337 6.04201C20.1082 5.70317 19.9041 5.44692 19.7298 5.26172L20.4295 5.97886Z" fill="white"/>
<path d="M26.4284 13.9385C26.6549 14.434 26.9489 15.0989 27.1421 15.6077C28.3435 20.6532 10.0112 22.1998 5.67362 19.8231C5.26544 19.5997 5.05649 19.3744 5.03402 19.1357L5 18.2285C5.09111 17.025 5.09658 16.9528 5.34258 16.0826L5.57036 15.4001C5.229 17.716 19.9096 17.6966 24.3237 14.4473C26.0044 13.2104 25.3873 12.149 25.185 11.7998C25.9582 13.0446 26.1423 13.3403 26.429 13.9379" fill="white"/>
<path d="M27.4561 20.2886C27.1962 21.4484 27.1913 21.4703 26.9684 22.0939C26.8445 22.3987 26.6835 22.808 26.545 23.1068C24.1172 27.239 9.33029 27.279 7.64653 25.5181C7.34222 25.1276 6.95408 24.5927 6.67892 24.1803C6.11889 23.19 6.09702 23.1517 5.8413 22.536L5.83279 22.5153C7.52627 25.2558 26.5426 24.371 27.5606 19.5697C27.5673 19.5387 27.5709 19.4968 27.5752 19.4658L27.4561 20.288" fill="white"/>
<path d="M23.8803 26.6671C23.1441 27.2834 23.0311 27.3782 22.3411 27.8287C21.6456 28.238 21.5205 28.3121 20.8122 28.6351C18.4378 29.5861 15.3145 29.6024 13.9515 29.3146C13.734 29.2642 13.4443 29.1926 13.2287 29.1349C12.6401 28.9539 12.5787 28.9351 12.1906 28.7845C11.4975 28.49 11.3536 28.4287 10.7364 28.0904L10.3866 27.8834C12.8108 29.1616 21.7993 28.6916 24.3103 26.2603L23.8797 26.6671" fill="white"/>
</svg>
