<svg width="905" height="1137" viewBox="0 0 905 1137" fill="none" xmlns="http://www.w3.org/2000/svg">
<mask id="mask0_18_53" style="mask-type:alpha" maskUnits="userSpaceOnUse" x="0" y="0" width="905" height="1137">
<rect width="903.443" height="1135.95" transform="matrix(1 0 0 -1 0.924561 1136.44)" fill="url(#paint0_linear_18_53)"/>
</mask>
<g mask="url(#mask0_18_53)">
<path d="M782.58 406.824C782.58 222.772 633.376 73.5684 449.324 73.5684C265.273 73.5684 116.069 222.772 116.069 406.824C116.069 590.876 265.273 492.075 449.324 492.075C633.376 492.075 782.58 590.876 782.58 406.824Z" fill="#0E3BD8"/>
<g filter="url(#filter0_f_18_53)">
<path d="M782.579 400.178C782.579 257.706 633.375 142.21 449.323 142.21C265.271 142.21 116.068 257.706 116.068 400.178C116.068 542.65 265.271 658.147 449.323 658.147C633.375 658.147 782.579 542.65 782.579 400.178Z" fill="#0E3BD8"/>
</g>
<g filter="url(#filter1_f_18_53)">
<ellipse cx="333.255" cy="257.968" rx="333.255" ry="257.968" transform="matrix(1 0 0 -1 116.067 671.43)" fill="#0E3BD8"/>
</g>
<g filter="url(#filter2_f_18_53)">
<ellipse cx="333.255" cy="259.076" rx="333.255" ry="259.076" transform="matrix(1 0 0 -1 116.069 709.078)" fill="#0E3BD8"/>
</g>
<g filter="url(#filter3_f_18_53)">
<ellipse cx="333.255" cy="257.968" rx="333.255" ry="257.968" transform="matrix(1 0 0 -1 116.067 817.577)" fill="#0E3BD8"/>
</g>
<g filter="url(#filter4_f_18_53)">
<ellipse cx="280.112" cy="257.968" rx="280.112" ry="257.968" transform="matrix(1 0 0 -1 169.211 965.936)" fill="#0E3BD8"/>
</g>
</g>
<defs>
<filter id="filter0_f_18_53" x="112.068" y="138.21" width="674.511" height="523.937" filterUnits="userSpaceOnUse" color-interpolation-filters="sRGB">
<feFlood flood-opacity="0" result="BackgroundImageFix"/>
<feBlend mode="normal" in="SourceGraphic" in2="BackgroundImageFix" result="shape"/>
<feGaussianBlur stdDeviation="2" result="effect1_foregroundBlur_18_53"/>
</filter>
<filter id="filter1_f_18_53" x="102.067" y="141.493" width="694.511" height="543.937" filterUnits="userSpaceOnUse" color-interpolation-filters="sRGB">
<feFlood flood-opacity="0" result="BackgroundImageFix"/>
<feBlend mode="normal" in="SourceGraphic" in2="BackgroundImageFix" result="shape"/>
<feGaussianBlur stdDeviation="7" result="effect1_foregroundBlur_18_53"/>
</filter>
<filter id="filter2_f_18_53" x="82.0686" y="156.927" width="734.511" height="586.151" filterUnits="userSpaceOnUse" color-interpolation-filters="sRGB">
<feFlood flood-opacity="0" result="BackgroundImageFix"/>
<feBlend mode="normal" in="SourceGraphic" in2="BackgroundImageFix" result="shape"/>
<feGaussianBlur stdDeviation="17" result="effect1_foregroundBlur_18_53"/>
</filter>
<filter id="filter3_f_18_53" x="42.0674" y="227.64" width="814.511" height="663.937" filterUnits="userSpaceOnUse" color-interpolation-filters="sRGB">
<feFlood flood-opacity="0" result="BackgroundImageFix"/>
<feBlend mode="normal" in="SourceGraphic" in2="BackgroundImageFix" result="shape"/>
<feGaussianBlur stdDeviation="37" result="effect1_foregroundBlur_18_53"/>
</filter>
<filter id="filter4_f_18_53" x="39.2112" y="319.999" width="820.223" height="775.937" filterUnits="userSpaceOnUse" color-interpolation-filters="sRGB">
<feFlood flood-opacity="0" result="BackgroundImageFix"/>
<feBlend mode="normal" in="SourceGraphic" in2="BackgroundImageFix" result="shape"/>
<feGaussianBlur stdDeviation="65" result="effect1_foregroundBlur_18_53"/>
</filter>
<linearGradient id="paint0_linear_18_53" x1="663.189" y1="904.55" x2="663.189" y2="7.03725e-06" gradientUnits="userSpaceOnUse">
<stop stop-color="white"/>
<stop offset="1" stop-color="white" stop-opacity="0"/>
</linearGradient>
</defs>
</svg>
