<svg width="270" height="270" viewBox="0 0 270 270" fill="none" xmlns="http://www.w3.org/2000/svg">
<path d="M116.94 -6.61468e-05L116.94 67.852L82.9981 9.08957L51.8738 27.1408L85.8159 85.7752L27.0256 51.9772L9.09393 83.0867L67.7562 117.013L-6.68728e-06 117.013L-5.11479e-06 152.987L67.7562 152.987L9.09393 186.913L27.0256 218.023L85.8159 184.097L51.8738 242.859L82.9981 260.91L116.94 202.148L116.94 270L152.932 270L152.932 202.148L186.874 260.91L218.126 242.859L184.184 184.097L242.846 218.023L260.906 186.913L202.116 152.987L270 152.987L270 117.013L202.116 117.013L260.906 83.0867L242.846 51.9771L184.184 85.7752L218.126 27.1408L186.874 9.08956L152.932 67.852L152.932 -6.772e-05L116.94 -6.61468e-05Z" fill="white"/>
</svg>
