<svg width="101" height="93" viewBox="0 0 101 93" fill="none" xmlns="http://www.w3.org/2000/svg">
<path d="M100.441 45.8354C100.441 75.1686 81.7527 92.1689 52.4516 92.1689L0.282902 92.1689L0.282898 0.377853L52.4516 0.377851C81.7527 0.37785 100.441 16.5344 100.441 45.8354Z" fill="#0E3BD8"/>
<path d="M44.6746 11.823L44.6746 28.9261L36.1231 14.1142L28.2815 18.6642L36.833 33.4438L22.0212 24.9246L17.5034 32.7662L32.283 41.3177L15.2122 41.3177L15.2122 50.3855L32.283 50.3855L17.5034 58.937L22.0212 66.7786L36.833 58.2271L28.2815 73.0389L36.1231 77.589L44.6746 62.7771L44.6746 79.8801L53.7424 79.8801L53.7424 62.7771L62.2939 77.589L70.1678 73.0389L61.6163 58.2271L76.3959 66.7786L80.9459 58.937L66.134 50.3855L83.2371 50.3855L83.2371 41.3177L66.134 41.3177L80.9459 32.7662L76.3958 24.9246L61.6163 33.4438L70.1678 18.6642L62.2939 14.1142L53.7424 28.9261L53.7424 11.823L44.6746 11.823Z" fill="white"/>
</svg>
