<svg width="55" height="35" viewBox="0 0 55 35" fill="none" xmlns="http://www.w3.org/2000/svg">
<path d="M30.0186 10.2709C27.4336 5.80581 22.6374 3.03182 17.5 3.03182C9.52211 3.03182 3.03182 9.52211 3.03182 17.5C3.03182 25.4779 9.52211 31.9682 17.5 31.9682C22.6375 31.9682 27.4338 29.1941 30.0188 24.7289C30.017 24.7314 30.0182 24.7298 30.0199 24.7269L30.0186 10.2709ZM30.0186 10.2709L30.0191 10.2715L30.0232 10.2775C30.025 10.2802 30.0273 10.2838 30.0299 10.288L30.1171 10.4334L29.9622 10.5023L26.8803 11.872L26.7881 11.913L26.7154 11.8431C26.2569 11.4027 25.895 11.1236 25.786 11.0422L25.786 11.0422C25.2747 10.6606 24.5738 10.6606 24.0626 11.0422L24.0626 11.0422C23.8537 11.198 22.7378 12.0631 21.7746 13.4007L21.7396 13.4494L21.6806 13.4605L7.68904 16.0839L7.68901 16.0839C7.00749 16.2116 6.51364 16.8066 6.51364 17.5C6.51364 18.1934 7.00749 18.7885 7.68893 18.9162L21.6804 21.5396L21.7394 21.5507L21.7745 21.5994C22.7378 22.937 23.8537 23.8021 24.0625 23.9579C24.3181 24.1487 24.6211 24.2439 24.9242 24.2439C25.2274 24.2439 25.5304 24.1487 25.786 23.9578L25.7861 23.9577C25.8951 23.8764 26.257 23.5974 26.7154 23.1569L26.7881 23.087L26.8803 23.128L29.9622 24.4977L30.1171 24.5666L30.0299 24.712C30.0284 24.7144 30.027 24.7167 30.0257 24.7187C30.0247 24.7202 30.0237 24.7216 30.0229 24.7229L30.0189 24.7287L30.0186 10.2709ZM32.3296 8.51844L32.3456 8.54474L32.3706 8.56264C35.2584 10.6274 36.9712 13.9409 36.9712 17.5C36.9712 21.0591 35.2584 24.3726 32.3706 26.4374L32.3456 26.4553L32.3296 26.4816C30.8412 28.9344 28.7603 30.9938 26.2929 32.4519C23.6386 34.0206 20.598 34.85 17.5 34.85C7.93334 34.85 0.15 27.0667 0.15 17.5C0.15 7.93334 7.93334 0.15 17.5 0.15C20.598 0.15 23.6386 0.97936 26.2929 2.54806L26.3692 2.41892L26.2929 2.54806C28.7603 4.00619 30.8412 6.06562 32.3296 8.51844ZM24.815 20.7553L24.9245 20.8725L25.0342 20.7554C25.419 20.3444 25.8249 19.837 26.1354 19.2816C26.4453 18.7272 26.6652 18.1159 26.6652 17.5C26.6652 16.885 26.4437 16.2727 26.133 15.7179C25.8218 15.1619 25.4157 14.654 25.0334 14.2447L24.924 14.1275L24.8143 14.2446C24.4295 14.6556 24.0236 15.163 23.7131 15.7184C23.4032 16.2728 23.1833 16.8841 23.1833 17.5C23.1833 18.1151 23.4048 18.7273 23.7155 19.2822C24.0267 19.8381 24.4328 20.346 24.815 20.7553ZM20.1636 18.3231L20.3639 18.3607L20.3403 18.1583C20.3151 17.9427 20.3016 17.7231 20.3016 17.5C20.3016 17.2769 20.3151 17.0574 20.3404 16.8417L20.3641 16.6393L20.1638 16.6769L16.5598 17.3526L16.5598 17.6474L20.1636 18.3231ZM32.3044 22.3852L32.414 22.4339L32.4856 22.3378C33.5139 20.9585 34.0894 19.2703 34.0894 17.5C34.0894 15.7297 33.5139 14.0415 32.4856 12.6622L32.414 12.5661L32.3044 12.6148L28.7708 14.1854L28.6225 14.2513L28.6999 14.3939C29.1936 15.3044 29.547 16.3544 29.547 17.5C29.547 18.6456 29.1936 19.6956 28.6999 20.6061L28.6225 20.7487L28.7708 20.8146L32.3044 22.3852Z" fill="#1A62D6" stroke="white" stroke-width="0.3"/>
<path d="M44.057 15.3366L44.057 15.3366L40.8751 12.1548C40.3124 11.5921 40.3124 10.6797 40.8751 10.1171L40.8751 10.1171L44.057 6.93525C44.057 6.93525 44.057 6.93525 44.057 6.93524C44.6197 6.37262 45.5321 6.37263 46.0947 6.93524C46.6574 7.49797 46.6574 8.41035 46.0947 8.97296L46.0947 8.97297L45.6287 9.439L45.3726 9.69507H45.7347H52.7121C53.5079 9.69507 54.153 10.3402 54.153 11.136C54.153 11.9317 53.5079 12.5769 52.7121 12.5769H45.7347H45.3726L45.6287 12.8329L46.0946 13.2989C46.6573 13.8616 46.6573 14.774 46.0946 15.3366L46.0946 15.3366C45.8133 15.618 45.4448 15.7587 45.0758 15.7587C44.7068 15.7587 44.3383 15.618 44.057 15.3366Z" fill="#1A62D6" stroke="white" stroke-width="0.3"/>
<path d="M45.6287 22.1673L45.3726 22.4233H45.7347H52.7121C53.5079 22.4233 54.153 23.0685 54.153 23.8642C54.153 24.66 53.5079 25.3052 52.7121 25.3052H45.7347H45.3726L45.6287 25.5612L46.0946 26.0271C46.6573 26.5899 46.6573 27.5022 46.0946 28.0649L46.0946 28.0649C45.8133 28.3463 45.4448 28.487 45.0758 28.487C44.7068 28.487 44.3383 28.3463 44.057 28.0649L44.057 28.0649L40.8751 24.8831C40.3124 24.3203 40.3124 23.4079 40.8751 22.8453L40.8751 22.8453L44.057 19.6635C44.057 19.6635 44.057 19.6635 44.057 19.6635C44.6197 19.1009 45.5321 19.1009 46.0947 19.6635C46.6574 20.2262 46.6574 21.1386 46.0947 21.7012L46.0947 21.7012L45.6287 22.1673Z" fill="#1A62D6" stroke="white" stroke-width="0.3"/>
</svg>
