<svg width="37" height="37" viewBox="0 0 37 37" fill="none" xmlns="http://www.w3.org/2000/svg">
<path d="M18.5 5.20156C19.1215 5.20156 19.6254 4.69769 19.6254 4.07617V2.02539C19.6254 1.40387 19.1215 0.9 18.5 0.9C17.8785 0.9 17.3746 1.40387 17.3746 2.02539V4.07617C17.3746 4.69769 17.8785 5.20156 18.5 5.20156Z" fill="#1A62D6" stroke="#1A62D6" stroke-width="0.2"/>
<path d="M18.5 11.3539C19.1215 11.3539 19.6254 10.85 19.6254 10.2285V8.17773C19.6254 7.55622 19.1215 7.05234 18.5 7.05234C17.8785 7.05234 17.3746 7.55622 17.3746 8.17773V10.2285C17.3746 10.85 17.8785 11.3539 18.5 11.3539Z" fill="#1A62D6" stroke="#1A62D6" stroke-width="0.2"/>
<path d="M9.73344 4.07296L9.73344 4.07296L10.7588 5.849C11.0697 6.38724 10.8852 7.07553 10.3469 7.38629C10.3469 7.38629 10.3469 7.3863 10.3469 7.3863L10.2969 7.29969C10.1355 7.39294 9.95918 7.43723 9.7852 7.43723C9.43083 7.43723 9.08616 7.25341 8.89626 6.9244L9.73344 4.07296ZM9.73344 4.07296C9.42261 3.53465 8.73439 3.35031 8.19616 3.66106C7.65785 3.97182 7.47343 4.66011 7.78426 5.19835C7.78427 5.19836 7.78427 5.19836 7.78427 5.19836L8.80965 6.97439L9.73344 4.07296Z" fill="#1A62D6" stroke="#1A62D6" stroke-width="0.2"/>
<path d="M12.8096 9.40105L12.8096 9.40105L13.835 11.1771C13.835 11.1771 13.835 11.1771 13.835 11.1771C14.1458 11.7153 13.9614 12.4036 13.4231 12.7144C13.4231 12.7144 13.4231 12.7144 13.4231 12.7144L13.3731 12.6278C13.2116 12.721 13.0353 12.7653 12.8614 12.7653C12.507 12.7653 12.1623 12.5815 11.9724 12.2525L12.8096 9.40105ZM12.8096 9.40105C12.4988 8.86273 11.8106 8.67848 11.2723 8.98915L11.2723 8.98916C10.734 9.29991 10.5496 9.9882 10.8604 10.5264C10.8604 10.5264 10.8604 10.5265 10.8604 10.5265L11.8858 12.3025L12.8096 9.40105Z" fill="#1A62D6" stroke="#1A62D6" stroke-width="0.2"/>
<path d="M26.6532 7.38612C26.8303 7.48838 27.0239 7.53706 27.2149 7.53706M26.6532 7.38612L26.7032 7.29953M26.6532 7.38612C26.6532 7.38613 26.6532 7.38613 26.6532 7.38613L26.7032 7.29953M26.6532 7.38612C26.1149 7.07536 25.9305 6.38708 26.2413 5.84884M27.2149 7.53706L26.7032 7.29953M27.2149 7.53706C27.6036 7.53706 27.982 7.33537 28.1905 6.97423M27.2149 7.53706L28.1905 6.97423M26.7032 7.29953C26.2127 7.01638 26.0447 6.38925 26.3279 5.89884L26.2413 5.84884M26.2413 5.84884L26.2413 5.84883M26.2413 5.84884L26.2413 5.84883M26.2413 5.84883L27.2667 4.0728C27.2667 4.0728 27.2667 4.0728 27.2667 4.07279C27.5774 3.53458 28.2657 3.34992 28.804 3.66089L26.2413 5.84883ZM28.1905 6.97423C28.1905 6.97423 28.1905 6.97423 28.1905 6.97423M28.1905 6.97423L28.1905 6.97423M28.1905 6.97423L29.2159 5.19819C29.5267 4.65996 29.3423 3.97168 28.804 3.66091L28.1905 6.97423Z" fill="#1A62D6" stroke="#1A62D6" stroke-width="0.2"/>
<path d="M24.1388 12.8654C23.9477 12.8654 23.7541 12.8167 23.577 12.7145C23.0387 12.4037 22.8543 11.7154 23.1651 11.1772L24.1388 12.8654ZM24.1388 12.8654C24.5274 12.8654 24.9058 12.6637 25.1143 12.3026M24.1388 12.8654L25.1143 12.3026M25.1143 12.3026C25.1143 12.3026 25.1143 12.3026 25.1143 12.3026M25.1143 12.3026L25.1143 12.3026M25.1143 12.3026L26.1397 10.5265C26.4505 9.98828 26.2661 9.29998 25.7278 8.98922L25.1143 12.3026ZM24.1905 9.40112L23.1651 11.1772L25.7278 8.98922C25.1895 8.67839 24.5013 8.86281 24.1905 9.40112C24.1905 9.40112 24.1905 9.40112 24.1905 9.40112Z" fill="#1A62D6" stroke="#1A62D6" stroke-width="0.2"/>
<path d="M34.2558 20.4368L34.3197 20.5137L34.2558 20.4368L29.8607 24.0842C29.5293 18.1046 24.561 13.3414 18.5 13.3414C12.439 13.3414 7.47062 18.1045 7.13922 24.0841L2.74411 20.4368C2.74411 20.4368 2.74411 20.4368 2.74411 20.4368C2.26582 20.0398 1.5563 20.1058 1.15941 20.5841C0.762438 21.0624 0.828475 21.7719 1.30675 22.1688L1.37062 22.0919L1.30676 22.1688L17.7814 35.8406C17.9897 36.0136 18.245 36.1 18.5 36.1C18.7551 36.1 19.0104 36.0136 19.2187 35.8406L35.6933 22.1688L35.6295 22.0919L35.6933 22.1688C36.1715 21.7719 36.2375 21.0624 35.8405 20.5841C35.4436 20.1059 34.7342 20.0399 34.2558 20.4368ZM18.5 15.5922C19.502 15.5922 20.4664 15.755 21.369 16.0546C20.6895 16.9208 19.6475 17.443 18.5 17.443C17.3524 17.443 16.3104 16.9208 15.631 16.0546C16.5336 15.755 17.498 15.5922 18.5 15.5922ZM11.3846 19.0088C12.0022 18.241 12.7414 17.5751 13.5726 17.04C13.9802 17.6578 14.5014 18.1961 15.1173 18.6278C16.112 19.3252 17.2818 19.6937 18.5 19.6937C19.7181 19.6937 20.888 19.3252 21.8827 18.6278C22.4985 18.1961 23.0198 17.6578 23.4274 17.04C24.2586 17.5751 24.9978 18.241 25.6154 19.0088C24.069 21.4325 21.4025 22.9117 18.5 22.9117C15.5975 22.9117 12.931 21.4325 11.3846 19.0088ZM27.6285 24.7207C27.6285 25.152 27.5974 25.585 27.5367 26.0128L18.5 33.5121L9.46325 26.0128C9.40258 25.585 9.37146 25.152 9.37146 24.7207C9.37146 23.4372 9.63777 22.2151 10.1179 21.1062C12.1254 23.6458 15.1916 25.1625 18.5 25.1625C21.8084 25.1625 24.8745 23.6458 26.8821 21.1062C27.3622 22.2151 27.6285 23.4372 27.6285 24.7207Z" fill="#1A62D6" stroke="#1A62D6" stroke-width="0.2"/>
</svg>
