<svg width="35" height="35" viewBox="0 0 35 35" fill="none" xmlns="http://www.w3.org/2000/svg">
<g clip-path="url(#clip0_34_570)">
<path d="M29.8744 5.12559C26.569 1.82034 22.1744 0 17.5 0C12.8256 0 8.43097 1.82034 5.12559 5.12559C1.82034 8.43097 0 12.8256 0 17.5C0 22.1744 1.82034 26.569 5.12559 29.8744C8.43097 33.1797 12.8256 35 17.5 35C22.1744 35 26.569 33.1797 29.8744 29.8744C33.1797 26.569 35 22.1744 35 17.5C35 12.8256 33.1797 8.43097 29.8744 5.12559ZM17.5 32.9492C8.98126 32.9492 2.05078 26.0187 2.05078 17.5C2.05078 8.98126 8.98126 2.05078 17.5 2.05078C26.0187 2.05078 32.9492 8.98126 32.9492 17.5C32.9492 26.0187 26.0187 32.9492 17.5 32.9492Z" fill="#1A62D6"/>
<path d="M29.8047 16.4746H26.6712C26.5668 15.5345 26.3207 14.6366 25.9546 13.8027L28.6688 12.2356C29.1592 11.9525 29.3273 11.3254 29.0441 10.835C28.761 10.3445 28.1338 10.1764 27.6434 10.4597L24.9266 12.0282C24.3762 11.2833 23.7167 10.6238 22.9718 10.0734L24.5403 7.35649C24.8235 6.86602 24.6554 6.23889 24.165 5.95581C23.6745 5.67246 23.0474 5.84069 22.7644 6.3311L21.1973 9.04538C20.3634 8.67932 19.4655 8.43315 18.5254 8.32877V5.19531C18.5254 4.62902 18.0663 4.16992 17.5 4.16992C16.9337 4.16992 16.4746 4.62902 16.4746 5.19531V8.32877C15.5345 8.43315 14.6366 8.67932 13.8027 9.04538L12.2356 6.3311C11.9525 5.84062 11.3254 5.67246 10.835 5.95581C10.3446 6.23896 10.1765 6.86602 10.4597 7.35649L12.0282 10.0734C11.2833 10.6238 10.6237 11.2833 10.0734 12.0282L7.35649 10.4596C6.86595 10.1762 6.23889 10.3445 5.95581 10.8349C5.67267 11.3254 5.84069 11.9525 6.3311 12.2356L9.04538 13.8026C8.67932 14.6365 8.43315 15.5344 8.3287 16.4745H5.19531C4.62902 16.4745 4.16992 16.9336 4.16992 17.4999C4.16992 18.0662 4.62902 18.5253 5.19531 18.5253H8.32877C8.43315 19.4654 8.67932 20.3632 9.04545 21.1971L6.33117 22.7644C5.84076 23.0475 5.67273 23.6746 5.95588 24.165C6.14578 24.4941 6.49045 24.6779 6.84482 24.6779C7.01873 24.6779 7.1951 24.6336 7.35656 24.5403L10.0734 22.9718C10.6238 23.7167 11.2833 24.3762 12.0282 24.9266L10.4597 27.6435C10.1765 28.134 10.3446 28.7611 10.835 29.0442C10.9965 29.1374 11.1727 29.1818 11.3467 29.1818C11.7011 29.1818 12.0458 28.9978 12.2356 28.6689L13.8027 25.9546C14.6366 26.3207 15.5345 26.5668 16.4745 26.6712V29.8047C16.4745 30.371 16.9336 30.8301 17.4999 30.8301C18.0662 30.8301 18.5253 30.371 18.5253 29.8047V26.6712C19.4655 26.5668 20.3633 26.3207 21.1972 25.9546L22.7643 28.6689C22.9542 28.9979 23.2989 29.1818 23.6532 29.1818C23.8271 29.1818 24.0035 29.1375 24.165 29.0442C24.6554 28.761 24.8234 28.134 24.5403 27.6435L22.9717 24.9266C23.7167 24.3762 24.3762 23.7167 24.9265 22.9718L27.6434 24.5404C27.8049 24.6336 27.9812 24.678 28.1552 24.678C28.5096 24.678 28.8543 24.4941 29.0441 24.1651C29.3273 23.6746 29.1592 23.0475 28.6688 22.7644L25.9546 21.1974C26.3206 20.3635 26.5668 19.4656 26.6712 18.5255H29.8047C30.371 18.5255 30.8301 18.0664 30.8301 17.5001C30.8301 16.9338 30.371 16.4746 29.8047 16.4746ZM17.5 24.6777C13.5422 24.6777 10.3223 21.4578 10.3223 17.5C10.3223 13.5422 13.5422 10.3223 17.5 10.3223C21.4578 10.3223 24.6777 13.5422 24.6777 17.5C24.6777 21.4578 21.4578 24.6777 17.5 24.6777Z" fill="#1A62D6"/>
<path d="M17.5 13.7402C15.4269 13.7402 13.7402 15.4269 13.7402 17.5C13.7402 19.5731 15.4269 21.2598 17.5 21.2598C19.5731 21.2598 21.2598 19.5731 21.2598 17.5C21.2598 15.4269 19.5731 13.7402 17.5 13.7402ZM17.5 19.209C16.5577 19.209 15.791 18.4423 15.791 17.5C15.791 16.5577 16.5577 15.791 17.5 15.791C18.4423 15.791 19.209 16.5577 19.209 17.5C19.209 18.4423 18.4423 19.209 17.5 19.209Z" fill="#1A62D6"/>
</g>
<defs>
<clipPath id="clip0_34_570">
<rect width="35" height="35" fill="white"/>
</clipPath>
</defs>
</svg>
