<svg width="70" height="70" viewBox="0 0 70 70" fill="none" xmlns="http://www.w3.org/2000/svg">
<g clip-path="url(#clip0_53_6)">
<path d="M32.6054 35.0001C32.6054 30.318 28.7965 26.5091 24.1145 26.5091C23.4331 26.5091 22.8806 27.0616 22.8806 27.743C22.8806 28.4245 23.4331 28.9769 24.1145 28.9769C27.4356 28.9769 30.1376 31.679 30.1376 35.0001C30.1376 35.6815 30.6901 36.234 31.3715 36.234C32.053 36.234 32.6054 35.6815 32.6054 35.0001Z" fill="#1A62D6" stroke="#1A62D6" stroke-width="0.2"/>
<path d="M48.3046 7.44777C50.1584 7.44777 51.6668 8.95616 51.6668 10.81C51.6668 11.4914 52.2192 12.0439 52.9007 12.0439C53.5821 12.0439 54.1346 11.4914 54.1346 10.81C54.1346 7.59522 51.5193 4.97996 48.3046 4.97996C47.6231 4.97996 47.0707 5.53242 47.0707 6.21387C47.0707 6.89531 47.6231 7.44777 48.3046 7.44777Z" fill="#1A62D6" stroke="#1A62D6" stroke-width="0.2"/>
<path d="M48.3046 48.2801C45.5355 48.2801 43.0047 49.3179 41.079 51.0236L34.1562 43.7547C36.2019 41.4111 37.4434 38.348 37.4434 35C37.4434 31.7686 36.2868 28.8025 34.3668 26.4926L41.5165 19.3429C43.3809 20.8291 45.7402 21.7199 48.3046 21.7199C54.3204 21.7199 59.2145 16.8257 59.2145 10.8099C59.2145 4.79412 54.3204 -0.1 48.3046 -0.1C42.2888 -0.1 37.3946 4.79412 37.3946 10.8099C37.3946 13.3743 38.2854 15.7336 39.7716 17.598L32.6219 24.7477C30.312 22.8277 27.3459 21.6711 24.1145 21.6711C16.7648 21.6711 10.7856 27.6503 10.7856 35C10.7856 42.3497 16.7648 48.3289 24.1145 48.3289C27.2295 48.3289 30.0978 47.2542 32.3694 45.457L39.4237 52.864C38.1481 54.6495 37.3946 56.8329 37.3946 59.1901C37.3946 65.2059 42.2888 70.1 48.3046 70.1C54.3204 70.1 59.2145 65.2059 59.2145 59.1901C59.2145 53.1743 54.3204 48.2801 48.3046 48.2801ZM48.3046 2.36782C52.9594 2.36782 56.7467 6.15506 56.7467 10.8099C56.7467 15.4648 52.9594 19.2521 48.3046 19.2521C43.6497 19.2521 39.8624 15.4648 39.8624 10.8099C39.8624 6.15506 43.6497 2.36782 48.3046 2.36782ZM13.2534 35C13.2534 29.0112 18.1257 24.1389 24.1145 24.1389C30.1033 24.1389 34.9756 29.0112 34.9756 35C34.9756 40.9888 30.1033 45.8611 24.1145 45.8611C18.1257 45.8611 13.2534 40.9888 13.2534 35ZM48.3046 67.6322C43.6497 67.6322 39.8624 63.8449 39.8624 59.1901C39.8624 54.5352 43.6497 50.7479 48.3046 50.7479C52.9594 50.7479 56.7467 54.5352 56.7467 59.1901C56.7467 63.8449 52.9594 67.6322 48.3046 67.6322Z" fill="#1A62D6" stroke="#1A62D6" stroke-width="0.2"/>
<path d="M48.3046 53.3601C47.6231 53.3601 47.0707 53.9125 47.0707 54.594C47.0707 55.2754 47.6231 55.8279 48.3046 55.8279C50.1584 55.8279 51.6668 57.3363 51.6668 59.1901C51.6668 59.8716 52.2192 60.424 52.9007 60.424C53.5821 60.424 54.1346 59.8716 54.1346 59.1901C54.1346 55.9754 51.5193 53.3601 48.3046 53.3601Z" fill="#1A62D6" stroke="#1A62D6" stroke-width="0.2"/>
</g>
<defs>
<clipPath id="clip0_53_6">
<rect width="70" height="70" fill="white"/>
</clipPath>
</defs>
</svg>
