<svg width="70" height="70" viewBox="0 0 70 70" fill="none" xmlns="http://www.w3.org/2000/svg">
<g clip-path="url(#clip0_53_12)">
<path d="M65.1446 22.2651C65.1446 17.3129 62.7971 11.9275 58.3561 6.69091C55.0601 2.80468 51.8008 0.370679 51.6637 0.26896C51.1801 -0.0896533 50.5184 -0.0896533 50.0348 0.26896C49.8977 0.370679 46.6385 2.80468 43.3424 6.69091C42.5763 7.59435 41.8723 8.5023 41.232 9.41175C36.4431 4.48988 32.5153 1.55958 32.3392 1.42902C31.8556 1.07041 31.1939 1.07041 30.7103 1.42902C30.4468 1.62453 24.1853 6.30072 17.8311 13.7929C14.0846 18.2103 11.0955 22.6877 8.94701 27.1004C6.23218 32.6764 4.85556 38.1693 4.85556 43.4268C4.85529 58.0793 16.8191 70 31.5246 70C46.2301 70 58.1936 58.0794 58.1936 43.4268C58.1936 40.7071 57.823 37.9041 57.0909 35.0804C61.8546 32.7669 65.1446 27.8918 65.1446 22.2651ZM55.4593 43.4267C55.4593 56.5715 44.7222 67.2657 31.5246 67.2657C18.3269 67.2657 7.5898 56.5715 7.5898 43.4268C7.5898 32.4267 14.2722 22.2265 19.8781 15.6068C24.7256 9.88234 29.6316 5.76916 31.5249 4.25937C32.9656 5.40767 36.1486 8.06056 39.7128 11.7751C37.6332 15.35 36.5538 18.9073 36.5538 22.2652C36.5538 30.1207 42.9666 36.5115 50.8493 36.5115C52.1153 36.5115 53.3434 36.3466 54.513 36.0373C55.1413 38.5446 55.4593 41.025 55.4593 43.4267ZM50.8493 33.7769C44.4745 33.7769 39.2882 28.6128 39.2882 22.2651C39.2882 13.3836 48.0919 5.3981 50.8493 3.11544C53.607 5.39837 62.4103 13.3836 62.4103 22.2651C62.4102 28.6128 57.2239 33.7769 50.8493 33.7769Z" fill="#1A62D6"/>
<path d="M56.6985 21.6372C54.7323 20.561 53.1245 18.952 52.049 16.9841C51.8092 16.5455 51.3491 16.2726 50.8493 16.2726C50.3494 16.2726 49.8894 16.5455 49.6495 16.9841C48.574 18.9521 46.9662 20.561 45 21.6372C44.5617 21.8771 44.2892 22.3369 44.2892 22.8364C44.2892 23.336 44.5617 23.7959 44.9999 24.0356C46.9663 25.112 48.5741 26.721 49.6495 28.689C49.8894 29.1276 50.3494 29.4005 50.8493 29.4005C51.3491 29.4005 51.8092 29.1276 52.049 28.689C53.1244 26.7209 54.7322 25.112 56.6986 24.0356C57.1368 23.7958 57.4093 23.336 57.4093 22.8364C57.4093 22.3369 57.1368 21.8771 56.6985 21.6372ZM50.8493 25.5312C50.0746 24.5173 49.1697 23.6118 48.1563 22.8366C49.1698 22.0614 50.0745 21.1562 50.8493 20.142C51.624 21.1562 52.5287 22.0614 53.5422 22.8366C52.5288 23.6118 51.6239 24.5173 50.8493 25.5312Z" fill="#1A62D6"/>
<path d="M33.1922 36.2027C33.1875 36.1902 33.1827 36.1779 33.1777 36.1656C32.9059 35.5042 32.2688 35.0773 31.554 35.0773H31.5524C30.837 35.0778 30.1998 35.5062 29.9291 36.1683C29.9249 36.1787 29.9206 36.1891 29.9168 36.1996L23.4843 53.1016C23.2157 53.8072 23.57 54.597 24.2758 54.8655C24.9815 55.1345 25.7712 54.7798 26.0397 54.0741L27.3064 50.7455H35.754L37.0077 54.0701C37.2141 54.6178 37.7345 54.9554 38.2871 54.9554C38.4474 54.9554 38.6103 54.9269 38.7692 54.867C39.4757 54.6007 39.8324 53.8118 39.566 53.1054L33.1922 36.2027ZM28.3473 48.0111L31.5498 39.5964L34.723 48.0111H28.3473Z" fill="#1A62D6"/>
</g>
<defs>
<clipPath id="clip0_53_12">
<rect width="70" height="70" fill="white"/>
</clipPath>
</defs>
</svg>
