<svg width="70" height="70" viewBox="0 0 70 70" fill="none" xmlns="http://www.w3.org/2000/svg">
<g clip-path="url(#clip0_53_17)">
<path d="M23.3318 25.7963H24.4672V26.9496C24.4672 27.7045 25.0792 28.3167 25.8343 28.3167C26.5893 28.3167 27.2014 27.7045 27.2014 26.9496V25.7963H28.3368C29.0918 25.7963 29.7039 25.1841 29.7039 24.4292C29.7039 23.6743 29.0918 23.0621 28.3368 23.0621H27.2014V21.9088C27.2014 21.1539 26.5893 20.5417 25.8343 20.5417C25.0792 20.5417 24.4672 21.1539 24.4672 21.9088V23.0621H23.3318C22.5768 23.0621 21.9647 23.6743 21.9647 24.4292C21.9647 25.1841 22.5768 25.7963 23.3318 25.7963Z" fill="#1A62D6"/>
<path d="M58.7545 21.8348C62.8617 16.0857 61.0719 6.88243 60.9875 6.46383C60.8793 5.92615 60.4601 5.50536 59.9229 5.3949C59.4751 5.30275 48.8965 3.20344 43.41 8.74633C41.7432 10.4302 40.6204 12.7311 40.0587 15.6062C37.3275 13.7135 34.0958 12.6952 30.7084 12.6952C26.8421 12.6952 23.1786 14.0217 20.2307 16.4609C19.659 15.2686 18.9406 14.2351 18.0834 13.3746C12.5826 7.85143 1.97627 9.94336 1.52759 10.0352C0.990322 10.145 0.570623 10.5654 0.461666 11.1029C0.370344 11.5531 -1.71188 22.1943 3.7859 27.714C5.30966 29.2439 7.22797 30.1875 9.20808 30.7515C4.66658 33.5378 1.66075 38.3268 1.48754 38.6067C1.20085 39.0704 1.21699 39.6602 1.52882 40.1075C1.78789 40.4791 7.88268 49.0962 15.5122 49.0962C15.6121 49.0962 15.7137 49.0947 15.8142 49.0917C17.1029 49.0531 18.409 48.764 19.7176 48.2295C19.7168 48.2955 19.7164 48.3617 19.7164 48.4278C19.7164 57.6047 27.1339 65.0707 36.2512 65.0707C43.3676 65.0707 49.4484 60.522 51.7745 54.1614C52.3353 54.2187 52.9008 54.2477 53.4654 54.2477C62.5827 54.2477 70.0001 46.7817 70.0001 37.6048C70 30.2888 65.2858 24.0601 58.7545 21.8348ZM45.3532 10.6698C48.9761 7.00971 55.9549 7.58034 58.4543 7.92525C58.7975 10.4311 59.3701 17.4259 55.7985 21.1269C55.036 21.0181 54.2571 20.9618 53.4652 20.9618C50.7978 20.9618 48.232 21.5883 45.9134 22.7917C45.1076 20.9005 43.9489 19.1572 42.5089 17.6803C42.8454 14.5946 43.8011 12.2379 45.3532 10.6698ZM40.4635 19.4998C41.8343 20.8804 42.8752 22.4828 43.566 24.2729C43.5238 24.3046 43.482 24.3364 43.4402 24.3686C40.943 26.2874 39.0193 28.9206 37.9393 31.8708C37.3841 31.8139 36.8208 31.7846 36.251 31.7846C30.1517 31.7846 24.8132 35.126 21.9472 40.0855C21.6023 39.7993 21.2704 39.4956 20.9535 39.1764C15.567 33.7515 15.567 24.9246 20.9535 19.4996C23.5597 16.875 27.0241 15.4294 30.7085 15.4294C34.393 15.4294 37.8574 16.8751 40.4635 19.4998ZM2.99517 12.5652C5.50092 12.2178 12.4979 11.6412 16.1464 15.3042C16.9813 16.1423 17.6502 17.223 18.1401 18.5231C15.6337 21.47 14.3177 25.0976 14.1922 28.7591C11.3231 28.644 7.90838 27.9786 5.72294 25.7845C2.08072 22.1276 2.6523 15.0804 2.99517 12.5652ZM15.7321 46.3586C10.5942 46.5075 5.9064 41.2519 4.33123 39.2778C5.69915 37.3479 9.6245 32.3915 14.3369 31.6188C14.8099 35.0906 16.3687 38.4397 19.0132 41.1031C19.5578 41.6515 20.1399 42.1617 20.752 42.6276C20.4657 43.4002 20.2349 44.1998 20.0645 45.0216C18.5821 45.8672 17.1271 46.3166 15.7321 46.3586ZM36.251 62.3364C28.6414 62.3364 22.4505 56.097 22.4505 48.4277C22.4505 40.7584 28.6414 34.519 36.251 34.519C43.8607 34.519 50.0516 40.7584 50.0516 48.4277C50.0516 56.097 43.8607 62.3364 36.251 62.3364ZM53.4652 51.5134C53.1456 51.5134 52.8257 51.5023 52.507 51.4803C52.6901 50.4905 52.7858 49.4701 52.7858 48.4277C52.7858 40.79 47.648 34.3374 40.6684 32.3878C42.7538 27.2065 47.8298 23.6959 53.4652 23.6959C61.0749 23.6959 67.2658 29.9354 67.2658 37.6047C67.2658 45.2739 61.0749 51.5134 53.4652 51.5134Z" fill="#1A62D6"/>
<path d="M62.2849 37.6046L63.0981 36.7858C63.63 36.25 63.627 35.3843 63.0912 34.8523C62.5553 34.3202 61.6898 34.3232 61.1579 34.8592L60.3586 35.6643L59.5592 34.8592C59.0271 34.3236 58.1616 34.3207 57.6259 34.8523C57.0901 35.3843 57.0871 36.25 57.619 36.7858L58.4322 37.6046L57.619 38.4235C57.0871 38.9593 57.0901 39.8249 57.6259 40.357C57.8926 40.6218 58.2409 40.7539 58.5891 40.7539C58.9406 40.7539 59.2921 40.6192 59.5592 40.35L60.3586 39.545L61.1579 40.35C61.4252 40.6192 61.7765 40.7539 62.128 40.7539C62.4762 40.7539 62.8247 40.6215 63.0912 40.357C63.627 39.8249 63.63 38.9593 63.0981 38.4235L62.2849 37.6046Z" fill="#1A62D6"/>
<path d="M38.9839 52.6179C38.4481 52.0855 37.5825 52.0888 37.0505 52.6247L36.2512 53.4298L35.4518 52.6247C34.9198 52.0891 34.0543 52.0861 33.5185 52.6179C32.9827 53.1497 32.9797 54.0155 33.5117 54.5512L34.3247 55.3701L33.5117 56.189C32.9797 56.7248 32.9827 57.5904 33.5185 58.1224C33.7851 58.3873 34.1336 58.5194 34.4818 58.5194C34.8332 58.5194 35.1846 58.3847 35.4518 58.1155L36.2512 57.3104L37.0505 58.1155C37.3178 58.3847 37.6691 58.5194 38.0206 58.5194C38.3688 58.5194 38.7173 58.387 38.9839 58.1224C39.5196 57.5904 39.5227 56.7248 38.9907 56.189L38.1777 55.3701L38.9907 54.5512C39.5227 54.0155 39.5196 53.1498 38.9839 52.6179Z" fill="#1A62D6"/>
</g>
<defs>
<clipPath id="clip0_53_17">
<rect width="70" height="70" fill="white"/>
</clipPath>
</defs>
</svg>
