<svg width="127" height="127" viewBox="0 0 127 127" fill="none" xmlns="http://www.w3.org/2000/svg">
<g clip-path="url(#clip0_2003_8)">
<mask id="mask0_2003_8" style="mask-type:luminance" maskUnits="userSpaceOnUse" x="1" y="2" width="123" height="123">
<path d="M19.3928 19.9867C-4.45448 43.834 -4.45448 82.5956 19.3928 106.443C43.2402 130.29 82.0018 130.29 105.849 106.443C129.696 82.5956 129.696 43.834 105.849 19.9867C93.8866 8.02422 78.2732 2.04297 62.5821 2.04297C46.891 2.04297 31.3553 8.1019 19.3928 19.9867Z" fill="white"/>
</mask>
<g mask="url(#mask0_2003_8)">
<path d="M-68.6169 66.2055L62.6598 -64.9937L193.859 66.2055L62.6598 197.482L-68.6169 66.2055Z" fill="url(#paint0_linear_2003_8)"/>
</g>
<mask id="mask1_2003_8" style="mask-type:luminance" maskUnits="userSpaceOnUse" x="-21" y="-34" width="164" height="171">
<path d="M142.125 -34H-21V136.893H142.125V-34Z" fill="white"/>
</mask>
<g mask="url(#mask1_2003_8)">
<path d="M96.3723 71.3323C97.6151 63.0984 92.7991 54.8645 84.6428 52.1457C75.5545 49.1162 65.6893 54.0877 62.6598 63.1761C59.6304 72.2645 49.7652 77.2359 40.6768 74.2064C32.5205 71.4877 27.7044 63.3314 28.9473 55.1752C29.1803 54.243 29.4134 53.2332 29.8018 52.3011C30.1125 51.3689 30.5009 50.3591 30.8893 49.5046C37.8803 33.1145 56.4455 24.5698 73.6125 30.318C90.7794 36.0662 100.567 54.01 96.3723 71.3323Z" fill="#C3353A"/>
</g>
<mask id="mask2_2003_8" style="mask-type:luminance" maskUnits="userSpaceOnUse" x="-21" y="-17" width="174" height="154">
<path d="M153 -16.9106H-21V136.893H153V-16.9106Z" fill="white"/>
</mask>
<g mask="url(#mask2_2003_8)">
<path d="M95.5955 74.2062C95.2848 75.1383 94.9741 76.0705 94.5857 76.9249C87.5946 93.3151 69.0295 101.937 51.7848 96.1892C34.5402 90.5187 24.8303 72.5749 28.9473 55.2526C27.7045 63.4865 32.5206 71.5651 40.6768 74.2839C49.8429 77.3133 59.6304 72.3419 62.6598 63.2535C65.6893 54.1651 75.5545 49.1937 84.6429 52.2231C92.7991 54.9419 97.6152 63.1758 96.3723 71.4098C96.1393 72.2642 95.9062 73.274 95.5955 74.2062Z" fill="#283D9A"/>
</g>
<mask id="mask3_2003_8" style="mask-type:luminance" maskUnits="userSpaceOnUse" x="-1" y="0" width="127" height="127">
<path d="M43.0071 105.977C42.6964 106.754 42.308 107.686 41.9196 108.618L41.2982 110.094L43.2402 110.871C43.7839 111.104 44.3277 111.181 44.7937 111.259C45.2598 111.259 45.6482 111.181 45.9589 110.871C46.2696 110.638 46.5803 110.172 46.8134 109.628C46.9687 109.239 47.0464 108.929 47.0464 108.618C47.0464 108.54 47.0464 108.54 47.0464 108.463C47.0464 108.152 46.9687 107.841 46.7357 107.608C46.5804 107.375 46.3473 107.142 46.1143 106.987C45.8813 106.831 45.5705 106.676 45.3375 106.598L43.0071 105.666C43.0848 105.822 43.0071 105.899 43.0071 105.977ZM28.1705 96.9662C27.5491 97.1215 26.9277 97.3546 26.3839 97.6653C25.7625 98.0537 25.2188 98.5198 24.7527 99.0635C24.2866 99.6073 23.8982 100.229 23.5875 100.85C23.2768 101.472 23.1214 102.093 23.0437 102.714C23.0437 102.87 23.0437 102.947 23.0437 103.103C23.0437 103.647 23.1214 104.113 23.3544 104.579C23.5875 105.2 23.9759 105.744 24.5973 106.288C25.1411 106.831 25.7625 107.142 26.3839 107.297C27.0053 107.453 27.6268 107.453 28.2482 107.375C28.8696 107.22 29.4911 106.987 30.0348 106.598C30.5786 106.21 31.1223 105.822 31.5884 105.2C32.1321 104.656 32.5205 104.035 32.7536 103.414C33.0643 102.792 33.2196 102.171 33.2196 101.549C33.2196 101.472 33.2196 101.394 33.2196 101.316C33.2196 100.772 33.142 100.229 32.9089 99.7626C32.6759 99.1412 32.2875 98.5974 31.7438 98.1314C31.2 97.6653 30.5785 97.2769 29.9571 97.1216C29.5687 97.0439 29.1804 96.9662 28.8696 96.9662C28.6366 96.8885 28.4035 96.8885 28.1705 96.9662ZM102.276 88.3439L107.17 93.7814L109.5 90.1305L102.509 88.1109L102.276 88.3439ZM35.8607 14.3939C35.2393 14.4716 34.6178 14.6269 33.9964 15.0153C33.375 15.4037 32.8313 15.8698 32.5205 16.4135C32.1321 16.9573 31.9768 17.5787 31.8991 18.2001C31.8991 18.4332 31.8991 18.5885 31.8991 18.8216C31.8991 19.2876 31.9768 19.7537 32.0544 20.2198C32.2098 20.9189 32.5205 21.5403 32.9089 22.1617C33.2973 22.7832 33.6857 23.3269 34.2294 23.793C34.7732 24.2591 35.317 24.5698 35.8607 24.8805C36.4821 25.1135 37.1035 25.1912 37.725 25.1912C38.3464 25.1135 39.0455 24.9582 39.6669 24.4921C40.2884 24.1037 40.8321 23.6376 41.1428 23.0939C41.4536 22.5501 41.6866 21.9287 41.7643 21.3073C41.7643 21.1519 41.7643 20.9189 41.7643 20.7635C41.7643 20.2975 41.6866 19.8314 41.6089 19.3653C41.4535 18.6662 41.1428 18.0448 40.7544 17.4234C40.3661 16.8019 39.9 16.1805 39.3562 15.7144C38.8125 15.2484 38.2687 14.9376 37.725 14.7046C37.2589 14.5493 36.7152 14.3939 36.2491 14.3939C36.0937 14.3939 36.0161 14.3939 35.8607 14.3939ZM83.8661 19.443L87.6723 21.5403L89.2259 14.3939L88.9928 14.2385L83.8661 19.443ZM53.7268 8.02425L51.2411 8.41264C51.2411 8.49032 51.241 8.64567 51.3187 8.72335C51.4741 9.57782 51.6295 10.51 51.7848 11.5198L52.0178 13.0734L54.0375 12.7626C54.6589 12.685 55.125 12.5296 55.5134 12.2966C55.9018 12.0635 56.2125 11.7528 56.3678 11.3644C56.4455 11.1314 56.5232 10.8207 56.5232 10.51C56.5232 10.2769 56.5232 10.1216 56.4455 9.88853C56.3679 9.42246 56.2125 9.03407 56.0571 8.80104C55.9018 8.568 55.6687 8.33495 55.358 8.17959C55.125 8.02424 54.8143 7.94657 54.5036 7.94657C54.4259 7.94657 54.3482 7.94657 54.2705 7.94657C54.1152 8.02425 53.8821 8.02425 53.7268 8.02425ZM63.4366 117.24L65.3009 112.114C65.6116 111.259 65.9223 110.405 66.233 109.55C66.5437 108.696 66.8544 107.764 67.2428 106.754L71.0491 106.676C71.2044 107.608 71.2821 108.54 71.4375 109.395C71.5928 110.249 71.6705 111.259 71.8259 112.269L72.6027 117.862C72.758 118.872 72.9134 119.804 72.9911 120.658C73.1464 121.513 73.2241 122.367 73.3794 123.222L69.7285 123.299C69.5732 122.134 69.4178 121.047 69.2625 119.959C69.1071 118.949 68.9518 117.939 68.8741 117.007L68.3303 113.046H68.0973L66.6991 117.318C66.3884 118.405 66.0776 119.415 65.6893 120.425C65.3785 121.435 65.0679 122.445 64.7571 123.299L62.1937 123.377C61.9607 122.833 61.7277 122.212 61.4946 121.513C61.2616 120.891 60.9509 120.192 60.7179 119.493C60.4071 118.794 60.1741 118.095 59.9411 117.473L58.2321 113.279H57.9991L57.6107 117.24C57.533 118.172 57.3777 119.182 57.3 120.192C57.2223 121.28 57.067 122.367 56.9893 123.532L53.416 123.61C53.4937 122.756 53.6491 121.823 53.7268 120.969C53.8045 120.114 53.9598 119.182 54.0375 118.172L54.6589 112.58C54.8143 111.57 54.8919 110.638 54.9696 109.705C55.0473 108.851 55.125 107.919 55.2804 106.909L59.1643 106.831C59.5527 107.764 59.941 108.696 60.2518 109.55C60.5625 110.405 60.9509 111.259 61.2616 112.114L63.3589 117.163L63.4366 117.24ZM34.6178 117.007C34.9285 116.153 35.2393 115.376 35.55 114.599C35.8607 113.822 36.1714 112.968 36.5598 111.958L38.5795 106.676C38.9679 105.666 39.3562 104.812 39.6669 103.957C39.9776 103.18 40.2884 102.326 40.6768 101.472C41.1429 101.627 41.6866 101.86 42.308 102.093C42.9294 102.326 43.6286 102.637 44.4054 102.87C45.1045 103.181 45.8812 103.414 46.5803 103.724C47.8232 104.19 48.833 104.812 49.6098 105.433C50.3866 106.055 50.8527 106.754 51.008 107.608C51.2411 108.463 51.0857 109.395 50.6196 110.56C50.2312 111.492 49.7652 112.191 49.1437 112.735C48.5223 113.279 47.7455 113.667 46.8134 113.745C46.5027 113.745 46.1143 113.745 45.7259 113.745L46.3473 116.386C46.5027 117.007 46.658 117.629 46.8134 118.328C46.9687 119.027 47.1241 119.726 47.2795 120.347C47.4348 120.969 47.5902 121.59 47.6679 122.056L43.6286 120.503C43.4732 119.726 43.3178 119.027 43.1625 118.328C43.0071 117.629 42.8518 116.93 42.7741 116.308L42.2304 113.434L40.3661 112.735L40.133 113.434C39.7446 114.366 39.4339 115.298 39.1232 116.075C38.8125 116.852 38.5018 117.629 38.1911 118.483L34.6178 117.007ZM85.1089 116.153C85.808 115.842 86.2741 115.454 86.5848 115.065C86.8955 114.599 87.0509 114.056 86.9732 113.512C86.9732 112.89 86.7402 112.269 86.4294 111.492L84.7205 107.375C84.3321 106.365 83.9437 105.511 83.5553 104.734C83.2446 103.957 82.8562 103.103 82.5455 102.326L86.041 100.85C86.4294 101.705 86.7401 102.481 87.0509 103.258C87.3616 104.035 87.75 104.967 88.216 105.899C88.4491 106.443 88.6821 106.987 88.9152 107.608C89.1482 108.152 89.3812 108.696 89.5366 109.162C89.7696 109.628 89.8473 110.016 90.0027 110.249C90.5464 111.492 90.7794 112.735 90.7018 113.822C90.6241 114.91 90.2357 115.92 89.5366 116.852C88.8375 117.784 87.6723 118.483 86.1964 119.182C84.6428 119.881 83.2446 120.114 82.0795 120.037C80.9143 119.959 79.9045 119.493 79.1277 118.794C78.3509 118.017 77.6518 117.085 77.108 115.764C77.0303 115.454 76.875 115.143 76.642 114.677C76.4089 114.211 76.2536 113.667 76.0205 113.123C75.7875 112.58 75.5544 112.036 75.3214 111.492C74.933 110.482 74.5446 109.628 74.1562 108.851C73.8455 108.074 73.4571 107.22 73.1464 106.443L76.642 104.967C77.0303 105.822 77.3411 106.598 77.6518 107.375C77.9625 108.152 78.3509 109.084 78.8169 110.016L80.6035 114.133C80.9143 114.832 81.3027 115.454 81.6911 115.842C82.0795 116.308 82.6232 116.541 83.1669 116.619C83.3223 116.619 83.4 116.619 83.5553 116.619C84.0991 116.464 84.5651 116.308 85.1089 116.153ZM96.217 110.405C95.6732 109.783 95.0518 109.084 94.3527 108.23L90.7018 103.957C90.0027 103.18 89.3813 102.404 88.8375 101.782C88.2938 101.161 87.6723 100.462 87.1286 99.7626L90.0803 97.2769C90.7018 97.976 91.2455 98.6751 91.7893 99.2965C92.333 99.918 92.9544 100.695 93.6535 101.472L96.916 105.278C97.5375 106.055 98.1589 106.676 98.7026 107.297L100.179 106.055C100.8 105.511 101.344 105.045 101.81 104.656C102.276 104.268 102.742 103.88 103.13 103.569C103.519 103.258 103.907 102.87 104.373 102.559L106.548 105.122L98.0036 112.424C97.3045 111.725 96.7607 111.026 96.217 110.405ZM26.6946 110.871C25.2188 110.56 23.8205 109.861 22.4223 108.618C21.3348 107.608 20.4803 106.598 20.0143 105.511C19.4705 104.423 19.2375 103.336 19.2375 102.326C19.2375 101.316 19.4705 100.229 19.8589 99.2189C20.2473 98.2091 20.8688 97.2769 21.6455 96.4225C22.733 95.1796 23.8982 94.3251 25.2964 93.7814C26.6169 93.2376 28.0152 93.0823 29.4911 93.393C30.9669 93.626 32.3651 94.4028 33.841 95.7233C34.9285 96.6555 35.7054 97.6653 36.2491 98.7528C36.7929 99.8403 37.0259 100.85 37.0259 101.938C37.0259 103.025 36.7929 104.035 36.4045 105.045C36.0161 106.055 35.3946 106.987 34.6178 107.919C33.5303 109.162 32.2875 110.016 30.967 110.56C30.1125 110.948 29.1804 111.104 28.2482 111.104C27.7045 111.026 27.2384 110.948 26.6946 110.871ZM107.558 99.6849C106.937 98.9082 106.237 98.1314 105.694 97.4323L101.887 92.7716C101.188 91.9171 100.567 91.218 100.023 90.5189C99.4794 89.8198 98.9357 89.1984 98.3142 88.4993L100.955 84.3046C101.81 84.5376 102.742 84.7707 103.519 84.926C104.373 85.159 105.305 85.3921 106.315 85.6251L112.141 87.101C113.073 87.3341 114.083 87.5671 115.015 87.8001C116.025 88.0332 116.957 88.2662 117.889 88.4993L115.792 91.8394C114.937 91.6064 114.005 91.2957 113.073 91.0626C112.84 90.985 112.607 90.9073 112.296 90.8296L109.112 95.8787C109.267 96.1118 109.422 96.2671 109.655 96.4225C110.277 97.1993 110.898 97.8984 111.52 98.5975L109.5 101.86C108.879 101.239 108.257 100.462 107.558 99.6849ZM7.81872 88.8099C8.5955 88.3439 9.37231 87.9555 10.0714 87.4894C10.7705 87.101 11.625 86.6349 12.4794 86.0912L17.3732 83.2948C18.3054 82.751 19.1598 82.2849 19.8589 81.8189C20.6357 81.4305 21.4125 80.9644 22.1893 80.4984L27.6268 89.8975L24.8303 91.451C24.4419 90.8296 24.0536 90.1305 23.6652 89.4314C23.2768 88.7323 22.8107 87.8778 22.267 86.9457L21.3348 85.2367H21.2571C20.4804 85.6251 19.7036 86.1689 18.7714 86.7127L18.0723 87.101L19.0821 88.8099C19.5482 89.6644 20.0143 90.4412 20.4027 91.0626C20.791 91.6841 21.1018 92.3055 21.4902 92.9269L18.8491 94.4805C18.4607 93.8591 18.15 93.2376 17.7616 92.6162C17.3732 91.9948 16.9848 91.218 16.4411 90.3635L15.4313 88.6546L14.4214 89.276C13.4893 89.8198 12.7125 90.2858 12.0134 90.6742C11.3143 91.0626 10.5375 91.5287 9.76068 91.9948L7.81872 88.8099ZM22.5 63.2537C22.5 41.1153 40.4437 23.1716 62.5821 23.1716C84.7205 23.1716 102.664 41.1153 102.664 63.2537C102.664 85.3921 84.7205 103.336 62.5821 103.336C40.4437 103.336 22.5 85.3921 22.5 63.2537ZM20.4804 32.0269L19.7036 28.9198C19.5482 28.143 19.3152 27.4439 19.1598 26.6671C19.0045 25.968 18.7714 25.1135 18.5384 24.1037L21.2571 20.6858C21.4902 21.7733 21.7232 22.8609 21.9562 23.9484C22.1893 25.0359 22.4223 26.1234 22.6554 27.1332L23.3544 30.318L27.1607 30.4734C27.9375 30.4734 28.792 30.551 29.6464 30.551C30.5009 30.6287 31.3553 30.6287 32.2098 30.7064C33.0643 30.7841 33.7634 30.7841 34.3848 30.7841L31.5107 34.3573C30.5785 34.2796 29.8018 34.2796 28.9473 34.2019C28.1705 34.1242 27.3937 34.1242 26.6169 34.0466L22.8107 33.8135L22.3446 34.435L23.6652 35.5225C24.4419 36.1439 25.2187 36.7653 25.8402 37.3091C26.4616 37.8528 27.1607 38.3966 27.8598 38.9403L25.4518 41.8921C24.7527 41.3484 24.0536 40.8046 23.4321 40.2609C22.8107 39.7171 22.0339 39.1733 21.2571 38.4742L16.8295 34.9787C15.975 34.2796 15.2759 33.7359 14.5768 33.1921C13.8777 32.6484 13.1785 32.1046 12.4794 31.5608L14.8875 28.5314C15.5866 29.0751 16.2857 29.6966 16.9848 30.1626C17.6839 30.7064 18.383 31.3278 19.2375 31.9492L19.9366 32.493L20.4804 32.0269ZM90.2357 30.4734C90.9348 29.8519 91.5562 29.3082 92.2553 28.7644C92.8768 28.2207 93.5759 27.5992 94.4303 26.9778L98.7026 23.3269C99.4794 22.6278 100.256 22.0064 100.878 21.4626C101.499 20.9189 102.198 20.2975 102.897 19.7537L105.072 22.3171C104.684 23.6376 104.373 24.8805 104.062 26.0457C103.752 27.2108 103.441 28.376 103.13 29.6189L101.887 34.2019L102.043 34.435L105.538 31.4832C106.393 30.7841 107.092 30.1626 107.713 29.6189C108.335 29.0751 109.034 28.4537 109.733 27.91L112.063 30.6287C111.364 31.2501 110.665 31.7939 110.044 32.3376C109.345 32.8814 108.646 33.5028 107.791 34.2019L103.519 37.8528C102.742 38.5519 102.043 39.1733 101.344 39.7171C100.722 40.2608 100.023 40.8046 99.4018 41.426L97.2268 38.9403C97.5375 37.8528 97.8482 36.6876 98.1589 35.5225C98.4696 34.3573 98.7803 33.0367 99.1687 31.6385L100.412 26.9778L100.256 26.7448L96.6054 29.8519C95.8286 30.551 95.1294 31.1725 94.4303 31.7162C93.8089 32.26 93.1098 32.8037 92.4884 33.4251L90.2357 30.4734ZM34.2294 28.2984C33.2196 27.9876 32.2875 27.4439 31.433 26.7448C30.5786 26.0457 29.8794 25.1912 29.3357 24.1814C28.4812 22.7832 28.0152 21.385 27.9375 19.9091C27.7821 18.4332 28.0928 17.1126 28.7919 15.7921C29.491 14.4716 30.6562 13.3841 32.2875 12.3743C33.5303 11.5975 34.6955 11.2091 35.8607 10.976C37.0259 10.8207 38.1134 10.8984 39.1232 11.2091C40.133 11.5198 41.0652 12.0635 41.9196 12.7626C42.7741 13.4618 43.4732 14.3162 44.0946 15.4037C44.9491 16.8019 45.4151 18.2778 45.4928 19.676C45.5705 21.1519 45.2598 22.4725 44.5607 23.793C43.8616 25.1135 42.6964 26.201 41.1428 27.1332C39.8223 27.91 38.6571 28.376 37.4143 28.5314C37.0259 28.6091 36.6375 28.6091 36.2491 28.6091C35.6277 28.6091 34.9285 28.4537 34.2294 28.2984ZM75.8652 22.3171C76.5643 21.6957 77.2634 20.9966 78.0402 20.2975C78.8169 19.5983 79.516 18.8992 80.2152 18.2778L84.5652 14.1609C85.342 13.3841 86.0411 12.7626 86.7402 12.1412C87.3616 11.5198 87.983 10.976 88.6821 10.3546L93.0321 12.685C92.8768 13.5394 92.7214 14.4716 92.5661 15.326C92.4107 16.1805 92.2553 17.1126 92.0223 18.2001L90.9348 24.1037C90.7794 25.0358 90.5464 26.0457 90.3911 27.0555C90.2357 28.0653 90.0027 28.9974 89.8473 29.9296L86.3518 28.0653C86.5848 27.2108 86.7402 26.2787 86.9732 25.3466C87.0509 25.1135 87.0509 24.8028 87.1286 24.5698L81.8464 21.6957C81.6911 21.851 81.458 22.0841 81.3027 22.2394C80.6036 22.9385 79.9044 23.6376 79.283 24.2591L75.8652 22.3171ZM49.2214 19.9091C49.0661 19.0546 48.9107 18.1225 48.7553 17.1126L47.9009 11.5198C47.7455 10.4323 47.5901 9.50013 47.4348 8.64567C47.2794 7.79121 47.1241 6.93675 47.0464 6.0046C47.5125 5.92692 48.1339 5.84925 48.833 5.69389C49.5321 5.61622 50.2312 5.46086 51.008 5.38318C51.7848 5.22783 52.5616 5.15015 53.3384 4.99479C54.6589 4.76176 55.8241 4.76175 56.8339 4.91711C57.8437 5.07247 58.6205 5.46086 59.1643 6.08229C59.7857 6.70372 60.1741 7.63586 60.3295 8.80104C60.4848 9.73318 60.4071 10.5876 60.1741 11.4421C59.9411 12.2189 59.3973 12.918 58.6982 13.5394C58.4651 13.7725 58.0768 13.9278 57.7661 14.0832L59.5527 16.0251C60.0187 16.4912 60.4071 16.9573 60.9509 17.501C61.4169 18.0448 61.883 18.5109 62.3491 18.9769C62.8152 19.443 63.2036 19.9091 63.592 20.2975L59.3196 20.9966C58.7759 20.3751 58.3098 19.8314 57.8437 19.3653C57.3777 18.8993 56.9116 18.2778 56.4455 17.8118L54.5036 15.5591L52.5616 15.8698L52.6393 16.5689C52.7946 17.5787 52.95 18.5109 53.1054 19.3653C53.2607 20.2198 53.3384 21.0742 53.4938 21.9287L49.7651 22.5501C49.5321 21.618 49.3768 20.7635 49.2214 19.9091ZM64.3688 20.6858C64.5241 19.8314 64.6795 18.9769 64.7571 18.1225C64.9125 17.268 65.0678 16.3359 65.2232 15.326L66.1553 9.73317C66.3107 8.64567 66.466 7.71354 66.6214 6.85907C66.7768 6.00461 66.9321 5.15015 67.0875 4.21801L77.9625 6.0046L77.4187 9.11175C76.7196 8.95639 75.9428 8.87871 75.166 8.72335C74.3893 8.568 73.3794 8.41263 72.2919 8.25728L70.2723 7.94657C70.2723 8.02425 70.2723 8.02426 70.2723 8.10193C70.1169 8.9564 69.9616 9.88853 69.8063 10.976L69.7285 11.5975L71.8259 11.9859C72.8357 12.1412 73.6902 12.2966 74.467 12.4519C75.1661 12.6073 75.8651 12.685 76.5642 12.7626L76.0982 15.6367C75.3991 15.4814 74.7 15.4037 73.9232 15.2483C73.2241 15.093 72.3696 15.0153 71.3598 14.86L69.2625 14.4716L69.1071 15.326C68.9518 16.3359 68.7964 17.268 68.6411 18.1225V18.2001L70.9714 18.5885C71.9036 18.7439 72.758 18.8993 73.5348 18.9769C74.3893 19.1323 75.1661 19.2876 75.8652 19.3653L75.3214 22.4725L64.3688 20.6858ZM-0.415192 63.2537C-0.415192 98.0537 27.7821 126.329 62.6598 126.329C97.5375 126.329 125.735 98.1314 125.735 63.2537C125.735 28.376 97.4598 0.178711 62.6598 0.178711C27.8598 0.178711 -0.415192 28.4537 -0.415192 63.2537Z" fill="white"/>
</mask>
<g mask="url(#mask3_2003_8)">
<path d="M35.55 -56.6821L182.596 36.1438L89.7696 183.189L-57.3536 90.3634L35.55 -56.6821Z" fill="url(#paint1_linear_2003_8)"/>
</g>
<mask id="mask4_2003_8" style="mask-type:luminance" maskUnits="userSpaceOnUse" x="26" y="26" width="74" height="74">
<path d="M28.4813 63.2536C28.4813 44.3777 43.7839 29.075 62.6598 29.075C81.5357 29.075 96.8384 44.3777 96.8384 63.2536C96.8384 82.1295 81.5357 97.4321 62.6598 97.4321C43.7839 97.4321 28.4813 82.1295 28.4813 63.2536ZM26.1509 63.2536C26.1509 83.3723 42.5411 99.7625 62.6598 99.7625C82.7786 99.7625 99.1688 83.3723 99.1688 63.2536C99.1688 43.1348 82.7786 26.7446 62.6598 26.7446C42.5411 26.7446 26.1509 43.1348 26.1509 63.2536Z" fill="white"/>
</mask>
<g mask="url(#mask4_2003_8)">
<path d="M46.9688 -6.26855L132.104 47.5627L78.3509 132.776L-6.86249 78.9448L46.9688 -6.26855Z" fill="url(#paint2_linear_2003_8)"/>
</g>
</g>
<defs>
<linearGradient id="paint0_linear_2003_8" x1="20.8688" y1="107.965" x2="107.339" y2="21.4944" gradientUnits="userSpaceOnUse">
<stop stop-color="#1A62D6"/>
<stop offset="1" stop-color="#25408E"/>
</linearGradient>
<linearGradient id="paint1_linear_2003_8" x1="6.21476" y1="27.6277" x2="129.972" y2="105.769" gradientUnits="userSpaceOnUse">
<stop stop-color="#B07908"/>
<stop offset="0.0944135" stop-color="#F4E07A"/>
<stop offset="0.1972" stop-color="#C0943A"/>
<stop offset="0.338" stop-color="#F4E07A"/>
<stop offset="0.3508" stop-color="#EFD974"/>
<stop offset="0.4235" stop-color="#D5B354"/>
<stop offset="0.4821" stop-color="#C69C41"/>
<stop offset="0.519" stop-color="#C0943A"/>
<stop offset="0.6441" stop-color="#F4E07A"/>
<stop offset="0.7559" stop-color="#C0943A"/>
<stop offset="0.8721" stop-color="#E8CF6C"/>
<stop offset="0.9525" stop-color="#F4E07A"/>
<stop offset="1" stop-color="#B07908"/>
</linearGradient>
<linearGradient id="paint2_linear_2003_8" x1="6.21479" y1="27.6218" x2="129.972" y2="105.763" gradientUnits="userSpaceOnUse">
<stop stop-color="#B07908"/>
<stop offset="0.0944135" stop-color="#F4E07A"/>
<stop offset="0.1972" stop-color="#C0943A"/>
<stop offset="0.338" stop-color="#F4E07A"/>
<stop offset="0.3508" stop-color="#EFD974"/>
<stop offset="0.4235" stop-color="#D5B354"/>
<stop offset="0.4821" stop-color="#C69C41"/>
<stop offset="0.519" stop-color="#C0943A"/>
<stop offset="0.6441" stop-color="#F4E07A"/>
<stop offset="0.7559" stop-color="#C0943A"/>
<stop offset="0.8721" stop-color="#E8CF6C"/>
<stop offset="0.9525" stop-color="#F4E07A"/>
<stop offset="1" stop-color="#B07908"/>
</linearGradient>
<clipPath id="clip0_2003_8">
<rect width="127" height="127" fill="white"/>
</clipPath>
</defs>
</svg>
