<svg width="97" height="35" viewBox="0 0 97 35" fill="none" xmlns="http://www.w3.org/2000/svg">
<mask id="path-1-outside-1_10_118" maskUnits="userSpaceOnUse" x="0" y="0" width="97" height="35" fill="black">
<rect fill="white" width="97" height="35"/>
<path d="M13.4362 19.624H18.2242V27.22H13.4362V19.624ZM15.8482 2.56C22.9762 2.56 28.3042 6.196 28.3042 11.74C28.3042 17.356 22.9762 20.956 15.8482 20.956C8.72022 20.956 3.39222 17.356 3.39222 11.74C3.39222 6.196 8.72022 2.56 15.8482 2.56ZM15.8482 6.34C11.2762 6.34 8.10822 8.356 8.10822 11.74C8.10822 15.196 11.2762 17.176 15.8482 17.176C20.4202 17.176 23.5882 15.196 23.5882 11.74C23.5882 8.356 20.4202 6.34 15.8482 6.34ZM0.800219 26.464H30.9682V30.352H0.800219V26.464ZM40.6494 20.128H45.4374V34.24H40.6494V20.128ZM52.1694 20.128H56.9934V34.24H52.1694V20.128ZM57.2454 9.832V13.468L36.8694 14.476L36.2934 10.444L57.2454 9.832ZM37.4094 2.632H58.2894V6.412H37.4094V2.632ZM33.9174 18.292H64.0494V22.144H33.9174V18.292ZM56.1294 2.632H60.7374V5.62C60.7374 9.328 60.7374 13.432 59.4414 19.372L54.7974 18.832C56.1294 13.216 56.1294 9.22 56.1294 5.62V2.632ZM81.0746 9.976H86.1506V13.756H81.0746V9.976ZM90.8666 0.868H95.4026V25.78H90.8666V0.868ZM84.3506 1.48H88.8146V25.024H84.3506V1.48ZM73.2266 29.812H96.2666V33.628H73.2266V29.812ZM73.2266 23.152H78.0146V32.404H73.2266V23.152ZM68.2946 17.356H70.5626C75.3146 17.356 78.3746 17.284 82.0106 16.672L82.4426 20.38C78.6626 21.064 75.4946 21.136 70.5626 21.136H68.2946V17.356ZM68.2946 3.424H80.8586V7.24H72.9026V18.616H68.2946V3.424ZM71.5346 10.408H79.6346V14.044H71.5346V10.408Z"/>
</mask>
<path d="M13.4362 19.624H18.2242V27.22H13.4362V19.624ZM15.8482 2.56C22.9762 2.56 28.3042 6.196 28.3042 11.74C28.3042 17.356 22.9762 20.956 15.8482 20.956C8.72022 20.956 3.39222 17.356 3.39222 11.74C3.39222 6.196 8.72022 2.56 15.8482 2.56ZM15.8482 6.34C11.2762 6.34 8.10822 8.356 8.10822 11.74C8.10822 15.196 11.2762 17.176 15.8482 17.176C20.4202 17.176 23.5882 15.196 23.5882 11.74C23.5882 8.356 20.4202 6.34 15.8482 6.34ZM0.800219 26.464H30.9682V30.352H0.800219V26.464ZM40.6494 20.128H45.4374V34.24H40.6494V20.128ZM52.1694 20.128H56.9934V34.24H52.1694V20.128ZM57.2454 9.832V13.468L36.8694 14.476L36.2934 10.444L57.2454 9.832ZM37.4094 2.632H58.2894V6.412H37.4094V2.632ZM33.9174 18.292H64.0494V22.144H33.9174V18.292ZM56.1294 2.632H60.7374V5.62C60.7374 9.328 60.7374 13.432 59.4414 19.372L54.7974 18.832C56.1294 13.216 56.1294 9.22 56.1294 5.62V2.632ZM81.0746 9.976H86.1506V13.756H81.0746V9.976ZM90.8666 0.868H95.4026V25.78H90.8666V0.868ZM84.3506 1.48H88.8146V25.024H84.3506V1.48ZM73.2266 29.812H96.2666V33.628H73.2266V29.812ZM73.2266 23.152H78.0146V32.404H73.2266V23.152ZM68.2946 17.356H70.5626C75.3146 17.356 78.3746 17.284 82.0106 16.672L82.4426 20.38C78.6626 21.064 75.4946 21.136 70.5626 21.136H68.2946V17.356ZM68.2946 3.424H80.8586V7.24H72.9026V18.616H68.2946V3.424ZM71.5346 10.408H79.6346V14.044H71.5346V10.408Z" fill="white"/>
<path d="M13.4362 19.624V19.124H12.9362V19.624H13.4362ZM18.2242 19.624H18.7242V19.124H18.2242V19.624ZM18.2242 27.22V27.72H18.7242V27.22H18.2242ZM13.4362 27.22H12.9362V27.72H13.4362V27.22ZM0.800219 26.464V25.964H0.300219V26.464H0.800219ZM30.9682 26.464H31.4682V25.964H30.9682V26.464ZM30.9682 30.352V30.852H31.4682V30.352H30.9682ZM0.800219 30.352H0.300219V30.852H0.800219V30.352ZM13.4362 20.124H18.2242V19.124H13.4362V20.124ZM17.7242 19.624V27.22H18.7242V19.624H17.7242ZM18.2242 26.72H13.4362V27.72H18.2242V26.72ZM13.9362 27.22V19.624H12.9362V27.22H13.9362ZM15.8482 3.06C19.3331 3.06 22.3378 3.94951 24.4569 5.47664C26.5657 6.99632 27.8042 9.14768 27.8042 11.74H28.8042C28.8042 8.78832 27.3788 6.34968 25.0415 4.66536C22.7147 2.98849 19.4914 2.06 15.8482 2.06V3.06ZM27.8042 11.74C27.8042 14.3701 26.5641 16.5298 24.4569 18.0484C22.3385 19.575 19.3341 20.456 15.8482 20.456V21.456C19.4903 21.456 22.714 20.537 25.0415 18.8596C27.3804 17.1742 28.8042 14.7259 28.8042 11.74H27.8042ZM15.8482 20.456C12.3623 20.456 9.35795 19.575 7.23954 18.0484C5.13238 16.5298 3.89222 14.3701 3.89222 11.74H2.89222C2.89222 14.7259 4.31606 17.1742 6.65489 18.8596C8.98249 20.537 12.2061 21.456 15.8482 21.456V20.456ZM3.89222 11.74C3.89222 9.14768 5.13077 6.99632 7.23954 5.47664C9.35865 3.94951 12.3634 3.06 15.8482 3.06V2.06C12.2051 2.06 8.98179 2.98849 6.65489 4.66536C4.31767 6.34968 2.89222 8.78832 2.89222 11.74H3.89222ZM15.8482 5.84C13.497 5.84 11.4539 6.35723 9.9826 7.35751C8.49435 8.36932 7.60822 9.86824 7.60822 11.74H8.60822C8.60822 10.2278 9.30609 9.02667 10.5448 8.18449C11.8006 7.33077 13.6275 6.84 15.8482 6.84V5.84ZM7.60822 11.74C7.60822 13.6446 8.4916 15.1538 9.9826 16.1675C11.455 17.1685 13.4988 17.676 15.8482 17.676V16.676C13.6257 16.676 11.7995 16.1935 10.5448 15.3405C9.30884 14.5002 8.60822 13.2914 8.60822 11.74H7.60822ZM15.8482 17.676C18.1977 17.676 20.2415 17.1685 21.7138 16.1675C23.2048 15.1538 24.0882 13.6446 24.0882 11.74H23.0882C23.0882 13.2914 22.3876 14.5002 21.1516 15.3405C19.897 16.1935 18.0708 16.676 15.8482 16.676V17.676ZM24.0882 11.74C24.0882 9.86824 23.2021 8.36932 21.7138 7.35751C20.2426 6.35723 18.1995 5.84 15.8482 5.84V6.84C18.069 6.84 19.8959 7.33077 21.1516 8.18449C22.3904 9.02667 23.0882 10.2278 23.0882 11.74H24.0882ZM0.800219 26.964H30.9682V25.964H0.800219V26.964ZM30.4682 26.464V30.352H31.4682V26.464H30.4682ZM30.9682 29.852H0.800219V30.852H30.9682V29.852ZM1.30022 30.352V26.464H0.300219V30.352H1.30022ZM40.6494 20.128V19.628H40.1494V20.128H40.6494ZM45.4374 20.128H45.9374V19.628H45.4374V20.128ZM45.4374 34.24V34.74H45.9374V34.24H45.4374ZM40.6494 34.24H40.1494V34.74H40.6494V34.24ZM52.1694 20.128V19.628H51.6694V20.128H52.1694ZM56.9934 20.128H57.4934V19.628H56.9934V20.128ZM56.9934 34.24V34.74H57.4934V34.24H56.9934ZM52.1694 34.24H51.6694V34.74H52.1694V34.24ZM57.2454 9.832H57.7454V9.31718L57.2308 9.33221L57.2454 9.832ZM57.2454 13.468L57.2701 13.9674L57.7454 13.9439V13.468H57.2454ZM36.8694 14.476L36.3744 14.5467L36.4389 14.9979L36.8941 14.9754L36.8694 14.476ZM36.2934 10.444L36.2788 9.94421L35.7193 9.96056L35.7984 10.5147L36.2934 10.444ZM37.4094 2.632V2.132H36.9094V2.632H37.4094ZM58.2894 2.632H58.7894V2.132H58.2894V2.632ZM58.2894 6.412V6.912H58.7894V6.412H58.2894ZM37.4094 6.412H36.9094V6.912H37.4094V6.412ZM33.9174 18.292V17.792H33.4174V18.292H33.9174ZM64.0494 18.292H64.5494V17.792H64.0494V18.292ZM64.0494 22.144V22.644H64.5494V22.144H64.0494ZM33.9174 22.144H33.4174V22.644H33.9174V22.144ZM56.1294 2.632V2.132H55.6294V2.632H56.1294ZM60.7374 2.632H61.2374V2.132H60.7374V2.632ZM59.4414 19.372L59.3837 19.8687L59.8334 19.9209L59.9299 19.4786L59.4414 19.372ZM54.7974 18.832L54.3109 18.7166L54.1811 19.2637L54.7397 19.3287L54.7974 18.832ZM40.6494 20.628H45.4374V19.628H40.6494V20.628ZM44.9374 20.128V34.24H45.9374V20.128H44.9374ZM45.4374 33.74H40.6494V34.74H45.4374V33.74ZM41.1494 34.24V20.128H40.1494V34.24H41.1494ZM52.1694 20.628H56.9934V19.628H52.1694V20.628ZM56.4934 20.128V34.24H57.4934V20.128H56.4934ZM56.9934 33.74H52.1694V34.74H56.9934V33.74ZM52.6694 34.24V20.128H51.6694V34.24H52.6694ZM56.7454 9.832V13.468H57.7454V9.832H56.7454ZM57.2207 12.9686L36.8447 13.9766L36.8941 14.9754L57.2701 13.9674L57.2207 12.9686ZM37.3644 14.4053L36.7884 10.3733L35.7984 10.5147L36.3744 14.5467L37.3644 14.4053ZM36.308 10.9438L57.26 10.3318L57.2308 9.33221L36.2788 9.94421L36.308 10.9438ZM37.4094 3.132H58.2894V2.132H37.4094V3.132ZM57.7894 2.632V6.412H58.7894V2.632H57.7894ZM58.2894 5.912H37.4094V6.912H58.2894V5.912ZM37.9094 6.412V2.632H36.9094V6.412H37.9094ZM33.9174 18.792H64.0494V17.792H33.9174V18.792ZM63.5494 18.292V22.144H64.5494V18.292H63.5494ZM64.0494 21.644H33.9174V22.644H64.0494V21.644ZM34.4174 22.144V18.292H33.4174V22.144H34.4174ZM56.1294 3.132H60.7374V2.132H56.1294V3.132ZM60.2374 2.632V5.62H61.2374V2.632H60.2374ZM60.2374 5.62C60.2374 9.31939 60.2371 13.3796 58.9529 19.2654L59.9299 19.4786C61.2377 13.4844 61.2374 9.3366 61.2374 5.62H60.2374ZM59.4992 18.8753L54.8552 18.3353L54.7397 19.3287L59.3837 19.8687L59.4992 18.8753ZM55.2839 18.9474C56.6299 13.2723 56.6294 9.22815 56.6294 5.62H55.6294C55.6294 9.21184 55.6289 13.1597 54.3109 18.7166L55.2839 18.9474ZM56.6294 5.62V2.632H55.6294V5.62H56.6294ZM81.0746 9.976V9.476H80.5746V9.976H81.0746ZM86.1506 9.976H86.6506V9.476H86.1506V9.976ZM86.1506 13.756V14.256H86.6506V13.756H86.1506ZM81.0746 13.756H80.5746V14.256H81.0746V13.756ZM90.8666 0.868V0.368H90.3666V0.868H90.8666ZM95.4026 0.868H95.9026V0.368H95.4026V0.868ZM95.4026 25.78V26.28H95.9026V25.78H95.4026ZM90.8666 25.78H90.3666V26.28H90.8666V25.78ZM84.3506 1.48V0.979998H83.8506V1.48H84.3506ZM88.8146 1.48H89.3146V0.979998H88.8146V1.48ZM88.8146 25.024V25.524H89.3146V25.024H88.8146ZM84.3506 25.024H83.8506V25.524H84.3506V25.024ZM73.2266 29.812V29.312H72.7266V29.812H73.2266ZM96.2666 29.812H96.7666V29.312H96.2666V29.812ZM96.2666 33.628V34.128H96.7666V33.628H96.2666ZM73.2266 33.628H72.7266V34.128H73.2266V33.628ZM73.2266 23.152V22.652H72.7266V23.152H73.2266ZM78.0146 23.152H78.5146V22.652H78.0146V23.152ZM78.0146 32.404V32.904H78.5146V32.404H78.0146ZM73.2266 32.404H72.7266V32.904H73.2266V32.404ZM68.2946 17.356V16.856H67.7946V17.356H68.2946ZM82.0106 16.672L82.5072 16.6141L82.4464 16.0916L81.9276 16.1789L82.0106 16.672ZM82.4426 20.38L82.5316 20.872L82.9936 20.7884L82.9392 20.3221L82.4426 20.38ZM68.2946 21.136H67.7946V21.636H68.2946V21.136ZM68.2946 3.424V2.924H67.7946V3.424H68.2946ZM80.8586 3.424H81.3586V2.924H80.8586V3.424ZM80.8586 7.24V7.74H81.3586V7.24H80.8586ZM72.9026 7.24V6.74H72.4026V7.24H72.9026ZM72.9026 18.616V19.116H73.4026V18.616H72.9026ZM68.2946 18.616H67.7946V19.116H68.2946V18.616ZM71.5346 10.408V9.908H71.0346V10.408H71.5346ZM79.6346 10.408H80.1346V9.908H79.6346V10.408ZM79.6346 14.044V14.544H80.1346V14.044H79.6346ZM71.5346 14.044H71.0346V14.544H71.5346V14.044ZM81.0746 10.476H86.1506V9.476H81.0746V10.476ZM85.6506 9.976V13.756H86.6506V9.976H85.6506ZM86.1506 13.256H81.0746V14.256H86.1506V13.256ZM81.5746 13.756V9.976H80.5746V13.756H81.5746ZM90.8666 1.368H95.4026V0.368H90.8666V1.368ZM94.9026 0.868V25.78H95.9026V0.868H94.9026ZM95.4026 25.28H90.8666V26.28H95.4026V25.28ZM91.3666 25.78V0.868H90.3666V25.78H91.3666ZM84.3506 1.98H88.8146V0.979998H84.3506V1.98ZM88.3146 1.48V25.024H89.3146V1.48H88.3146ZM88.8146 24.524H84.3506V25.524H88.8146V24.524ZM84.8506 25.024V1.48H83.8506V25.024H84.8506ZM73.2266 30.312H96.2666V29.312H73.2266V30.312ZM95.7666 29.812V33.628H96.7666V29.812H95.7666ZM96.2666 33.128H73.2266V34.128H96.2666V33.128ZM73.7266 33.628V29.812H72.7266V33.628H73.7266ZM73.2266 23.652H78.0146V22.652H73.2266V23.652ZM77.5146 23.152V32.404H78.5146V23.152H77.5146ZM78.0146 31.904H73.2266V32.904H78.0146V31.904ZM73.7266 32.404V23.152H72.7266V32.404H73.7266ZM68.2946 17.856H70.5626V16.856H68.2946V17.856ZM70.5626 17.856C75.3175 17.856 78.4134 17.7845 82.0936 17.1651L81.9276 16.1789C78.3358 16.7835 75.3117 16.856 70.5626 16.856V17.856ZM81.514 16.7299L81.946 20.4379L82.9392 20.3221L82.5072 16.6141L81.514 16.7299ZM82.3536 19.888C78.6213 20.5633 75.4923 20.636 70.5626 20.636V21.636C75.4969 21.636 78.7039 21.5646 82.5316 20.872L82.3536 19.888ZM70.5626 20.636H68.2946V21.636H70.5626V20.636ZM68.7946 21.136V17.356H67.7946V21.136H68.7946ZM68.2946 3.924H80.8586V2.924H68.2946V3.924ZM80.3586 3.424V7.24H81.3586V3.424H80.3586ZM80.8586 6.74H72.9026V7.74H80.8586V6.74ZM72.4026 7.24V18.616H73.4026V7.24H72.4026ZM72.9026 18.116H68.2946V19.116H72.9026V18.116ZM68.7946 18.616V3.424H67.7946V18.616H68.7946ZM71.5346 10.908H79.6346V9.908H71.5346V10.908ZM79.1346 10.408V14.044H80.1346V10.408H79.1346ZM79.6346 13.544H71.5346V14.544H79.6346V13.544ZM72.0346 14.044V10.408H71.0346V14.044H72.0346Z" fill="#1A62D6" mask="url(#path-1-outside-1_10_118)"/>
</svg>
