<svg width="202" height="71" viewBox="0 0 202 71" fill="none" xmlns="http://www.w3.org/2000/svg">
<path d="M26.9604 39.9966H37.0631V56.0242H26.9604V39.9966ZM32.0497 3.9916C47.0898 3.9916 58.3319 11.6636 58.3319 23.3614C58.3319 35.2112 47.0898 42.8072 32.0497 42.8072C17.0097 42.8072 5.76758 35.2112 5.76758 23.3614C5.76758 11.6636 17.0097 3.9916 32.0497 3.9916ZM32.0497 11.9674C22.4028 11.9674 15.7183 16.2212 15.7183 23.3614C15.7183 30.6536 22.4028 34.8314 32.0497 34.8314C41.6967 34.8314 48.3811 30.6536 48.3811 23.3614C48.3811 16.2212 41.6967 11.9674 32.0497 11.9674ZM0.298457 54.429H63.9529V62.6327H0.298457V54.429ZM84.3802 41.0601H94.4829V70.8364H84.3802V41.0601ZM108.687 41.0601H118.866V70.8364H108.687V41.0601ZM119.398 19.3355V27.0075L76.4044 29.1344L75.1891 20.6268L119.398 19.3355ZM77.5438 4.14352H121.601V12.1193H77.5438V4.14352ZM70.1757 37.1861H133.754V45.3138H70.1757V37.1861ZM117.043 4.14352H126.766V10.4482C126.766 18.2721 126.766 26.9315 124.031 39.4649L114.233 38.3255C117.043 26.4758 117.043 18.0442 117.043 10.4482V4.14352ZM169.677 19.6394H180.388V27.6152H169.677V19.6394ZM190.339 0.42148H199.909V52.9858H190.339V0.42148ZM176.59 1.7128H186.009V51.3906H176.59V1.7128ZM153.118 61.4933H201.733V69.5451H153.118V61.4933ZM153.118 47.4407H163.221V66.9624H153.118V47.4407ZM142.712 35.2112H147.497C157.524 35.2112 163.98 35.0592 171.652 33.7679L172.564 41.5918C164.588 43.035 157.904 43.187 147.497 43.187H142.712V35.2112ZM142.712 5.81464H169.222V13.8664H152.434V37.8698H142.712V5.81464ZM149.548 20.5509H166.639V28.2228H149.548V20.5509Z" fill="white" fill-opacity="0.19"/>
</svg>
