<svg width="50" height="50" viewBox="0 0 50 50" fill="none" xmlns="http://www.w3.org/2000/svg">
<g clip-path="url(#clip0_53_85)">
<mask id="path-1-outside-1_53_85" maskUnits="userSpaceOnUse" x="-0.20459" y="-0.999512" width="50" height="52" fill="black">
<rect fill="white" x="-0.20459" y="-0.999512" width="50" height="52"/>
<path d="M45.9562 20.2097C45.7675 14.8939 43.6097 9.92363 39.8289 6.14287C35.868 2.18193 30.6017 0.000488281 25 0.000488281C19.3983 0.000488281 14.132 2.18193 10.1711 6.14287C6.39033 9.92363 4.23252 14.8939 4.04385 20.2097C2.24307 20.2669 0.79541 21.7486 0.79541 23.5632V32.6975C0.79541 34.5481 2.30098 36.0537 4.15166 36.0537H5.43564C7.28633 36.0537 8.79189 34.5481 8.79189 32.6975V23.5632C8.79189 21.7592 7.36113 20.2838 5.5749 20.2104C5.79961 14.4075 8.5792 9.24971 12.8187 5.83184V6.50918C12.8187 9.16455 14.9789 11.3248 17.6343 11.3248H32.3657C35.0211 11.3248 37.1813 9.16455 37.1813 6.50918V5.83184C41.4209 9.24961 44.2005 14.4075 44.4252 20.2104C42.639 20.2838 41.2082 21.7592 41.2082 23.5632V32.6975C41.2082 34.5069 42.6477 35.9855 44.4415 36.0506V39.1313C44.4415 42.4976 41.7029 45.2361 38.3367 45.2361H32.1582C32.1271 45.0753 32.0862 44.9159 32.0354 44.7588C31.4965 43.1101 29.9685 42.0023 28.2332 42.0023C26.0289 42.0023 24.2355 43.7961 24.2355 46.0011C24.2355 48.206 26.0289 49.9998 28.2332 49.9998C30.1765 49.9998 31.7997 48.6062 32.1577 46.766H38.3367C42.5464 46.766 45.9713 43.3411 45.9713 39.1314V36.0507C47.7651 35.9856 49.2046 34.507 49.2046 32.6976V23.5633C49.2046 21.7486 47.7569 20.2669 45.9562 20.2097ZM7.26211 23.5631V32.6974C7.26211 33.7045 6.44277 34.5238 5.43564 34.5238H4.15166C3.14453 34.5238 2.3252 33.7045 2.3252 32.6974V23.5631C2.3252 22.556 3.14453 21.7366 4.15166 21.7366H5.43564C6.44277 21.7366 7.26211 22.556 7.26211 23.5631ZM35.6516 6.50918C35.6516 8.321 34.1775 9.79502 32.3657 9.79502H17.6343C15.8225 9.79502 14.3484 8.321 14.3484 6.50918V4.71621C17.4099 2.70342 21.0702 1.53027 25 1.53027C28.9298 1.53027 32.5901 2.70342 35.6516 4.71621V6.50918ZM28.2331 48.4699C26.8723 48.4699 25.7651 47.3624 25.7651 46.001C25.7651 44.6396 26.8723 43.532 28.2331 43.532C29.3048 43.532 30.2484 44.216 30.5805 45.2319C30.6611 45.4811 30.7021 45.7397 30.7021 46.001C30.7021 47.3624 29.5945 48.4699 28.2331 48.4699ZM47.6748 32.6975C47.6748 33.7046 46.8555 34.5239 45.8483 34.5239H44.5644C43.5572 34.5239 42.7379 33.7046 42.7379 32.6975V23.5632C42.7379 22.5561 43.5572 21.7367 44.5644 21.7367H45.8483C46.8555 21.7367 47.6748 22.5561 47.6748 23.5632V32.6975ZM32.3657 37.6384C35.0211 37.6384 37.1813 35.4781 37.1813 32.8228V23.4379C37.1813 20.7825 35.0211 18.6223 32.3657 18.6223H17.6343C14.9789 18.6223 12.8187 20.7825 12.8187 23.4379V46.0011C12.8187 46.295 12.9871 46.563 13.2521 46.6904C13.3575 46.7411 13.4708 46.766 13.5835 46.766C13.7539 46.766 13.923 46.7091 14.0612 46.5985L23.3483 39.1736C24.5866 38.1836 26.1417 37.6385 27.7271 37.6385H32.3657V37.6384ZM22.393 37.9787L14.3484 44.4102V23.4378C14.3484 21.626 15.8225 20.152 17.6343 20.152H32.3657C34.1775 20.152 35.6516 21.626 35.6516 23.4378V32.8227C35.6516 34.6345 34.1775 36.1085 32.3657 36.1085H27.727C25.7957 36.1086 23.9014 36.7728 22.393 37.9787ZM17.2406 25.4324C17.2406 25.01 17.5831 24.6676 18.0055 24.6676H31.9769C32.3993 24.6676 32.7417 25.0101 32.7417 25.4324C32.7417 25.8549 32.3992 26.1973 31.9769 26.1973H18.0056C17.5831 26.1973 17.2406 25.8548 17.2406 25.4324ZM27.8276 30.8281C27.8276 31.2506 27.4852 31.593 27.0628 31.593H18.0056C17.5831 31.593 17.2407 31.2505 17.2407 30.8281C17.2407 30.4057 17.5832 30.0633 18.0056 30.0633H27.0628C27.4853 30.0633 27.8276 30.4058 27.8276 30.8281ZM32.7418 30.8281C32.7418 31.2506 32.3993 31.593 31.977 31.593C31.5545 31.593 31.2121 31.2505 31.2121 30.8281C31.2121 30.4057 31.5546 30.0633 31.977 30.0633C32.3993 30.0633 32.7418 30.4057 32.7418 30.8281Z"/>
</mask>
<path d="M45.9562 20.2097C45.7675 14.8939 43.6097 9.92363 39.8289 6.14287C35.868 2.18193 30.6017 0.000488281 25 0.000488281C19.3983 0.000488281 14.132 2.18193 10.1711 6.14287C6.39033 9.92363 4.23252 14.8939 4.04385 20.2097C2.24307 20.2669 0.79541 21.7486 0.79541 23.5632V32.6975C0.79541 34.5481 2.30098 36.0537 4.15166 36.0537H5.43564C7.28633 36.0537 8.79189 34.5481 8.79189 32.6975V23.5632C8.79189 21.7592 7.36113 20.2838 5.5749 20.2104C5.79961 14.4075 8.5792 9.24971 12.8187 5.83184V6.50918C12.8187 9.16455 14.9789 11.3248 17.6343 11.3248H32.3657C35.0211 11.3248 37.1813 9.16455 37.1813 6.50918V5.83184C41.4209 9.24961 44.2005 14.4075 44.4252 20.2104C42.639 20.2838 41.2082 21.7592 41.2082 23.5632V32.6975C41.2082 34.5069 42.6477 35.9855 44.4415 36.0506V39.1313C44.4415 42.4976 41.7029 45.2361 38.3367 45.2361H32.1582C32.1271 45.0753 32.0862 44.9159 32.0354 44.7588C31.4965 43.1101 29.9685 42.0023 28.2332 42.0023C26.0289 42.0023 24.2355 43.7961 24.2355 46.0011C24.2355 48.206 26.0289 49.9998 28.2332 49.9998C30.1765 49.9998 31.7997 48.6062 32.1577 46.766H38.3367C42.5464 46.766 45.9713 43.3411 45.9713 39.1314V36.0507C47.7651 35.9856 49.2046 34.507 49.2046 32.6976V23.5633C49.2046 21.7486 47.7569 20.2669 45.9562 20.2097ZM7.26211 23.5631V32.6974C7.26211 33.7045 6.44277 34.5238 5.43564 34.5238H4.15166C3.14453 34.5238 2.3252 33.7045 2.3252 32.6974V23.5631C2.3252 22.556 3.14453 21.7366 4.15166 21.7366H5.43564C6.44277 21.7366 7.26211 22.556 7.26211 23.5631ZM35.6516 6.50918C35.6516 8.321 34.1775 9.79502 32.3657 9.79502H17.6343C15.8225 9.79502 14.3484 8.321 14.3484 6.50918V4.71621C17.4099 2.70342 21.0702 1.53027 25 1.53027C28.9298 1.53027 32.5901 2.70342 35.6516 4.71621V6.50918ZM28.2331 48.4699C26.8723 48.4699 25.7651 47.3624 25.7651 46.001C25.7651 44.6396 26.8723 43.532 28.2331 43.532C29.3048 43.532 30.2484 44.216 30.5805 45.2319C30.6611 45.4811 30.7021 45.7397 30.7021 46.001C30.7021 47.3624 29.5945 48.4699 28.2331 48.4699ZM47.6748 32.6975C47.6748 33.7046 46.8555 34.5239 45.8483 34.5239H44.5644C43.5572 34.5239 42.7379 33.7046 42.7379 32.6975V23.5632C42.7379 22.5561 43.5572 21.7367 44.5644 21.7367H45.8483C46.8555 21.7367 47.6748 22.5561 47.6748 23.5632V32.6975ZM32.3657 37.6384C35.0211 37.6384 37.1813 35.4781 37.1813 32.8228V23.4379C37.1813 20.7825 35.0211 18.6223 32.3657 18.6223H17.6343C14.9789 18.6223 12.8187 20.7825 12.8187 23.4379V46.0011C12.8187 46.295 12.9871 46.563 13.2521 46.6904C13.3575 46.7411 13.4708 46.766 13.5835 46.766C13.7539 46.766 13.923 46.7091 14.0612 46.5985L23.3483 39.1736C24.5866 38.1836 26.1417 37.6385 27.7271 37.6385H32.3657V37.6384ZM22.393 37.9787L14.3484 44.4102V23.4378C14.3484 21.626 15.8225 20.152 17.6343 20.152H32.3657C34.1775 20.152 35.6516 21.626 35.6516 23.4378V32.8227C35.6516 34.6345 34.1775 36.1085 32.3657 36.1085H27.727C25.7957 36.1086 23.9014 36.7728 22.393 37.9787ZM17.2406 25.4324C17.2406 25.01 17.5831 24.6676 18.0055 24.6676H31.9769C32.3993 24.6676 32.7417 25.0101 32.7417 25.4324C32.7417 25.8549 32.3992 26.1973 31.9769 26.1973H18.0056C17.5831 26.1973 17.2406 25.8548 17.2406 25.4324ZM27.8276 30.8281C27.8276 31.2506 27.4852 31.593 27.0628 31.593H18.0056C17.5831 31.593 17.2407 31.2505 17.2407 30.8281C17.2407 30.4057 17.5832 30.0633 18.0056 30.0633H27.0628C27.4853 30.0633 27.8276 30.4058 27.8276 30.8281ZM32.7418 30.8281C32.7418 31.2506 32.3993 31.593 31.977 31.593C31.5545 31.593 31.2121 31.2505 31.2121 30.8281C31.2121 30.4057 31.5546 30.0633 31.977 30.0633C32.3993 30.0633 32.7418 30.4057 32.7418 30.8281Z" fill="#1A62D6"/>
<path d="M45.9562 20.2097C45.7675 14.8939 43.6097 9.92363 39.8289 6.14287C35.868 2.18193 30.6017 0.000488281 25 0.000488281C19.3983 0.000488281 14.132 2.18193 10.1711 6.14287C6.39033 9.92363 4.23252 14.8939 4.04385 20.2097C2.24307 20.2669 0.79541 21.7486 0.79541 23.5632V32.6975C0.79541 34.5481 2.30098 36.0537 4.15166 36.0537H5.43564C7.28633 36.0537 8.79189 34.5481 8.79189 32.6975V23.5632C8.79189 21.7592 7.36113 20.2838 5.5749 20.2104C5.79961 14.4075 8.5792 9.24971 12.8187 5.83184V6.50918C12.8187 9.16455 14.9789 11.3248 17.6343 11.3248H32.3657C35.0211 11.3248 37.1813 9.16455 37.1813 6.50918V5.83184C41.4209 9.24961 44.2005 14.4075 44.4252 20.2104C42.639 20.2838 41.2082 21.7592 41.2082 23.5632V32.6975C41.2082 34.5069 42.6477 35.9855 44.4415 36.0506V39.1313C44.4415 42.4976 41.7029 45.2361 38.3367 45.2361H32.1582C32.1271 45.0753 32.0862 44.9159 32.0354 44.7588C31.4965 43.1101 29.9685 42.0023 28.2332 42.0023C26.0289 42.0023 24.2355 43.7961 24.2355 46.0011C24.2355 48.206 26.0289 49.9998 28.2332 49.9998C30.1765 49.9998 31.7997 48.6062 32.1577 46.766H38.3367C42.5464 46.766 45.9713 43.3411 45.9713 39.1314V36.0507C47.7651 35.9856 49.2046 34.507 49.2046 32.6976V23.5633C49.2046 21.7486 47.7569 20.2669 45.9562 20.2097ZM7.26211 23.5631V32.6974C7.26211 33.7045 6.44277 34.5238 5.43564 34.5238H4.15166C3.14453 34.5238 2.3252 33.7045 2.3252 32.6974V23.5631C2.3252 22.556 3.14453 21.7366 4.15166 21.7366H5.43564C6.44277 21.7366 7.26211 22.556 7.26211 23.5631ZM35.6516 6.50918C35.6516 8.321 34.1775 9.79502 32.3657 9.79502H17.6343C15.8225 9.79502 14.3484 8.321 14.3484 6.50918V4.71621C17.4099 2.70342 21.0702 1.53027 25 1.53027C28.9298 1.53027 32.5901 2.70342 35.6516 4.71621V6.50918ZM28.2331 48.4699C26.8723 48.4699 25.7651 47.3624 25.7651 46.001C25.7651 44.6396 26.8723 43.532 28.2331 43.532C29.3048 43.532 30.2484 44.216 30.5805 45.2319C30.6611 45.4811 30.7021 45.7397 30.7021 46.001C30.7021 47.3624 29.5945 48.4699 28.2331 48.4699ZM47.6748 32.6975C47.6748 33.7046 46.8555 34.5239 45.8483 34.5239H44.5644C43.5572 34.5239 42.7379 33.7046 42.7379 32.6975V23.5632C42.7379 22.5561 43.5572 21.7367 44.5644 21.7367H45.8483C46.8555 21.7367 47.6748 22.5561 47.6748 23.5632V32.6975ZM32.3657 37.6384C35.0211 37.6384 37.1813 35.4781 37.1813 32.8228V23.4379C37.1813 20.7825 35.0211 18.6223 32.3657 18.6223H17.6343C14.9789 18.6223 12.8187 20.7825 12.8187 23.4379V46.0011C12.8187 46.295 12.9871 46.563 13.2521 46.6904C13.3575 46.7411 13.4708 46.766 13.5835 46.766C13.7539 46.766 13.923 46.7091 14.0612 46.5985L23.3483 39.1736C24.5866 38.1836 26.1417 37.6385 27.7271 37.6385H32.3657V37.6384ZM22.393 37.9787L14.3484 44.4102V23.4378C14.3484 21.626 15.8225 20.152 17.6343 20.152H32.3657C34.1775 20.152 35.6516 21.626 35.6516 23.4378V32.8227C35.6516 34.6345 34.1775 36.1085 32.3657 36.1085H27.727C25.7957 36.1086 23.9014 36.7728 22.393 37.9787ZM17.2406 25.4324C17.2406 25.01 17.5831 24.6676 18.0055 24.6676H31.9769C32.3993 24.6676 32.7417 25.0101 32.7417 25.4324C32.7417 25.8549 32.3992 26.1973 31.9769 26.1973H18.0056C17.5831 26.1973 17.2406 25.8548 17.2406 25.4324ZM27.8276 30.8281C27.8276 31.2506 27.4852 31.593 27.0628 31.593H18.0056C17.5831 31.593 17.2407 31.2505 17.2407 30.8281C17.2407 30.4057 17.5832 30.0633 18.0056 30.0633H27.0628C27.4853 30.0633 27.8276 30.4058 27.8276 30.8281ZM32.7418 30.8281C32.7418 31.2506 32.3993 31.593 31.977 31.593C31.5545 31.593 31.2121 31.2505 31.2121 30.8281C31.2121 30.4057 31.5546 30.0633 31.977 30.0633C32.3993 30.0633 32.7418 30.4057 32.7418 30.8281Z" stroke="#1A62D6" stroke-width="0.4" mask="url(#path-1-outside-1_53_85)"/>
</g>
<defs>
<clipPath id="clip0_53_85">
<rect width="50" height="50" fill="white"/>
</clipPath>
</defs>
</svg>
