<svg width="52" height="36" viewBox="0 0 52 36" fill="none" xmlns="http://www.w3.org/2000/svg">
<path d="M45.7827 28.0562V4.56315C45.7827 4.34143 45.6946 4.12879 45.5379 3.97201C45.3811 3.81523 45.1684 3.72715 44.9467 3.72715H7.05328C6.83155 3.72715 6.61891 3.81523 6.46213 3.97201C6.30535 4.12879 6.21728 4.34143 6.21728 4.56315V28.0562C6.21728 28.278 6.30535 28.4906 6.46213 28.6474C6.61891 28.8042 6.83155 28.8922 7.05328 28.8922H44.9467C45.1684 28.8922 45.3811 28.8042 45.5379 28.6474C45.6946 28.4906 45.7827 28.278 45.7827 28.0562ZM44.1107 27.2202H7.88927V5.39747H44.1107V27.2202Z" fill="#1A62D6" stroke="#1A62D6" stroke-width="0.2"/>
<path d="M50.264 30.0477H48.6111V3.62941V3.62931C48.6104 2.90567 48.3226 2.21186 47.8109 1.70016C47.2992 1.18847 46.6054 0.900694 45.8817 0.9H45.8817L6.11835 0.9L6.11825 0.9C5.39461 0.900694 4.7008 1.18847 4.1891 1.70016C3.67741 2.21186 3.38963 2.90567 3.38894 3.62931V3.62941V30.0477H1.736H1.73594C1.51428 30.0478 1.30172 30.1359 1.14498 30.2927C0.988239 30.4494 0.900127 30.6619 0.9 30.8836V30.8837L0.9 32.7052L0.9 32.7053C0.900809 33.4287 1.18853 34.1222 1.70004 34.6337C2.21155 35.1452 2.90507 35.4329 3.62846 35.4337H3.62857H48.3714H48.3715C49.095 35.433 49.7885 35.1453 50.3001 34.6338C50.8116 34.1223 51.0993 33.4287 51.1 32.7053V32.7052V30.8837C51.1 30.6619 51.0119 30.4493 50.8551 30.2925C50.6984 30.1357 50.4857 30.0477 50.264 30.0477ZM46.9391 30.0477H31.528C31.3063 30.0477 31.0936 30.1357 30.9368 30.2925C30.7801 30.4493 30.692 30.6619 30.692 30.8837V31.1769H21.308V30.8837V30.8836C21.3079 30.6619 21.2198 30.4494 21.063 30.2927C20.9063 30.1359 20.6937 30.0478 20.4721 30.0477H20.472H5.06094V3.62948C5.06114 3.34908 5.17262 3.08023 5.37089 2.88195C5.56916 2.68368 5.83802 2.5722 6.11842 2.572H45.8816C46.162 2.5722 46.4308 2.68368 46.6291 2.88195C46.8274 3.08023 46.9389 3.34908 46.9391 3.62948V30.0477ZM49.428 32.7051C49.4277 32.9852 49.3163 33.2538 49.1182 33.4519C48.9201 33.65 48.6515 33.7614 48.3713 33.7617H3.62871C3.34858 33.7613 3.08004 33.6499 2.88195 33.4518C2.68389 33.2537 2.57243 32.9852 2.572 32.7051C2.572 32.7051 2.572 32.705 2.572 32.705L2.572 31.7197H19.636V32.0129C19.636 32.2346 19.7241 32.4473 19.8809 32.604C20.0377 32.7608 20.2503 32.8489 20.472 32.8489H31.528C31.7497 32.8489 31.9623 32.7608 32.1191 32.604C32.2759 32.4473 32.364 32.2346 32.364 32.0129V31.7197H49.428V32.7051Z" fill="#1A62D6" stroke="#1A62D6" stroke-width="0.2"/>
</svg>
