<svg width="50" height="50" viewBox="0 0 50 50" fill="none" xmlns="http://www.w3.org/2000/svg">
<g clip-path="url(#clip0_53_55)">
<path d="M24.8214 50.0999C24.9459 50.0992 25.0688 50.0722 25.1821 50.0206L25.1829 50.0202L47.9173 39.4109L47.919 39.41C48.0646 39.3387 48.1878 39.2285 48.2749 39.0917C48.3619 38.9549 48.4096 38.7967 48.4125 38.6345V38.6327L48.4125 12.0702L48.4125 12.069C48.4105 11.911 48.3661 11.7565 48.2839 11.6217C48.2017 11.4868 48.0848 11.3765 47.9454 11.3023L47.9454 11.3022L47.943 11.301L25.2008 -0.0115019L25.2008 -0.0115079L25.1998 -0.0120099C25.0802 -0.0697606 24.9492 -0.0997559 24.8164 -0.0997559C24.6836 -0.0997559 24.5526 -0.0697605 24.4331 -0.0120102L24.4331 -0.012025L24.4314 -0.0112095L2.05644 11.3013L2.05643 11.3013L2.05457 11.3023C1.91516 11.3765 1.79826 11.4868 1.71609 11.6217C1.63393 11.7566 1.58952 11.911 1.58751 12.0689H1.5875V12.0702L1.58748 38.3827L1.58752 38.3845C1.59038 38.5433 1.63611 38.6984 1.71988 38.8334C1.80365 38.9684 1.92234 39.0782 2.06339 39.1512L2.06572 39.1524L24.4456 50.0103C24.4461 50.0105 24.4466 50.0108 24.4471 50.0111C24.5625 50.0715 24.6912 50.102 24.8214 50.0999ZM24.8214 50.0999C24.8212 50.0999 24.821 50.0999 24.8208 50.0999L24.8203 49.9999L24.822 50.0999C24.8218 50.0999 24.8216 50.0999 24.8214 50.0999ZM24.829 48.3266L3.30312 37.8748V12.5615L24.8206 1.71331L46.6969 12.6009V38.1081L24.829 48.3266Z" fill="#1A62D6" stroke="#1A62D6" stroke-width="0.2"/>
<path d="M24.8187 24.2407L24.8187 24.2408L24.8226 24.2407C24.9525 24.2378 25.0804 24.208 25.1983 24.1533L25.1984 24.1534L25.2008 24.1521L47.943 12.8318L47.9546 12.8261L47.9643 12.8176C48.1113 12.6889 48.2114 12.5151 48.2489 12.3234C48.2864 12.1316 48.2591 11.9329 48.1713 11.7584C48.0836 11.5838 47.9403 11.4434 47.764 11.3592C47.5878 11.2749 47.3885 11.2517 47.1976 11.293L47.1854 11.2956L47.1742 11.3012L24.8207 22.4195L2.82636 11.3015L2.81493 11.2957L2.80241 11.293C2.61148 11.2517 2.41222 11.2749 2.23596 11.3592C2.05971 11.4434 1.91643 11.5838 1.82867 11.7584C1.7409 11.9329 1.71361 12.1316 1.75109 12.3234C1.78857 12.5151 1.88869 12.6889 2.03572 12.8176L2.0452 12.8259L2.05644 12.8315L24.4309 24.1438C24.431 24.1438 24.431 24.1438 24.4311 24.1439C24.5512 24.2054 24.6838 24.2385 24.8187 24.2407Z" fill="#1A62D6" stroke="#1A62D6" stroke-width="0.2"/>
<path d="M24.8203 50.1V50.1002L25.5547 49.2187H25.6547V49.2187V23.3869C25.6844 23.2608 25.6859 23.1295 25.659 23.0026C25.6313 22.8716 25.5741 22.7485 25.4916 22.6429C25.4092 22.5373 25.3038 22.4519 25.1834 22.3931C25.063 22.3344 24.9308 22.3038 24.7969 22.3038C24.6629 22.3038 24.5307 22.3344 24.4103 22.3931C24.2899 22.4519 24.1845 22.5373 24.1021 22.6429C24.0197 22.7485 23.9624 22.8716 23.9347 23.0026C23.9079 23.1295 23.9094 23.2608 23.9391 23.3869V49.2187C23.9391 49.4525 24.0319 49.6766 24.1972 49.8419C24.3624 50.0071 24.5866 50.1 24.8203 50.1Z" fill="#1A62D6" stroke="#1A62D6" stroke-width="0.2"/>
<path d="M33.9622 28.5609C33.8026 28.5636 33.6457 28.5205 33.51 28.4366L33.5085 28.4358C33.3881 28.3586 33.2883 28.2533 33.2177 28.1289C33.147 28.0046 33.1077 27.8649 33.1032 27.7219L33.1031 27.7202L32.979 19.429L11.0562 8.28445L11.0534 8.28301L11.0534 8.28297C10.8557 8.17445 10.7072 7.99426 10.6383 7.77951C10.5695 7.56475 10.5856 7.33177 10.6833 7.12853L10.6858 7.12329L10.686 7.12337C10.7944 6.92789 10.973 6.7809 11.1857 6.71218C11.3984 6.64346 11.6293 6.65814 11.8316 6.75325L11.8344 6.75457L11.8344 6.75461L34.2172 18.1374L34.2188 18.1382L34.2188 18.1383C34.3557 18.211 34.4709 18.3186 34.5529 18.4501C34.6349 18.5816 34.6808 18.7324 34.6859 18.8873L34.6859 18.8891L34.6859 18.8891L34.8007 26.4059L38.8453 24.4991V16.4668C37.4949 15.7603 36.0455 15.0015 34.5598 14.2239C26.7845 10.1539 18.0188 5.56543 17.2886 5.23249C17.1368 5.17063 17.0053 5.06767 16.9088 4.93516C16.8119 4.80206 16.7542 4.64448 16.7423 4.48026C16.7303 4.31605 16.7647 4.15178 16.8413 4.00607C16.918 3.86036 17.0339 3.73905 17.176 3.65588L17.1817 3.65254L17.1818 3.65274L17.1851 3.6511C17.2345 3.62639 17.2922 3.59755 17.3706 3.58759C17.4501 3.57751 17.5424 3.5874 17.667 3.62158C17.9132 3.68915 18.3162 3.86096 19.0527 4.22069C20.5299 4.9422 23.3794 6.43536 29.0699 9.41924L29.0699 9.41927L40.109 15.2161L40.1115 15.2175L40.1115 15.2175C40.2463 15.2933 40.3588 15.4032 40.4377 15.5362C40.5166 15.6693 40.5591 15.8207 40.5609 15.9754L40.5609 15.9766L40.5609 25V25.0013C40.5588 25.1625 40.5125 25.3201 40.427 25.4568C40.3416 25.5936 40.2202 25.7043 40.0762 25.7768L40.0739 25.778L40.0738 25.778L34.3317 28.4811L34.3294 28.4822L34.3294 28.4821C34.2136 28.5331 34.0887 28.56 33.9622 28.5609ZM33.9622 28.5609C33.962 28.5609 33.9618 28.5609 33.9616 28.5609L33.9609 28.4609L33.9627 28.5609C33.9625 28.5609 33.9623 28.5609 33.9622 28.5609Z" fill="#1A62D6" stroke="#1A62D6" stroke-width="0.2"/>
<path d="M11.6923 34.6767C11.7805 34.7176 11.8743 34.7445 11.9703 34.7568V34.8058L12.0802 34.7949C12.2642 34.7766 12.4378 34.7009 12.5764 34.5786C12.715 34.4562 12.8116 34.2933 12.8525 34.113C12.8934 33.9327 12.8766 33.7441 12.8044 33.5739C12.7323 33.4037 12.6084 33.2605 12.4503 33.1645L12.4506 33.1642L12.4419 33.16L5.47571 29.7978C5.37484 29.7175 5.25753 29.6603 5.13205 29.6303C5.00261 29.5993 4.86782 29.598 4.73782 29.6266C4.60782 29.6551 4.48598 29.7128 4.38144 29.7952C4.2769 29.8776 4.19238 29.9826 4.13423 30.1023C4.07607 30.222 4.0458 30.3534 4.04567 30.4865C4.04554 30.6196 4.07556 30.751 4.13349 30.8708C4.19141 30.9906 4.27573 31.0958 4.38011 31.1784C4.4814 31.2585 4.59905 31.3154 4.72468 31.345L11.6912 34.6762L11.6912 34.6762L11.6923 34.6767Z" fill="#1A62D6" stroke="#1A62D6" stroke-width="0.2"/>
<path d="M8.9993 36.6859L9.00127 36.6859C9.1592 36.6839 9.31368 36.6395 9.44855 36.5573C9.58343 36.4751 9.69375 36.3582 9.76796 36.2188L9.76817 36.2189L9.77097 36.2127C9.86336 36.0062 9.8728 35.7721 9.79733 35.5588C9.72187 35.3456 9.56729 35.1695 9.3656 35.0671L9.36561 35.067L9.36343 35.066L5.31969 33.1337C5.2186 33.0519 5.10061 32.9935 4.97417 32.9627C4.84355 32.9308 4.70738 32.9293 4.57608 32.9582C4.44478 32.9871 4.32183 33.0456 4.21664 33.1293C4.11145 33.2131 4.02681 33.3197 3.9692 33.4412C3.91159 33.5627 3.88253 33.6957 3.88426 33.8301C3.88598 33.9646 3.91844 34.0968 3.97915 34.2168C4.03985 34.3367 4.1272 34.4412 4.2345 34.5222C4.33832 34.6006 4.45814 34.6549 4.58536 34.6815L8.62891 36.6059L8.62889 36.6059L8.63155 36.6071C8.74747 36.6582 8.87262 36.685 8.9993 36.6859Z" fill="#1A62D6" stroke="#1A62D6" stroke-width="0.2"/>
</g>
<defs>
<clipPath id="clip0_53_55">
<rect width="50" height="50" fill="white"/>
</clipPath>
</defs>
</svg>
