<svg width="52" height="52" viewBox="0 0 52 52" fill="none" xmlns="http://www.w3.org/2000/svg">
<g clip-path="url(#clip0_55_21)">
<path d="M7.01868 49.9851C8.54614 50.8183 10.2152 51.2501 11.9126 51.2501C12.8592 51.2501 13.8176 51.1109 14.76 50.8476L14.7632 50.8467C17.3615 50.0825 19.531 48.3585 20.838 45.9808L32.1207 25.5173C33.4269 23.1273 33.7334 20.3871 32.9829 17.774L32.9824 17.7725C32.2182 15.1742 30.4943 13.0048 28.1166 11.6977C25.7265 10.3915 22.9866 10.0852 20.3736 10.8358L20.3721 10.8362C17.7739 11.6004 15.6045 13.3242 14.2975 15.7017C14.2976 15.7016 14.2974 15.7018 14.2975 15.7017L3.01457 36.1655C1.70838 38.5556 1.40188 41.2958 2.15242 43.9088L2.15287 43.9103C2.91707 46.5086 4.64099 48.6781 7.01868 49.9851ZM16.0914 16.689C17.5644 14.0062 20.3397 12.4923 23.2091 12.4923C24.5374 12.4923 25.8791 12.8211 27.1027 13.492C31.0095 15.6496 32.4434 20.583 30.286 24.5031L19.0032 44.9667C17.5302 47.6495 14.7549 49.1634 11.8855 49.1634C10.5695 49.1634 9.22821 48.8476 7.99243 48.164C4.08539 46.0066 2.65118 41.0729 4.80864 37.1526L16.0914 16.689Z" fill="#1A62D6"/>
<path d="M14.2975 15.7017C15.6045 13.3242 17.7739 11.6004 20.3721 10.8362L20.3736 10.8358C22.9866 10.0852 25.7265 10.3915 28.1166 11.6977C30.4943 13.0048 32.2182 15.1742 32.9824 17.7725L32.9829 17.774C33.7334 20.3871 33.4269 23.1273 32.1207 25.5173L20.838 45.9808C19.531 48.3585 17.3615 50.0825 14.7632 50.8467L14.76 50.8476C13.8176 51.1109 12.8592 51.2501 11.9126 51.2501C10.2152 51.2501 8.54614 50.8183 7.01868 49.9851C4.64099 48.6781 2.91707 46.5086 2.15287 43.9103L2.15242 43.9088C1.40188 41.2958 1.70838 38.5556 3.01457 36.1655L14.2975 15.7017ZM14.2975 15.7017C14.2974 15.7018 14.2976 15.7016 14.2975 15.7017ZM16.0914 16.689C17.5644 14.0062 20.3397 12.4923 23.2091 12.4923C24.5374 12.4923 25.8791 12.8211 27.1027 13.492C31.0095 15.6496 32.4434 20.583 30.286 24.5031L19.0032 44.9667C17.5302 47.6495 14.7549 49.1634 11.8855 49.1634C10.5695 49.1634 9.22821 48.8476 7.99243 48.164C4.08539 46.0066 2.65118 41.0729 4.80864 37.1526L16.0914 16.689Z" stroke="#1A62D6" stroke-width="0.5"/>
<path d="M10.0567 34.6845L10.0581 34.6819C10.3246 34.1844 10.1492 33.5564 9.64389 33.2857C9.14687 33.0194 8.51956 33.1942 8.24844 33.6985L5.98485 37.8055C5.98493 37.8054 5.98477 37.8056 5.98485 37.8055C4.16835 41.0729 5.36521 45.2124 8.64551 47.0148C8.81062 47.1064 8.98927 47.1409 9.14612 47.1409C9.50681 47.1409 9.86036 46.944 10.0541 46.6093L10.0581 46.6021C10.3243 46.1052 10.1496 45.478 9.64551 45.2068C7.36605 43.9437 6.53043 41.072 7.79174 38.7939L10.0567 34.6845Z" fill="#1A62D6"/>
<path d="M5.98485 37.8055L8.24844 33.6985C8.51956 33.1942 9.14687 33.0194 9.64389 33.2857C10.1492 33.5564 10.3246 34.1844 10.0581 34.6819L10.0567 34.6845L7.79174 38.7939C6.53043 41.072 7.36605 43.9437 9.64551 45.2068C10.1496 45.478 10.3243 46.1052 10.0581 46.6021L10.0541 46.6093C9.86036 46.944 9.50681 47.1409 9.14612 47.1409C8.98927 47.1409 8.81062 47.1064 8.64551 47.0148C5.36521 45.2124 4.16835 41.0729 5.98485 37.8055ZM5.98485 37.8055C5.98477 37.8056 5.98493 37.8054 5.98485 37.8055Z" stroke="#1A62D6" stroke-width="0.5"/>
<path d="M10.0397 25.5166L10.0371 25.5152C9.53962 25.2487 8.91161 25.4241 8.6409 25.9294C8.37464 26.4264 8.54946 27.0537 9.0537 27.3249C9.05418 27.3251 9.05465 27.3254 9.05512 27.3256L25.0675 36.1521C25.2327 36.2438 25.4117 36.2785 25.5686 36.2785C25.9271 36.2785 26.2861 36.0828 26.4675 35.7389C26.7331 35.242 26.5582 34.6152 26.0542 34.3443C26.0538 34.344 26.0533 34.3438 26.0528 34.3435L10.0397 25.5166Z" fill="#1A62D6" stroke="#1A62D6" stroke-width="0.5"/>
<path d="M36.8373 41.9009C38.087 42.4147 39.4082 42.6793 40.7165 42.6793C42.0508 42.6793 43.3724 42.4154 44.5977 41.8865C47.0996 40.8436 49.0457 38.8828 50.0877 36.3683L50.0881 36.3672C51.1164 33.8521 51.1167 31.0849 50.0739 28.5822L45.5852 17.8011L41.0969 7.0209C41.097 7.02112 41.0968 7.02068 41.0969 7.0209C40.3184 5.13075 38.9974 3.531 37.2872 2.41841C35.6317 1.31967 33.6988 0.75 31.7119 0.75C30.3631 0.75 29.0561 1.01435 27.8062 1.5282L27.8048 1.52877C23.8151 3.19695 21.2985 7.21447 21.5627 11.5387C21.5984 12.1094 22.0823 12.5411 22.6551 12.5053C23.2257 12.4696 23.6569 11.986 23.6213 11.4133C23.4109 7.96789 25.4228 4.77088 28.6068 3.44157C29.608 3.03333 30.6606 2.82309 31.7255 2.82309C35.0013 2.82309 37.9478 4.78299 39.2109 7.82228L43.6997 18.6036L48.1885 29.3847C49.9117 33.5152 47.9518 38.2647 43.8207 39.9882C39.6903 41.7114 34.9409 39.7514 33.2174 35.6203L30.1528 28.2437C29.937 27.7222 29.3293 27.4726 28.8092 27.6879C28.2876 27.9037 28.0381 28.5114 28.2533 29.0316L31.3183 36.4092C32.3611 38.9119 34.3222 40.8587 36.8373 41.9009Z" fill="#1A62D6"/>
<path d="M41.0969 7.0209L45.5852 17.8011L50.0739 28.5822C51.1167 31.0849 51.1164 33.8521 50.0881 36.3672L50.0877 36.3683C49.0457 38.8828 47.0996 40.8436 44.5977 41.8865C43.3724 42.4154 42.0508 42.6793 40.7165 42.6793C39.4082 42.6793 38.087 42.4147 36.8373 41.9009C34.3222 40.8587 32.3611 38.9119 31.3183 36.4092L28.2533 29.0316C28.0381 28.5114 28.2876 27.9037 28.8092 27.6879C29.3293 27.4726 29.937 27.7222 30.1528 28.2437L33.2174 35.6203C34.9409 39.7514 39.6903 41.7114 43.8207 39.9882C47.9518 38.2647 49.9117 33.5152 48.1885 29.3847L43.6997 18.6036L39.2109 7.82228C37.9478 4.78299 35.0013 2.82309 31.7255 2.82309C30.6606 2.82309 29.608 3.03333 28.6068 3.44157C25.4228 4.77088 23.4109 7.96789 23.6213 11.4133C23.6569 11.986 23.2257 12.4696 22.6551 12.5053C22.0823 12.5411 21.5984 12.1094 21.5627 11.5387C21.2985 7.21447 23.8151 3.19695 27.8048 1.52877L27.8062 1.5282C29.0561 1.01435 30.3631 0.75 31.7119 0.75C33.6988 0.75 35.6317 1.31967 37.2872 2.41841C38.9974 3.531 40.3184 5.13075 41.0969 7.0209ZM41.0969 7.0209C41.0968 7.02068 41.097 7.02112 41.0969 7.0209Z" stroke="#1A62D6" stroke-width="0.5"/>
<path d="M32.6608 30.7809L34.4647 35.1074C35.549 37.7123 38.0695 39.289 40.7302 39.289C41.6037 39.289 42.4771 39.1199 43.3214 38.7681C43.8427 38.5521 44.092 37.9446 43.8769 37.4246C43.6611 36.903 43.0534 36.6535 42.5332 36.8687C40.1379 37.8603 37.3683 36.7269 36.3637 34.3184L34.5603 29.993C34.5603 29.9931 34.5603 29.9929 34.5603 29.993C34.3444 29.4717 33.7367 29.222 33.2167 29.4372C32.6951 29.653 32.4456 30.2607 32.6608 30.7809Z" fill="#1A62D6"/>
<path d="M34.5603 29.993L36.3637 34.3184C37.3683 36.7269 40.1379 37.8603 42.5332 36.8687C43.0534 36.6535 43.6611 36.903 43.8769 37.4246C44.092 37.9446 43.8427 38.5521 43.3214 38.7681C42.4771 39.1199 41.6037 39.289 40.7302 39.289C38.0695 39.289 35.549 37.7123 34.4647 35.1074L32.6608 30.7809C32.4456 30.2607 32.6951 29.653 33.2167 29.4372C33.7367 29.222 34.3444 29.4717 34.5603 29.993ZM34.5603 29.993C34.5603 29.9929 34.5603 29.9931 34.5603 29.993Z" stroke="#1A62D6" stroke-width="0.5"/>
<path d="M44.2824 17.2595L31.4671 22.5891C30.9458 22.8049 30.6962 23.4122 30.9111 23.9323C31.074 24.3301 31.4542 24.5618 31.861 24.5618C31.9756 24.5618 32.1202 24.546 32.2565 24.4879C32.2569 24.4877 32.2574 24.4875 32.2578 24.4873L45.0702 19.159C45.0701 19.1591 45.0703 19.159 45.0702 19.159C45.5915 18.9431 45.8413 18.3354 45.626 17.8154C45.4102 17.2938 44.8026 17.0443 44.2824 17.2595Z" fill="#1A62D6"/>
<path d="M45.0702 19.159L32.2578 24.4873C32.2574 24.4875 32.2569 24.4877 32.2565 24.4879C32.1202 24.546 31.9756 24.5618 31.861 24.5618C31.4542 24.5618 31.074 24.3301 30.9111 23.9323C30.6962 23.4122 30.9458 22.8049 31.4671 22.5891L44.2824 17.2595C44.8026 17.0443 45.4102 17.2938 45.626 17.8154C45.8413 18.3354 45.5915 18.9431 45.0702 19.159ZM45.0702 19.159C45.0703 19.159 45.0701 19.1591 45.0702 19.159Z" stroke="#1A62D6" stroke-width="0.5"/>
</g>
<defs>
<clipPath id="clip0_55_21">
<rect width="51" height="52" fill="white" transform="translate(1)"/>
</clipPath>
</defs>
</svg>
