<svg width="52" height="52" viewBox="0 0 52 52" fill="none" xmlns="http://www.w3.org/2000/svg">
<g clip-path="url(#clip0_55_20)">
<path d="M37.7794 16.9315H47.081C47.7299 16.9315 48.256 16.4056 48.256 15.7566V6.20936C48.256 5.56032 47.7299 5.03442 47.081 5.03442H43.3604V2.17494C43.3604 1.5259 42.8343 1 42.1855 1C41.5366 1 41.0105 1.5259 41.0105 2.17494V5.03442H32.6555V2.17494C32.6555 1.5259 32.1294 1 31.4805 1C30.8316 1 30.3056 1.5259 30.3056 2.17494V5.03442H21.9505V2.17494C21.9505 1.5259 21.4245 1 20.7756 1C20.1267 1 19.6007 1.5259 19.6007 2.17494V5.03442H11.2455V2.17494C11.2455 1.5259 10.7194 1 10.0705 1C9.42163 1 8.89557 1.5259 8.89557 2.17494V5.03442H5.17494C4.52606 5.03442 4 5.56032 4 6.20936V15.7566V44.9879C4 48.303 6.69703 51 10.0121 51H42.2437C45.5589 51 48.2558 48.303 48.2558 44.9879V22.2402C48.2558 21.5912 47.7298 21.0653 47.0809 21.0653C46.432 21.0653 45.9059 21.5912 45.9059 22.2402V25.938H37.7793L37.7794 16.9315ZM35.4296 25.938H27.3029V16.9317H35.4296V25.938ZM27.3029 37.2941V28.2878H35.4296V37.2941H27.3029ZM35.4296 39.644V48.6501H27.3029V39.644H35.4296ZM24.953 16.9315V25.9378H16.8264V16.9315H24.953ZM14.4765 25.938H6.34987V16.9317H14.4765V25.938ZM6.34987 28.2878H14.4765V37.2941H6.34987V28.2878ZM16.8264 28.2878H24.953V37.2941H16.8264V28.2878ZM6.34987 7.38429H8.89557V9.35506C8.89557 10.0041 9.42163 10.53 10.0705 10.53C10.7194 10.53 11.2455 10.0041 11.2455 9.35506V7.38429H19.6005V9.35506C19.6005 10.0041 20.1266 10.53 20.7754 10.53C21.4243 10.53 21.9504 10.0041 21.9504 9.35506V7.38429H30.3054V9.35506C30.3054 10.0041 30.8315 10.53 31.4804 10.53C32.1292 10.53 32.6553 10.0041 32.6553 9.35506V7.38429H41.0104V9.35506C41.0104 10.0041 41.5364 10.53 42.1853 10.53C42.8342 10.53 43.3602 10.0041 43.3602 9.35506V7.38429H45.9059V14.5816H6.34972L6.34987 7.38429ZM6.34987 44.9879V39.644H14.4765V45.1123C14.4765 45.7613 15.0026 46.2873 15.6515 46.2873C16.3003 46.2873 16.8264 45.7613 16.8264 45.1123V39.644H24.953V48.6501H10.0121C7.99275 48.6501 6.34987 47.0073 6.34987 44.9879ZM45.9061 28.2878V44.9881C45.9061 47.0074 44.2632 48.6503 42.2439 48.6503H37.7794V39.6442H42.1855C42.8343 39.6442 43.3604 39.1183 43.3604 38.4692C43.3604 37.8202 42.8343 37.2943 42.1855 37.2943H37.7794V28.288L45.9061 28.2878Z" fill="#1A62D6"/>
</g>
<defs>
<clipPath id="clip0_55_20">
<rect width="45" height="50" fill="white" transform="translate(4 1)"/>
</clipPath>
</defs>
</svg>
