<svg width="39" height="37" viewBox="0 0 39 37" fill="none" xmlns="http://www.w3.org/2000/svg">
<g clip-path="url(#clip0_64_10369)">
<path d="M37.7812 19.7106C38.451 19.7106 38.9939 19.1676 38.9939 18.4978C38.9939 17.8279 38.451 17.2849 37.7812 17.2849C37.1114 17.2849 36.5684 17.8279 36.5684 18.4978C36.5684 19.1676 37.1114 19.7106 37.7812 19.7106Z" fill="white"/>
<path d="M35.3761 17.2148C35.9959 17.2148 36.4983 16.7123 36.4983 16.0925C36.4983 15.4727 35.9959 14.9702 35.3761 14.9702C34.7563 14.9702 34.2539 15.4727 34.2539 16.0925C34.2539 16.7123 34.7563 17.2148 35.3761 17.2148Z" fill="white"/>
<path d="M33.1474 14.8952C33.7174 14.8952 34.1795 14.433 34.1795 13.863C34.1795 13.2929 33.7174 12.8308 33.1474 12.8308C32.5773 12.8308 32.1152 13.2929 32.1152 13.863C32.1152 14.433 32.5773 14.8952 33.1474 14.8952Z" fill="white"/>
<path d="M31.133 12.7895C31.653 12.7895 32.0745 12.3679 32.0745 11.8479C32.0745 11.3278 31.653 10.9062 31.133 10.9062C30.613 10.9062 30.1914 11.3278 30.1914 11.8479C30.1914 12.3679 30.613 12.7895 31.133 12.7895Z" fill="white"/>
<path d="M29.1171 10.6841C29.5873 10.6841 29.9685 10.3029 29.9685 9.83258C29.9685 9.36231 29.5873 8.98108 29.1171 8.98108C28.6468 8.98108 28.2656 9.36231 28.2656 9.83258C28.2656 10.3029 28.6468 10.6841 29.1171 10.6841Z" fill="white"/>
<path d="M27.1007 8.57802C27.5209 8.57802 27.8616 8.23734 27.8616 7.81709C27.8616 7.39683 27.5209 7.05615 27.1007 7.05615C26.6805 7.05615 26.3398 7.39683 26.3398 7.81709C26.3398 8.23734 26.6805 8.57802 27.1007 8.57802Z" fill="white"/>
<path d="M25.0868 6.473C25.4573 6.473 25.7576 6.17266 25.7576 5.80217C25.7576 5.43169 25.4573 5.13135 25.0868 5.13135C24.7163 5.13135 24.416 5.43169 24.416 5.80217C24.416 6.17266 24.7163 6.473 25.0868 6.473Z" fill="white"/>
<path d="M23.0724 4.36706C23.3929 4.36706 23.6526 4.10727 23.6526 3.7868C23.6526 3.46633 23.3929 3.20654 23.0724 3.20654C22.752 3.20654 22.4922 3.46633 22.4922 3.7868C22.4922 4.10727 22.752 4.36706 23.0724 4.36706Z" fill="white"/>
<path d="M21.3104 2.51545C21.5811 2.51545 21.8005 2.296 21.8005 2.0253C21.8005 1.7546 21.5811 1.53516 21.3104 1.53516C21.0397 1.53516 20.8203 1.7546 20.8203 2.0253C20.8203 2.296 21.0397 2.51545 21.3104 2.51545Z" fill="white"/>
<path d="M19.6847 0.799164C19.9054 0.799164 20.0843 0.620265 20.0843 0.399582C20.0843 0.178899 19.9054 0 19.6847 0C19.4641 0 19.2852 0.178899 19.2852 0.399582C19.2852 0.620265 19.4641 0.799164 19.6847 0.799164Z" fill="white"/>
<path d="M37.7812 19.7106C38.451 19.7106 38.9939 19.1676 38.9939 18.4978C38.9939 17.8279 38.451 17.2849 37.7812 17.2849C37.1114 17.2849 36.5684 17.8279 36.5684 18.4978C36.5684 19.1676 37.1114 19.7106 37.7812 19.7106Z" fill="white"/>
<path d="M35.3761 22.0248C35.9959 22.0248 36.4983 21.5224 36.4983 20.9026C36.4983 20.2827 35.9959 19.7803 35.3761 19.7803C34.7563 19.7803 34.2539 20.2827 34.2539 20.9026C34.2539 21.5224 34.7563 22.0248 35.3761 22.0248Z" fill="white"/>
<path d="M33.1474 24.1642C33.7174 24.1642 34.1795 23.7021 34.1795 23.132C34.1795 22.562 33.7174 22.0999 33.1474 22.0999C32.5773 22.0999 32.1152 22.562 32.1152 23.132C32.1152 23.7021 32.5773 24.1642 33.1474 24.1642Z" fill="white"/>
<path d="M31.133 26.0888C31.653 26.0888 32.0745 25.6672 32.0745 25.1472C32.0745 24.6271 31.653 24.2056 31.133 24.2056C30.613 24.2056 30.1914 24.6271 30.1914 25.1472C30.1914 25.6672 30.613 26.0888 31.133 26.0888Z" fill="white"/>
<path d="M29.1171 28.0139C29.5873 28.0139 29.9685 27.6327 29.9685 27.1624C29.9685 26.6921 29.5873 26.3109 29.1171 26.3109C28.6468 26.3109 28.2656 26.6921 28.2656 27.1624C28.2656 27.6327 28.6468 28.0139 29.1171 28.0139Z" fill="white"/>
<path d="M27.1007 29.9384C27.5209 29.9384 27.8616 29.5977 27.8616 29.1774C27.8616 28.7572 27.5209 28.4165 27.1007 28.4165C26.6805 28.4165 26.3398 28.7572 26.3398 29.1774C26.3398 29.5977 26.6805 29.9384 27.1007 29.9384Z" fill="white"/>
<path d="M25.0868 31.8637C25.4573 31.8637 25.7576 31.5634 25.7576 31.1929C25.7576 30.8224 25.4573 30.5221 25.0868 30.5221C24.7163 30.5221 24.416 30.8224 24.416 31.1929C24.416 31.5634 24.7163 31.8637 25.0868 31.8637Z" fill="white"/>
<path d="M23.0724 33.7884C23.3929 33.7884 23.6526 33.5287 23.6526 33.2082C23.6526 32.8877 23.3929 32.6279 23.0724 32.6279C22.752 32.6279 22.4922 32.8877 22.4922 33.2082C22.4922 33.5287 22.752 33.7884 23.0724 33.7884Z" fill="white"/>
<path d="M21.3104 35.4603C21.5811 35.4603 21.8005 35.2408 21.8005 34.9701C21.8005 34.6994 21.5811 34.48 21.3104 34.48C21.0397 34.48 20.8203 34.6994 20.8203 34.9701C20.8203 35.2408 21.0397 35.4603 21.3104 35.4603Z" fill="white"/>
<path d="M19.6847 36.995C19.9054 36.995 20.0843 36.8161 20.0843 36.5954C20.0843 36.3747 19.9054 36.1958 19.6847 36.1958C19.4641 36.1958 19.2852 36.3747 19.2852 36.5954C19.2852 36.8161 19.4641 36.995 19.6847 36.995Z" fill="white"/>
<path d="M32.9589 19.7104C33.6287 19.7104 34.1716 19.1674 34.1716 18.4975C34.1716 17.8277 33.6287 17.2847 32.9589 17.2847C32.2891 17.2847 31.7461 17.8277 31.7461 18.4975C31.7461 19.1674 32.2891 19.7104 32.9589 19.7104Z" fill="white"/>
<path d="M30.5524 17.2152C31.1724 17.2152 31.675 16.7125 31.675 16.0925C31.675 15.4724 31.1724 14.9697 30.5524 14.9697C29.9323 14.9697 29.4297 15.4724 29.4297 16.0925C29.4297 16.7125 29.9323 17.2152 30.5524 17.2152Z" fill="white"/>
<path d="M28.3231 14.8949C28.8932 14.8949 29.3552 14.4328 29.3552 13.8627C29.3552 13.2927 28.8932 12.8306 28.3231 12.8306C27.7531 12.8306 27.291 13.2927 27.291 13.8627C27.291 14.4328 27.7531 14.8949 28.3231 14.8949Z" fill="white"/>
<path d="M26.3087 12.7895C26.8287 12.7895 27.2503 12.3679 27.2503 11.8479C27.2503 11.3278 26.8287 10.9062 26.3087 10.9062C25.7887 10.9062 25.3672 11.3278 25.3672 11.8479C25.3672 12.3679 25.7887 12.7895 26.3087 12.7895Z" fill="white"/>
<path d="M24.2929 10.684C24.7631 10.684 25.1443 10.3027 25.1443 9.83246C25.1443 9.36219 24.7631 8.98096 24.2929 8.98096C23.8226 8.98096 23.4414 9.36219 23.4414 9.83246C23.4414 10.3027 23.8226 10.684 24.2929 10.684Z" fill="white"/>
<path d="M22.2785 8.57827C22.6987 8.57827 23.0393 8.23758 23.0393 7.81733C23.0393 7.39708 22.6987 7.0564 22.2785 7.0564C21.8582 7.0564 21.5176 7.39708 21.5176 7.81733C21.5176 8.23758 21.8582 8.57827 22.2785 8.57827Z" fill="white"/>
<path d="M20.2645 6.473C20.635 6.473 20.9353 6.17266 20.9353 5.80217C20.9353 5.43169 20.635 5.13135 20.2645 5.13135C19.8941 5.13135 19.5938 5.43169 19.5938 5.80217C19.5938 6.17266 19.8941 6.473 20.2645 6.473Z" fill="white"/>
<path d="M18.2482 4.36718C18.5686 4.36718 18.8284 4.10739 18.8284 3.78692C18.8284 3.46646 18.5686 3.20667 18.2482 3.20667C17.9277 3.20667 17.668 3.46646 17.668 3.78692C17.668 4.10739 17.9277 4.36718 18.2482 4.36718Z" fill="white"/>
<path d="M16.4862 2.51545C16.7569 2.51545 16.9763 2.296 16.9763 2.0253C16.9763 1.7546 16.7569 1.53516 16.4862 1.53516C16.2155 1.53516 15.9961 1.7546 15.9961 2.0253C15.9961 2.296 16.2155 2.51545 16.4862 2.51545Z" fill="white"/>
<path d="M14.5779 0.117596C14.522 0.173487 14.484 0.244686 14.4686 0.322191C14.4532 0.399697 14.4611 0.480029 14.4914 0.553031C14.5216 0.626033 14.5728 0.688427 14.6385 0.732324C14.7042 0.776222 14.7815 0.799652 14.8605 0.799652C14.9395 0.799652 15.0168 0.776222 15.0825 0.732324C15.1482 0.688427 15.1994 0.626033 15.2296 0.553031C15.2599 0.480029 15.2678 0.399697 15.2524 0.322191C15.237 0.244686 15.199 0.173487 15.1431 0.117596C15.106 0.0804695 15.0619 0.0510182 15.0134 0.0309244C14.965 0.0108306 14.913 0.000488281 14.8605 0.000488281C14.808 0.000488281 14.756 0.0108306 14.7075 0.0309244C14.6591 0.0510182 14.615 0.0804695 14.5779 0.117596Z" fill="white"/>
<path d="M32.9589 19.7104C33.6287 19.7104 34.1716 19.1674 34.1716 18.4975C34.1716 17.8277 33.6287 17.2847 32.9589 17.2847C32.2891 17.2847 31.7461 17.8277 31.7461 18.4975C31.7461 19.1674 32.2891 19.7104 32.9589 19.7104Z" fill="white"/>
<path d="M30.5524 22.0253C31.1724 22.0253 31.675 21.5226 31.675 20.9025C31.675 20.2825 31.1724 19.7798 30.5524 19.7798C29.9323 19.7798 29.4297 20.2825 29.4297 20.9025C29.4297 21.5226 29.9323 22.0253 30.5524 22.0253Z" fill="white"/>
<path d="M28.3231 24.1645C28.8932 24.1645 29.3552 23.7023 29.3552 23.1323C29.3552 22.5622 28.8932 22.1001 28.3231 22.1001C27.7531 22.1001 27.291 22.5622 27.291 23.1323C27.291 23.7023 27.7531 24.1645 28.3231 24.1645Z" fill="white"/>
<path d="M26.3087 26.0888C26.8287 26.0888 27.2503 25.6672 27.2503 25.1472C27.2503 24.6271 26.8287 24.2056 26.3087 24.2056C25.7887 24.2056 25.3672 24.6271 25.3672 25.1472C25.3672 25.6672 25.7887 26.0888 26.3087 26.0888Z" fill="white"/>
<path d="M24.2929 28.014C24.7631 28.014 25.1443 27.6328 25.1443 27.1625C25.1443 26.6923 24.7631 26.311 24.2929 26.311C23.8226 26.311 23.4414 26.6923 23.4414 27.1625C23.4414 27.6328 23.8226 28.014 24.2929 28.014Z" fill="white"/>
<path d="M22.2785 29.9386C22.6987 29.9386 23.0393 29.5979 23.0393 29.1777C23.0393 28.7574 22.6987 28.4167 22.2785 28.4167C21.8582 28.4167 21.5176 28.7574 21.5176 29.1777C21.5176 29.5979 21.8582 29.9386 22.2785 29.9386Z" fill="white"/>
<path d="M20.2645 31.8636C20.635 31.8636 20.9353 31.5633 20.9353 31.1928C20.9353 30.8223 20.635 30.522 20.2645 30.522C19.8941 30.522 19.5938 30.8223 19.5938 31.1928C19.5938 31.5633 19.8941 31.8636 20.2645 31.8636Z" fill="white"/>
<path d="M18.2482 33.7883C18.5686 33.7883 18.8284 33.5285 18.8284 33.2081C18.8284 32.8876 18.5686 32.6278 18.2482 32.6278C17.9277 32.6278 17.668 32.8876 17.668 33.2081C17.668 33.5285 17.9277 33.7883 18.2482 33.7883Z" fill="white"/>
<path d="M16.4862 35.4603C16.7569 35.4603 16.9763 35.2408 16.9763 34.9701C16.9763 34.6994 16.7569 34.48 16.4862 34.48C16.2155 34.48 15.9961 34.6994 15.9961 34.9701C15.9961 35.2408 16.2155 35.4603 16.4862 35.4603Z" fill="white"/>
<path d="M14.5779 36.8779C14.522 36.822 14.484 36.7508 14.4686 36.6733C14.4532 36.5958 14.4611 36.5154 14.4914 36.4424C14.5216 36.3694 14.5728 36.307 14.6385 36.2631C14.7042 36.2192 14.7815 36.1958 14.8605 36.1958C14.9395 36.1958 15.0168 36.2192 15.0825 36.2631C15.1482 36.307 15.1994 36.3694 15.2296 36.4424C15.2599 36.5154 15.2678 36.5958 15.2524 36.6733C15.237 36.7508 15.199 36.822 15.1431 36.8779C15.106 36.915 15.0619 36.9444 15.0134 36.9645C14.965 36.9846 14.913 36.995 14.8605 36.995C14.808 36.995 14.756 36.9846 14.7075 36.9645C14.6591 36.9444 14.615 36.915 14.5779 36.8779Z" fill="white"/>
<path d="M28.1346 19.7104C28.8044 19.7104 29.3474 19.1674 29.3474 18.4975C29.3474 17.8277 28.8044 17.2847 28.1346 17.2847C27.4648 17.2847 26.9219 17.8277 26.9219 18.4975C26.9219 19.1674 27.4648 19.7104 28.1346 19.7104Z" fill="white"/>
<path d="M25.7281 17.2152C26.3482 17.2152 26.8508 16.7125 26.8508 16.0925C26.8508 15.4724 26.3482 14.9697 25.7281 14.9697C25.1081 14.9697 24.6055 15.4724 24.6055 16.0925C24.6055 16.7125 25.1081 17.2152 25.7281 17.2152Z" fill="white"/>
<path d="M23.5008 14.8949C24.0709 14.8949 24.533 14.4328 24.533 13.8627C24.533 13.2927 24.0709 12.8306 23.5008 12.8306C22.9308 12.8306 22.4688 13.2927 22.4688 13.8627C22.4688 14.4328 22.9308 14.8949 23.5008 14.8949Z" fill="white"/>
<path d="M21.4845 12.7895C22.0045 12.7895 22.4261 12.3679 22.4261 11.8479C22.4261 11.3278 22.0045 10.9062 21.4845 10.9062C20.9645 10.9062 20.543 11.3278 20.543 11.8479C20.543 12.3679 20.9645 12.7895 21.4845 12.7895Z" fill="white"/>
<path d="M19.4686 10.684C19.9389 10.684 20.3201 10.3027 20.3201 9.83246C20.3201 9.36219 19.9389 8.98096 19.4686 8.98096C18.9984 8.98096 18.6172 9.36219 18.6172 9.83246C18.6172 10.3027 18.9984 10.684 19.4686 10.684Z" fill="white"/>
<path d="M17.4562 8.57802C17.8764 8.57802 18.2171 8.23734 18.2171 7.81709C18.2171 7.39683 17.8764 7.05615 17.4562 7.05615C17.036 7.05615 16.6953 7.39683 16.6953 7.81709C16.6953 8.23734 17.036 8.57802 17.4562 8.57802Z" fill="white"/>
<path d="M15.4403 6.473C15.8108 6.473 16.1111 6.17266 16.1111 5.80217C16.1111 5.43169 15.8108 5.13135 15.4403 5.13135C15.0698 5.13135 14.7695 5.43169 14.7695 5.80217C14.7695 6.17266 15.0698 6.473 15.4403 6.473Z" fill="white"/>
<path d="M13.424 4.36706C13.7444 4.36706 14.0042 4.10727 14.0042 3.7868C14.0042 3.46633 13.7444 3.20654 13.424 3.20654C13.1035 3.20654 12.8438 3.46633 12.8438 3.7868C12.8438 4.10727 13.1035 4.36706 13.424 4.36706Z" fill="white"/>
<path d="M11.662 2.51545C11.9327 2.51545 12.1521 2.296 12.1521 2.0253C12.1521 1.7546 11.9327 1.53516 11.662 1.53516C11.3913 1.53516 11.1719 1.7546 11.1719 2.0253C11.1719 2.296 11.3913 2.51545 11.662 2.51545Z" fill="white"/>
<path d="M10.0363 0.799164C10.2569 0.799164 10.4358 0.620265 10.4358 0.399582C10.4358 0.178899 10.2569 0 10.0363 0C9.8156 0 9.63672 0.178899 9.63672 0.399582C9.63672 0.620265 9.8156 0.799164 10.0363 0.799164Z" fill="white"/>
<path d="M28.1346 19.7104C28.8044 19.7104 29.3474 19.1674 29.3474 18.4975C29.3474 17.8277 28.8044 17.2847 28.1346 17.2847C27.4648 17.2847 26.9219 17.8277 26.9219 18.4975C26.9219 19.1674 27.4648 19.7104 28.1346 19.7104Z" fill="white"/>
<path d="M25.7281 22.0253C26.3482 22.0253 26.8508 21.5226 26.8508 20.9025C26.8508 20.2825 26.3482 19.7798 25.7281 19.7798C25.1081 19.7798 24.6055 20.2825 24.6055 20.9025C24.6055 21.5226 25.1081 22.0253 25.7281 22.0253Z" fill="white"/>
<path d="M23.5008 24.1645C24.0709 24.1645 24.533 23.7023 24.533 23.1323C24.533 22.5622 24.0709 22.1001 23.5008 22.1001C22.9308 22.1001 22.4688 22.5622 22.4688 23.1323C22.4688 23.7023 22.9308 24.1645 23.5008 24.1645Z" fill="white"/>
<path d="M21.4845 26.0888C22.0045 26.0888 22.4261 25.6672 22.4261 25.1472C22.4261 24.6271 22.0045 24.2056 21.4845 24.2056C20.9645 24.2056 20.543 24.6271 20.543 25.1472C20.543 25.6672 20.9645 26.0888 21.4845 26.0888Z" fill="white"/>
<path d="M19.4686 28.014C19.9389 28.014 20.3201 27.6328 20.3201 27.1625C20.3201 26.6923 19.9389 26.311 19.4686 26.311C18.9984 26.311 18.6172 26.6923 18.6172 27.1625C18.6172 27.6328 18.9984 28.014 19.4686 28.014Z" fill="white"/>
<path d="M17.4562 29.9384C17.8764 29.9384 18.2171 29.5977 18.2171 29.1774C18.2171 28.7572 17.8764 28.4165 17.4562 28.4165C17.036 28.4165 16.6953 28.7572 16.6953 29.1774C16.6953 29.5977 17.036 29.9384 17.4562 29.9384Z" fill="white"/>
<path d="M15.4403 31.8636C15.8108 31.8636 16.1111 31.5633 16.1111 31.1928C16.1111 30.8223 15.8108 30.522 15.4403 30.522C15.0698 30.522 14.7695 30.8223 14.7695 31.1928C14.7695 31.5633 15.0698 31.8636 15.4403 31.8636Z" fill="white"/>
<path d="M13.424 33.7884C13.7444 33.7884 14.0042 33.5287 14.0042 33.2082C14.0042 32.8877 13.7444 32.6279 13.424 32.6279C13.1035 32.6279 12.8438 32.8877 12.8438 33.2082C12.8438 33.5287 13.1035 33.7884 13.424 33.7884Z" fill="white"/>
<path d="M11.662 35.4603C11.9327 35.4603 12.1521 35.2408 12.1521 34.9701C12.1521 34.6994 11.9327 34.48 11.662 34.48C11.3913 34.48 11.1719 34.6994 11.1719 34.9701C11.1719 35.2408 11.3913 35.4603 11.662 35.4603Z" fill="white"/>
<path d="M10.0363 36.995C10.2569 36.995 10.4358 36.8161 10.4358 36.5954C10.4358 36.3747 10.2569 36.1958 10.0363 36.1958C9.8156 36.1958 9.63672 36.3747 9.63672 36.5954C9.63672 36.8161 9.8156 36.995 10.0363 36.995Z" fill="white"/>
<path d="M23.3105 19.7104C23.9802 19.7104 24.5232 19.1674 24.5232 18.4975C24.5232 17.8277 23.9802 17.2847 23.3105 17.2847C22.6407 17.2847 22.0977 17.8277 22.0977 18.4975C22.0977 19.1674 22.6407 19.7104 23.3105 19.7104Z" fill="white"/>
<path d="M20.9059 17.2152C21.5259 17.2152 22.0285 16.7125 22.0285 16.0925C22.0285 15.4724 21.5259 14.9697 20.9059 14.9697C20.2858 14.9697 19.7832 15.4724 19.7832 16.0925C19.7832 16.7125 20.2858 17.2152 20.9059 17.2152Z" fill="white"/>
<path d="M18.6766 14.8949C19.2466 14.8949 19.7087 14.4328 19.7087 13.8627C19.7087 13.2927 19.2466 12.8306 18.6766 12.8306C18.1066 12.8306 17.6445 13.2927 17.6445 13.8627C17.6445 14.4328 18.1066 14.8949 18.6766 14.8949Z" fill="white"/>
<path d="M16.6603 12.7895C17.1803 12.7895 17.6018 12.3679 17.6018 11.8479C17.6018 11.3278 17.1803 10.9062 16.6603 10.9062C16.1403 10.9062 15.7188 11.3278 15.7188 11.8479C15.7188 12.3679 16.1403 12.7895 16.6603 12.7895Z" fill="white"/>
<path d="M14.6464 10.6841C15.1166 10.6841 15.4978 10.3029 15.4978 9.83258C15.4978 9.36231 15.1166 8.98108 14.6464 8.98108C14.1761 8.98108 13.7949 9.36231 13.7949 9.83258C13.7949 10.3029 14.1761 10.6841 14.6464 10.6841Z" fill="white"/>
<path d="M12.632 8.57802C13.0522 8.57802 13.3929 8.23734 13.3929 7.81709C13.3929 7.39683 13.0522 7.05615 12.632 7.05615C12.2118 7.05615 11.8711 7.39683 11.8711 7.81709C11.8711 8.23734 12.2118 8.57802 12.632 8.57802Z" fill="white"/>
<path d="M10.6161 6.473C10.9865 6.473 11.2869 6.17266 11.2869 5.80217C11.2869 5.43169 10.9865 5.13135 10.6161 5.13135C10.2456 5.13135 9.94531 5.43169 9.94531 5.80217C9.94531 6.17266 10.2456 6.473 10.6161 6.473Z" fill="white"/>
<path d="M8.60171 4.36706C8.92215 4.36706 9.18193 4.10727 9.18193 3.7868C9.18193 3.46633 8.92215 3.20654 8.60171 3.20654C8.28126 3.20654 8.02148 3.46633 8.02148 3.7868C8.02148 4.10727 8.28126 4.36706 8.60171 4.36706Z" fill="white"/>
<path d="M6.49296 1.67884C6.4245 1.74733 6.37788 1.83459 6.359 1.92958C6.34013 2.02456 6.34983 2.12301 6.3869 2.21248C6.42397 2.30195 6.48673 2.37842 6.56725 2.43222C6.64777 2.48602 6.74243 2.51473 6.83927 2.51473C6.93611 2.51473 7.03077 2.48602 7.11129 2.43222C7.19181 2.37842 7.25457 2.30195 7.29164 2.21248C7.32871 2.12301 7.33842 2.02456 7.31954 1.92958C7.30066 1.83459 7.25405 1.74733 7.18558 1.67884C7.14014 1.6333 7.08616 1.59716 7.02674 1.5725C6.96731 1.54785 6.90361 1.53516 6.83927 1.53516C6.77493 1.53516 6.71123 1.54785 6.6518 1.5725C6.59238 1.59716 6.5384 1.6333 6.49296 1.67884Z" fill="white"/>
<path d="M5.214 0.799164C5.43467 0.799164 5.61357 0.620265 5.61357 0.399582C5.61357 0.178899 5.43467 0 5.214 0C4.99333 0 4.81445 0.178899 4.81445 0.399582C4.81445 0.620265 4.99333 0.799164 5.214 0.799164Z" fill="white"/>
<path d="M23.3105 19.7104C23.9802 19.7104 24.5232 19.1674 24.5232 18.4975C24.5232 17.8277 23.9802 17.2847 23.3105 17.2847C22.6407 17.2847 22.0977 17.8277 22.0977 18.4975C22.0977 19.1674 22.6407 19.7104 23.3105 19.7104Z" fill="white"/>
<path d="M20.9059 22.0253C21.5259 22.0253 22.0285 21.5226 22.0285 20.9025C22.0285 20.2825 21.5259 19.7798 20.9059 19.7798C20.2858 19.7798 19.7832 20.2825 19.7832 20.9025C19.7832 21.5226 20.2858 22.0253 20.9059 22.0253Z" fill="white"/>
<path d="M18.6766 24.1645C19.2466 24.1645 19.7087 23.7023 19.7087 23.1323C19.7087 22.5622 19.2466 22.1001 18.6766 22.1001C18.1066 22.1001 17.6445 22.5622 17.6445 23.1323C17.6445 23.7023 18.1066 24.1645 18.6766 24.1645Z" fill="white"/>
<path d="M16.6603 26.0888C17.1803 26.0888 17.6018 25.6672 17.6018 25.1472C17.6018 24.6271 17.1803 24.2056 16.6603 24.2056C16.1403 24.2056 15.7188 24.6271 15.7188 25.1472C15.7188 25.6672 16.1403 26.0888 16.6603 26.0888Z" fill="white"/>
<path d="M14.6464 28.0139C15.1166 28.0139 15.4978 27.6327 15.4978 27.1624C15.4978 26.6921 15.1166 26.3109 14.6464 26.3109C14.1761 26.3109 13.7949 26.6921 13.7949 27.1624C13.7949 27.6327 14.1761 28.0139 14.6464 28.0139Z" fill="white"/>
<path d="M12.632 29.9384C13.0522 29.9384 13.3929 29.5977 13.3929 29.1774C13.3929 28.7572 13.0522 28.4165 12.632 28.4165C12.2118 28.4165 11.8711 28.7572 11.8711 29.1774C11.8711 29.5977 12.2118 29.9384 12.632 29.9384Z" fill="white"/>
<path d="M10.6161 31.8637C10.9865 31.8637 11.2869 31.5634 11.2869 31.1929C11.2869 30.8224 10.9865 30.5221 10.6161 30.5221C10.2456 30.5221 9.94531 30.8224 9.94531 31.1929C9.94531 31.5634 10.2456 31.8637 10.6161 31.8637Z" fill="white"/>
<path d="M8.60171 33.7884C8.92215 33.7884 9.18193 33.5287 9.18193 33.2082C9.18193 32.8877 8.92215 32.6279 8.60171 32.6279C8.28126 32.6279 8.02148 32.8877 8.02148 33.2082C8.02148 33.5287 8.28126 33.7884 8.60171 33.7884Z" fill="white"/>
<path d="M6.49296 35.3166C6.4245 35.2481 6.37788 35.1609 6.359 35.0659C6.34013 34.9709 6.34983 34.8724 6.3869 34.783C6.42397 34.6935 6.48673 34.617 6.56725 34.5632C6.64777 34.5094 6.74243 34.4807 6.83927 34.4807C6.93611 34.4807 7.03077 34.5094 7.11129 34.5632C7.19181 34.617 7.25457 34.6935 7.29164 34.783C7.32871 34.8724 7.33842 34.9709 7.31954 35.0659C7.30066 35.1609 7.25405 35.2481 7.18558 35.3166C7.14014 35.3621 7.08616 35.3983 7.02674 35.4229C6.96731 35.4476 6.90361 35.4603 6.83927 35.4603C6.77493 35.4603 6.71123 35.4476 6.6518 35.4229C6.59238 35.3983 6.5384 35.3621 6.49296 35.3166Z" fill="white"/>
<path d="M5.214 36.995C5.43467 36.995 5.61357 36.8161 5.61357 36.5954C5.61357 36.3747 5.43467 36.1958 5.214 36.1958C4.99333 36.1958 4.81445 36.3747 4.81445 36.5954C4.81445 36.8161 4.99333 36.995 5.214 36.995Z" fill="white"/>
<path d="M18.4862 19.7104C19.156 19.7104 19.699 19.1674 19.699 18.4975C19.699 17.8277 19.156 17.2847 18.4862 17.2847C17.8164 17.2847 17.2734 17.8277 17.2734 18.4975C17.2734 19.1674 17.8164 19.7104 18.4862 19.7104Z" fill="white"/>
<path d="M16.0831 17.2148C16.7029 17.2148 17.2054 16.7123 17.2054 16.0925C17.2054 15.4727 16.7029 14.9702 16.0831 14.9702C15.4634 14.9702 14.9609 15.4727 14.9609 16.0925C14.9609 16.7123 15.4634 17.2148 16.0831 17.2148Z" fill="white"/>
<path d="M13.8524 14.8952C14.4224 14.8952 14.8845 14.433 14.8845 13.863C14.8845 13.2929 14.4224 12.8308 13.8524 12.8308C13.2824 12.8308 12.8203 13.2929 12.8203 13.863C12.8203 14.433 13.2824 14.8952 13.8524 14.8952Z" fill="white"/>
<path d="M11.8361 12.7895C12.3561 12.7895 12.7776 12.3679 12.7776 11.8479C12.7776 11.3278 12.3561 10.9062 11.8361 10.9062C11.3161 10.9062 10.8945 11.3278 10.8945 11.8479C10.8945 12.3679 11.3161 12.7895 11.8361 12.7895Z" fill="white"/>
<path d="M9.82215 10.6841C10.2924 10.6841 10.6736 10.3029 10.6736 9.83258C10.6736 9.36231 10.2924 8.98108 9.82215 8.98108C9.35191 8.98108 8.9707 9.36231 8.9707 9.83258C8.9707 10.3029 9.35191 10.6841 9.82215 10.6841Z" fill="white"/>
<path d="M7.80777 8.57802C8.228 8.57802 8.56865 8.23734 8.56865 7.81709C8.56865 7.39683 8.228 7.05615 7.80777 7.05615C7.38755 7.05615 7.04688 7.39683 7.04688 7.81709C7.04688 8.23734 7.38755 8.57802 7.80777 8.57802Z" fill="white"/>
<path d="M5.79186 6.473C6.16233 6.473 6.46266 6.17266 6.46266 5.80217C6.46266 5.43169 6.16233 5.13135 5.79186 5.13135C5.4214 5.13135 5.12109 5.43169 5.12109 5.80217C5.12109 6.17266 5.4214 6.473 5.79186 6.473Z" fill="white"/>
<path d="M3.77749 4.36706C4.09793 4.36706 4.35771 4.10727 4.35771 3.7868C4.35771 3.46633 4.09793 3.20654 3.77749 3.20654C3.45704 3.20654 3.19727 3.46633 3.19727 3.7868C3.19727 4.10727 3.45704 4.36706 3.77749 4.36706Z" fill="white"/>
<path d="M2.01551 2.51533C2.28619 2.51533 2.50563 2.29588 2.50563 2.02518C2.50563 1.75448 2.28619 1.53503 2.01551 1.53503C1.74482 1.53503 1.52539 1.75448 1.52539 2.02518C1.52539 2.29588 1.74482 2.51533 2.01551 2.51533Z" fill="white"/>
<path d="M0.109142 0.117596C0.0532838 0.173487 0.0152502 0.244686 -0.000150048 0.322191C-0.0155503 0.399697 -0.00762567 0.480029 0.0226219 0.553031C0.0528694 0.626033 0.104082 0.688427 0.169784 0.732324C0.235486 0.776222 0.312728 0.799652 0.391744 0.799652C0.47076 0.799652 0.548002 0.776222 0.613705 0.732324C0.679407 0.688427 0.730619 0.626033 0.760867 0.553031C0.791114 0.480029 0.799039 0.399697 0.783638 0.322191C0.768238 0.244686 0.730205 0.173487 0.674346 0.117596C0.637241 0.0804695 0.593185 0.0510182 0.544696 0.0309244C0.496206 0.0108306 0.444232 0.000488281 0.391744 0.000488281C0.339256 0.000488281 0.287283 0.0108306 0.238793 0.0309244C0.190303 0.0510182 0.146247 0.0804695 0.109142 0.117596Z" fill="white"/>
<path d="M18.4862 19.7104C19.156 19.7104 19.699 19.1674 19.699 18.4975C19.699 17.8277 19.156 17.2847 18.4862 17.2847C17.8164 17.2847 17.2734 17.8277 17.2734 18.4975C17.2734 19.1674 17.8164 19.7104 18.4862 19.7104Z" fill="white"/>
<path d="M16.0831 22.0248C16.7029 22.0248 17.2054 21.5224 17.2054 20.9026C17.2054 20.2827 16.7029 19.7803 16.0831 19.7803C15.4634 19.7803 14.9609 20.2827 14.9609 20.9026C14.9609 21.5224 15.4634 22.0248 16.0831 22.0248Z" fill="white"/>
<path d="M13.8524 24.1642C14.4224 24.1642 14.8845 23.7021 14.8845 23.132C14.8845 22.562 14.4224 22.0999 13.8524 22.0999C13.2824 22.0999 12.8203 22.562 12.8203 23.132C12.8203 23.7021 13.2824 24.1642 13.8524 24.1642Z" fill="white"/>
<path d="M11.8361 26.0888C12.3561 26.0888 12.7776 25.6672 12.7776 25.1472C12.7776 24.6271 12.3561 24.2056 11.8361 24.2056C11.3161 24.2056 10.8945 24.6271 10.8945 25.1472C10.8945 25.6672 11.3161 26.0888 11.8361 26.0888Z" fill="white"/>
<path d="M9.82215 28.0139C10.2924 28.0139 10.6736 27.6327 10.6736 27.1624C10.6736 26.6921 10.2924 26.3109 9.82215 26.3109C9.35191 26.3109 8.9707 26.6921 8.9707 27.1624C8.9707 27.6327 9.35191 28.0139 9.82215 28.0139Z" fill="white"/>
<path d="M7.80777 29.9384C8.228 29.9384 8.56865 29.5977 8.56865 29.1774C8.56865 28.7572 8.228 28.4165 7.80777 28.4165C7.38755 28.4165 7.04688 28.7572 7.04688 29.1774C7.04688 29.5977 7.38755 29.9384 7.80777 29.9384Z" fill="white"/>
<path d="M5.79186 31.8636C6.16233 31.8636 6.46266 31.5633 6.46266 31.1928C6.46266 30.8223 6.16233 30.522 5.79186 30.522C5.4214 30.522 5.12109 30.8223 5.12109 31.1928C5.12109 31.5633 5.4214 31.8636 5.79186 31.8636Z" fill="white"/>
<path d="M3.77749 33.7884C4.09793 33.7884 4.35771 33.5287 4.35771 33.2082C4.35771 32.8877 4.09793 32.6279 3.77749 32.6279C3.45704 32.6279 3.19727 32.8877 3.19727 33.2082C3.19727 33.5287 3.45704 33.7884 3.77749 33.7884Z" fill="white"/>
<path d="M2.01551 35.4604C2.28619 35.4604 2.50563 35.241 2.50563 34.9703C2.50563 34.6995 2.28619 34.4801 2.01551 34.4801C1.74482 34.4801 1.52539 34.6995 1.52539 34.9703C1.52539 35.241 1.74482 35.4604 2.01551 35.4604Z" fill="white"/>
<path d="M0.109142 36.8779C0.0532838 36.822 0.0152502 36.7508 -0.000150048 36.6733C-0.0155503 36.5958 -0.00762567 36.5154 0.0226219 36.4424C0.0528694 36.3694 0.104082 36.307 0.169784 36.2631C0.235486 36.2192 0.312728 36.1958 0.391744 36.1958C0.47076 36.1958 0.548002 36.2192 0.613705 36.2631C0.679407 36.307 0.730619 36.3694 0.760867 36.4424C0.791114 36.5154 0.799039 36.5958 0.783638 36.6733C0.768238 36.7508 0.730205 36.822 0.674346 36.8779C0.637241 36.915 0.593185 36.9444 0.544696 36.9645C0.496206 36.9846 0.444232 36.995 0.391744 36.995C0.339256 36.995 0.287283 36.9846 0.238793 36.9645C0.190303 36.9444 0.146247 36.915 0.109142 36.8779Z" fill="white"/>
</g>
<defs>
<clipPath id="clip0_64_10369">
<rect width="39" height="37" fill="white"/>
</clipPath>
</defs>
</svg>
