<svg width="415" height="393" viewBox="0 0 415 393" fill="none" xmlns="http://www.w3.org/2000/svg">
<g opacity="0.5" clip-path="url(#clip0_64_10243)">
<path d="M402.03 209.36C409.158 209.36 414.936 203.592 414.936 196.478C414.936 189.363 409.158 183.595 402.03 183.595C394.903 183.595 389.125 189.363 389.125 196.478C389.125 203.592 394.903 209.36 402.03 209.36Z" fill="#80B1D5"/>
<path d="M376.441 182.851C383.037 182.851 388.383 177.514 388.383 170.93C388.383 164.347 383.037 159.01 376.441 159.01C369.846 159.01 364.5 164.347 364.5 170.93C364.5 177.514 369.846 182.851 376.441 182.851Z" fill="#80B1D5"/>
<path d="M352.721 158.212C358.787 158.212 363.704 153.304 363.704 147.249C363.704 141.194 358.787 136.286 352.721 136.286C346.656 136.286 341.738 141.194 341.738 147.249C341.738 153.304 346.656 158.212 352.721 158.212Z" fill="#80B1D5"/>
<path d="M331.277 135.846C336.81 135.846 341.296 131.368 341.296 125.844C341.296 120.321 336.81 115.843 331.277 115.843C325.743 115.843 321.258 120.321 321.258 125.844C321.258 131.368 325.743 135.846 331.277 135.846Z" fill="#80B1D5"/>
<path d="M309.834 113.484C314.838 113.484 318.894 109.434 318.894 104.439C318.894 99.4443 314.838 95.395 309.834 95.395C304.83 95.395 300.773 99.4443 300.773 104.439C300.773 109.434 304.83 113.484 309.834 113.484Z" fill="#80B1D5"/>
<path d="M288.393 91.1169C292.865 91.1169 296.49 87.4983 296.49 83.0345C296.49 78.5707 292.865 74.9521 288.393 74.9521C283.922 74.9521 280.297 78.5707 280.297 83.0345C280.297 87.4983 283.922 91.1169 288.393 91.1169Z" fill="#80B1D5"/>
<path d="M266.95 68.7554C270.893 68.7554 274.088 65.5653 274.088 61.6301C274.088 57.695 270.893 54.5049 266.95 54.5049C263.008 54.5049 259.812 57.695 259.812 61.6301C259.812 65.5653 263.008 68.7554 266.95 68.7554Z" fill="#80B1D5"/>
<path d="M245.51 46.3886C248.92 46.3886 251.684 43.6292 251.684 40.2253C251.684 36.8214 248.92 34.062 245.51 34.062C242.1 34.062 239.336 36.8214 239.336 40.2253C239.336 43.6292 242.1 46.3886 245.51 46.3886Z" fill="#80B1D5"/>
<path d="M226.758 26.7192C229.639 26.7192 231.974 24.3883 231.974 21.513C231.974 18.6378 229.639 16.3069 226.758 16.3069C223.878 16.3069 221.543 18.6378 221.543 21.513C221.543 24.3883 223.878 26.7192 226.758 26.7192Z" fill="#80B1D5"/>
<path d="M209.467 8.49037C211.815 8.49037 213.718 6.59017 213.718 4.24616C213.718 1.90215 211.815 0.00195312 209.467 0.00195312C207.119 0.00195312 205.215 1.90215 205.215 4.24616C205.215 6.59017 207.119 8.49037 209.467 8.49037Z" fill="#80B1D5"/>
<path d="M402.03 209.36C409.158 209.36 414.936 203.592 414.936 196.478C414.936 189.363 409.158 183.595 402.03 183.595C394.903 183.595 389.125 189.363 389.125 196.478C389.125 203.592 394.903 209.36 402.03 209.36Z" fill="#80B1D5"/>
<path d="M376.441 233.941C383.037 233.941 388.383 228.604 388.383 222.02C388.383 215.437 383.037 210.1 376.441 210.1C369.846 210.1 364.5 215.437 364.5 222.02C364.5 228.604 369.846 233.941 376.441 233.941Z" fill="#80B1D5"/>
<path d="M352.721 256.665C358.787 256.665 363.704 251.757 363.704 245.702C363.704 239.647 358.787 234.739 352.721 234.739C346.656 234.739 341.738 239.647 341.738 245.702C341.738 251.757 346.656 256.665 352.721 256.665Z" fill="#80B1D5"/>
<path d="M331.277 277.108C336.81 277.108 341.296 272.631 341.296 267.107C341.296 261.583 336.81 257.105 331.277 257.105C325.743 257.105 321.258 261.583 321.258 267.107C321.258 272.631 325.743 277.108 331.277 277.108Z" fill="#80B1D5"/>
<path d="M309.834 297.555C314.838 297.555 318.894 293.506 318.894 288.511C318.894 283.516 314.838 279.467 309.834 279.467C304.83 279.467 300.773 283.516 300.773 288.511C300.773 293.506 304.83 297.555 309.834 297.555Z" fill="#80B1D5"/>
<path d="M288.393 317.998C292.865 317.998 296.49 314.38 296.49 309.916C296.49 305.452 292.865 301.833 288.393 301.833C283.922 301.833 280.297 305.452 280.297 309.916C280.297 314.38 283.922 317.998 288.393 317.998Z" fill="#80B1D5"/>
<path d="M266.95 338.446C270.893 338.446 274.088 335.256 274.088 331.321C274.088 327.386 270.893 324.196 266.95 324.196C263.008 324.196 259.812 327.386 259.812 331.321C259.812 335.256 263.008 338.446 266.95 338.446Z" fill="#80B1D5"/>
<path d="M245.51 358.889C248.92 358.889 251.684 356.13 251.684 352.726C251.684 349.322 248.92 346.562 245.51 346.562C242.1 346.562 239.336 349.322 239.336 352.726C239.336 356.13 242.1 358.889 245.51 358.889Z" fill="#80B1D5"/>
<path d="M226.758 376.649C229.639 376.649 231.974 374.318 231.974 371.443C231.974 368.567 229.639 366.236 226.758 366.236C223.878 366.236 221.543 368.567 221.543 371.443C221.543 374.318 223.878 376.649 226.758 376.649Z" fill="#80B1D5"/>
<path d="M209.467 392.949C211.815 392.949 213.718 391.049 213.718 388.705C213.718 386.361 211.815 384.46 209.467 384.46C207.119 384.46 205.215 386.361 205.215 388.705C205.215 391.049 207.119 392.949 209.467 392.949Z" fill="#80B1D5"/>
<path d="M350.706 209.36C357.833 209.36 363.611 203.592 363.611 196.478C363.611 189.363 357.833 183.595 350.706 183.595C343.579 183.595 337.801 189.363 337.801 196.478C337.801 203.592 343.579 209.36 350.706 209.36Z" fill="#80B1D5"/>
<path d="M325.114 182.856C331.712 182.856 337.061 177.516 337.061 170.93C337.061 164.344 331.712 159.005 325.114 159.005C318.517 159.005 313.168 164.344 313.168 170.93C313.168 177.516 318.517 182.856 325.114 182.856Z" fill="#80B1D5"/>
<path d="M301.389 158.212C307.455 158.212 312.372 153.304 312.372 147.249C312.372 141.194 307.455 136.286 301.389 136.286C295.323 136.286 290.406 141.194 290.406 147.249C290.406 153.304 295.323 158.212 301.389 158.212Z" fill="#80B1D5"/>
<path d="M279.949 135.846C285.482 135.846 289.968 131.368 289.968 125.844C289.968 120.321 285.482 115.843 279.949 115.843C274.415 115.843 269.93 120.321 269.93 125.844C269.93 131.368 274.415 135.846 279.949 135.846Z" fill="#80B1D5"/>
<path d="M258.506 113.484C263.509 113.484 267.566 109.434 267.566 104.439C267.566 99.4443 263.509 95.395 258.506 95.395C253.502 95.395 249.445 99.4443 249.445 104.439C249.445 109.434 253.502 113.484 258.506 113.484Z" fill="#80B1D5"/>
<path d="M237.061 91.1169C241.533 91.1169 245.158 87.4983 245.158 83.0345C245.158 78.5707 241.533 74.9521 237.061 74.9521C232.59 74.9521 228.965 78.5707 228.965 83.0345C228.965 87.4983 232.59 91.1169 237.061 91.1169Z" fill="#80B1D5"/>
<path d="M215.622 68.7554C219.564 68.7554 222.76 65.5653 222.76 61.6301C222.76 57.695 219.564 54.5049 215.622 54.5049C211.68 54.5049 208.484 57.695 208.484 61.6301C208.484 65.5653 211.68 68.7554 215.622 68.7554Z" fill="#80B1D5"/>
<path d="M194.178 46.3886C197.588 46.3886 200.352 43.6292 200.352 40.2253C200.352 36.8214 197.588 34.062 194.178 34.062C190.768 34.062 188.004 36.8214 188.004 40.2253C188.004 43.6292 190.768 46.3886 194.178 46.3886Z" fill="#80B1D5"/>
<path d="M175.434 26.719C178.314 26.719 180.649 24.3881 180.649 21.5128C180.649 18.6375 178.314 16.3066 175.434 16.3066C172.554 16.3066 170.219 18.6375 170.219 21.5128C170.219 24.3881 172.554 26.719 175.434 26.719Z" fill="#80B1D5"/>
<path d="M155.135 1.24924C154.541 1.84289 154.136 2.59914 153.972 3.42238C153.808 4.24562 153.893 5.09887 154.214 5.87427C154.536 6.64967 155.081 7.3124 155.78 7.77866C156.48 8.24492 157.302 8.49378 158.142 8.49378C158.983 8.49378 159.805 8.24492 160.504 7.77866C161.203 7.3124 161.748 6.64967 162.07 5.87427C162.392 5.09887 162.476 4.24562 162.312 3.42238C162.149 2.59914 161.744 1.84289 161.149 1.24924C160.755 0.854901 160.286 0.54208 159.77 0.328652C159.254 0.115224 158.701 0.00537109 158.142 0.00537109C157.584 0.00537109 157.031 0.115224 156.515 0.328652C155.999 0.54208 155.53 0.854901 155.135 1.24924Z" fill="#80B1D5"/>
<path d="M350.706 209.36C357.833 209.36 363.611 203.592 363.611 196.478C363.611 189.363 357.833 183.595 350.706 183.595C343.579 183.595 337.801 189.363 337.801 196.478C337.801 203.592 343.579 209.36 350.706 209.36Z" fill="#80B1D5"/>
<path d="M325.114 233.946C331.712 233.946 337.061 228.607 337.061 222.021C337.061 215.434 331.712 210.095 325.114 210.095C318.517 210.095 313.168 215.434 313.168 222.021C313.168 228.607 318.517 233.946 325.114 233.946Z" fill="#80B1D5"/>
<path d="M301.389 256.666C307.455 256.666 312.372 251.757 312.372 245.702C312.372 239.647 307.455 234.739 301.389 234.739C295.323 234.739 290.406 239.647 290.406 245.702C290.406 251.757 295.323 256.666 301.389 256.666Z" fill="#80B1D5"/>
<path d="M279.949 277.108C285.482 277.108 289.968 272.631 289.968 267.107C289.968 261.583 285.482 257.105 279.949 257.105C274.415 257.105 269.93 261.583 269.93 267.107C269.93 272.631 274.415 277.108 279.949 277.108Z" fill="#80B1D5"/>
<path d="M258.506 297.555C263.509 297.555 267.566 293.506 267.566 288.511C267.566 283.516 263.509 279.467 258.506 279.467C253.502 279.467 249.445 283.516 249.445 288.511C249.445 293.506 253.502 297.555 258.506 297.555Z" fill="#80B1D5"/>
<path d="M237.061 317.998C241.533 317.998 245.158 314.38 245.158 309.916C245.158 305.452 241.533 301.833 237.061 301.833C232.59 301.833 228.965 305.452 228.965 309.916C228.965 314.38 232.59 317.998 237.061 317.998Z" fill="#80B1D5"/>
<path d="M215.622 338.446C219.564 338.446 222.76 335.256 222.76 331.321C222.76 327.386 219.564 324.196 215.622 324.196C211.68 324.196 208.484 327.386 208.484 331.321C208.484 335.256 211.68 338.446 215.622 338.446Z" fill="#80B1D5"/>
<path d="M194.178 358.889C197.588 358.889 200.352 356.13 200.352 352.726C200.352 349.322 197.588 346.562 194.178 346.562C190.768 346.562 188.004 349.322 188.004 352.726C188.004 356.13 190.768 358.889 194.178 358.889Z" fill="#80B1D5"/>
<path d="M175.434 376.649C178.314 376.649 180.649 374.318 180.649 371.443C180.649 368.567 178.314 366.236 175.434 366.236C172.554 366.236 170.219 368.567 170.219 371.443C170.219 374.318 172.554 376.649 175.434 376.649Z" fill="#80B1D5"/>
<path d="M155.135 391.706C154.541 391.113 154.136 390.357 153.972 389.533C153.808 388.71 153.893 387.857 154.214 387.081C154.536 386.306 155.081 385.643 155.78 385.177C156.48 384.711 157.302 384.462 158.142 384.462C158.983 384.462 159.805 384.711 160.504 385.177C161.203 385.643 161.748 386.306 162.07 387.081C162.392 387.857 162.476 388.71 162.312 389.533C162.149 390.357 161.744 391.113 161.149 391.706C160.755 392.101 160.286 392.414 159.77 392.627C159.254 392.84 158.701 392.95 158.142 392.95C157.584 392.95 157.031 392.84 156.515 392.627C155.999 392.414 155.53 392.101 155.135 391.706Z" fill="#80B1D5"/>
<path d="M299.374 209.36C306.501 209.36 312.279 203.592 312.279 196.478C312.279 189.363 306.501 183.595 299.374 183.595C292.247 183.595 286.469 189.363 286.469 196.478C286.469 203.592 292.247 209.36 299.374 209.36Z" fill="#80B1D5"/>
<path d="M273.79 182.856C280.388 182.856 285.736 177.516 285.736 170.93C285.736 164.344 280.388 159.005 273.79 159.005C267.192 159.005 261.844 164.344 261.844 170.93C261.844 177.516 267.192 182.856 273.79 182.856Z" fill="#80B1D5"/>
<path d="M250.065 158.212C256.13 158.212 261.047 153.304 261.047 147.249C261.047 141.194 256.13 136.286 250.065 136.286C243.999 136.286 239.082 141.194 239.082 147.249C239.082 153.304 243.999 158.212 250.065 158.212Z" fill="#80B1D5"/>
<path d="M228.621 135.846C234.154 135.846 238.64 131.368 238.64 125.844C238.64 120.321 234.154 115.843 228.621 115.843C223.087 115.843 218.602 120.321 218.602 125.844C218.602 131.368 223.087 135.846 228.621 135.846Z" fill="#80B1D5"/>
<path d="M207.177 113.484C212.181 113.484 216.238 109.434 216.238 104.439C216.238 99.4443 212.181 95.395 207.177 95.395C202.174 95.395 198.117 99.4443 198.117 104.439C198.117 109.434 202.174 113.484 207.177 113.484Z" fill="#80B1D5"/>
<path d="M185.737 91.1169C190.209 91.1169 193.834 87.4983 193.834 83.0345C193.834 78.5707 190.209 74.9521 185.737 74.9521C181.266 74.9521 177.641 78.5707 177.641 83.0345C177.641 87.4983 181.266 91.1169 185.737 91.1169Z" fill="#80B1D5"/>
<path d="M164.294 68.7554C168.236 68.7554 171.432 65.5653 171.432 61.6301C171.432 57.695 168.236 54.5049 164.294 54.5049C160.352 54.5049 157.156 57.695 157.156 61.6301C157.156 65.5653 160.352 68.7554 164.294 68.7554Z" fill="#80B1D5"/>
<path d="M142.854 46.3886C146.264 46.3886 149.028 43.6292 149.028 40.2253C149.028 36.8214 146.264 34.062 142.854 34.062C139.444 34.062 136.68 36.8214 136.68 40.2253C136.68 43.6292 139.444 46.3886 142.854 46.3886Z" fill="#80B1D5"/>
<path d="M124.102 26.719C126.982 26.719 129.317 24.3881 129.317 21.5128C129.317 18.6375 126.982 16.3066 124.102 16.3066C121.222 16.3066 118.887 18.6375 118.887 21.5128C118.887 24.3881 121.222 26.719 124.102 26.719Z" fill="#80B1D5"/>
<path d="M106.81 8.49037C109.158 8.49037 111.062 6.59017 111.062 4.24616C111.062 1.90215 109.158 0.00195312 106.81 0.00195312C104.462 0.00195312 102.559 1.90215 102.559 4.24616C102.559 6.59017 104.462 8.49037 106.81 8.49037Z" fill="#80B1D5"/>
<path d="M299.374 209.36C306.501 209.36 312.279 203.592 312.279 196.478C312.279 189.363 306.501 183.595 299.374 183.595C292.247 183.595 286.469 189.363 286.469 196.478C286.469 203.592 292.247 209.36 299.374 209.36Z" fill="#80B1D5"/>
<path d="M273.79 233.946C280.388 233.946 285.736 228.607 285.736 222.021C285.736 215.434 280.388 210.095 273.79 210.095C267.192 210.095 261.844 215.434 261.844 222.021C261.844 228.607 267.192 233.946 273.79 233.946Z" fill="#80B1D5"/>
<path d="M250.065 256.666C256.13 256.666 261.047 251.757 261.047 245.702C261.047 239.647 256.13 234.739 250.065 234.739C243.999 234.739 239.082 239.647 239.082 245.702C239.082 251.757 243.999 256.666 250.065 256.666Z" fill="#80B1D5"/>
<path d="M228.621 277.108C234.154 277.108 238.64 272.631 238.64 267.107C238.64 261.583 234.154 257.105 228.621 257.105C223.087 257.105 218.602 261.583 218.602 267.107C218.602 272.631 223.087 277.108 228.621 277.108Z" fill="#80B1D5"/>
<path d="M207.177 297.555C212.181 297.555 216.238 293.506 216.238 288.511C216.238 283.516 212.181 279.467 207.177 279.467C202.174 279.467 198.117 283.516 198.117 288.511C198.117 293.506 202.174 297.555 207.177 297.555Z" fill="#80B1D5"/>
<path d="M185.737 317.998C190.209 317.998 193.834 314.38 193.834 309.916C193.834 305.452 190.209 301.833 185.737 301.833C181.266 301.833 177.641 305.452 177.641 309.916C177.641 314.38 181.266 317.998 185.737 317.998Z" fill="#80B1D5"/>
<path d="M164.294 338.446C168.236 338.446 171.432 335.256 171.432 331.321C171.432 327.386 168.236 324.196 164.294 324.196C160.352 324.196 157.156 327.386 157.156 331.321C157.156 335.256 160.352 338.446 164.294 338.446Z" fill="#80B1D5"/>
<path d="M142.854 358.889C146.264 358.889 149.028 356.13 149.028 352.726C149.028 349.322 146.264 346.562 142.854 346.562C139.444 346.562 136.68 349.322 136.68 352.726C136.68 356.13 139.444 358.889 142.854 358.889Z" fill="#80B1D5"/>
<path d="M124.102 376.649C126.982 376.649 129.317 374.318 129.317 371.443C129.317 368.567 126.982 366.236 124.102 366.236C121.222 366.236 118.887 368.567 118.887 371.443C118.887 374.318 121.222 376.649 124.102 376.649Z" fill="#80B1D5"/>
<path d="M106.81 392.949C109.158 392.949 111.062 391.049 111.062 388.705C111.062 386.361 109.158 384.46 106.81 384.46C104.462 384.46 102.559 386.361 102.559 388.705C102.559 391.049 104.462 392.949 106.81 392.949Z" fill="#80B1D5"/>
<path d="M248.054 209.36C255.181 209.36 260.959 203.592 260.959 196.478C260.959 189.363 255.181 183.595 248.054 183.595C240.926 183.595 235.148 189.363 235.148 196.478C235.148 203.592 240.926 209.36 248.054 209.36Z" fill="#80B1D5"/>
<path d="M222.458 182.856C229.056 182.856 234.404 177.516 234.404 170.93C234.404 164.344 229.056 159.005 222.458 159.005C215.86 159.005 210.512 164.344 210.512 170.93C210.512 177.516 215.86 182.856 222.458 182.856Z" fill="#80B1D5"/>
<path d="M198.733 158.212C204.798 158.212 209.715 153.304 209.715 147.249C209.715 141.194 204.798 136.286 198.733 136.286C192.667 136.286 187.75 141.194 187.75 147.249C187.75 153.304 192.667 158.212 198.733 158.212Z" fill="#80B1D5"/>
<path d="M177.292 135.846C182.826 135.846 187.312 131.368 187.312 125.844C187.312 120.321 182.826 115.843 177.292 115.843C171.759 115.843 167.273 120.321 167.273 125.844C167.273 131.368 171.759 135.846 177.292 135.846Z" fill="#80B1D5"/>
<path d="M155.849 113.484C160.853 113.484 164.91 109.434 164.91 104.439C164.91 99.4443 160.853 95.395 155.849 95.395C150.845 95.395 146.789 99.4443 146.789 104.439C146.789 109.434 150.845 113.484 155.849 113.484Z" fill="#80B1D5"/>
<path d="M134.409 91.1169C138.881 91.1169 142.506 87.4983 142.506 83.0345C142.506 78.5707 138.881 74.9521 134.409 74.9521C129.938 74.9521 126.312 78.5707 126.312 83.0345C126.312 87.4983 129.938 91.1169 134.409 91.1169Z" fill="#80B1D5"/>
<path d="M112.966 68.7554C116.908 68.7554 120.104 65.5653 120.104 61.6301C120.104 57.695 116.908 54.5049 112.966 54.5049C109.024 54.5049 105.828 57.695 105.828 61.6301C105.828 65.5653 109.024 68.7554 112.966 68.7554Z" fill="#80B1D5"/>
<path d="M91.5218 46.3886C94.9317 46.3886 97.696 43.6292 97.696 40.2253C97.696 36.8214 94.9317 34.062 91.5218 34.062C88.1119 34.062 85.3477 36.8214 85.3477 40.2253C85.3477 43.6292 88.1119 46.3886 91.5218 46.3886Z" fill="#80B1D5"/>
<path d="M69.0918 17.8343C68.3633 18.5618 67.8673 19.4886 67.6664 20.4975C67.4655 21.5064 67.5688 22.5521 67.9632 23.5024C68.3577 24.4527 69.0255 25.2649 69.8823 25.8363C70.7391 26.4078 71.7465 26.7128 72.7769 26.7128C73.8074 26.7128 74.8147 26.4078 75.6715 25.8363C76.5283 25.2649 77.1962 24.4527 77.5906 23.5024C77.985 22.5521 78.0883 21.5064 77.8874 20.4975C77.6866 19.4886 77.1905 18.5618 76.462 17.8343C75.9785 17.3505 75.4041 16.9667 74.7718 16.7048C74.1394 16.4429 73.4615 16.3081 72.7769 16.3081C72.0923 16.3081 71.4144 16.4429 70.7821 16.7048C70.1497 16.9667 69.5753 17.3505 69.0918 17.8343Z" fill="#80B1D5"/>
<path d="M55.4821 8.49037C57.8302 8.49037 59.7339 6.59017 59.7339 4.24616C59.7339 1.90215 57.8302 0.00195312 55.4821 0.00195312C53.1339 0.00195312 51.2305 1.90215 51.2305 4.24616C51.2305 6.59017 53.1339 8.49037 55.4821 8.49037Z" fill="#80B1D5"/>
<path d="M248.054 209.36C255.181 209.36 260.959 203.592 260.959 196.478C260.959 189.363 255.181 183.595 248.054 183.595C240.926 183.595 235.148 189.363 235.148 196.478C235.148 203.592 240.926 209.36 248.054 209.36Z" fill="#80B1D5"/>
<path d="M222.458 233.946C229.056 233.946 234.404 228.607 234.404 222.021C234.404 215.434 229.056 210.095 222.458 210.095C215.86 210.095 210.512 215.434 210.512 222.021C210.512 228.607 215.86 233.946 222.458 233.946Z" fill="#80B1D5"/>
<path d="M198.733 256.666C204.798 256.666 209.715 251.757 209.715 245.702C209.715 239.647 204.798 234.739 198.733 234.739C192.667 234.739 187.75 239.647 187.75 245.702C187.75 251.757 192.667 256.666 198.733 256.666Z" fill="#80B1D5"/>
<path d="M177.292 277.108C182.826 277.108 187.312 272.631 187.312 267.107C187.312 261.583 182.826 257.105 177.292 257.105C171.759 257.105 167.273 261.583 167.273 267.107C167.273 272.631 171.759 277.108 177.292 277.108Z" fill="#80B1D5"/>
<path d="M155.849 297.555C160.853 297.555 164.91 293.506 164.91 288.511C164.91 283.516 160.853 279.467 155.849 279.467C150.845 279.467 146.789 283.516 146.789 288.511C146.789 293.506 150.845 297.555 155.849 297.555Z" fill="#80B1D5"/>
<path d="M134.409 317.998C138.881 317.998 142.506 314.38 142.506 309.916C142.506 305.452 138.881 301.833 134.409 301.833C129.938 301.833 126.312 305.452 126.312 309.916C126.312 314.38 129.938 317.998 134.409 317.998Z" fill="#80B1D5"/>
<path d="M112.966 338.446C116.908 338.446 120.104 335.256 120.104 331.321C120.104 327.386 116.908 324.196 112.966 324.196C109.024 324.196 105.828 327.386 105.828 331.321C105.828 335.256 109.024 338.446 112.966 338.446Z" fill="#80B1D5"/>
<path d="M91.5218 358.889C94.9317 358.889 97.696 356.13 97.696 352.726C97.696 349.322 94.9317 346.562 91.5218 346.562C88.1119 346.562 85.3477 349.322 85.3477 352.726C85.3477 356.13 88.1119 358.889 91.5218 358.889Z" fill="#80B1D5"/>
<path d="M69.0918 375.121C68.3633 374.394 67.8673 373.467 67.6664 372.458C67.4655 371.449 67.5688 370.403 67.9632 369.453C68.3577 368.503 69.0255 367.691 69.8823 367.119C70.7391 366.548 71.7465 366.243 72.7769 366.243C73.8074 366.243 74.8147 366.548 75.6715 367.119C76.5283 367.691 77.1962 368.503 77.5906 369.453C77.985 370.403 78.0883 371.449 77.8874 372.458C77.6866 373.467 77.1905 374.394 76.462 375.121C75.9785 375.605 75.4041 375.989 74.7718 376.251C74.1394 376.513 73.4615 376.647 72.7769 376.647C72.0923 376.647 71.4144 376.513 70.7821 376.251C70.1497 375.989 69.5753 375.605 69.0918 375.121Z" fill="#80B1D5"/>
<path d="M55.4821 392.949C57.8302 392.949 59.7339 391.049 59.7339 388.705C59.7339 386.361 57.8302 384.46 55.4821 384.46C53.1339 384.46 51.2305 386.361 51.2305 388.705C51.2305 391.049 53.1339 392.949 55.4821 392.949Z" fill="#80B1D5"/>
<path d="M196.718 209.36C203.845 209.36 209.623 203.592 209.623 196.478C209.623 189.363 203.845 183.595 196.718 183.595C189.591 183.595 183.812 189.363 183.812 196.478C183.812 203.592 189.591 209.36 196.718 209.36Z" fill="#80B1D5"/>
<path d="M171.133 182.851C177.728 182.851 183.074 177.514 183.074 170.93C183.074 164.347 177.728 159.01 171.133 159.01C164.538 159.01 159.191 164.347 159.191 170.93C159.191 177.514 164.538 182.851 171.133 182.851Z" fill="#80B1D5"/>
<path d="M147.404 158.212C153.47 158.212 158.387 153.304 158.387 147.249C158.387 141.194 153.47 136.286 147.404 136.286C141.339 136.286 136.422 141.194 136.422 147.249C136.422 153.304 141.339 158.212 147.404 158.212Z" fill="#80B1D5"/>
<path d="M125.964 135.846C131.498 135.846 135.983 131.368 135.983 125.844C135.983 120.321 131.498 115.843 125.964 115.843C120.431 115.843 115.945 120.321 115.945 125.844C115.945 131.368 120.431 135.846 125.964 135.846Z" fill="#80B1D5"/>
<path d="M104.521 113.484C109.525 113.484 113.581 109.434 113.581 104.439C113.581 99.4443 109.525 95.395 104.521 95.395C99.5173 95.395 95.4609 99.4443 95.4609 104.439C95.4609 109.434 99.5173 113.484 104.521 113.484Z" fill="#80B1D5"/>
<path d="M83.0772 91.1169C87.5488 91.1169 91.1737 87.4983 91.1737 83.0345C91.1737 78.5707 87.5488 74.9521 83.0772 74.9521C78.6056 74.9521 74.9805 78.5707 74.9805 83.0345C74.9805 87.4983 78.6056 91.1169 83.0772 91.1169Z" fill="#80B1D5"/>
<path d="M61.6377 68.7554C65.5798 68.7554 68.7756 65.5653 68.7756 61.6301C68.7756 57.695 65.5798 54.5049 61.6377 54.5049C57.6956 54.5049 54.5 57.695 54.5 61.6301C54.5 65.5653 57.6956 68.7554 61.6377 68.7554Z" fill="#80B1D5"/>
<path d="M40.1898 46.3886C43.5997 46.3886 46.3639 43.6292 46.3639 40.2253C46.3639 36.8214 43.5997 34.062 40.1898 34.062C36.7799 34.062 34.0156 36.8214 34.0156 40.2253C34.0156 43.6292 36.7799 46.3886 40.1898 46.3886Z" fill="#80B1D5"/>
<path d="M21.4497 26.719C24.3301 26.719 26.6651 24.3881 26.6651 21.5128C26.6651 18.6375 24.3301 16.3066 21.4497 16.3066C18.5694 16.3066 16.2344 18.6375 16.2344 21.5128C16.2344 24.3881 18.5694 26.719 21.4497 26.719Z" fill="#80B1D5"/>
<path d="M1.14686 1.24924C0.552471 1.84289 0.147755 2.59914 -0.0161199 3.42238C-0.179994 4.24562 -0.0956682 5.09887 0.226197 5.87427C0.548062 6.64967 1.09301 7.3124 1.79215 7.77866C2.49129 8.24492 3.31323 8.49378 4.15404 8.49378C4.99485 8.49378 5.81678 8.24492 6.51592 7.77866C7.21506 7.3124 7.76001 6.64967 8.08188 5.87427C8.40374 5.09887 8.48807 4.24562 8.32419 3.42238C8.16032 2.59914 7.7556 1.84289 7.16121 1.24924C6.76638 0.854901 6.29758 0.54208 5.7816 0.328652C5.26561 0.115224 4.71256 0.00537109 4.15404 0.00537109C3.59551 0.00537109 3.04246 0.115224 2.52648 0.328652C2.0105 0.54208 1.5417 0.854901 1.14686 1.24924Z" fill="#80B1D5"/>
<path d="M196.718 209.36C203.845 209.36 209.623 203.592 209.623 196.478C209.623 189.363 203.845 183.595 196.718 183.595C189.591 183.595 183.812 189.363 183.812 196.478C183.812 203.592 189.591 209.36 196.718 209.36Z" fill="#80B1D5"/>
<path d="M171.133 233.941C177.728 233.941 183.074 228.604 183.074 222.02C183.074 215.437 177.728 210.1 171.133 210.1C164.538 210.1 159.191 215.437 159.191 222.02C159.191 228.604 164.538 233.941 171.133 233.941Z" fill="#80B1D5"/>
<path d="M147.404 256.666C153.47 256.666 158.387 251.757 158.387 245.702C158.387 239.647 153.47 234.739 147.404 234.739C141.339 234.739 136.422 239.647 136.422 245.702C136.422 251.757 141.339 256.666 147.404 256.666Z" fill="#80B1D5"/>
<path d="M125.964 277.108C131.498 277.108 135.983 272.631 135.983 267.107C135.983 261.583 131.498 257.105 125.964 257.105C120.431 257.105 115.945 261.583 115.945 267.107C115.945 272.631 120.431 277.108 125.964 277.108Z" fill="#80B1D5"/>
<path d="M104.521 297.555C109.525 297.555 113.581 293.506 113.581 288.511C113.581 283.516 109.525 279.467 104.521 279.467C99.5173 279.467 95.4609 283.516 95.4609 288.511C95.4609 293.506 99.5173 297.555 104.521 297.555Z" fill="#80B1D5"/>
<path d="M83.0772 317.998C87.5488 317.998 91.1737 314.38 91.1737 309.916C91.1737 305.452 87.5488 301.833 83.0772 301.833C78.6056 301.833 74.9805 305.452 74.9805 309.916C74.9805 314.38 78.6056 317.998 83.0772 317.998Z" fill="#80B1D5"/>
<path d="M61.6377 338.446C65.5798 338.446 68.7756 335.256 68.7756 331.321C68.7756 327.386 65.5798 324.196 61.6377 324.196C57.6956 324.196 54.5 327.386 54.5 331.321C54.5 335.256 57.6956 338.446 61.6377 338.446Z" fill="#80B1D5"/>
<path d="M40.1898 358.889C43.5997 358.889 46.3639 356.13 46.3639 352.726C46.3639 349.322 43.5997 346.562 40.1898 346.562C36.7799 346.562 34.0156 349.322 34.0156 352.726C34.0156 356.13 36.7799 358.889 40.1898 358.889Z" fill="#80B1D5"/>
<path d="M21.4497 376.649C24.3301 376.649 26.6651 374.318 26.6651 371.443C26.6651 368.567 24.3301 366.236 21.4497 366.236C18.5694 366.236 16.2344 368.567 16.2344 371.443C16.2344 374.318 18.5694 376.649 21.4497 376.649Z" fill="#80B1D5"/>
<path d="M1.14686 391.706C0.552471 391.113 0.147755 390.357 -0.0161199 389.533C-0.179994 388.71 -0.0956682 387.857 0.226197 387.081C0.548062 386.306 1.09301 385.643 1.79215 385.177C2.49129 384.711 3.31323 384.462 4.15404 384.462C4.99485 384.462 5.81678 384.711 6.51592 385.177C7.21506 385.643 7.76001 386.306 8.08188 387.081C8.40374 387.857 8.48807 388.71 8.32419 389.533C8.16032 390.357 7.7556 391.113 7.16121 391.706C6.76638 392.101 6.29758 392.414 5.7816 392.627C5.26561 392.84 4.71256 392.95 4.15404 392.95C3.59551 392.95 3.04246 392.84 2.52648 392.627C2.0105 392.414 1.5417 392.101 1.14686 391.706Z" fill="#80B1D5"/>
</g>
<defs>
<clipPath id="clip0_64_10243">
<rect width="415" height="393" fill="white" transform="translate(0 0.00195312)"/>
</clipPath>
</defs>
</svg>
