<svg width="167" height="159" viewBox="0 0 167 159" fill="none" xmlns="http://www.w3.org/2000/svg">
<g opacity="0.5" clip-path="url(#clip0_64_5653)">
<path d="M161.143 74.1819C163.994 74.1819 166.305 76.4914 166.305 79.3404C166.305 82.1894 163.994 84.499 161.143 84.499C158.292 84.499 155.98 82.1894 155.98 79.3404C155.98 76.4914 158.292 74.1819 161.143 74.1819Z" fill="#6E9FC4"/>
<path d="M150.909 84.797C153.548 84.797 155.686 86.9341 155.686 89.5704C155.686 92.2066 153.548 94.3438 150.909 94.3438C148.271 94.3438 146.133 92.2066 146.133 89.5704C146.133 86.9341 148.271 84.797 150.909 84.797Z" fill="#6E9FC4"/>
<path d="M141.417 94.6641C143.843 94.6641 145.81 96.6296 145.81 99.0542C145.81 101.479 143.843 103.444 141.417 103.444C138.99 103.444 137.023 101.479 137.023 99.0542C137.023 96.6296 138.99 94.6641 141.417 94.6641Z" fill="#6E9FC4"/>
<path d="M132.844 103.619C135.057 103.619 136.851 105.412 136.851 107.624C136.851 109.835 135.057 111.628 132.844 111.628C130.63 111.628 128.836 109.835 128.836 107.624C128.836 105.412 130.63 103.619 132.844 103.619Z" fill="#6E9FC4"/>
<path d="M124.265 112.575C126.266 112.575 127.889 114.196 127.889 116.196C127.889 118.196 126.266 119.818 124.265 119.818C122.263 119.818 120.641 118.196 120.641 116.196C120.641 114.196 122.263 112.575 124.265 112.575Z" fill="#6E9FC4"/>
<path d="M115.688 121.53C117.477 121.53 118.927 122.979 118.927 124.766C118.927 126.553 117.477 128.002 115.688 128.002C113.899 128.002 112.449 126.553 112.449 124.766C112.449 122.979 113.899 121.53 115.688 121.53Z" fill="#6E9FC4"/>
<path d="M107.113 130.483C108.69 130.483 109.968 131.76 109.968 133.336C109.968 134.912 108.69 136.189 107.113 136.189C105.536 136.189 104.258 134.912 104.258 133.336C104.258 131.76 105.536 130.483 107.113 130.483Z" fill="#6E9FC4"/>
<path d="M98.5322 139.44C99.8962 139.44 101.002 140.545 101.002 141.908C101.002 143.271 99.8962 144.376 98.5322 144.376C97.1682 144.376 96.0625 143.271 96.0625 141.908C96.0625 140.545 97.1682 139.44 98.5322 139.44Z" fill="#6E9FC4"/>
<path d="M91.0315 147.318C92.1837 147.318 93.1177 148.252 93.1177 149.403C93.1177 150.554 92.1837 151.488 91.0315 151.488C89.8793 151.488 88.9453 150.554 88.9453 149.403C88.9453 148.252 89.8793 147.318 91.0315 147.318Z" fill="#6E9FC4"/>
<path d="M84.1148 154.617C85.0541 154.617 85.8155 155.378 85.8155 156.317C85.8155 157.255 85.0541 158.016 84.1148 158.016C83.1756 158.016 82.4141 157.255 82.4141 156.317C82.4141 155.378 83.1756 154.617 84.1148 154.617Z" fill="#6E9FC4"/>
<path d="M161.143 74.1819C163.994 74.1819 166.305 76.4914 166.305 79.3404C166.305 82.1894 163.994 84.499 161.143 84.499C158.292 84.499 155.98 82.1894 155.98 79.3404C155.98 76.4914 158.292 74.1819 161.143 74.1819Z" fill="#6E9FC4"/>
<path d="M150.909 64.337C153.548 64.337 155.686 66.4741 155.686 69.1104C155.686 71.7467 153.548 73.8838 150.909 73.8838C148.271 73.8838 146.133 71.7467 146.133 69.1104C146.133 66.4741 148.271 64.337 150.909 64.337Z" fill="#6E9FC4"/>
<path d="M141.421 55.2388C143.847 55.2388 145.814 57.2043 145.814 59.6289C145.814 62.0535 143.847 64.019 141.421 64.019C138.994 64.019 137.027 62.0535 137.027 59.6289C137.027 57.2043 138.994 55.2388 141.421 55.2388Z" fill="#6E9FC4"/>
<path d="M132.84 47.0536C135.053 47.0536 136.847 48.8467 136.847 51.0586C136.847 53.2704 135.053 55.0635 132.84 55.0635C130.626 55.0635 128.832 53.2704 128.832 51.0586C128.832 48.8467 130.626 47.0536 132.84 47.0536Z" fill="#6E9FC4"/>
<path d="M124.265 38.8651C126.266 38.8651 127.889 40.4866 127.889 42.4867C127.889 44.4869 126.266 46.1084 124.265 46.1084C122.263 46.1084 120.641 44.4869 120.641 42.4867C120.641 40.4866 122.263 38.8651 124.265 38.8651Z" fill="#6E9FC4"/>
<path d="M115.688 30.6775C117.477 30.6775 118.927 32.1265 118.927 33.9139C118.927 35.7014 117.477 37.1504 115.688 37.1504C113.899 37.1504 112.449 35.7014 112.449 33.9139C112.449 32.1265 113.899 30.6775 115.688 30.6775Z" fill="#6E9FC4"/>
<path d="M107.109 22.4919C108.686 22.4919 109.964 23.7693 109.964 25.345C109.964 26.9208 108.686 28.1982 107.109 28.1982C105.532 28.1982 104.254 26.9208 104.254 25.345C104.254 23.7693 105.532 22.4919 107.109 22.4919Z" fill="#6E9FC4"/>
<path d="M98.5322 14.3043C99.8962 14.3043 101.002 15.4092 101.002 16.7722C101.002 18.1353 99.8962 19.2402 98.5322 19.2402C97.1682 19.2402 96.0625 18.1353 96.0625 16.7722C96.0625 15.4092 97.1682 14.3043 98.5322 14.3043Z" fill="#6E9FC4"/>
<path d="M91.0354 7.19237C92.1876 7.19237 93.1216 8.12573 93.1216 9.27709C93.1216 10.4284 92.1876 11.3618 91.0354 11.3618C89.8832 11.3618 88.9492 10.4284 88.9492 9.27709C88.9492 8.12573 89.8832 7.19237 91.0354 7.19237Z" fill="#6E9FC4"/>
<path d="M84.1148 0.66638C85.0541 0.66638 85.8155 1.42729 85.8155 2.36591C85.8155 3.30453 85.0541 4.06543 84.1148 4.06543C83.1756 4.06543 82.4141 3.30453 82.4141 2.36591C82.4141 1.42729 83.1756 0.66638 84.1148 0.66638Z" fill="#6E9FC4"/>
<path d="M140.615 74.1809C143.466 74.1809 145.777 76.4905 145.777 79.3395C145.777 82.1885 143.466 84.498 140.615 84.498C137.764 84.498 135.453 82.1885 135.453 79.3395C135.453 76.4905 137.764 74.1809 140.615 74.1809Z" fill="#6E9FC4"/>
<path d="M130.376 84.7936C133.015 84.7936 135.155 86.9316 135.155 89.5689C135.155 92.2063 133.015 94.3442 130.376 94.3442C127.737 94.3442 125.598 92.2063 125.598 89.5689C125.598 86.9316 127.737 84.7936 130.376 84.7936Z" fill="#6E9FC4"/>
<path d="M120.885 94.6621C123.312 94.6621 125.279 96.6277 125.279 99.0523C125.279 101.477 123.312 103.442 120.885 103.442C118.459 103.442 116.492 101.477 116.492 99.0523C116.492 96.6277 118.459 94.6621 120.885 94.6621Z" fill="#6E9FC4"/>
<path d="M112.308 103.62C114.522 103.62 116.316 105.413 116.316 107.624C116.316 109.836 114.522 111.629 112.308 111.629C110.095 111.629 108.301 109.836 108.301 107.624C108.301 105.413 110.095 103.62 112.308 103.62Z" fill="#6E9FC4"/>
<path d="M103.734 112.573C105.735 112.573 107.358 114.194 107.358 116.194C107.358 118.194 105.735 119.816 103.734 119.816C101.732 119.816 100.109 118.194 100.109 116.194C100.109 114.194 101.732 112.573 103.734 112.573Z" fill="#6E9FC4"/>
<path d="M95.1527 121.53C96.9414 121.53 98.3915 122.979 98.3915 124.766C98.3915 126.554 96.9414 128.003 95.1527 128.003C93.364 128.003 91.9141 126.554 91.9141 124.766C91.9141 122.979 93.364 121.53 95.1527 121.53Z" fill="#6E9FC4"/>
<path d="M86.5779 130.483C88.1548 130.483 89.433 131.76 89.433 133.336C89.433 134.912 88.1548 136.189 86.5779 136.189C85.001 136.189 83.7227 134.912 83.7227 133.336C83.7227 131.76 85.001 130.483 86.5779 130.483Z" fill="#6E9FC4"/>
<path d="M78.001 139.44C79.3649 139.44 80.4707 140.545 80.4707 141.908C80.4707 143.272 79.3649 144.376 78.001 144.376C76.637 144.376 75.5312 143.272 75.5312 141.908C75.5312 140.545 76.637 139.44 78.001 139.44Z" fill="#6E9FC4"/>
<path d="M70.5042 147.317C71.6563 147.317 72.5903 148.251 72.5903 149.402C72.5903 150.553 71.6563 151.487 70.5042 151.487C69.352 151.487 68.418 150.553 68.418 149.402C68.418 148.251 69.352 147.317 70.5042 147.317Z" fill="#6E9FC4"/>
<path d="M62.3806 157.516C62.1429 157.278 61.981 156.976 61.9154 156.646C61.8499 156.316 61.8836 155.975 62.0124 155.664C62.1411 155.354 62.3591 155.088 62.6388 154.901C62.9184 154.715 63.2472 154.615 63.5835 154.615C63.9199 154.615 64.2486 154.715 64.5283 154.901C64.808 155.088 65.0259 155.354 65.1547 155.664C65.2834 155.975 65.3172 156.316 65.2516 156.646C65.1861 156.976 65.0242 157.278 64.7864 157.516C64.6285 157.674 64.441 157.799 64.2346 157.885C64.0282 157.97 63.8069 158.014 63.5835 158.014C63.3601 158.014 63.1389 157.97 62.9325 157.885C62.7261 157.799 62.5386 157.674 62.3806 157.516Z" fill="#6E9FC4"/>
<path d="M140.615 74.1809C143.466 74.1809 145.777 76.4905 145.777 79.3395C145.777 82.1885 143.466 84.498 140.615 84.498C137.764 84.498 135.453 82.1885 135.453 79.3395C135.453 76.4905 137.764 74.1809 140.615 74.1809Z" fill="#6E9FC4"/>
<path d="M130.376 64.3361C133.015 64.3361 135.155 66.4741 135.155 69.1114C135.155 71.7487 133.015 73.8867 130.376 73.8867C127.737 73.8867 125.598 71.7487 125.598 69.1114C125.598 66.4741 127.737 64.3361 130.376 64.3361Z" fill="#6E9FC4"/>
<path d="M120.889 55.2364C123.316 55.2364 125.282 57.2019 125.282 59.6265C125.282 62.0511 123.316 64.0166 120.889 64.0166C118.463 64.0166 116.496 62.0511 116.496 59.6265C116.496 57.2019 118.463 55.2364 120.889 55.2364Z" fill="#6E9FC4"/>
<path d="M112.308 47.0522C114.522 47.0522 116.316 48.8452 116.316 51.0571C116.316 53.2689 114.522 55.062 112.308 55.062C110.095 55.062 108.301 53.2689 108.301 51.0571C108.301 48.8452 110.095 47.0522 112.308 47.0522Z" fill="#6E9FC4"/>
<path d="M103.73 38.8661C105.731 38.8661 107.354 40.4875 107.354 42.4877C107.354 44.4879 105.731 46.1094 103.73 46.1094C101.728 46.1094 100.105 44.4879 100.105 42.4877C100.105 40.4875 101.728 38.8661 103.73 38.8661Z" fill="#6E9FC4"/>
<path d="M95.1566 30.6785C96.9453 30.6785 98.3954 32.1275 98.3954 33.9149C98.3954 35.7024 96.9453 37.1514 95.1566 37.1514C93.3679 37.1514 91.918 35.7024 91.918 33.9149C91.918 32.1275 93.3679 30.6785 95.1566 30.6785Z" fill="#6E9FC4"/>
<path d="M86.5779 22.4923C88.1548 22.4923 89.433 23.7698 89.433 25.3455C89.433 26.9213 88.1548 28.1987 86.5779 28.1987C85.001 28.1987 83.7227 26.9213 83.7227 25.3455C83.7227 23.7698 85.001 22.4923 86.5779 22.4923Z" fill="#6E9FC4"/>
<path d="M78.001 14.3047C79.3649 14.3047 80.4707 15.4097 80.4707 16.7727C80.4707 18.1358 79.3649 19.2407 78.001 19.2407C76.637 19.2407 75.5312 18.1358 75.5312 16.7727C75.5312 15.4097 76.637 14.3047 78.001 14.3047Z" fill="#6E9FC4"/>
<path d="M70.5002 7.19384C71.6524 7.19384 72.5864 8.12719 72.5864 9.27855C72.5864 10.4299 71.6524 11.3633 70.5002 11.3633C69.3481 11.3633 68.4141 10.4299 68.4141 9.27855C68.4141 8.12719 69.3481 7.19384 70.5002 7.19384Z" fill="#6E9FC4"/>
<path d="M62.3806 1.16349C62.1429 1.40121 61.981 1.70403 61.9154 2.03368C61.8499 2.36333 61.8836 2.70501 62.0124 3.01551C62.1411 3.326 62.3591 3.59138 62.6388 3.77808C62.9184 3.96479 63.2472 4.06445 63.5835 4.06445C63.9199 4.06445 64.2486 3.96479 64.5283 3.77808C64.808 3.59138 65.0259 3.326 65.1547 3.01551C65.2834 2.70501 65.3172 2.36333 65.2516 2.03368C65.1861 1.70403 65.0242 1.40121 64.7864 1.16349C64.6285 1.00558 64.441 0.880318 64.2346 0.794854C64.0282 0.70939 63.8069 0.665403 63.5835 0.665403C63.3601 0.665403 63.1389 0.70939 62.9325 0.794854C62.7261 0.880318 62.5386 1.00558 62.3806 1.16349Z" fill="#6E9FC4"/>
<path d="M120.08 74.1814C122.931 74.1814 125.242 76.4909 125.242 79.3399C125.242 82.189 122.931 84.4985 120.08 84.4985C117.229 84.4985 114.918 82.189 114.918 79.3399C114.918 76.4909 117.229 74.1814 120.08 74.1814Z" fill="#6E9FC4"/>
<path d="M109.849 84.7921C112.488 84.7921 114.628 86.9301 114.628 89.5675C114.628 92.2048 112.488 94.3428 109.849 94.3428C107.21 94.3428 105.07 92.2048 105.07 89.5675C105.07 86.9301 107.21 84.7921 109.849 84.7921Z" fill="#6E9FC4"/>
<path d="M100.354 94.6636C102.78 94.6636 104.747 96.6291 104.747 99.0537C104.747 101.478 102.78 103.444 100.354 103.444C97.9278 103.444 95.9609 101.478 95.9609 99.0537C95.9609 96.6291 97.9278 94.6636 100.354 94.6636Z" fill="#6E9FC4"/>
<path d="M91.7811 103.618C93.9945 103.618 95.7888 105.411 95.7888 107.623C95.7888 109.835 93.9945 111.628 91.7811 111.628C89.5677 111.628 87.7734 109.835 87.7734 107.623C87.7734 105.411 89.5677 103.618 91.7811 103.618Z" fill="#6E9FC4"/>
<path d="M83.2023 112.574C85.2039 112.574 86.8265 114.196 86.8265 116.196C86.8265 118.196 85.2039 119.817 83.2023 119.817C81.2007 119.817 79.5781 118.196 79.5781 116.196C79.5781 114.196 81.2007 112.574 83.2023 112.574Z" fill="#6E9FC4"/>
<path d="M74.6255 121.529C76.4142 121.529 77.8641 122.978 77.8641 124.765C77.8641 126.552 76.4142 128.001 74.6255 128.001C72.8368 128.001 71.3867 126.552 71.3867 124.765C71.3867 122.978 72.8368 121.529 74.6255 121.529Z" fill="#6E9FC4"/>
<path d="M66.0504 130.482C67.6273 130.482 68.9057 131.76 68.9057 133.335C68.9057 134.911 67.6273 136.188 66.0504 136.188C64.4736 136.188 63.1953 134.911 63.1953 133.335C63.1953 131.76 64.4736 130.482 66.0504 130.482Z" fill="#6E9FC4"/>
<path d="M57.4697 139.442C58.8337 139.442 59.9394 140.547 59.9394 141.91C59.9394 143.273 58.8337 144.378 57.4697 144.378C56.1057 144.378 55 143.273 55 141.91C55 140.547 56.1057 139.442 57.4697 139.442Z" fill="#6E9FC4"/>
<path d="M49.9729 147.315C51.1251 147.315 52.0591 148.248 52.0591 149.4C52.0591 150.551 51.1251 151.484 49.9729 151.484C48.8207 151.484 47.8867 150.551 47.8867 149.4C47.8867 148.248 48.8207 147.315 49.9729 147.315Z" fill="#6E9FC4"/>
<path d="M43.0522 154.617C43.9915 154.617 44.753 155.377 44.753 156.316C44.753 157.255 43.9915 158.016 43.0522 158.016C42.113 158.016 41.3516 157.255 41.3516 156.316C41.3516 155.377 42.113 154.617 43.0522 154.617Z" fill="#6E9FC4"/>
<path d="M120.08 74.1814C122.931 74.1814 125.242 76.4909 125.242 79.3399C125.242 82.189 122.931 84.4985 120.08 84.4985C117.229 84.4985 114.918 82.189 114.918 79.3399C114.918 76.4909 117.229 74.1814 120.08 74.1814Z" fill="#6E9FC4"/>
<path d="M109.845 64.3351C112.484 64.3351 114.624 66.4731 114.624 69.1104C114.624 71.7478 112.484 73.8857 109.845 73.8857C107.206 73.8857 105.066 71.7478 105.066 69.1104C105.066 66.4731 107.206 64.3351 109.845 64.3351Z" fill="#6E9FC4"/>
<path d="M100.358 55.2383C102.784 55.2383 104.751 57.2038 104.751 59.6284C104.751 62.053 102.784 64.0186 100.358 64.0186C97.9317 64.0186 95.9648 62.053 95.9648 59.6284C95.9648 57.2038 97.9317 55.2383 100.358 55.2383Z" fill="#6E9FC4"/>
<path d="M91.7772 47.0536C93.9906 47.0536 95.7849 48.8467 95.7849 51.0586C95.7849 53.2704 93.9906 55.0635 91.7772 55.0635C89.5638 55.0635 87.7695 53.2704 87.7695 51.0586C87.7695 48.8467 89.5638 47.0536 91.7772 47.0536Z" fill="#6E9FC4"/>
<path d="M83.2023 38.8646C85.2039 38.8646 86.8265 40.4861 86.8265 42.4863C86.8265 44.4864 85.2039 46.1079 83.2023 46.1079C81.2007 46.1079 79.5781 44.4864 79.5781 42.4863C79.5781 40.4861 81.2007 38.8646 83.2023 38.8646Z" fill="#6E9FC4"/>
<path d="M74.6255 30.677C76.4142 30.677 77.8641 32.126 77.8641 33.9135C77.8641 35.7009 76.4142 37.1499 74.6255 37.1499C72.8368 37.1499 71.3867 35.7009 71.3867 33.9135C71.3867 32.126 72.8368 30.677 74.6255 30.677Z" fill="#6E9FC4"/>
<path d="M66.0465 22.4909C67.6234 22.4909 68.9018 23.7683 68.9018 25.3441C68.9018 26.9198 67.6234 28.1973 66.0465 28.1973C64.4697 28.1973 63.1914 26.9198 63.1914 25.3441C63.1914 23.7683 64.4697 22.4909 66.0465 22.4909Z" fill="#6E9FC4"/>
<path d="M57.4697 14.3062C58.8337 14.3062 59.9394 15.4112 59.9394 16.7742C59.9394 18.1372 58.8337 19.2422 57.4697 19.2422C56.1057 19.2422 55 18.1372 55 16.7742C55 15.4112 56.1057 14.3062 57.4697 14.3062Z" fill="#6E9FC4"/>
<path d="M49.969 7.19432C51.1212 7.19432 52.0552 8.12768 52.0552 9.27904C52.0552 10.4304 51.1212 11.3638 49.969 11.3638C48.8168 11.3638 47.8828 10.4304 47.8828 9.27904C47.8828 8.12768 48.8168 7.19432 49.969 7.19432Z" fill="#6E9FC4"/>
<path d="M43.0522 0.665892C43.9915 0.665892 44.753 1.4268 44.753 2.36542C44.753 3.30404 43.9915 4.06494 43.0522 4.06494C42.113 4.06494 41.3516 3.30404 41.3516 2.36542C41.3516 1.4268 42.113 0.665892 43.0522 0.665892Z" fill="#6E9FC4"/>
<path d="M99.5529 74.1799C102.404 74.1799 104.715 76.4895 104.715 79.3385C104.715 82.1875 102.404 84.4971 99.5529 84.4971C96.7019 84.4971 94.3906 82.1875 94.3906 79.3385C94.3906 76.4895 96.7019 74.1799 99.5529 74.1799Z" fill="#6E9FC4"/>
<path d="M89.3099 84.7956C91.9491 84.7956 94.0885 86.9335 94.0885 89.5709C94.0885 92.2082 91.9491 94.3462 89.3099 94.3462C86.6707 94.3462 84.5312 92.2082 84.5312 89.5709C84.5312 86.9335 86.6707 84.7956 89.3099 84.7956Z" fill="#6E9FC4"/>
<path d="M79.8228 94.6641C82.2491 94.6641 84.216 96.6296 84.216 99.0542C84.216 101.479 82.2491 103.444 79.8228 103.444C77.3965 103.444 75.4297 101.479 75.4297 99.0542C75.4297 96.6296 77.3965 94.6641 79.8228 94.6641Z" fill="#6E9FC4"/>
<path d="M71.246 103.619C73.4594 103.619 75.2537 105.412 75.2537 107.624C75.2537 109.835 73.4594 111.628 71.246 111.628C69.0326 111.628 67.2383 109.835 67.2383 107.624C67.2383 105.412 69.0326 103.619 71.246 103.619Z" fill="#6E9FC4"/>
<path d="M62.6671 112.575C64.6687 112.575 66.2913 114.197 66.2913 116.197C66.2913 118.197 64.6687 119.818 62.6671 119.818C60.6656 119.818 59.043 118.197 59.043 116.197C59.043 114.197 60.6656 112.575 62.6671 112.575Z" fill="#6E9FC4"/>
<path d="M54.0903 121.529C55.879 121.529 57.329 122.978 57.329 124.766C57.329 126.553 55.879 128.002 54.0903 128.002C52.3016 128.002 50.8516 126.553 50.8516 124.766C50.8516 122.978 52.3016 121.529 54.0903 121.529Z" fill="#6E9FC4"/>
<path d="M45.5114 130.486C47.0883 130.486 48.3666 131.763 48.3666 133.339C48.3666 134.914 47.0883 136.192 45.5114 136.192C43.9345 136.192 42.6562 134.914 42.6562 133.339C42.6562 131.763 43.9345 130.486 45.5114 130.486Z" fill="#6E9FC4"/>
<path d="M36.9385 139.44C38.3024 139.44 39.4082 140.545 39.4082 141.908C39.4082 143.271 38.3024 144.376 36.9385 144.376C35.5745 144.376 34.4688 143.271 34.4688 141.908C34.4688 140.545 35.5745 139.44 36.9385 139.44Z" fill="#6E9FC4"/>
<path d="M27.9656 150.875C27.6742 150.584 27.4758 150.213 27.3955 149.809C27.3151 149.405 27.3564 148.986 27.5142 148.605C27.672 148.225 27.9391 147.9 28.2819 147.671C28.6246 147.442 29.0275 147.32 29.4397 147.32C29.8519 147.32 30.2548 147.442 30.5976 147.671C30.9403 147.9 31.2074 148.225 31.3652 148.605C31.523 148.986 31.5643 149.405 31.484 149.809C31.4036 150.213 31.2052 150.584 30.9138 150.875C30.7204 151.069 30.4906 151.223 30.2377 151.327C29.9847 151.432 29.7136 151.486 29.4397 151.486C29.1659 151.486 28.8947 151.432 28.6418 151.327C28.3888 151.223 28.1591 151.069 27.9656 150.875Z" fill="#6E9FC4"/>
<path d="M22.521 154.617C23.4603 154.617 24.2217 155.378 24.2217 156.317C24.2217 157.255 23.4603 158.016 22.521 158.016C21.5817 158.016 20.8203 157.255 20.8203 156.317C20.8203 155.378 21.5817 154.617 22.521 154.617Z" fill="#6E9FC4"/>
<path d="M99.5529 74.1799C102.404 74.1799 104.715 76.4895 104.715 79.3385C104.715 82.1875 102.404 84.4971 99.5529 84.4971C96.7019 84.4971 94.3906 82.1875 94.3906 79.3385C94.3906 76.4895 96.7019 74.1799 99.5529 74.1799Z" fill="#6E9FC4"/>
<path d="M89.3138 64.3356C91.953 64.3356 94.0924 66.4736 94.0924 69.1109C94.0924 71.7482 91.953 73.8862 89.3138 73.8862C86.6746 73.8862 84.5352 71.7482 84.5352 69.1109C84.5352 66.4736 86.6746 64.3356 89.3138 64.3356Z" fill="#6E9FC4"/>
<path d="M79.8228 55.2388C82.2491 55.2388 84.216 57.2043 84.216 59.6289C84.216 62.0535 82.2491 64.019 79.8228 64.019C77.3965 64.019 75.4297 62.0535 75.4297 59.6289C75.4297 57.2043 77.3965 55.2388 79.8228 55.2388Z" fill="#6E9FC4"/>
<path d="M71.246 47.0512C73.4594 47.0512 75.2537 48.8443 75.2537 51.0561C75.2537 53.268 73.4594 55.061 71.246 55.061C69.0326 55.061 67.2383 53.268 67.2383 51.0561C67.2383 48.8443 69.0326 47.0512 71.246 47.0512Z" fill="#6E9FC4"/>
<path d="M62.6671 38.8656C64.6687 38.8656 66.2913 40.487 66.2913 42.4872C66.2913 44.4874 64.6687 46.1089 62.6671 46.1089C60.6656 46.1089 59.043 44.4874 59.043 42.4872C59.043 40.487 60.6656 38.8656 62.6671 38.8656Z" fill="#6E9FC4"/>
<path d="M54.0942 30.6775C55.8829 30.6775 57.3329 32.1265 57.3329 33.9139C57.3329 35.7014 55.8829 37.1504 54.0942 37.1504C52.3055 37.1504 50.8555 35.7014 50.8555 33.9139C50.8555 32.1265 52.3055 30.6775 54.0942 30.6775Z" fill="#6E9FC4"/>
<path d="M45.5153 22.4889C47.0922 22.4889 48.3705 23.7663 48.3705 25.3421C48.3705 26.9179 47.0922 28.1953 45.5153 28.1953C43.9384 28.1953 42.6602 26.9179 42.6602 25.3421C42.6602 23.7663 43.9384 22.4889 45.5153 22.4889Z" fill="#6E9FC4"/>
<path d="M36.9385 14.3043C38.3024 14.3043 39.4082 15.4092 39.4082 16.7722C39.4082 18.1353 38.3024 19.2402 36.9385 19.2402C35.5745 19.2402 34.4688 18.1353 34.4688 16.7722C34.4688 15.4092 35.5745 14.3043 36.9385 14.3043Z" fill="#6E9FC4"/>
<path d="M27.9656 7.80413C27.6742 8.09544 27.4758 8.46656 27.3955 8.87056C27.3151 9.27456 27.3564 9.69329 27.5142 10.0738C27.672 10.4544 27.9391 10.7796 28.2819 11.0084C28.6246 11.2372 29.0275 11.3594 29.4397 11.3594C29.8519 11.3594 30.2548 11.2372 30.5976 11.0084C30.9403 10.7796 31.2074 10.4544 31.3652 10.0738C31.523 9.69329 31.5643 9.27456 31.484 8.87056C31.4036 8.46656 31.2052 8.09544 30.9138 7.80413C30.7204 7.6104 30.4906 7.4567 30.2377 7.35183C29.9847 7.24697 29.7136 7.19299 29.4397 7.19299C29.1659 7.19299 28.8947 7.24697 28.6418 7.35183C28.3888 7.4567 28.1591 7.6104 27.9656 7.80413Z" fill="#6E9FC4"/>
<path d="M22.521 0.664427C23.4603 0.664427 24.2217 1.42534 24.2217 2.36396C24.2217 3.30258 23.4603 4.06348 22.521 4.06348C21.5817 4.06348 20.8203 3.30258 20.8203 2.36396C20.8203 1.42534 21.5817 0.664427 22.521 0.664427Z" fill="#6E9FC4"/>
<path d="M79.0177 74.1804C81.8687 74.1804 84.1799 76.49 84.1799 79.339C84.1799 82.188 81.8687 84.4976 79.0177 84.4976C76.1667 84.4976 73.8555 82.188 73.8555 79.339C73.8555 76.49 76.1667 74.1804 79.0177 74.1804Z" fill="#6E9FC4"/>
<path d="M68.7845 84.7955C71.4226 84.7955 73.5612 86.9326 73.5612 89.5689C73.5612 92.2052 71.4226 94.3423 68.7845 94.3423C66.1464 94.3423 64.0078 92.2052 64.0078 89.5689C64.0078 86.9326 66.1464 84.7955 68.7845 84.7955Z" fill="#6E9FC4"/>
<path d="M59.2916 94.6621C61.7178 94.6621 63.6848 96.6277 63.6848 99.0523C63.6848 101.477 61.7178 103.442 59.2916 103.442C56.8653 103.442 54.8984 101.477 54.8984 99.0523C54.8984 96.6277 56.8653 94.6621 59.2916 94.6621Z" fill="#6E9FC4"/>
<path d="M50.7147 103.619C52.9281 103.619 54.7224 105.412 54.7224 107.624C54.7224 109.836 52.9281 111.629 50.7147 111.629C48.5013 111.629 46.707 109.836 46.707 107.624C46.707 105.412 48.5013 103.619 50.7147 103.619Z" fill="#6E9FC4"/>
<path d="M42.1359 112.573C44.1375 112.573 45.7601 114.194 45.7601 116.194C45.7601 118.194 44.1375 119.816 42.1359 119.816C40.1343 119.816 38.5117 118.194 38.5117 116.194C38.5117 114.194 40.1343 112.573 42.1359 112.573Z" fill="#6E9FC4"/>
<path d="M33.5591 121.53C35.3478 121.53 36.7977 122.979 36.7977 124.766C36.7977 126.553 35.3478 128.002 33.5591 128.002C31.7704 128.002 30.3203 126.553 30.3203 124.766C30.3203 122.979 31.7704 121.53 33.5591 121.53Z" fill="#6E9FC4"/>
<path d="M24.984 130.483C26.5609 130.483 27.8393 131.76 27.8393 133.336C27.8393 134.912 26.5609 136.189 24.984 136.189C23.4072 136.189 22.1289 134.912 22.1289 133.336C22.1289 131.76 23.4072 130.483 24.984 130.483Z" fill="#6E9FC4"/>
<path d="M16.4033 139.44C17.7673 139.44 18.873 140.545 18.873 141.908C18.873 143.272 17.7673 144.376 16.4033 144.376C15.0393 144.376 13.9336 143.272 13.9336 141.908C13.9336 140.545 15.0393 139.44 16.4033 139.44Z" fill="#6E9FC4"/>
<path d="M8.9065 147.317C10.0587 147.317 10.9927 148.251 10.9927 149.402C10.9927 150.553 10.0587 151.487 8.9065 151.487C7.75433 151.487 6.82031 150.553 6.82031 149.402C6.82031 148.251 7.75433 147.317 8.9065 147.317Z" fill="#6E9FC4"/>
<path d="M0.78688 157.516C0.549119 157.278 0.387229 156.976 0.321678 156.646C0.256127 156.316 0.289858 155.975 0.418606 155.664C0.547355 155.354 0.76534 155.088 1.045 154.901C1.32466 154.715 1.65344 154.615 1.98978 154.615C2.32611 154.615 2.65489 154.715 2.93455 154.901C3.21421 155.088 3.4322 155.354 3.56095 155.664C3.68969 155.975 3.72342 156.316 3.65787 156.646C3.59232 156.976 3.43043 157.278 3.19267 157.516C3.03473 157.674 2.84721 157.799 2.64081 157.885C2.43442 157.97 2.21319 158.014 1.98978 158.014C1.76636 158.014 1.54514 157.97 1.33874 157.885C1.13234 157.799 0.944817 157.674 0.78688 157.516Z" fill="#6E9FC4"/>
<path d="M79.0177 74.1804C81.8687 74.1804 84.1799 76.49 84.1799 79.339C84.1799 82.188 81.8687 84.4976 79.0177 84.4976C76.1667 84.4976 73.8555 82.188 73.8555 79.339C73.8555 76.49 76.1667 74.1804 79.0177 74.1804Z" fill="#6E9FC4"/>
<path d="M68.7806 64.3385C71.4187 64.3385 73.5573 66.4756 73.5573 69.1119C73.5573 71.7481 71.4187 73.8853 68.7806 73.8853C66.1425 73.8853 64.0039 71.7481 64.0039 69.1119C64.0039 66.4756 66.1425 64.3385 68.7806 64.3385Z" fill="#6E9FC4"/>
<path d="M59.2916 55.2364C61.7178 55.2364 63.6848 57.2019 63.6848 59.6265C63.6848 62.0511 61.7178 64.0166 59.2916 64.0166C56.8653 64.0166 54.8984 62.0511 54.8984 59.6265C54.8984 57.2019 56.8653 55.2364 59.2916 55.2364Z" fill="#6E9FC4"/>
<path d="M50.7147 47.0517C52.9281 47.0517 54.7224 48.8448 54.7224 51.0566C54.7224 53.2685 52.9281 55.0615 50.7147 55.0615C48.5013 55.0615 46.707 53.2685 46.707 51.0566C46.707 48.8448 48.5013 47.0517 50.7147 47.0517Z" fill="#6E9FC4"/>
<path d="M42.1359 38.8661C44.1375 38.8661 45.7601 40.4875 45.7601 42.4877C45.7601 44.4879 44.1375 46.1094 42.1359 46.1094C40.1343 46.1094 38.5117 44.4879 38.5117 42.4877C38.5117 40.4875 40.1343 38.8661 42.1359 38.8661Z" fill="#6E9FC4"/>
<path d="M33.5591 30.6785C35.3478 30.6785 36.7977 32.1275 36.7977 33.9149C36.7977 35.7024 35.3478 37.1514 33.5591 37.1514C31.7704 37.1514 30.3203 35.7024 30.3203 33.9149C30.3203 32.1275 31.7704 30.6785 33.5591 30.6785Z" fill="#6E9FC4"/>
<path d="M24.984 22.4894C26.5609 22.4894 27.8393 23.7668 27.8393 25.3426C27.8393 26.9184 26.5609 28.1958 24.984 28.1958C23.4072 28.1958 22.1289 26.9184 22.1289 25.3426C22.1289 23.7668 23.4072 22.4894 24.984 22.4894Z" fill="#6E9FC4"/>
<path d="M16.4033 14.3047C17.7673 14.3047 18.873 15.4097 18.873 16.7727C18.873 18.1358 17.7673 19.2407 16.4033 19.2407C15.0393 19.2407 13.9336 18.1358 13.9336 16.7727C13.9336 15.4097 15.0393 14.3047 16.4033 14.3047Z" fill="#6E9FC4"/>
<path d="M8.9065 7.19384C10.0587 7.19384 10.9927 8.12719 10.9927 9.27855C10.9927 10.4299 10.0587 11.3633 8.9065 11.3633C7.75433 11.3633 6.82031 10.4299 6.82031 9.27855C6.82031 8.12719 7.75433 7.19384 8.9065 7.19384Z" fill="#6E9FC4"/>
<path d="M0.78688 1.16349C0.549119 1.40121 0.387229 1.70403 0.321678 2.03368C0.256127 2.36333 0.289858 2.70501 0.418606 3.01551C0.547355 3.326 0.76534 3.59138 1.045 3.77808C1.32466 3.96479 1.65344 4.06445 1.98978 4.06445C2.32611 4.06445 2.65489 3.96479 2.93455 3.77808C3.21421 3.59138 3.4322 3.326 3.56095 3.01551C3.68969 2.70501 3.72342 2.36333 3.65787 2.03368C3.59232 1.70403 3.43043 1.40121 3.19267 1.16349C3.03473 1.00558 2.84721 0.880318 2.64081 0.794854C2.43442 0.70939 2.21319 0.665403 1.98978 0.665403C1.76636 0.665403 1.54514 0.70939 1.33874 0.794854C1.13234 0.880318 0.944817 1.00558 0.78688 1.16349Z" fill="#6E9FC4"/>
</g>
<defs>
<clipPath id="clip0_64_5653">
<rect width="166.003" height="157.371" fill="white" transform="matrix(1 0 0 -1 0.328125 158.015)"/>
</clipPath>
</defs>
</svg>
