<svg width="167" height="159" viewBox="0 0 167 159" fill="none" xmlns="http://www.w3.org/2000/svg">
<g clip-path="url(#clip0_64_5552)">
<path d="M161.147 74.1828C163.998 74.1828 166.309 76.4924 166.309 79.3414C166.309 82.1904 163.998 84.5 161.147 84.5C158.296 84.5 155.984 82.1904 155.984 79.3414C155.984 76.4924 158.296 74.1828 161.147 74.1828Z" fill="#B8D9F1"/>
<path d="M150.911 84.798C153.55 84.798 155.688 86.9351 155.688 89.5713C155.688 92.2076 153.55 94.3447 150.911 94.3447C148.273 94.3447 146.135 92.2076 146.135 89.5713C146.135 86.9351 148.273 84.798 150.911 84.798Z" fill="#B8D9F1"/>
<path d="M141.424 94.6626C143.851 94.6626 145.818 96.6282 145.818 99.0528C145.818 101.477 143.851 103.443 141.424 103.443C138.998 103.443 137.031 101.477 137.031 99.0528C137.031 96.6282 138.998 94.6626 141.424 94.6626Z" fill="#B8D9F1"/>
<path d="M132.846 103.62C135.059 103.62 136.853 105.413 136.853 107.624C136.853 109.836 135.059 111.629 132.846 111.629C130.632 111.629 128.838 109.836 128.838 107.624C128.838 105.413 130.632 103.62 132.846 103.62Z" fill="#B8D9F1"/>
<path d="M124.271 112.573C126.272 112.573 127.895 114.195 127.895 116.195C127.895 118.195 126.272 119.816 124.271 119.816C122.269 119.816 120.646 118.195 120.646 116.195C120.646 114.195 122.269 112.573 124.271 112.573Z" fill="#B8D9F1"/>
<path d="M115.692 121.531C117.48 121.531 118.931 122.98 118.931 124.767C118.931 126.554 117.48 128.003 115.692 128.003C113.903 128.003 112.453 126.554 112.453 124.767C112.453 122.98 113.903 121.531 115.692 121.531Z" fill="#B8D9F1"/>
<path d="M107.115 130.484C108.692 130.484 109.97 131.761 109.97 133.337C109.97 134.913 108.692 136.19 107.115 136.19C105.538 136.19 104.26 134.913 104.26 133.337C104.26 131.761 105.538 130.484 107.115 130.484Z" fill="#B8D9F1"/>
<path d="M98.5381 139.441C99.9021 139.441 101.008 140.546 101.008 141.909C101.008 143.272 99.9021 144.377 98.5381 144.377C97.1741 144.377 96.0684 143.272 96.0684 141.909C96.0684 140.546 97.1741 139.441 98.5381 139.441Z" fill="#B8D9F1"/>
<path d="M91.0354 147.32C92.1876 147.32 93.1216 148.253 93.1216 149.405C93.1216 150.556 92.1876 151.489 91.0354 151.489C89.8832 151.489 88.9492 150.556 88.9492 149.405C88.9492 148.253 89.8832 147.32 91.0354 147.32Z" fill="#B8D9F1"/>
<path d="M84.1187 154.618C85.058 154.618 85.8194 155.379 85.8194 156.318C85.8194 157.256 85.058 158.017 84.1187 158.017C83.1795 158.017 82.418 157.256 82.418 156.318C82.418 155.379 83.1795 154.618 84.1187 154.618Z" fill="#B8D9F1"/>
<path d="M161.147 74.1828C163.998 74.1828 166.309 76.4924 166.309 79.3414C166.309 82.1904 163.998 84.5 161.147 84.5C158.296 84.5 155.984 82.1904 155.984 79.3414C155.984 76.4924 158.296 74.1828 161.147 74.1828Z" fill="#B8D9F1"/>
<path d="M150.913 64.338C153.551 64.338 155.69 66.4751 155.69 69.1114C155.69 71.7476 153.551 73.8848 150.913 73.8848C148.275 73.8848 146.137 71.7476 146.137 69.1114C146.137 66.4751 148.275 64.338 150.913 64.338Z" fill="#B8D9F1"/>
<path d="M141.423 55.2398C143.849 55.2398 145.816 57.2053 145.816 59.6299C145.816 62.0545 143.849 64.02 141.423 64.02C138.996 64.02 137.029 62.0545 137.029 59.6299C137.029 57.2053 138.996 55.2398 141.423 55.2398Z" fill="#B8D9F1"/>
<path d="M132.844 47.0551C135.057 47.0551 136.851 48.8482 136.851 51.06C136.851 53.2719 135.057 55.0649 132.844 55.0649C130.63 55.0649 128.836 53.2719 128.836 51.06C128.836 48.8482 130.63 47.0551 132.844 47.0551Z" fill="#B8D9F1"/>
<path d="M124.271 38.8636C126.272 38.8636 127.895 40.4851 127.895 42.4853C127.895 44.4855 126.272 46.1069 124.271 46.1069C122.269 46.1069 120.646 44.4855 120.646 42.4853C120.646 40.4851 122.269 38.8636 124.271 38.8636Z" fill="#B8D9F1"/>
<path d="M115.69 30.6814C117.479 30.6814 118.929 32.1304 118.929 33.9179C118.929 35.7053 117.479 37.1543 115.69 37.1543C113.901 37.1543 112.451 35.7053 112.451 33.9179C112.451 32.1304 113.901 30.6814 115.69 30.6814Z" fill="#B8D9F1"/>
<path d="M107.117 22.4899C108.694 22.4899 109.972 23.7673 109.972 25.3431C109.972 26.9189 108.694 28.1963 107.117 28.1963C105.54 28.1963 104.262 26.9189 104.262 25.3431C104.262 23.7673 105.54 22.4899 107.117 22.4899Z" fill="#B8D9F1"/>
<path d="M98.5381 14.3052C99.9021 14.3052 101.008 15.4102 101.008 16.7732C101.008 18.1363 99.9021 19.2412 98.5381 19.2412C97.1741 19.2412 96.0684 18.1363 96.0684 16.7732C96.0684 15.4102 97.1741 14.3052 98.5381 14.3052Z" fill="#B8D9F1"/>
<path d="M91.0374 7.19335C92.1895 7.19335 93.1235 8.1267 93.1235 9.27806C93.1235 10.4294 92.1895 11.3628 91.0374 11.3628C89.8852 11.3628 88.9512 10.4294 88.9512 9.27806C88.9512 8.1267 89.8852 7.19335 91.0374 7.19335Z" fill="#B8D9F1"/>
<path d="M84.1226 0.664915C85.0619 0.664915 85.8233 1.42582 85.8233 2.36445C85.8233 3.30307 85.0619 4.06396 84.1226 4.06396C83.1834 4.06396 82.4219 3.30307 82.4219 2.36445C82.4219 1.42582 83.1834 0.664915 84.1226 0.664915Z" fill="#B8D9F1"/>
<path d="M140.617 74.1819C143.468 74.1819 145.779 76.4914 145.779 79.3404C145.779 82.1894 143.468 84.499 140.617 84.499C137.766 84.499 135.455 82.1894 135.455 79.3404C135.455 76.4914 137.766 74.1819 140.617 74.1819Z" fill="#B8D9F1"/>
<path d="M130.38 84.7946C133.019 84.7946 135.159 86.9326 135.159 89.5699C135.159 92.2072 133.019 94.3452 130.38 94.3452C127.741 94.3452 125.602 92.2072 125.602 89.5699C125.602 86.9326 127.741 84.7946 130.38 84.7946Z" fill="#B8D9F1"/>
<path d="M120.891 94.6631C123.318 94.6631 125.284 96.6286 125.284 99.0532C125.284 101.478 123.318 103.443 120.891 103.443C118.465 103.443 116.498 101.478 116.498 99.0532C116.498 96.6286 118.465 94.6631 120.891 94.6631Z" fill="#B8D9F1"/>
<path d="M112.312 103.621C114.526 103.621 116.32 105.414 116.32 107.625C116.32 109.837 114.526 111.63 112.312 111.63C110.099 111.63 108.305 109.837 108.305 107.625C108.305 105.414 110.099 103.621 112.312 103.621Z" fill="#B8D9F1"/>
<path d="M103.737 112.574C105.739 112.574 107.362 114.196 107.362 116.196C107.362 118.196 105.739 119.817 103.737 119.817C101.736 119.817 100.113 118.196 100.113 116.196C100.113 114.196 101.736 112.574 103.737 112.574Z" fill="#B8D9F1"/>
<path d="M95.1586 121.531C96.9473 121.531 98.3973 122.98 98.3973 124.767C98.3973 126.555 96.9473 128.004 95.1586 128.004C93.3699 128.004 91.9199 126.555 91.9199 124.767C91.9199 122.98 93.3699 121.531 95.1586 121.531Z" fill="#B8D9F1"/>
<path d="M86.5818 130.485C88.1587 130.485 89.4369 131.762 89.4369 133.338C89.4369 134.914 88.1587 136.191 86.5818 136.191C85.0049 136.191 83.7266 134.914 83.7266 133.338C83.7266 131.762 85.0049 130.485 86.5818 130.485Z" fill="#B8D9F1"/>
<path d="M78.0049 139.441C79.3689 139.441 80.4746 140.546 80.4746 141.909C80.4746 143.272 79.3689 144.377 78.0049 144.377C76.6409 144.377 75.5352 143.272 75.5352 141.909C75.5352 140.546 76.6409 139.441 78.0049 139.441Z" fill="#B8D9F1"/>
<path d="M70.5061 147.318C71.6583 147.318 72.5923 148.252 72.5923 149.403C72.5923 150.554 71.6583 151.488 70.5061 151.488C69.3539 151.488 68.4199 150.554 68.4199 149.403C68.4199 148.252 69.3539 147.318 70.5061 147.318Z" fill="#B8D9F1"/>
<path d="M62.3865 157.517C62.1487 157.279 61.9868 156.977 61.9213 156.647C61.8557 156.317 61.8895 155.976 62.0182 155.665C62.147 155.355 62.3649 155.089 62.6446 154.902C62.9243 154.716 63.2531 154.616 63.5894 154.616C63.9257 154.616 64.2545 154.716 64.5342 154.902C64.8138 155.089 65.0318 155.355 65.1606 155.665C65.2893 155.976 65.323 156.317 65.2575 156.647C65.1919 156.977 65.03 157.279 64.7923 157.517C64.6343 157.675 64.4468 157.8 64.2404 157.886C64.034 157.971 63.8128 158.015 63.5894 158.015C63.366 158.015 63.1447 157.971 62.9383 157.886C62.7319 157.8 62.5444 157.675 62.3865 157.517Z" fill="#B8D9F1"/>
<path d="M140.617 74.1819C143.468 74.1819 145.779 76.4914 145.779 79.3404C145.779 82.1894 143.468 84.499 140.617 84.499C137.766 84.499 135.455 82.1894 135.455 79.3404C135.455 76.4914 137.766 74.1819 140.617 74.1819Z" fill="#B8D9F1"/>
<path d="M130.38 64.3371C133.019 64.3371 135.159 66.475 135.159 69.1124C135.159 71.7497 133.019 73.8877 130.38 73.8877C127.741 73.8877 125.602 71.7497 125.602 69.1124C125.602 66.475 127.741 64.3371 130.38 64.3371Z" fill="#B8D9F1"/>
<path d="M120.889 55.2403C123.316 55.2403 125.282 57.2058 125.282 59.6304C125.282 62.055 123.316 64.0205 120.889 64.0205C118.463 64.0205 116.496 62.055 116.496 59.6304C116.496 57.2058 118.463 55.2403 120.889 55.2403Z" fill="#B8D9F1"/>
<path d="M112.314 47.0532C114.528 47.0532 116.322 48.8462 116.322 51.0581C116.322 53.2699 114.528 55.063 112.314 55.063C110.101 55.063 108.307 53.2699 108.307 51.0581C108.307 48.8462 110.101 47.0532 112.314 47.0532Z" fill="#B8D9F1"/>
<path d="M103.737 38.8646C105.739 38.8646 107.362 40.4861 107.362 42.4863C107.362 44.4864 105.739 46.1079 103.737 46.1079C101.736 46.1079 100.113 44.4864 100.113 42.4863C100.113 40.4861 101.736 38.8646 103.737 38.8646Z" fill="#B8D9F1"/>
<path d="M95.1586 30.6794C96.9473 30.6794 98.3973 32.1285 98.3973 33.9159C98.3973 35.7033 96.9473 37.1523 95.1586 37.1523C93.3699 37.1523 91.9199 35.7033 91.9199 33.9159C91.9199 32.1285 93.3699 30.6794 95.1586 30.6794Z" fill="#B8D9F1"/>
<path d="M86.5837 22.4909C88.1606 22.4909 89.4389 23.7683 89.4389 25.3441C89.4389 26.9198 88.1606 28.1973 86.5837 28.1973C85.0069 28.1973 83.7285 26.9198 83.7285 25.3441C83.7285 23.7683 85.0069 22.4909 86.5837 22.4909Z" fill="#B8D9F1"/>
<path d="M78.0049 14.3057C79.3689 14.3057 80.4746 15.4107 80.4746 16.7737C80.4746 18.1367 79.3689 19.2417 78.0049 19.2417C76.6409 19.2417 75.5352 18.1367 75.5352 16.7737C75.5352 15.4107 76.6409 14.3057 78.0049 14.3057Z" fill="#B8D9F1"/>
<path d="M70.5081 7.19188C71.6602 7.19188 72.5942 8.12524 72.5942 9.2766C72.5942 10.428 71.6602 11.3613 70.5081 11.3613C69.3559 11.3613 68.4219 10.428 68.4219 9.2766C68.4219 8.12524 69.3559 7.19188 70.5081 7.19188Z" fill="#B8D9F1"/>
<path d="M62.3865 1.16446C62.1487 1.40218 61.9868 1.70501 61.9213 2.03466C61.8557 2.36431 61.8895 2.70599 62.0182 3.01648C62.147 3.32698 62.3649 3.59235 62.6446 3.77906C62.9243 3.96577 63.2531 4.06543 63.5894 4.06543C63.9257 4.06543 64.2545 3.96577 64.5342 3.77906C64.8138 3.59235 65.0318 3.32698 65.1606 3.01648C65.2893 2.70599 65.323 2.36431 65.2575 2.03466C65.1919 1.70501 65.03 1.40218 64.7923 1.16446C64.6343 1.00656 64.4468 0.881295 64.2404 0.795831C64.034 0.710367 63.8128 0.66638 63.5894 0.66638C63.366 0.66638 63.1447 0.710367 62.9383 0.795831C62.7319 0.881295 62.5444 1.00656 62.3865 1.16446Z" fill="#B8D9F1"/>
<path d="M120.084 74.1823C122.935 74.1823 125.246 76.4919 125.246 79.3409C125.246 82.1899 122.935 84.4995 120.084 84.4995C117.233 84.4995 114.922 82.1899 114.922 79.3409C114.922 76.4919 117.233 74.1823 120.084 74.1823Z" fill="#B8D9F1"/>
<path d="M109.851 84.7931C112.49 84.7931 114.63 86.9311 114.63 89.5684C114.63 92.2058 112.49 94.3438 109.851 94.3438C107.212 94.3438 105.072 92.2058 105.072 89.5684C105.072 86.9311 107.212 84.7931 109.851 84.7931Z" fill="#B8D9F1"/>
<path d="M100.362 94.6621C102.788 94.6621 104.755 96.6277 104.755 99.0523C104.755 101.477 102.788 103.442 100.362 103.442C97.9356 103.442 95.9688 101.477 95.9688 99.0523C95.9688 96.6277 97.9356 94.6621 100.362 94.6621Z" fill="#B8D9F1"/>
<path d="M91.7831 103.619C93.9965 103.619 95.7908 105.412 95.7908 107.624C95.7908 109.836 93.9965 111.629 91.7831 111.629C89.5697 111.629 87.7754 109.836 87.7754 107.624C87.7754 105.412 89.5697 103.619 91.7831 103.619Z" fill="#B8D9F1"/>
<path d="M83.2043 112.575C85.2058 112.575 86.8284 114.197 86.8284 116.197C86.8284 118.197 85.2058 119.818 83.2043 119.818C81.2027 119.818 79.5801 118.197 79.5801 116.197C79.5801 114.197 81.2027 112.575 83.2043 112.575Z" fill="#B8D9F1"/>
<path d="M74.6294 121.53C76.4181 121.53 77.868 122.979 77.868 124.766C77.868 126.553 76.4181 128.002 74.6294 128.002C72.8407 128.002 71.3906 126.553 71.3906 124.766C71.3906 122.979 72.8407 121.53 74.6294 121.53Z" fill="#B8D9F1"/>
<path d="M66.0504 130.486C67.6273 130.486 68.9057 131.763 68.9057 133.339C68.9057 134.915 67.6273 136.192 66.0504 136.192C64.4736 136.192 63.1953 134.915 63.1953 133.339C63.1953 131.763 64.4736 130.486 66.0504 130.486Z" fill="#B8D9F1"/>
<path d="M57.4756 139.44C58.8396 139.44 59.9453 140.545 59.9453 141.908C59.9453 143.272 58.8396 144.376 57.4756 144.376C56.1116 144.376 55.0059 143.272 55.0059 141.908C55.0059 140.545 56.1116 139.44 57.4756 139.44Z" fill="#B8D9F1"/>
<path d="M49.9729 147.319C51.1251 147.319 52.0591 148.252 52.0591 149.404C52.0591 150.555 51.1251 151.488 49.9729 151.488C48.8207 151.488 47.8867 150.555 47.8867 149.404C47.8867 148.252 48.8207 147.319 49.9729 147.319Z" fill="#B8D9F1"/>
<path d="M43.0561 154.618C43.9954 154.618 44.7569 155.378 44.7569 156.317C44.7569 157.256 43.9954 158.017 43.0561 158.017C42.1169 158.017 41.3555 157.256 41.3555 156.317C41.3555 155.378 42.1169 154.618 43.0561 154.618Z" fill="#B8D9F1"/>
<path d="M120.084 74.1823C122.935 74.1823 125.246 76.4919 125.246 79.3409C125.246 82.1899 122.935 84.4995 120.084 84.4995C117.233 84.4995 114.922 82.1899 114.922 79.3409C114.922 76.4919 117.233 74.1823 120.084 74.1823Z" fill="#B8D9F1"/>
<path d="M109.847 64.339C112.486 64.339 114.626 66.477 114.626 69.1143C114.626 71.7517 112.486 73.8896 109.847 73.8896C107.208 73.8896 105.068 71.7517 105.068 69.1143C105.068 66.477 107.208 64.339 109.847 64.339Z" fill="#B8D9F1"/>
<path d="M100.36 55.2393C102.786 55.2393 104.753 57.2048 104.753 59.6294C104.753 62.054 102.786 64.0195 100.36 64.0195C97.9336 64.0195 95.9668 62.054 95.9668 59.6294C95.9668 57.2048 97.9336 55.2393 100.36 55.2393Z" fill="#B8D9F1"/>
<path d="M91.785 47.0517C93.9984 47.0517 95.7928 48.8448 95.7928 51.0566C95.7928 53.2685 93.9984 55.0615 91.785 55.0615C89.5716 55.0615 87.7773 53.2685 87.7773 51.0566C87.7773 48.8448 89.5716 47.0517 91.785 47.0517Z" fill="#B8D9F1"/>
<path d="M83.2062 38.8656C85.2078 38.8656 86.8304 40.487 86.8304 42.4872C86.8304 44.4874 85.2078 46.1089 83.2062 46.1089C81.2046 46.1089 79.582 44.4874 79.582 42.4872C79.582 40.487 81.2046 38.8656 83.2062 38.8656Z" fill="#B8D9F1"/>
<path d="M74.6274 30.6809C76.4161 30.6809 77.8661 32.1299 77.8661 33.9174C77.8661 35.7048 76.4161 37.1538 74.6274 37.1538C72.8387 37.1538 71.3887 35.7048 71.3887 33.9174C71.3887 32.1299 72.8387 30.6809 74.6274 30.6809Z" fill="#B8D9F1"/>
<path d="M66.0504 22.4923C67.6273 22.4923 68.9057 23.7698 68.9057 25.3455C68.9057 26.9213 67.6273 28.1987 66.0504 28.1987C64.4736 28.1987 63.1953 26.9213 63.1953 25.3455C63.1953 23.7698 64.4736 22.4923 66.0504 22.4923Z" fill="#B8D9F1"/>
<path d="M57.4756 14.3047C58.8396 14.3047 59.9453 15.4097 59.9453 16.7727C59.9453 18.1358 58.8396 19.2407 57.4756 19.2407C56.1116 19.2407 55.0059 18.1358 55.0059 16.7727C55.0059 15.4097 56.1116 14.3047 57.4756 14.3047Z" fill="#B8D9F1"/>
<path d="M49.9729 7.1953C51.1251 7.1953 52.0591 8.12866 52.0591 9.28002C52.0591 10.4314 51.1251 11.3647 49.9729 11.3647C48.8207 11.3647 47.8867 10.4314 47.8867 9.28002C47.8867 8.12866 48.8207 7.1953 49.9729 7.1953Z" fill="#B8D9F1"/>
<path d="M43.0561 0.667356C43.9954 0.667356 44.7569 1.42827 44.7569 2.36689C44.7569 3.30551 43.9954 4.06641 43.0561 4.06641C42.1169 4.06641 41.3555 3.30551 41.3555 2.36689C41.3555 1.42827 42.1169 0.667356 43.0561 0.667356Z" fill="#B8D9F1"/>
<path d="M99.5548 74.1814C102.406 74.1814 104.717 76.4909 104.717 79.3399C104.717 82.189 102.406 84.4985 99.5548 84.4985C96.7038 84.4985 94.3926 82.189 94.3926 79.3399C94.3926 76.4909 96.7038 74.1814 99.5548 74.1814Z" fill="#B8D9F1"/>
<path d="M89.3177 84.7941C91.9569 84.7941 94.0963 86.9321 94.0963 89.5694C94.0963 92.2067 91.9569 94.3447 89.3177 94.3447C86.6785 94.3447 84.5391 92.2067 84.5391 89.5694C84.5391 86.9321 86.6785 84.7941 89.3177 84.7941Z" fill="#B8D9F1"/>
<path d="M79.8287 94.6626C82.255 94.6626 84.2219 96.6282 84.2219 99.0528C84.2219 101.477 82.255 103.443 79.8287 103.443C77.4024 103.443 75.4355 101.477 75.4355 99.0528C75.4355 96.6282 77.4024 94.6626 79.8287 94.6626Z" fill="#B8D9F1"/>
<path d="M71.2499 103.62C73.4633 103.62 75.2576 105.413 75.2576 107.624C75.2576 109.836 73.4633 111.629 71.2499 111.629C69.0365 111.629 67.2422 109.836 67.2422 107.624C67.2422 105.413 69.0365 103.62 71.2499 103.62Z" fill="#B8D9F1"/>
<path d="M62.675 112.573C64.6765 112.573 66.2991 114.195 66.2991 116.195C66.2991 118.195 64.6765 119.816 62.675 119.816C60.6734 119.816 59.0508 118.195 59.0508 116.195C59.0508 114.195 60.6734 112.573 62.675 112.573Z" fill="#B8D9F1"/>
<path d="M54.0962 121.53C55.8849 121.53 57.3348 122.979 57.3348 124.766C57.3348 126.554 55.8849 128.003 54.0962 128.003C52.3075 128.003 50.8574 126.554 50.8574 124.766C50.8574 122.979 52.3075 121.53 54.0962 121.53Z" fill="#B8D9F1"/>
<path d="M45.5192 130.484C47.0961 130.484 48.3744 131.761 48.3744 133.337C48.3744 134.913 47.0961 136.19 45.5192 136.19C43.9423 136.19 42.6641 134.913 42.6641 133.337C42.6641 131.761 43.9423 130.484 45.5192 130.484Z" fill="#B8D9F1"/>
<path d="M36.9424 139.441C38.3064 139.441 39.4121 140.546 39.4121 141.909C39.4121 143.272 38.3064 144.377 36.9424 144.377C35.5784 144.377 34.4727 143.272 34.4727 141.909C34.4727 140.546 35.5784 139.441 36.9424 139.441Z" fill="#B8D9F1"/>
<path d="M27.9676 150.877C27.6762 150.585 27.4778 150.214 27.3974 149.81C27.3171 149.406 27.3584 148.987 27.5162 148.607C27.6739 148.226 27.9411 147.901 28.2838 147.672C28.6265 147.444 29.0295 147.321 29.4417 147.321C29.8539 147.321 30.2568 147.444 30.5995 147.672C30.9423 147.901 31.2094 148.226 31.3672 148.607C31.525 148.987 31.5663 149.406 31.4859 149.81C31.4056 150.214 31.2072 150.585 30.9157 150.877C30.7223 151.07 30.4926 151.224 30.2396 151.329C29.9867 151.434 29.7155 151.488 29.4417 151.488C29.1678 151.488 28.8967 151.434 28.6437 151.329C28.3908 151.224 28.161 151.07 27.9676 150.877Z" fill="#B8D9F1"/>
<path d="M22.5229 154.619C23.4622 154.619 24.2237 155.379 24.2237 156.318C24.2237 157.257 23.4622 158.018 22.5229 158.018C21.5837 158.018 20.8223 157.257 20.8223 156.318C20.8223 155.379 21.5837 154.619 22.5229 154.619Z" fill="#B8D9F1"/>
<path d="M99.5548 74.1814C102.406 74.1814 104.717 76.4909 104.717 79.3399C104.717 82.189 102.406 84.4985 99.5548 84.4985C96.7038 84.4985 94.3926 82.189 94.3926 79.3399C94.3926 76.4909 96.7038 74.1814 99.5548 74.1814Z" fill="#B8D9F1"/>
<path d="M89.3177 64.3366C91.9569 64.3366 94.0963 66.4746 94.0963 69.1119C94.0963 71.7492 91.9569 73.8872 89.3177 73.8872C86.6785 73.8872 84.5391 71.7492 84.5391 69.1119C84.5391 66.4746 86.6785 64.3366 89.3177 64.3366Z" fill="#B8D9F1"/>
<path d="M79.8267 55.2398C82.253 55.2398 84.2199 57.2053 84.2199 59.6299C84.2199 62.0545 82.253 64.02 79.8267 64.02C77.4004 64.02 75.4336 62.0545 75.4336 59.6299C75.4336 57.2053 77.4004 55.2398 79.8267 55.2398Z" fill="#B8D9F1"/>
<path d="M71.2499 47.0551C73.4633 47.0551 75.2576 48.8482 75.2576 51.06C75.2576 53.2719 73.4633 55.0649 71.2499 55.0649C69.0365 55.0649 67.2422 53.2719 67.2422 51.06C67.2422 48.8482 69.0365 47.0551 71.2499 47.0551Z" fill="#B8D9F1"/>
<path d="M62.673 38.8666C64.6746 38.8666 66.2972 40.488 66.2972 42.4882C66.2972 44.4884 64.6746 46.1099 62.673 46.1099C60.6714 46.1099 59.0488 44.4884 59.0488 42.4882C59.0488 40.488 60.6714 38.8666 62.673 38.8666Z" fill="#B8D9F1"/>
<path d="M54.0962 30.679C55.8849 30.679 57.3348 32.128 57.3348 33.9154C57.3348 35.7029 55.8849 37.1519 54.0962 37.1519C52.3075 37.1519 50.8574 35.7029 50.8574 33.9154C50.8574 32.128 52.3075 30.679 54.0962 30.679Z" fill="#B8D9F1"/>
<path d="M45.5211 22.4899C47.098 22.4899 48.3764 23.7673 48.3764 25.3431C48.3764 26.9189 47.098 28.1963 45.5211 28.1963C43.9443 28.1963 42.666 26.9189 42.666 25.3431C42.666 23.7673 43.9443 22.4899 45.5211 22.4899Z" fill="#B8D9F1"/>
<path d="M36.9424 14.3052C38.3064 14.3052 39.4121 15.4102 39.4121 16.7732C39.4121 18.1363 38.3064 19.2412 36.9424 19.2412C35.5784 19.2412 34.4727 18.1363 34.4727 16.7732C34.4727 15.4102 35.5784 14.3052 36.9424 14.3052Z" fill="#B8D9F1"/>
<path d="M27.9695 7.8051C27.6781 8.09642 27.4797 8.46754 27.3994 8.87153C27.319 9.27553 27.3603 9.69427 27.5181 10.0748C27.6759 10.4553 27.943 10.7806 28.2858 11.0094C28.6285 11.2382 29.0314 11.3604 29.4436 11.3604C29.8558 11.3604 30.2587 11.2382 30.6015 11.0094C30.9442 10.7806 31.2114 10.4553 31.3691 10.0748C31.5269 9.69427 31.5682 9.27553 31.4879 8.87153C31.4075 8.46754 31.2091 8.09642 30.9177 7.8051C30.7243 7.61138 30.4945 7.45768 30.2416 7.35281C29.9886 7.24794 29.7175 7.19397 29.4436 7.19397C29.1698 7.19397 28.8986 7.24794 28.6457 7.35281C28.3927 7.45768 28.163 7.61138 27.9695 7.8051Z" fill="#B8D9F1"/>
<path d="M22.5229 0.667845C23.4622 0.667845 24.2237 1.42875 24.2237 2.36738C24.2237 3.306 23.4622 4.06689 22.5229 4.06689C21.5837 4.06689 20.8223 3.306 20.8223 2.36738C20.8223 1.42875 21.5837 0.667845 22.5229 0.667845Z" fill="#B8D9F1"/>
<path d="M79.0216 74.1819C81.8726 74.1819 84.1838 76.4914 84.1838 79.3404C84.1838 82.1894 81.8726 84.499 79.0216 84.499C76.1706 84.499 73.8594 82.1894 73.8594 79.3404C73.8594 76.4914 76.1706 74.1819 79.0216 74.1819Z" fill="#B8D9F1"/>
<path d="M68.7864 84.7965C71.4245 84.7965 73.5632 86.9336 73.5632 89.5699C73.5632 92.2061 71.4245 94.3433 68.7864 94.3433C66.1483 94.3433 64.0098 92.2061 64.0098 89.5699C64.0098 86.9336 66.1483 84.7965 68.7864 84.7965Z" fill="#B8D9F1"/>
<path d="M59.2955 94.6631C61.7218 94.6631 63.6887 96.6286 63.6887 99.0532C63.6887 101.478 61.7218 103.443 59.2955 103.443C56.8692 103.443 54.9023 101.478 54.9023 99.0532C54.9023 96.6286 56.8692 94.6631 59.2955 94.6631Z" fill="#B8D9F1"/>
<path d="M50.7167 103.621C52.9301 103.621 54.7244 105.414 54.7244 107.625C54.7244 109.837 52.9301 111.63 50.7167 111.63C48.5033 111.63 46.709 109.837 46.709 107.625C46.709 105.414 48.5033 103.621 50.7167 103.621Z" fill="#B8D9F1"/>
<path d="M42.1418 112.574C44.1433 112.574 45.7659 114.196 45.7659 116.196C45.7659 118.196 44.1433 119.817 42.1418 119.817C40.1402 119.817 38.5176 118.196 38.5176 116.196C38.5176 114.196 40.1402 112.574 42.1418 112.574Z" fill="#B8D9F1"/>
<path d="M33.563 121.531C35.3517 121.531 36.8016 122.98 36.8016 124.767C36.8016 126.555 35.3517 128.004 33.563 128.004C31.7743 128.004 30.3242 126.555 30.3242 124.767C30.3242 122.98 31.7743 121.531 33.563 121.531Z" fill="#B8D9F1"/>
<path d="M24.986 130.484C26.5629 130.484 27.8412 131.761 27.8412 133.337C27.8412 134.913 26.5629 136.19 24.986 136.19C23.4091 136.19 22.1309 134.913 22.1309 133.337C22.1309 131.761 23.4091 130.484 24.986 130.484Z" fill="#B8D9F1"/>
<path d="M16.4092 139.441C17.7732 139.441 18.8789 140.546 18.8789 141.909C18.8789 143.272 17.7732 144.377 16.4092 144.377C15.0452 144.377 13.9395 143.272 13.9395 141.909C13.9395 140.546 15.0452 139.441 16.4092 139.441Z" fill="#B8D9F1"/>
<path d="M8.9104 147.318C10.0626 147.318 10.9966 148.252 10.9966 149.403C10.9966 150.554 10.0626 151.488 8.9104 151.488C7.75824 151.488 6.82422 150.554 6.82422 149.403C6.82422 148.252 7.75824 147.318 8.9104 147.318Z" fill="#B8D9F1"/>
<path d="M0.790786 157.517C0.553025 157.279 0.391135 156.977 0.325584 156.647C0.260033 156.317 0.293764 155.976 0.422513 155.665C0.551261 155.355 0.769246 155.089 1.04891 154.902C1.32857 154.716 1.65735 154.616 1.99368 154.616C2.33001 154.616 2.65879 154.716 2.93846 154.902C3.21812 155.089 3.4361 155.355 3.56485 155.665C3.6936 155.976 3.72733 156.317 3.66178 156.647C3.59623 156.977 3.43434 157.279 3.19658 157.517C3.03864 157.675 2.85112 157.8 2.64472 157.886C2.43832 157.971 2.2171 158.015 1.99368 158.015C1.77027 158.015 1.54904 157.971 1.34264 157.886C1.13625 157.8 0.948724 157.675 0.790786 157.517Z" fill="#B8D9F1"/>
<path d="M79.0216 74.1819C81.8726 74.1819 84.1838 76.4914 84.1838 79.3404C84.1838 82.1894 81.8726 84.499 79.0216 84.499C76.1706 84.499 73.8594 82.1894 73.8594 79.3404C73.8594 76.4914 76.1706 74.1819 79.0216 74.1819Z" fill="#B8D9F1"/>
<path d="M68.7864 64.3395C71.4245 64.3395 73.5632 66.4766 73.5632 69.1128C73.5632 71.7491 71.4245 73.8862 68.7864 73.8862C66.1483 73.8862 64.0098 71.7491 64.0098 69.1128C64.0098 66.4766 66.1483 64.3395 68.7864 64.3395Z" fill="#B8D9F1"/>
<path d="M59.2935 55.2403C61.7198 55.2403 63.6867 57.2058 63.6867 59.6304C63.6867 62.055 61.7198 64.0205 59.2935 64.0205C56.8672 64.0205 54.9004 62.055 54.9004 59.6304C54.9004 57.2058 56.8672 55.2403 59.2935 55.2403Z" fill="#B8D9F1"/>
<path d="M50.7186 47.0532C52.932 47.0532 54.7263 48.8462 54.7263 51.0581C54.7263 53.2699 52.932 55.063 50.7186 55.063C48.5052 55.063 46.7109 53.2699 46.7109 51.0581C46.7109 48.8462 48.5052 47.0532 50.7186 47.0532Z" fill="#B8D9F1"/>
<path d="M42.1418 38.8641C44.1433 38.8641 45.7659 40.4856 45.7659 42.4858C45.7659 44.4859 44.1433 46.1074 42.1418 46.1074C40.1402 46.1074 38.5176 44.4859 38.5176 42.4858C38.5176 40.4856 40.1402 38.8641 42.1418 38.8641Z" fill="#B8D9F1"/>
<path d="M33.563 30.6794C35.3517 30.6794 36.8016 32.1285 36.8016 33.9159C36.8016 35.7033 35.3517 37.1523 33.563 37.1523C31.7743 37.1523 30.3242 35.7033 30.3242 33.9159C30.3242 32.1285 31.7743 30.6794 33.563 30.6794Z" fill="#B8D9F1"/>
<path d="M24.984 22.4933C26.5609 22.4933 27.8393 23.7707 27.8393 25.3465C27.8393 26.9223 26.5609 28.1997 24.984 28.1997C23.4072 28.1997 22.1289 26.9223 22.1289 25.3465C22.1289 23.7707 23.4072 22.4933 24.984 22.4933Z" fill="#B8D9F1"/>
<path d="M16.4092 14.3057C17.7732 14.3057 18.8789 15.4107 18.8789 16.7737C18.8789 18.1367 17.7732 19.2417 16.4092 19.2417C15.0452 19.2417 13.9395 18.1367 13.9395 16.7737C13.9395 15.4107 15.0452 14.3057 16.4092 14.3057Z" fill="#B8D9F1"/>
<path d="M8.9104 7.19481C10.0626 7.19481 10.9966 8.12817 10.9966 9.27953C10.9966 10.4309 10.0626 11.3643 8.9104 11.3643C7.75824 11.3643 6.82422 10.4309 6.82422 9.27953C6.82422 8.12817 7.75824 7.19481 8.9104 7.19481Z" fill="#B8D9F1"/>
<path d="M0.790786 1.16446C0.553025 1.40218 0.391135 1.70501 0.325584 2.03466C0.260033 2.36431 0.293764 2.70599 0.422513 3.01648C0.551261 3.32698 0.769246 3.59235 1.04891 3.77906C1.32857 3.96577 1.65735 4.06543 1.99368 4.06543C2.33001 4.06543 2.65879 3.96577 2.93846 3.77906C3.21812 3.59235 3.4361 3.32698 3.56485 3.01648C3.6936 2.70599 3.72733 2.36431 3.66178 2.03466C3.59623 1.70501 3.43434 1.40218 3.19658 1.16446C3.03864 1.00656 2.85112 0.881295 2.64472 0.795831C2.43832 0.710367 2.2171 0.66638 1.99368 0.66638C1.77027 0.66638 1.54904 0.710367 1.34264 0.795831C1.13625 0.881295 0.948724 1.00656 0.790786 1.16446Z" fill="#B8D9F1"/>
</g>
<defs>
<clipPath id="clip0_64_5552">
<rect width="166.003" height="157.371" fill="white" transform="matrix(1 0 0 -1 0.332031 158.016)"/>
</clipPath>
</defs>
</svg>
