<svg width="32" height="30" viewBox="0 0 32 30" fill="none" xmlns="http://www.w3.org/2000/svg">
<g clip-path="url(#clip0_64_8478)">
<path d="M31.001 15.9824C31.5506 15.9824 31.9961 15.5421 31.9961 14.999C31.9961 14.4559 31.5506 14.0156 31.001 14.0156C30.4514 14.0156 30.0059 14.4559 30.0059 14.999C30.0059 15.5421 30.4514 15.9824 31.001 15.9824Z" fill="#0064AC"/>
<path d="M29.0262 13.9566C29.5348 13.9566 29.947 13.5492 29.947 13.0467C29.947 12.5441 29.5348 12.1367 29.0262 12.1367C28.5177 12.1367 28.1055 12.5441 28.1055 13.0467C28.1055 13.5492 28.5177 13.9566 29.0262 13.9566Z" fill="#0064AC"/>
<path d="M27.1984 12.0761C27.6661 12.0761 28.0453 11.7015 28.0453 11.2392C28.0453 10.777 27.6661 10.4023 27.1984 10.4023C26.7307 10.4023 26.3516 10.777 26.3516 11.2392C26.3516 11.7015 26.7307 12.0761 27.1984 12.0761Z" fill="#0064AC"/>
<path d="M25.544 10.3707C25.9707 10.3707 26.3166 10.0289 26.3166 9.60722C26.3166 9.18557 25.9707 8.84375 25.544 8.84375C25.1174 8.84375 24.7715 9.18557 24.7715 9.60722C24.7715 10.0289 25.1174 10.3707 25.544 10.3707Z" fill="#0064AC"/>
<path d="M23.89 8.66206C24.2759 8.66206 24.5886 8.35296 24.5886 7.97166C24.5886 7.59036 24.2759 7.28125 23.89 7.28125C23.5042 7.28125 23.1914 7.59036 23.1914 7.97166C23.1914 8.35296 23.5042 8.66206 23.89 8.66206Z" fill="#0064AC"/>
<path d="M22.2376 6.9566C22.5824 6.9566 22.8619 6.68038 22.8619 6.33963C22.8619 5.99888 22.5824 5.72266 22.2376 5.72266C21.8928 5.72266 21.6133 5.99888 21.6133 6.33963C21.6133 6.68038 21.8928 6.9566 22.2376 6.9566Z" fill="#0064AC"/>
<path d="M20.5836 5.24798C20.8876 5.24798 21.134 5.00446 21.134 4.70407C21.134 4.40367 20.8876 4.16016 20.5836 4.16016C20.2796 4.16016 20.0332 4.40367 20.0332 4.70407C20.0332 5.00446 20.2796 5.24798 20.5836 5.24798Z" fill="#0064AC"/>
<path d="M18.9312 3.54252C19.1941 3.54252 19.4072 3.33188 19.4072 3.07204C19.4072 2.8122 19.1941 2.60156 18.9312 2.60156C18.6682 2.60156 18.4551 2.8122 18.4551 3.07204C18.4551 3.33188 18.6682 3.54252 18.9312 3.54252Z" fill="#0064AC"/>
<path d="M17.4842 2.04093C17.7063 2.04093 17.8863 1.863 17.8863 1.64351C17.8863 1.42402 17.7063 1.24609 17.4842 1.24609C17.2621 1.24609 17.082 1.42402 17.082 1.64351C17.082 1.863 17.2621 2.04093 17.4842 2.04093Z" fill="#0064AC"/>
<path d="M16.1521 0.64797C16.3331 0.64797 16.4799 0.502917 16.4799 0.323985C16.4799 0.145053 16.3331 0 16.1521 0C15.971 0 15.8242 0.145053 15.8242 0.323985C15.8242 0.502917 15.971 0.64797 16.1521 0.64797Z" fill="#0064AC"/>
<path d="M31.001 15.9824C31.5506 15.9824 31.9961 15.5421 31.9961 14.999C31.9961 14.4559 31.5506 14.0156 31.001 14.0156C30.4514 14.0156 30.0059 14.4559 30.0059 14.999C30.0059 15.5421 30.4514 15.9824 31.001 15.9824Z" fill="#0064AC"/>
<path d="M29.0262 17.859C29.5348 17.859 29.947 17.4516 29.947 16.949C29.947 16.4465 29.5348 16.0391 29.0262 16.0391C28.5177 16.0391 28.1055 16.4465 28.1055 16.949C28.1055 17.4516 28.5177 17.859 29.0262 17.859Z" fill="#0064AC"/>
<path d="M27.1984 19.5918C27.6661 19.5918 28.0453 19.2171 28.0453 18.7549C28.0453 18.2927 27.6661 17.918 27.1984 17.918C26.7307 17.918 26.3516 18.2927 26.3516 18.7549C26.3516 19.2171 26.7307 19.5918 27.1984 19.5918Z" fill="#0064AC"/>
<path d="M25.544 21.1519C25.9707 21.1519 26.3166 20.8101 26.3166 20.3885C26.3166 19.9668 25.9707 19.625 25.544 19.625C25.1174 19.625 24.7715 19.9668 24.7715 20.3885C24.7715 20.8101 25.1174 21.1519 25.544 21.1519Z" fill="#0064AC"/>
<path d="M23.89 22.7128C24.2759 22.7128 24.5886 22.4037 24.5886 22.0224C24.5886 21.6411 24.2759 21.332 23.89 21.332C23.5042 21.332 23.1914 21.6411 23.1914 22.0224C23.1914 22.4037 23.5042 22.7128 23.89 22.7128Z" fill="#0064AC"/>
<path d="M22.2376 24.275C22.5824 24.275 22.8619 23.9987 22.8619 23.658C22.8619 23.3172 22.5824 23.041 22.2376 23.041C21.8928 23.041 21.6133 23.3172 21.6133 23.658C21.6133 23.9987 21.8928 24.275 22.2376 24.275Z" fill="#0064AC"/>
<path d="M20.5836 25.8339C20.8876 25.8339 21.134 25.5904 21.134 25.29C21.134 24.9896 20.8876 24.7461 20.5836 24.7461C20.2796 24.7461 20.0332 24.9896 20.0332 25.29C20.0332 25.5904 20.2796 25.8339 20.5836 25.8339Z" fill="#0064AC"/>
<path d="M18.9312 27.396C19.1941 27.396 19.4072 27.1854 19.4072 26.9256C19.4072 26.6657 19.1941 26.4551 18.9312 26.4551C18.6682 26.4551 18.4551 26.6657 18.4551 26.9256C18.4551 27.1854 18.6682 27.396 18.9312 27.396Z" fill="#0064AC"/>
<path d="M17.4842 28.7519C17.7063 28.7519 17.8863 28.5739 17.8863 28.3544C17.8863 28.135 17.7063 27.957 17.4842 27.957C17.2621 27.957 17.082 28.135 17.082 28.3544C17.082 28.5739 17.2621 28.7519 17.4842 28.7519Z" fill="#0064AC"/>
<path d="M16.1521 29.9956C16.3331 29.9956 16.4799 29.8506 16.4799 29.6716C16.4799 29.4927 16.3331 29.3477 16.1521 29.3477C15.971 29.3477 15.8242 29.4927 15.8242 29.6716C15.8242 29.8506 15.971 29.9956 16.1521 29.9956Z" fill="#0064AC"/>
<path d="M27.042 15.9824C27.5915 15.9824 28.0371 15.5421 28.0371 14.999C28.0371 14.4559 27.5915 14.0156 27.042 14.0156C26.4924 14.0156 26.0469 14.4559 26.0469 14.999C26.0469 15.5421 26.4924 15.9824 27.042 15.9824Z" fill="#0064AC"/>
<path d="M25.0696 13.9574C25.5783 13.9574 25.9908 13.5498 25.9908 13.0471C25.9908 12.5443 25.5783 12.1367 25.0696 12.1367C24.5609 12.1367 24.1484 12.5443 24.1484 13.0471C24.1484 13.5498 24.5609 13.9574 25.0696 13.9574Z" fill="#0064AC"/>
<path d="M23.2394 12.0761C23.7072 12.0761 24.0863 11.7015 24.0863 11.2392C24.0863 10.777 23.7072 10.4023 23.2394 10.4023C22.7717 10.4023 22.3926 10.777 22.3926 11.2392C22.3926 11.7015 22.7717 12.0761 23.2394 12.0761Z" fill="#0064AC"/>
<path d="M21.587 10.3707C22.0137 10.3707 22.3596 10.0289 22.3596 9.60722C22.3596 9.18557 22.0137 8.84375 21.587 8.84375C21.1603 8.84375 20.8145 9.18557 20.8145 9.60722C20.8145 10.0289 21.1603 10.3707 21.587 10.3707Z" fill="#0064AC"/>
<path d="M19.933 8.66206C20.3188 8.66206 20.6316 8.35296 20.6316 7.97166C20.6316 7.59036 20.3188 7.28125 19.933 7.28125C19.5472 7.28125 19.2344 7.59036 19.2344 7.97166C19.2344 8.35296 19.5472 8.66206 19.933 8.66206Z" fill="#0064AC"/>
<path d="M18.2806 6.9566C18.6254 6.9566 18.9049 6.68038 18.9049 6.33963C18.9049 5.99888 18.6254 5.72266 18.2806 5.72266C17.9358 5.72266 17.6562 5.99888 17.6562 6.33963C17.6562 6.68038 17.9358 6.9566 18.2806 6.9566Z" fill="#0064AC"/>
<path d="M16.6266 5.24798C16.9305 5.24798 17.1769 5.00446 17.1769 4.70407C17.1769 4.40367 16.9305 4.16016 16.6266 4.16016C16.3226 4.16016 16.0762 4.40367 16.0762 4.70407C16.0762 5.00446 16.3226 5.24798 16.6266 5.24798Z" fill="#0064AC"/>
<path d="M14.9722 3.54252C15.2351 3.54252 15.4483 3.33188 15.4483 3.07204C15.4483 2.8122 15.2351 2.60156 14.9722 2.60156C14.7092 2.60156 14.4961 2.8122 14.4961 3.07204C14.4961 3.33188 14.7092 3.54252 14.9722 3.54252Z" fill="#0064AC"/>
<path d="M13.5271 2.04093C13.7492 2.04093 13.9293 1.863 13.9293 1.64351C13.9293 1.42402 13.7492 1.24609 13.5271 1.24609C13.305 1.24609 13.125 1.42402 13.125 1.64351C13.125 1.863 13.305 2.04093 13.5271 2.04093Z" fill="#0064AC"/>
<path d="M11.9612 0.0949522C11.9154 0.140269 11.8842 0.197998 11.8715 0.26084C11.8589 0.323683 11.8654 0.388817 11.8902 0.448008C11.915 0.507198 11.957 0.557788 12.011 0.593381C12.0649 0.628973 12.1282 0.64797 12.1931 0.64797C12.2579 0.64797 12.3213 0.628973 12.3752 0.593381C12.4291 0.557788 12.4711 0.507198 12.4959 0.448008C12.5208 0.388817 12.5273 0.323683 12.5146 0.26084C12.502 0.197998 12.4708 0.140269 12.425 0.0949522C12.3945 0.0648496 12.3584 0.0409702 12.3186 0.0246779C12.2788 0.00838568 12.2361 0 12.1931 0C12.15 0 12.1074 0.00838568 12.0676 0.0246779C12.0278 0.0409702 11.9916 0.0648496 11.9612 0.0949522Z" fill="#0064AC"/>
<path d="M27.042 15.9824C27.5915 15.9824 28.0371 15.5421 28.0371 14.999C28.0371 14.4559 27.5915 14.0156 27.042 14.0156C26.4924 14.0156 26.0469 14.4559 26.0469 14.999C26.0469 15.5421 26.4924 15.9824 27.042 15.9824Z" fill="#0064AC"/>
<path d="M25.0696 17.8558C25.5783 17.8558 25.9908 17.4483 25.9908 16.9455C25.9908 16.4427 25.5783 16.0352 25.0696 16.0352C24.5609 16.0352 24.1484 16.4427 24.1484 16.9455C24.1484 17.4483 24.5609 17.8558 25.0696 17.8558Z" fill="#0064AC"/>
<path d="M23.2394 19.5918C23.7072 19.5918 24.0863 19.2171 24.0863 18.7549C24.0863 18.2927 23.7072 17.918 23.2394 17.918C22.7717 17.918 22.3926 18.2927 22.3926 18.7549C22.3926 19.2171 22.7717 19.5918 23.2394 19.5918Z" fill="#0064AC"/>
<path d="M21.587 21.1519C22.0137 21.1519 22.3596 20.8101 22.3596 20.3885C22.3596 19.9668 22.0137 19.625 21.587 19.625C21.1603 19.625 20.8145 19.9668 20.8145 20.3885C20.8145 20.8101 21.1603 21.1519 21.587 21.1519Z" fill="#0064AC"/>
<path d="M19.933 22.7128C20.3188 22.7128 20.6316 22.4037 20.6316 22.0224C20.6316 21.6411 20.3188 21.332 19.933 21.332C19.5472 21.332 19.2344 21.6411 19.2344 22.0224C19.2344 22.4037 19.5472 22.7128 19.933 22.7128Z" fill="#0064AC"/>
<path d="M18.2806 24.275C18.6254 24.275 18.9049 23.9987 18.9049 23.658C18.9049 23.3172 18.6254 23.041 18.2806 23.041C17.9358 23.041 17.6562 23.3172 17.6562 23.658C17.6562 23.9987 17.9358 24.275 18.2806 24.275Z" fill="#0064AC"/>
<path d="M16.6266 25.8339C16.9305 25.8339 17.1769 25.5904 17.1769 25.29C17.1769 24.9896 16.9305 24.7461 16.6266 24.7461C16.3226 24.7461 16.0762 24.9896 16.0762 25.29C16.0762 25.5904 16.3226 25.8339 16.6266 25.8339Z" fill="#0064AC"/>
<path d="M14.9722 27.396C15.2351 27.396 15.4483 27.1854 15.4483 26.9256C15.4483 26.6657 15.2351 26.4551 14.9722 26.4551C14.7092 26.4551 14.4961 26.6657 14.4961 26.9256C14.4961 27.1854 14.7092 27.396 14.9722 27.396Z" fill="#0064AC"/>
<path d="M13.5271 28.7519C13.7492 28.7519 13.9293 28.5739 13.9293 28.3544C13.9293 28.135 13.7492 27.957 13.5271 27.957C13.305 27.957 13.125 28.135 13.125 28.3544C13.125 28.5739 13.305 28.7519 13.5271 28.7519Z" fill="#0064AC"/>
<path d="M11.9632 29.9007C11.9173 29.8554 11.8861 29.7976 11.8735 29.7348C11.8608 29.6719 11.8673 29.6068 11.8922 29.5476C11.917 29.4884 11.959 29.4378 12.0129 29.4022C12.0668 29.3667 12.1302 29.3477 12.195 29.3477C12.2599 29.3477 12.3232 29.3667 12.3772 29.4022C12.4311 29.4378 12.4731 29.4884 12.4979 29.5476C12.5227 29.6068 12.5292 29.6719 12.5166 29.7348C12.5039 29.7976 12.4727 29.8554 12.4269 29.9007C12.3965 29.9308 12.3603 29.9547 12.3205 29.9709C12.2807 29.9872 12.2381 29.9956 12.195 29.9956C12.152 29.9956 12.1093 29.9872 12.0695 29.9709C12.0297 29.9547 11.9936 29.9308 11.9632 29.9007Z" fill="#0064AC"/>
<path d="M23.0849 15.9824C23.6345 15.9824 24.08 15.5421 24.08 14.999C24.08 14.4559 23.6345 14.0156 23.0849 14.0156C22.5354 14.0156 22.0898 14.4559 22.0898 14.999C22.0898 15.5421 22.5354 15.9824 23.0849 15.9824Z" fill="#0064AC"/>
<path d="M21.1106 13.9574C21.6194 13.9574 22.0318 13.5498 22.0318 13.0471C22.0318 12.5443 21.6194 12.1367 21.1106 12.1367C20.6019 12.1367 20.1895 12.5443 20.1895 13.0471C20.1895 13.5498 20.6019 13.9574 21.1106 13.9574Z" fill="#0064AC"/>
<path d="M19.2824 12.0761C19.7501 12.0761 20.1293 11.7015 20.1293 11.2392C20.1293 10.777 19.7501 10.4023 19.2824 10.4023C18.8147 10.4023 18.4355 10.777 18.4355 11.2392C18.4355 11.7015 18.8147 12.0761 19.2824 12.0761Z" fill="#0064AC"/>
<path d="M17.628 10.3707C18.0547 10.3707 18.4006 10.0289 18.4006 9.60722C18.4006 9.18557 18.0547 8.84375 17.628 8.84375C17.2014 8.84375 16.8555 9.18557 16.8555 9.60722C16.8555 10.0289 17.2014 10.3707 17.628 10.3707Z" fill="#0064AC"/>
<path d="M15.976 8.66206C16.3618 8.66206 16.6746 8.35296 16.6746 7.97166C16.6746 7.59036 16.3618 7.28125 15.976 7.28125C15.5901 7.28125 15.2773 7.59036 15.2773 7.97166C15.2773 8.35296 15.5901 8.66206 15.976 8.66206Z" fill="#0064AC"/>
<path d="M14.3216 6.9566C14.6664 6.9566 14.9459 6.68038 14.9459 6.33963C14.9459 5.99888 14.6664 5.72266 14.3216 5.72266C13.9768 5.72266 13.6973 5.99888 13.6973 6.33963C13.6973 6.68038 13.9768 6.9566 14.3216 6.9566Z" fill="#0064AC"/>
<path d="M12.6676 5.24798C12.9715 5.24798 13.218 5.00446 13.218 4.70407C13.218 4.40367 12.9715 4.16016 12.6676 4.16016C12.3636 4.16016 12.1172 4.40367 12.1172 4.70407C12.1172 5.00446 12.3636 5.24798 12.6676 5.24798Z" fill="#0064AC"/>
<path d="M11.0151 3.54252C11.2781 3.54252 11.4912 3.33188 11.4912 3.07204C11.4912 2.8122 11.2781 2.60156 11.0151 2.60156C10.7522 2.60156 10.5391 2.8122 10.5391 3.07204C10.5391 3.33188 10.7522 3.54252 11.0151 3.54252Z" fill="#0064AC"/>
<path d="M9.57012 2.04093C9.79222 2.04093 9.97226 1.863 9.97226 1.64351C9.97226 1.42402 9.79222 1.24609 9.57012 1.24609C9.34802 1.24609 9.16797 1.42402 9.16797 1.64351C9.16797 1.863 9.34802 2.04093 9.57012 2.04093Z" fill="#0064AC"/>
<path d="M8.23604 0.64797C8.4171 0.64797 8.56389 0.502917 8.56389 0.323985C8.56389 0.145053 8.4171 0 8.23604 0C8.05497 0 7.9082 0.145053 7.9082 0.323985C7.9082 0.502917 8.05497 0.64797 8.23604 0.64797Z" fill="#0064AC"/>
<path d="M23.0849 15.9824C23.6345 15.9824 24.08 15.5421 24.08 14.999C24.08 14.4559 23.6345 14.0156 23.0849 14.0156C22.5354 14.0156 22.0898 14.4559 22.0898 14.999C22.0898 15.5421 22.5354 15.9824 23.0849 15.9824Z" fill="#0064AC"/>
<path d="M21.1106 17.8558C21.6194 17.8558 22.0318 17.4483 22.0318 16.9455C22.0318 16.4427 21.6194 16.0352 21.1106 16.0352C20.6019 16.0352 20.1895 16.4427 20.1895 16.9455C20.1895 17.4483 20.6019 17.8558 21.1106 17.8558Z" fill="#0064AC"/>
<path d="M19.2824 19.5918C19.7501 19.5918 20.1293 19.2171 20.1293 18.7549C20.1293 18.2927 19.7501 17.918 19.2824 17.918C18.8147 17.918 18.4355 18.2927 18.4355 18.7549C18.4355 19.2171 18.8147 19.5918 19.2824 19.5918Z" fill="#0064AC"/>
<path d="M17.628 21.1519C18.0547 21.1519 18.4006 20.8101 18.4006 20.3885C18.4006 19.9668 18.0547 19.625 17.628 19.625C17.2014 19.625 16.8555 19.9668 16.8555 20.3885C16.8555 20.8101 17.2014 21.1519 17.628 21.1519Z" fill="#0064AC"/>
<path d="M15.976 22.7128C16.3618 22.7128 16.6746 22.4037 16.6746 22.0224C16.6746 21.6411 16.3618 21.332 15.976 21.332C15.5901 21.332 15.2773 21.6411 15.2773 22.0224C15.2773 22.4037 15.5901 22.7128 15.976 22.7128Z" fill="#0064AC"/>
<path d="M14.3216 24.275C14.6664 24.275 14.9459 23.9987 14.9459 23.658C14.9459 23.3172 14.6664 23.041 14.3216 23.041C13.9768 23.041 13.6973 23.3172 13.6973 23.658C13.6973 23.9987 13.9768 24.275 14.3216 24.275Z" fill="#0064AC"/>
<path d="M12.6695 25.8339C12.9735 25.8339 13.2199 25.5904 13.2199 25.29C13.2199 24.9896 12.9735 24.7461 12.6695 24.7461C12.3655 24.7461 12.1191 24.9896 12.1191 25.29C12.1191 25.5904 12.3655 25.8339 12.6695 25.8339Z" fill="#0064AC"/>
<path d="M11.0151 27.396C11.2781 27.396 11.4912 27.1854 11.4912 26.9256C11.4912 26.6657 11.2781 26.4551 11.0151 26.4551C10.7522 26.4551 10.5391 26.6657 10.5391 26.9256C10.5391 27.1854 10.7522 27.396 11.0151 27.396Z" fill="#0064AC"/>
<path d="M9.57012 28.7519C9.79222 28.7519 9.97226 28.5739 9.97226 28.3544C9.97226 28.135 9.79222 27.957 9.57012 27.957C9.34802 27.957 9.16797 28.135 9.16797 28.3544C9.16797 28.5739 9.34802 28.7519 9.57012 28.7519Z" fill="#0064AC"/>
<path d="M8.23604 29.9956C8.4171 29.9956 8.56389 29.8506 8.56389 29.6716C8.56389 29.4927 8.4171 29.3477 8.23604 29.3477C8.05497 29.3477 7.9082 29.4927 7.9082 29.6716C7.9082 29.8506 8.05497 29.9956 8.23604 29.9956Z" fill="#0064AC"/>
<path d="M19.126 15.9824C19.6756 15.9824 20.1211 15.5421 20.1211 14.999C20.1211 14.4559 19.6756 14.0156 19.126 14.0156C18.5764 14.0156 18.1309 14.4559 18.1309 14.999C18.1309 15.5421 18.5764 15.9824 19.126 15.9824Z" fill="#0064AC"/>
<path d="M17.1536 13.9574C17.6623 13.9574 18.0747 13.5498 18.0747 13.0471C18.0747 12.5443 17.6623 12.1367 17.1536 12.1367C16.6448 12.1367 16.2324 12.5443 16.2324 13.0471C16.2324 13.5498 16.6448 13.9574 17.1536 13.9574Z" fill="#0064AC"/>
<path d="M15.3234 12.0761C15.7911 12.0761 16.1703 11.7015 16.1703 11.2392C16.1703 10.777 15.7911 10.4023 15.3234 10.4023C14.8557 10.4023 14.4766 10.777 14.4766 11.2392C14.4766 11.7015 14.8557 12.0761 15.3234 12.0761Z" fill="#0064AC"/>
<path d="M13.671 10.3707C14.0977 10.3707 14.4435 10.0289 14.4435 9.60722C14.4435 9.18557 14.0977 8.84375 13.671 8.84375C13.2443 8.84375 12.8984 9.18557 12.8984 9.60722C12.8984 10.0289 13.2443 10.3707 13.671 10.3707Z" fill="#0064AC"/>
<path d="M12.017 8.66206C12.4028 8.66206 12.7156 8.35296 12.7156 7.97166C12.7156 7.59036 12.4028 7.28125 12.017 7.28125C11.6311 7.28125 11.3184 7.59036 11.3184 7.97166C11.3184 8.35296 11.6311 8.66206 12.017 8.66206Z" fill="#0064AC"/>
<path d="M10.3646 6.9566C10.7094 6.9566 10.9889 6.68038 10.9889 6.33963C10.9889 5.99888 10.7094 5.72266 10.3646 5.72266C10.0198 5.72266 9.74023 5.99888 9.74023 6.33963C9.74023 6.68038 10.0198 6.9566 10.3646 6.9566Z" fill="#0064AC"/>
<path d="M8.71053 5.24798C9.0145 5.24798 9.26093 5.00446 9.26093 4.70407C9.26093 4.40367 9.0145 4.16016 8.71053 4.16016C8.40656 4.16016 8.16016 4.40367 8.16016 4.70407C8.16016 5.00446 8.40656 5.24798 8.71053 5.24798Z" fill="#0064AC"/>
<path d="M7.05811 3.54252C7.32104 3.54252 7.53419 3.33188 7.53419 3.07204C7.53419 2.8122 7.32104 2.60156 7.05811 2.60156C6.79518 2.60156 6.58203 2.8122 6.58203 3.07204C6.58203 3.33188 6.79518 3.54252 7.05811 3.54252Z" fill="#0064AC"/>
<path d="M5.32856 1.3626C5.27238 1.41813 5.23414 1.48888 5.21865 1.56589C5.20316 1.64291 5.21112 1.72273 5.24154 1.79528C5.27195 1.86782 5.32345 1.92982 5.38951 1.97344C5.45558 2.01706 5.53326 2.04034 5.61271 2.04034C5.69217 2.04034 5.76984 2.01706 5.83591 1.97344C5.90198 1.92982 5.95347 1.86782 5.98389 1.79528C6.0143 1.72273 6.02227 1.64291 6.00678 1.56589C5.99129 1.48888 5.95304 1.41813 5.89687 1.3626C5.85958 1.32567 5.81529 1.29637 5.76653 1.27638C5.71777 1.25638 5.6655 1.24609 5.61271 1.24609C5.55992 1.24609 5.50765 1.25638 5.45889 1.27638C5.41013 1.29637 5.36584 1.32567 5.32856 1.3626Z" fill="#0064AC"/>
<path d="M4.27705 0.64797C4.45811 0.64797 4.6049 0.502917 4.6049 0.323985C4.6049 0.145053 4.45811 0 4.27705 0C4.09599 0 3.94922 0.145053 3.94922 0.323985C3.94922 0.502917 4.09599 0.64797 4.27705 0.64797Z" fill="#0064AC"/>
<path d="M19.126 15.9824C19.6756 15.9824 20.1211 15.5421 20.1211 14.999C20.1211 14.4559 19.6756 14.0156 19.126 14.0156C18.5764 14.0156 18.1309 14.4559 18.1309 14.999C18.1309 15.5421 18.5764 15.9824 19.126 15.9824Z" fill="#0064AC"/>
<path d="M17.1536 17.8558C17.6623 17.8558 18.0747 17.4483 18.0747 16.9455C18.0747 16.4427 17.6623 16.0352 17.1536 16.0352C16.6448 16.0352 16.2324 16.4427 16.2324 16.9455C16.2324 17.4483 16.6448 17.8558 17.1536 17.8558Z" fill="#0064AC"/>
<path d="M15.3234 19.5918C15.7911 19.5918 16.1703 19.2171 16.1703 18.7549C16.1703 18.2927 15.7911 17.918 15.3234 17.918C14.8557 17.918 14.4766 18.2927 14.4766 18.7549C14.4766 19.2171 14.8557 19.5918 15.3234 19.5918Z" fill="#0064AC"/>
<path d="M13.671 21.1519C14.0977 21.1519 14.4435 20.8101 14.4435 20.3885C14.4435 19.9668 14.0977 19.625 13.671 19.625C13.2443 19.625 12.8984 19.9668 12.8984 20.3885C12.8984 20.8101 13.2443 21.1519 13.671 21.1519Z" fill="#0064AC"/>
<path d="M12.017 22.7128C12.4028 22.7128 12.7156 22.4037 12.7156 22.0224C12.7156 21.6411 12.4028 21.332 12.017 21.332C11.6311 21.332 11.3184 21.6411 11.3184 22.0224C11.3184 22.4037 11.6311 22.7128 12.017 22.7128Z" fill="#0064AC"/>
<path d="M10.3646 24.275C10.7094 24.275 10.9889 23.9987 10.9889 23.658C10.9889 23.3172 10.7094 23.041 10.3646 23.041C10.0198 23.041 9.74023 23.3172 9.74023 23.658C9.74023 23.9987 10.0198 24.275 10.3646 24.275Z" fill="#0064AC"/>
<path d="M8.71053 25.8339C9.0145 25.8339 9.26093 25.5904 9.26093 25.29C9.26093 24.9896 9.0145 24.7461 8.71053 24.7461C8.40656 24.7461 8.16016 24.9896 8.16016 25.29C8.16016 25.5904 8.40656 25.8339 8.71053 25.8339Z" fill="#0064AC"/>
<path d="M7.05811 27.396C7.32104 27.396 7.53419 27.1854 7.53419 26.9256C7.53419 26.6657 7.32104 26.4551 7.05811 26.4551C6.79518 26.4551 6.58203 26.6657 6.58203 26.9256C6.58203 27.1854 6.79518 27.396 7.05811 27.396Z" fill="#0064AC"/>
<path d="M5.32856 28.6348C5.27238 28.5792 5.23414 28.5085 5.21865 28.4315C5.20316 28.3545 5.21112 28.2746 5.24154 28.2021C5.27195 28.1296 5.32345 28.0676 5.38951 28.0239C5.45558 27.9803 5.53326 27.957 5.61271 27.957C5.69217 27.957 5.76984 27.9803 5.83591 28.0239C5.90198 28.0676 5.95347 28.1296 5.98389 28.2021C6.0143 28.2746 6.02227 28.3545 6.00678 28.4315C5.99129 28.5085 5.95304 28.5792 5.89687 28.6348C5.85958 28.6717 5.81529 28.701 5.76653 28.721C5.71777 28.741 5.6655 28.7513 5.61271 28.7513C5.55992 28.7513 5.50765 28.741 5.45889 28.721C5.41013 28.701 5.36584 28.6717 5.32856 28.6348Z" fill="#0064AC"/>
<path d="M4.27901 29.9956C4.46007 29.9956 4.60686 29.8506 4.60686 29.6716C4.60686 29.4927 4.46007 29.3477 4.27901 29.3477C4.09794 29.3477 3.95117 29.4927 3.95117 29.6716C3.95117 29.8506 4.09794 29.9956 4.27901 29.9956Z" fill="#0064AC"/>
<path d="M15.1689 15.9824C15.7185 15.9824 16.164 15.5421 16.164 14.999C16.164 14.4559 15.7185 14.0156 15.1689 14.0156C14.6194 14.0156 14.1738 14.4559 14.1738 14.999C14.1738 15.5421 14.6194 15.9824 15.1689 15.9824Z" fill="#0064AC"/>
<path d="M13.1962 13.9566C13.7047 13.9566 14.117 13.5492 14.117 13.0467C14.117 12.5441 13.7047 12.1367 13.1962 12.1367C12.6876 12.1367 12.2754 12.5441 12.2754 13.0467C12.2754 13.5492 12.6876 13.9566 13.1962 13.9566Z" fill="#0064AC"/>
<path d="M11.3664 12.0761C11.8341 12.0761 12.2132 11.7015 12.2132 11.2392C12.2132 10.777 11.8341 10.4023 11.3664 10.4023C10.8987 10.4023 10.5195 10.777 10.5195 11.2392C10.5195 11.7015 10.8987 12.0761 11.3664 12.0761Z" fill="#0064AC"/>
<path d="M9.71201 10.3707C10.1387 10.3707 10.4846 10.0289 10.4846 9.60722C10.4846 9.18557 10.1387 8.84375 9.71201 8.84375C9.28534 8.84375 8.93945 9.18557 8.93945 9.60722C8.93945 10.0289 9.28534 10.3707 9.71201 10.3707Z" fill="#0064AC"/>
<path d="M8.05995 8.66206C8.44579 8.66206 8.75857 8.35296 8.75857 7.97166C8.75857 7.59036 8.44579 7.28125 8.05995 7.28125C7.67411 7.28125 7.36133 7.59036 7.36133 7.97166C7.36133 8.35296 7.67411 8.66206 8.05995 8.66206Z" fill="#0064AC"/>
<path d="M6.40558 6.9566C6.75038 6.9566 7.02988 6.68038 7.02988 6.33963C7.02988 5.99888 6.75038 5.72266 6.40558 5.72266C6.06077 5.72266 5.78125 5.99888 5.78125 6.33963C5.78125 6.68038 6.06077 6.9566 6.40558 6.9566Z" fill="#0064AC"/>
<path d="M4.7535 5.24798C5.05747 5.24798 5.30389 5.00446 5.30389 4.70407C5.30389 4.40367 5.05747 4.16016 4.7535 4.16016C4.44953 4.16016 4.20312 4.40367 4.20312 4.70407C4.20312 5.00446 4.44953 5.24798 4.7535 5.24798Z" fill="#0064AC"/>
<path d="M3.09913 3.54252C3.36206 3.54252 3.57521 3.33188 3.57521 3.07204C3.57521 2.8122 3.36206 2.60156 3.09913 2.60156C2.83619 2.60156 2.62305 2.8122 2.62305 3.07204C2.62305 3.33188 2.83619 3.54252 3.09913 3.54252Z" fill="#0064AC"/>
<path d="M1.6541 2.04093C1.8762 2.04093 2.05625 1.863 2.05625 1.64351C2.05625 1.42402 1.8762 1.24609 1.6541 1.24609C1.432 1.24609 1.25195 1.42402 1.25195 1.64351C1.25195 1.863 1.432 2.04093 1.6541 2.04093Z" fill="#0064AC"/>
<path d="M0.0881503 0.0949522C0.0423178 0.140269 0.0111108 0.197998 -0.00152536 0.26084C-0.0141615 0.323683 -0.0076592 0.388817 0.0171593 0.448008C0.0419778 0.507198 0.0839981 0.557788 0.137908 0.593381C0.191817 0.628973 0.255195 0.64797 0.320029 0.64797C0.384863 0.64797 0.448241 0.628973 0.50215 0.593381C0.55606 0.557788 0.59808 0.507198 0.622899 0.448008C0.647717 0.388817 0.654219 0.323683 0.641583 0.26084C0.628947 0.197998 0.59774 0.140269 0.551908 0.0949522C0.521462 0.0648496 0.485314 0.0409702 0.445527 0.0246779C0.405741 0.00838568 0.363096 0 0.320029 0C0.276962 0 0.234317 0.00838568 0.19453 0.0246779C0.154744 0.0409702 0.118595 0.0648496 0.0881503 0.0949522Z" fill="#0064AC"/>
<path d="M15.1689 15.9824C15.7185 15.9824 16.164 15.5421 16.164 14.999C16.164 14.4559 15.7185 14.0156 15.1689 14.0156C14.6194 14.0156 14.1738 14.4559 14.1738 14.999C14.1738 15.5421 14.6194 15.9824 15.1689 15.9824Z" fill="#0064AC"/>
<path d="M13.1962 17.859C13.7047 17.859 14.117 17.4516 14.117 16.949C14.117 16.4465 13.7047 16.0391 13.1962 16.0391C12.6876 16.0391 12.2754 16.4465 12.2754 16.949C12.2754 17.4516 12.6876 17.859 13.1962 17.859Z" fill="#0064AC"/>
<path d="M11.3664 19.5918C11.8341 19.5918 12.2132 19.2171 12.2132 18.7549C12.2132 18.2927 11.8341 17.918 11.3664 17.918C10.8987 17.918 10.5195 18.2927 10.5195 18.7549C10.5195 19.2171 10.8987 19.5918 11.3664 19.5918Z" fill="#0064AC"/>
<path d="M9.71201 21.1519C10.1387 21.1519 10.4846 20.8101 10.4846 20.3885C10.4846 19.9668 10.1387 19.625 9.71201 19.625C9.28534 19.625 8.93945 19.9668 8.93945 20.3885C8.93945 20.8101 9.28534 21.1519 9.71201 21.1519Z" fill="#0064AC"/>
<path d="M8.05995 22.7128C8.44579 22.7128 8.75857 22.4037 8.75857 22.0224C8.75857 21.6411 8.44579 21.332 8.05995 21.332C7.67411 21.332 7.36133 21.6411 7.36133 22.0224C7.36133 22.4037 7.67411 22.7128 8.05995 22.7128Z" fill="#0064AC"/>
<path d="M6.40558 24.275C6.75038 24.275 7.02988 23.9987 7.02988 23.658C7.02988 23.3172 6.75038 23.041 6.40558 23.041C6.06077 23.041 5.78125 23.3172 5.78125 23.658C5.78125 23.9987 6.06077 24.275 6.40558 24.275Z" fill="#0064AC"/>
<path d="M4.7535 25.8339C5.05747 25.8339 5.30389 25.5904 5.30389 25.29C5.30389 24.9896 5.05747 24.7461 4.7535 24.7461C4.44953 24.7461 4.20312 24.9896 4.20312 25.29C4.20312 25.5904 4.44953 25.8339 4.7535 25.8339Z" fill="#0064AC"/>
<path d="M3.09913 27.396C3.36206 27.396 3.57521 27.1854 3.57521 26.9256C3.57521 26.6657 3.36206 26.4551 3.09913 26.4551C2.83619 26.4551 2.62305 26.6657 2.62305 26.9256C2.62305 27.1854 2.83619 27.396 3.09913 27.396Z" fill="#0064AC"/>
<path d="M1.6541 28.7519C1.8762 28.7519 2.05625 28.5739 2.05625 28.3544C2.05625 28.135 1.8762 27.957 1.6541 27.957C1.432 27.957 1.25195 28.135 1.25195 28.3544C1.25195 28.5739 1.432 28.7519 1.6541 28.7519Z" fill="#0064AC"/>
<path d="M0.0881503 29.9007C0.0423178 29.8554 0.0111108 29.7976 -0.00152536 29.7348C-0.0141615 29.6719 -0.0076592 29.6068 0.0171593 29.5476C0.0419778 29.4884 0.0839981 29.4378 0.137908 29.4022C0.191817 29.3667 0.255195 29.3477 0.320029 29.3477C0.384863 29.3477 0.448241 29.3667 0.50215 29.4022C0.55606 29.4378 0.59808 29.4884 0.622899 29.5476C0.647717 29.6068 0.654219 29.6719 0.641583 29.7348C0.628947 29.7976 0.59774 29.8554 0.551908 29.9007C0.521462 29.9308 0.485314 29.9547 0.445527 29.9709C0.405741 29.9872 0.363096 29.9956 0.320029 29.9956C0.276962 29.9956 0.234317 29.9872 0.19453 29.9709C0.154744 29.9547 0.118595 29.9308 0.0881503 29.9007Z" fill="#0064AC"/>
</g>
<defs>
<clipPath id="clip0_64_8478">
<rect width="32" height="30" fill="white"/>
</clipPath>
</defs>
</svg>
