<svg width="68" height="66" viewBox="0 0 68 66" fill="none" xmlns="http://www.w3.org/2000/svg">
<path d="M50.8975 41.2156H50.5594C45.0541 41.2156 26.529 41.1802 18.7201 41.1737C16.7814 41.1842 14.8984 40.5258 13.3886 39.3096C10.2318 36.726 9.09052 33.0461 10.0853 28.6675C10.6681 26.0517 13.9729 21.6732 19.2191 20.5962C23.5767 19.7044 27.3983 20.6719 31.0943 21.6088C31.8734 21.8068 32.6477 22.0032 33.422 22.1802C36.5594 22.8982 40.5935 23.1847 42.01 20.4948C42.0831 20.3661 42.2034 20.2708 42.3455 20.2292C42.4876 20.1877 42.6404 20.203 42.7713 20.2721C42.9023 20.3411 43.0013 20.4584 43.0473 20.5991C43.0933 20.7399 43.0827 20.893 43.0177 21.026C41.6108 23.7014 38.2947 24.4645 33.1677 23.291C32.3853 23.1123 31.6013 22.9143 30.8142 22.7147C27.2405 21.8084 23.5494 20.8715 19.4477 21.7134C14.5251 22.7227 11.6452 26.9033 11.1977 28.9171C10.2914 32.9044 11.2717 36.103 14.1097 38.4275C15.416 39.4788 17.045 40.0474 18.7217 40.0373C26.5306 40.0373 45.0557 40.0711 50.561 40.0791H50.883C51.7334 40.101 52.5773 39.9264 53.3492 39.5688C55.5513 38.4822 56.9486 36.491 57.0886 34.2437C57.2351 31.879 55.9988 29.6463 53.6937 28.1122C50.3132 26.5781 45.6368 27.8933 41.8764 28.9509C41.0715 29.1762 40.0912 29.4805 39.0384 29.8073C36.0507 30.7329 32.6638 31.7824 30.8174 31.8694C28.1307 31.9917 24.7341 31.1192 23.5832 28.901C23.5487 28.8345 23.5277 28.7619 23.5213 28.6872C23.5149 28.6126 23.5233 28.5375 23.5459 28.4661C23.5686 28.3947 23.605 28.3285 23.6533 28.2713C23.7015 28.214 23.7605 28.1668 23.827 28.1323C23.8935 28.0978 23.9661 28.0768 24.0407 28.0704C24.1154 28.064 24.1905 28.0724 24.2619 28.095C24.3333 28.1177 24.3995 28.1542 24.4567 28.2024C24.514 28.2507 24.5613 28.3097 24.5957 28.3762C25.473 30.0713 28.3689 30.8375 30.7643 30.7313C32.4658 30.6508 35.9155 29.5787 38.702 28.7191C39.766 28.3891 40.756 28.0752 41.5674 27.853C45.5225 26.7423 50.4436 25.3579 54.2104 27.0948C54.2363 27.1066 54.261 27.1206 54.2844 27.1367C56.9631 28.9074 58.399 31.5184 58.2251 34.3146C58.0641 36.9755 56.427 39.3209 53.853 40.5926C52.929 41.0252 51.9175 41.2384 50.8975 41.2156Z" fill="#0064AC" stroke="#0064AC"/>
<path d="M48.6944 27.0238C48.595 27.024 48.4972 26.9982 48.4108 26.9488C48.3245 26.8994 48.2526 26.8282 48.2024 26.7423C48.1522 26.6564 48.1255 26.5588 48.1248 26.4594C48.1241 26.3599 48.1496 26.262 48.1986 26.1755C48.5447 25.5605 49.6377 23.3713 49.2176 20.9985C48.9134 19.276 47.368 17.4715 45.4604 16.6103C44.4902 16.195 43.4871 15.8611 42.4615 15.6122C41.23 15.2903 40.0661 14.9683 38.9425 14.2697C37.3859 13.3135 36.4587 11.9082 35.8244 10.6767C35.3277 11.9087 34.5262 12.9943 33.4951 13.8318C32.1429 14.92 29.8812 15.1197 28.2312 15.2806C27.0673 15.4078 26.0596 16.0211 25.2483 17.1045C24.2519 18.4325 23.8913 20.0439 23.9782 20.5333C23.9913 20.6072 23.9898 20.6831 23.9735 20.7565C23.9573 20.8298 23.9268 20.8993 23.8838 20.9609C23.8407 21.0225 23.786 21.075 23.7226 21.1154C23.6593 21.1558 23.5886 21.1834 23.5146 21.1965C23.4406 21.2096 23.3648 21.208 23.2914 21.1918C23.218 21.1756 23.1486 21.1451 23.087 21.102C23.0254 21.059 22.9729 21.0042 22.9325 20.9409C22.8921 20.8775 22.8645 20.8069 22.8514 20.7329C22.7113 19.9393 23.1476 17.9963 24.3324 16.4203C25.3256 15.0939 26.6327 14.3083 28.1121 14.1474C29.5448 14.0154 31.6922 13.8254 32.7804 12.9481C33.7846 12.1324 34.5301 11.0424 34.9262 9.81067C34.9809 9.63639 35.0871 9.48272 35.2307 9.36983C35.3744 9.25693 35.5488 9.19008 35.7311 9.17804C35.9119 9.16444 36.0926 9.2065 36.2488 9.29858C36.4051 9.39067 36.5294 9.52836 36.6051 9.69316C37.1734 10.8844 38.0217 12.3718 39.5397 13.3055C40.5233 13.9172 41.6083 14.2085 42.7592 14.5176C43.845 14.7801 44.9064 15.1344 45.9321 15.5768C47.8171 16.4284 49.9114 18.3746 50.3412 20.8037C50.8241 23.5499 49.5862 26.0402 49.1934 26.7389C49.143 26.8263 49.0701 26.8988 48.9825 26.9488C48.8948 26.9989 48.7954 27.0248 48.6944 27.0238Z" fill="#0064AC" stroke="#0064AC"/>
<path d="M66.4076 41.2252H1.56986C1.49503 41.2252 1.42092 41.2104 1.35178 41.1818C1.28264 41.1531 1.21983 41.1112 1.16691 41.0582C1.11399 41.0053 1.07203 40.9425 1.04339 40.8734C1.01475 40.8042 1 40.7301 1 40.6553C1 40.5805 1.01475 40.5064 1.04339 40.4372C1.07203 40.3681 1.11399 40.3053 1.16691 40.2524C1.21983 40.1994 1.28264 40.1575 1.35178 40.1288C1.42092 40.1002 1.49503 40.0854 1.56986 40.0854H66.4076C66.5588 40.0854 66.7037 40.1455 66.8106 40.2524C66.9174 40.3592 66.9775 40.5042 66.9775 40.6553C66.9775 40.8064 66.9174 40.9514 66.8106 41.0582C66.7037 41.1651 66.5588 41.2252 66.4076 41.2252Z" fill="#0064AC" stroke="#0064AC"/>
<path d="M66.4076 47.2989H1.56986C1.41873 47.2989 1.27378 47.2388 1.16691 47.132C1.06004 47.0251 1 46.8802 1 46.729C1 46.5779 1.06004 46.433 1.16691 46.3261C1.27378 46.2192 1.41873 46.1592 1.56986 46.1592H66.4076C66.5588 46.1592 66.7037 46.2192 66.8106 46.3261C66.9174 46.433 66.9775 46.5779 66.9775 46.729C66.9775 46.8802 66.9174 47.0251 66.8106 47.132C66.7037 47.2388 66.5588 47.2989 66.4076 47.2989Z" fill="#0064AC" stroke="#0064AC"/>
<path d="M65.8442 52.0523H64.7898C64.6387 52.0523 64.4937 51.9923 64.3869 51.8854C64.28 51.7785 64.2199 51.6336 64.2199 51.4824C64.2199 51.3313 64.28 51.1864 64.3869 51.0795C64.4937 50.9726 64.6387 50.9126 64.7898 50.9126H65.8442C65.9953 50.9126 66.1403 50.9726 66.2472 51.0795C66.354 51.1864 66.4141 51.3313 66.4141 51.4824C66.4141 51.6336 66.354 51.7785 66.2472 51.8854C66.1403 51.9923 65.9953 52.0523 65.8442 52.0523ZM59.5227 52.0523H58.4683C58.3172 52.0523 58.1722 51.9923 58.0653 51.8854C57.9585 51.7785 57.8984 51.6336 57.8984 51.4824C57.8984 51.3313 57.9585 51.1864 58.0653 51.0795C58.1722 50.9726 58.3172 50.9126 58.4683 50.9126H59.5227C59.6738 50.9126 59.8188 50.9726 59.9256 51.0795C60.0325 51.1864 60.0925 51.3313 60.0925 51.4824C60.0925 51.6336 60.0325 51.7785 59.9256 51.8854C59.8188 51.9923 59.6738 52.0523 59.5227 52.0523ZM53.1996 52.0523H52.1452C51.994 52.0523 51.8491 51.9923 51.7422 51.8854C51.6353 51.7785 51.5753 51.6336 51.5753 51.4824C51.5753 51.3313 51.6353 51.1864 51.7422 51.0795C51.8491 50.9726 51.994 50.9126 52.1452 50.9126H53.1996C53.3507 50.9126 53.4956 50.9726 53.6025 51.0795C53.7094 51.1864 53.7694 51.3313 53.7694 51.4824C53.7694 51.6336 53.7094 51.7785 53.6025 51.8854C53.4956 51.9923 53.3507 52.0523 53.1996 52.0523ZM46.878 52.0523H45.8301C45.679 52.0523 45.534 51.9923 45.4271 51.8854C45.3203 51.7785 45.2602 51.6336 45.2602 51.4824C45.2602 51.3313 45.3203 51.1864 45.4271 51.0795C45.534 50.9726 45.679 50.9126 45.8301 50.9126H46.8845C47.0356 50.9126 47.1806 50.9726 47.2874 51.0795C47.3943 51.1864 47.4544 51.3313 47.4544 51.4824C47.4544 51.6336 47.3943 51.7785 47.2874 51.8854C47.1806 51.9923 47.0356 52.0523 46.8845 52.0523H46.878ZM40.5565 52.0523H39.5021C39.351 52.0523 39.2061 51.9923 39.0992 51.8854C38.9923 51.7785 38.9323 51.6336 38.9323 51.4824C38.9323 51.3313 38.9923 51.1864 39.0992 51.0795C39.2061 50.9726 39.351 50.9126 39.5021 50.9126H40.5565C40.7077 50.9126 40.8526 50.9726 40.9595 51.0795C41.0663 51.1864 41.1264 51.3313 41.1264 51.4824C41.1264 51.6336 41.0663 51.7785 40.9595 51.8854C40.8526 51.9923 40.7077 52.0523 40.5565 52.0523ZM34.2334 52.0523H33.179C33.0279 52.0523 32.8829 51.9923 32.7761 51.8854C32.6692 51.7785 32.6092 51.6336 32.6092 51.4824C32.6092 51.3313 32.6692 51.1864 32.7761 51.0795C32.8829 50.9726 33.0279 50.9126 33.179 50.9126H34.2399C34.391 50.9126 34.5359 50.9726 34.6428 51.0795C34.7497 51.1864 34.8097 51.3313 34.8097 51.4824C34.8097 51.6336 34.7497 51.7785 34.6428 51.8854C34.5359 51.9923 34.391 52.0523 34.2399 52.0523H34.2334ZM27.9119 52.0523H26.8575C26.7064 52.0523 26.5615 51.9923 26.4546 51.8854C26.3477 51.7785 26.2877 51.6336 26.2877 51.4824C26.2877 51.3313 26.3477 51.1864 26.4546 51.0795C26.5615 50.9726 26.7064 50.9126 26.8575 50.9126H27.9119C28.063 50.9126 28.208 50.9726 28.3148 51.0795C28.4217 51.1864 28.4818 51.3313 28.4818 51.4824C28.4818 51.6336 28.4217 51.7785 28.3148 51.8854C28.208 51.9923 28.063 52.0523 27.9119 52.0523ZM21.5904 52.0523H20.536C20.3849 52.0523 20.2399 51.9923 20.1331 51.8854C20.0262 51.7785 19.9662 51.6336 19.9662 51.4824C19.9662 51.3313 20.0262 51.1864 20.1331 51.0795C20.2399 50.9726 20.3849 50.9126 20.536 50.9126H21.5904C21.7415 50.9126 21.8865 50.9726 21.9933 51.0795C22.1002 51.1864 22.1602 51.3313 22.1602 51.4824C22.1602 51.6336 22.1002 51.7785 21.9933 51.8854C21.8865 51.9923 21.7415 52.0523 21.5904 52.0523ZM15.2672 52.0523H14.2145C14.0634 52.0523 13.9184 51.9923 13.8116 51.8854C13.7047 51.7785 13.6446 51.6336 13.6446 51.4824C13.6446 51.3313 13.7047 51.1864 13.8116 51.0795C13.9184 50.9726 14.0634 50.9126 14.2145 50.9126H15.2672C15.4184 50.9126 15.5633 50.9726 15.6702 51.0795C15.7771 51.1864 15.8371 51.3313 15.8371 51.4824C15.8371 51.6336 15.7771 51.7785 15.6702 51.8854C15.5633 51.9923 15.4184 52.0523 15.2672 52.0523ZM8.94577 52.0523H7.89138C7.74024 52.0523 7.59529 51.9923 7.48843 51.8854C7.38156 51.7785 7.32152 51.6336 7.32152 51.4824C7.32152 51.3313 7.38156 51.1864 7.48843 51.0795C7.59529 50.9726 7.74024 50.9126 7.89138 50.9126H8.94577C9.09691 50.9126 9.24182 50.9726 9.34868 51.0795C9.45555 51.1864 9.51559 51.3313 9.51559 51.4824C9.51559 51.6336 9.45555 51.7785 9.34868 51.8854C9.24182 51.9923 9.09691 52.0523 8.94577 52.0523ZM2.62426 52.0523H1.56986C1.41873 52.0523 1.27378 51.9923 1.16691 51.8854C1.06004 51.7785 1 51.6336 1 51.4824C1 51.3313 1.06004 51.1864 1.16691 51.0795C1.27378 50.9726 1.41873 50.9126 1.56986 50.9126H2.62426C2.77539 50.9126 2.92034 50.9726 3.02721 51.0795C3.13408 51.1864 3.19408 51.3313 3.19408 51.4824C3.19408 51.6336 3.13408 51.7785 3.02721 51.8854C2.92034 51.9923 2.77539 52.0523 2.62426 52.0523Z" fill="#0064AC" stroke="#0064AC"/>
<path d="M65.8436 56.7962H64.7892C64.6381 56.7962 64.4931 56.7362 64.3863 56.6293C64.2794 56.5224 64.2194 56.3775 64.2194 56.2263C64.2194 56.0752 64.2794 55.9303 64.3863 55.8234C64.4931 55.7165 64.6381 55.6565 64.7892 55.6565H65.8436C65.9948 55.6565 66.1397 55.7165 66.2466 55.8234C66.3534 55.9303 66.4135 56.0752 66.4135 56.2263C66.4135 56.3775 66.3534 56.5224 66.2466 56.6293C66.1397 56.7362 65.9948 56.7962 65.8436 56.7962ZM59.5221 56.7962H58.4677C58.3166 56.7962 58.1716 56.7362 58.0648 56.6293C57.9579 56.5224 57.8979 56.3775 57.8979 56.2263C57.8979 56.0752 57.9579 55.9303 58.0648 55.8234C58.1716 55.7165 58.3166 55.6565 58.4677 55.6565H59.5221C59.6732 55.6565 59.8182 55.7165 59.9251 55.8234C60.0319 55.9303 60.092 56.0752 60.092 56.2263C60.092 56.3775 60.0319 56.5224 59.9251 56.6293C59.8182 56.7362 59.6732 56.7962 59.5221 56.7962ZM53.199 56.7962H52.1446C51.9935 56.7962 51.8485 56.7362 51.7416 56.6293C51.6348 56.5224 51.5747 56.3775 51.5747 56.2263C51.5747 56.0752 51.6348 55.9303 51.7416 55.8234C51.8485 55.7165 51.9935 55.6565 52.1446 55.6565H53.199C53.3501 55.6565 53.4951 55.7165 53.6019 55.8234C53.7088 55.9303 53.7688 56.0752 53.7688 56.2263C53.7688 56.3775 53.7088 56.5224 53.6019 56.6293C53.4951 56.7362 53.3501 56.7962 53.199 56.7962ZM46.8775 56.7962H45.8295C45.6784 56.7962 45.5334 56.7362 45.4266 56.6293C45.3197 56.5224 45.2597 56.3775 45.2597 56.2263C45.2597 56.0752 45.3197 55.9303 45.4266 55.8234C45.5334 55.7165 45.6784 55.6565 45.8295 55.6565H46.8839C47.035 55.6565 47.18 55.7165 47.2869 55.8234C47.3937 55.9303 47.4538 56.0752 47.4538 56.2263C47.4538 56.3775 47.3937 56.5224 47.2869 56.6293C47.18 56.7362 47.035 56.7962 46.8839 56.7962H46.8775ZM40.556 56.7962H39.5016C39.3504 56.7962 39.2055 56.7362 39.0986 56.6293C38.9917 56.5224 38.9317 56.3775 38.9317 56.2263C38.9317 56.0752 38.9917 55.9303 39.0986 55.8234C39.2055 55.7165 39.3504 55.6565 39.5016 55.6565H40.556C40.7071 55.6565 40.852 55.7165 40.9589 55.8234C41.0658 55.9303 41.1258 56.0752 41.1258 56.2263C41.1258 56.3775 41.0658 56.5224 40.9589 56.6293C40.852 56.7362 40.7071 56.7962 40.556 56.7962ZM34.2393 56.7962H33.1849C33.0337 56.7962 32.8888 56.7362 32.7819 56.6293C32.6751 56.5224 32.615 56.3775 32.615 56.2263C32.615 56.0752 32.6751 55.9303 32.7819 55.8234C32.8888 55.7165 33.0337 55.6565 33.1849 55.6565H34.2393C34.3904 55.6565 34.5354 55.7165 34.6422 55.8234C34.7491 55.9303 34.8091 56.0752 34.8091 56.2263C34.8091 56.3775 34.7491 56.5224 34.6422 56.6293C34.5354 56.7362 34.3904 56.7962 34.2393 56.7962ZM27.9178 56.7962H26.8634C26.7122 56.7962 26.5673 56.7362 26.4604 56.6293C26.3535 56.5224 26.2935 56.3775 26.2935 56.2263C26.2935 56.0752 26.3535 55.9303 26.4604 55.8234C26.5673 55.7165 26.7122 55.6565 26.8634 55.6565H27.9178C28.0689 55.6565 28.2138 55.7165 28.3207 55.8234C28.4276 55.9303 28.4876 56.0752 28.4876 56.2263C28.4876 56.3775 28.4276 56.5224 28.3207 56.6293C28.2138 56.7362 28.0689 56.7962 27.9178 56.7962ZM21.5962 56.7962H20.5418C20.3907 56.7962 20.2458 56.7362 20.1389 56.6293C20.032 56.5224 19.972 56.3775 19.972 56.2263C19.972 56.0752 20.032 55.9303 20.1389 55.8234C20.2458 55.7165 20.3907 55.6565 20.5418 55.6565H21.5962C21.7474 55.6565 21.8923 55.7165 21.9992 55.8234C22.1061 55.9303 22.1661 56.0752 22.1661 56.2263C22.1661 56.3775 22.1061 56.5224 21.9992 56.6293C21.8923 56.7362 21.7474 56.7962 21.5962 56.7962ZM15.2731 56.7962H14.2203C14.0692 56.7962 13.9243 56.7362 13.8174 56.6293C13.7105 56.5224 13.6505 56.3775 13.6505 56.2263C13.6505 56.0752 13.7105 55.9303 13.8174 55.8234C13.9243 55.7165 14.0692 55.6565 14.2203 55.6565H15.2731C15.4242 55.6565 15.5692 55.7165 15.6761 55.8234C15.7829 55.9303 15.843 56.0752 15.843 56.2263C15.843 56.3775 15.7829 56.5224 15.6761 56.6293C15.5692 56.7362 15.4242 56.7962 15.2731 56.7962ZM8.95159 56.7962H7.89723C7.7461 56.7962 7.60115 56.7362 7.49429 56.6293C7.38742 56.5224 7.32737 56.3775 7.32737 56.2263C7.32737 56.0752 7.38742 55.9303 7.49429 55.8234C7.60115 55.7165 7.7461 55.6565 7.89723 55.6565H8.95159C9.10273 55.6565 9.24768 55.7165 9.35454 55.8234C9.46141 55.9303 9.52145 56.0752 9.52145 56.2263C9.52145 56.3775 9.46141 56.5224 9.35454 56.6293C9.24768 56.7362 9.10273 56.7962 8.95159 56.7962ZM2.63008 56.7962H1.57572C1.42458 56.7962 1.27964 56.7362 1.17277 56.6293C1.0659 56.5224 1.00586 56.3775 1.00586 56.2263C1.00586 56.0752 1.0659 55.9303 1.17277 55.8234C1.27964 55.7165 1.42458 55.6565 1.57572 55.6565H2.63008C2.78121 55.6565 2.92616 55.7165 3.03303 55.8234C3.1399 55.9303 3.19994 56.0752 3.19994 56.2263C3.19994 56.3775 3.1399 56.5224 3.03303 56.6293C2.92616 56.7362 2.78121 56.7962 2.63008 56.7962Z" fill="#0064AC" stroke="#0064AC"/>
</svg>
