<svg width="46" height="64" viewBox="0 0 46 64" fill="none" xmlns="http://www.w3.org/2000/svg">
<path d="M19.4472 59.213C19.3003 59.2116 19.1595 59.1535 19.0544 59.0508C18.9493 58.948 18.8879 58.8087 18.8831 58.6618C18.8783 58.5148 18.9305 58.3718 19.0287 58.2624C19.127 58.1531 19.2636 58.0859 19.4102 58.075C19.5309 58.075 19.7322 58.0427 19.9076 58.0218L20.1684 57.9912C23.8708 57.621 28.7355 56.4668 33.4521 50.7747C35.6559 48.059 37.1368 44.0137 38.5679 40.1101C39.5965 37.3026 40.6606 34.4003 41.9935 31.9728C42.1673 31.5558 42.4168 31.0568 42.6824 30.524C43.3151 29.2619 44.1779 27.5427 43.7111 27.0131C41.7794 25.9796 39.5676 26.8441 37.755 29.3392C35.2454 34.1572 31.9229 36.9855 29.835 37.9449C29.7669 37.9767 29.6933 37.9946 29.6183 37.9979C29.5432 38.0011 29.4683 37.9896 29.3978 37.9639C29.3272 37.9382 29.2624 37.8988 29.2071 37.8481C29.1517 37.7973 29.1069 37.7361 29.0752 37.6681C29.0435 37.6 29.0255 37.5264 29.0222 37.4513C29.019 37.3763 29.0306 37.3014 29.0563 37.2308C29.082 37.1603 29.1213 37.0955 29.1721 37.0401C29.2228 36.9848 29.284 36.94 29.3521 36.9083C31.4351 35.9521 34.5307 33.0674 36.7569 28.7758C36.7704 28.7512 36.7855 28.7276 36.802 28.7049C39.4082 25.0959 42.4007 24.9703 44.3308 26.0553C44.3663 26.075 44.3998 26.0982 44.4307 26.1245C45.6283 27.1902 44.648 29.1444 43.6982 31.0359C43.4423 31.5462 43.2008 32.0291 43.0173 32.4637C41.6973 34.8687 40.6493 37.7292 39.6368 40.498C38.1735 44.4934 36.662 48.6241 34.3343 51.4927C29.344 57.5083 24.2073 58.7366 20.2843 59.1213L20.0412 59.1486C19.8432 59.1728 19.6195 59.1985 19.4843 59.2066L19.4472 59.213Z" fill="#0064AC" stroke="#0064AC"/>
<path d="M3.36912 50.0549C3.26241 50.0546 3.15797 50.0242 3.06772 49.9673C2.97747 49.9103 2.90509 49.8292 2.85884 49.733C1.72055 47.4411 1.12147 44.9193 1.10742 42.3603V16.0569C1.11039 15.0789 1.50022 14.1417 2.19181 13.4501C2.88339 12.7585 3.82054 12.3687 4.79858 12.3657C5.76533 12.3666 6.69223 12.751 7.37582 13.4346C8.05941 14.1182 8.44383 15.0451 8.44468 16.0118V29.8396C8.44468 29.9908 8.38464 30.1357 8.27777 30.2426C8.1709 30.3495 8.02596 30.4095 7.87482 30.4095C7.72369 30.4095 7.57874 30.3495 7.47187 30.2426C7.365 30.1357 7.30498 29.9908 7.30498 29.8396V16.0102C7.30413 15.3457 7.03978 14.7087 6.56992 14.2389C6.10007 13.769 5.46306 13.5047 4.79858 13.5038C4.12215 13.5047 3.47368 13.7738 2.99537 14.2521C2.51706 14.7304 2.24797 15.3789 2.24712 16.0553V42.3667C2.26016 44.7486 2.81795 47.096 3.87781 49.2291C3.92156 49.3159 3.94235 49.4124 3.93819 49.5094C3.93403 49.6065 3.90505 49.7009 3.85403 49.7835C3.80301 49.8662 3.73163 49.9344 3.64674 49.9816C3.56184 50.0289 3.46627 50.0536 3.36912 50.0533V50.0549Z" fill="#0064AC" stroke="#0064AC"/>
<path d="M15.0713 30.4096C14.9202 30.4096 14.7752 30.3496 14.6684 30.2427C14.5615 30.1358 14.5015 29.9909 14.5015 29.8398V9.68239C14.5015 8.87762 14.1818 8.10582 13.6127 7.53677C13.0437 6.96771 12.2718 6.648 11.4671 6.648C10.6623 6.648 9.89049 6.96771 9.32143 7.53677C8.75238 8.10582 8.43267 8.87762 8.43267 9.68239V16.4031C8.43267 16.5543 8.37265 16.6992 8.26578 16.8061C8.15891 16.9129 8.01396 16.973 7.86283 16.973C7.71169 16.973 7.56675 16.9129 7.45988 16.8061C7.35301 16.6992 7.29297 16.5543 7.29297 16.4031V9.68239C7.29297 8.57535 7.73274 7.51366 8.51553 6.73087C9.29833 5.94807 10.36 5.5083 11.4671 5.5083C12.5741 5.5083 13.6358 5.94807 14.4186 6.73087C15.2014 7.51366 15.6412 8.57535 15.6412 9.68239V29.8398C15.6407 29.9908 15.5806 30.1355 15.4738 30.2422C15.367 30.349 15.2223 30.4092 15.0713 30.4096Z" fill="#0064AC" stroke="#0064AC"/>
<path d="M22.3037 30.4094C22.1527 30.409 22.008 30.3488 21.9012 30.2421C21.7945 30.1353 21.7343 29.9906 21.7339 29.8396V4.78534C21.7339 3.98057 21.4142 3.20875 20.8451 2.6397C20.2761 2.07064 19.5042 1.75095 18.6995 1.75095C17.8947 1.75095 17.1229 2.07064 16.5538 2.6397C15.9848 3.20875 15.6651 3.98057 15.6651 4.78534V12.3077C15.6651 12.4589 15.605 12.6038 15.4982 12.7107C15.3913 12.8175 15.2464 12.8776 15.0952 12.8776C14.9441 12.8776 14.7992 12.8175 14.6923 12.7107C14.5854 12.6038 14.5254 12.4589 14.5254 12.3077V4.78373C14.5254 3.67669 14.9652 2.61498 15.748 1.83218C16.5308 1.04939 17.5924 0.609619 18.6995 0.609619C19.8065 0.609619 20.8682 1.04939 21.651 1.83218C22.4338 2.61498 22.8736 3.67669 22.8736 4.78373V29.838C22.8738 29.9129 22.8592 29.9872 22.8307 30.0565C22.8021 30.1259 22.7602 30.1889 22.7072 30.242C22.6543 30.2951 22.5914 30.3372 22.5222 30.3659C22.4529 30.3946 22.3787 30.4094 22.3037 30.4094Z" fill="#0064AC" stroke="#0064AC"/>
<path d="M29.5362 37.8773C29.385 37.8773 29.2401 37.8172 29.1332 37.7104C29.0263 37.6035 28.9663 37.4586 28.9663 37.3074V8.80348C28.9663 7.99871 28.6466 7.2269 28.0776 6.65784C27.5085 6.08878 26.7367 5.76909 25.9319 5.76909C25.1271 5.76909 24.3553 6.08878 23.7863 6.65784C23.2172 7.2269 22.8975 7.99871 22.8975 8.80348V14.7596C22.8975 14.9107 22.8375 15.0557 22.7306 15.1625C22.6238 15.2694 22.4788 15.3294 22.3277 15.3294C22.1765 15.3294 22.0316 15.2694 21.9247 15.1625C21.8179 15.0557 21.7578 14.9107 21.7578 14.7596V8.80348C21.7578 8.25533 21.8658 7.71255 22.0756 7.20612C22.2853 6.6997 22.5928 6.23956 22.9804 5.85196C23.368 5.46436 23.8281 5.15689 24.3346 4.94712C24.841 4.73735 25.3838 4.62939 25.9319 4.62939C26.4801 4.62939 27.0229 4.73735 27.5293 4.94712C28.0357 5.15689 28.4958 5.46436 28.8834 5.85196C29.271 6.23956 29.5785 6.6997 29.7883 7.20612C29.998 7.71255 30.106 8.25533 30.106 8.80348V37.3074C30.1062 37.3823 30.0916 37.4565 30.0631 37.5258C30.0345 37.595 29.9925 37.6579 29.9396 37.7109C29.8866 37.7638 29.8237 37.8058 29.7545 37.8344C29.6852 37.8629 29.6111 37.8775 29.5362 37.8773Z" fill="#0064AC" stroke="#0064AC"/>
<path d="M11.5321 63.45C9.02294 63.4474 6.61729 62.4495 4.84305 60.6753C3.0688 58.901 2.07092 56.4954 2.06836 53.9862C2.06836 48.996 10.6629 32.7809 11.0283 32.0935C11.0814 32.008 11.1555 31.9375 11.2436 31.8886C11.3316 31.8396 11.4306 31.814 11.5313 31.814C11.632 31.814 11.731 31.8396 11.8191 31.8886C11.9071 31.9375 11.9812 32.008 12.0344 32.0935C12.3998 32.7809 20.9943 48.996 20.9943 53.9862C20.9917 56.4951 19.994 58.9005 18.2201 60.6747C16.4462 62.4489 14.041 63.447 11.5321 63.45ZM11.5321 33.5906C9.65835 37.2013 3.20806 49.9377 3.20806 53.9862C3.19272 55.089 3.39668 56.1838 3.80808 57.2071C4.21948 58.2303 4.83013 59.1616 5.60454 59.9469C6.37894 60.7321 7.30167 61.3557 8.31911 61.7813C9.33656 62.2069 10.4284 62.426 11.5313 62.426C12.6342 62.426 13.7261 62.2069 14.7435 61.7813C15.7609 61.3557 16.6837 60.7321 17.4581 59.9469C18.2325 59.1616 18.8431 58.2303 19.2545 57.2071C19.6659 56.1838 19.8699 55.089 19.8546 53.9862C19.8546 49.9361 13.4042 37.2013 11.5321 33.5906Z" fill="#0064AC" stroke="#0064AC"/>
<path d="M6.26841 52.2426C6.20716 52.2424 6.14633 52.2327 6.08811 52.2136C6.01708 52.19 5.95141 52.1526 5.89489 52.1035C5.83837 52.0544 5.79211 51.9947 5.75875 51.9277C5.7254 51.8606 5.70561 51.7877 5.70053 51.713C5.69545 51.6383 5.70517 51.5634 5.72914 51.4925C6.6467 48.7559 8.10996 44.9939 9.74386 41.19C9.77113 41.1181 9.81269 41.0525 9.86599 40.9971C9.91929 40.9417 9.98324 40.8976 10.054 40.8676C10.1248 40.8375 10.2009 40.8221 10.2778 40.8223C10.3547 40.8224 10.4308 40.8381 10.5015 40.8685C10.5721 40.8988 10.6359 40.9431 10.689 40.9987C10.7421 41.0544 10.7833 41.1202 10.8103 41.1922C10.8373 41.2642 10.8494 41.3409 10.846 41.4177C10.8425 41.4945 10.8235 41.5699 10.7902 41.6392C9.16918 45.4221 7.71718 49.1454 6.80928 51.8595C6.77013 51.9716 6.697 52.0688 6.60006 52.1375C6.50313 52.2062 6.3872 52.2429 6.26841 52.2426Z" fill="#0064AC" stroke="#0064AC"/>
<path d="M8.84977 60.0419C8.74395 60.0421 8.64021 60.0125 8.55036 59.9566C7.06574 59.0393 5.972 57.6062 5.47893 55.9322C5.43984 55.7883 5.45866 55.6349 5.53136 55.5048C5.60406 55.3747 5.72485 55.2782 5.86783 55.2361C6.01081 55.194 6.1646 55.2096 6.29623 55.2795C6.42786 55.3495 6.52684 55.4682 6.57196 55.6102C6.98633 57.0126 7.9034 58.2128 9.14757 58.9811C9.25293 59.0463 9.33416 59.1441 9.37896 59.2596C9.42375 59.3751 9.42966 59.5021 9.39582 59.6213C9.36197 59.7405 9.2902 59.8454 9.19137 59.9201C9.09255 59.9948 8.97206 60.0353 8.84816 60.0355L8.84977 60.0419Z" fill="#0064AC" stroke="#0064AC"/>
</svg>
