<svg width="48" height="54" viewBox="0 0 48 54" fill="none" xmlns="http://www.w3.org/2000/svg">
<path d="M34.5933 42.4472H17.9742C17.8344 42.4474 17.6994 42.3961 17.5949 42.3032C17.4904 42.2103 17.4237 42.0823 17.4075 41.9434L13.1191 5.22163V1.33085C13.1191 1.17971 13.1792 1.03476 13.2861 0.927896C13.3929 0.821028 13.5379 0.760986 13.689 0.760986H38.8881C39.0391 0.761411 39.1838 0.821592 39.2906 0.928368C39.3974 1.03514 39.4575 1.17984 39.458 1.33085V5.15563L35.1648 41.9434C35.1485 42.0831 35.0811 42.2118 34.9756 42.3048C34.8701 42.3979 34.7339 42.4486 34.5933 42.4472ZM18.4796 41.3075H34.0862L38.3167 5.08801V1.89909H14.254V5.15402L18.4796 41.3075Z" fill="#0064AC" stroke="#0064AC"/>
<path d="M35.7329 5.99419H16.7652C16.614 5.99419 16.4691 5.93415 16.3622 5.82728C16.2554 5.72041 16.1953 5.57549 16.1953 5.42435C16.1953 5.27322 16.2554 5.12827 16.3622 5.0214C16.4691 4.91453 16.614 4.85449 16.7652 4.85449H35.7329C35.8841 4.85449 36.029 4.91453 36.1359 5.0214C36.2427 5.12827 36.3028 5.27322 36.3028 5.42435C36.3028 5.57549 36.2427 5.72041 36.1359 5.82728C36.029 5.93415 35.8841 5.99419 35.7329 5.99419Z" fill="#0064AC" stroke="#0064AC"/>
<path d="M31.3914 53.1039H21.171C20.1626 53.1026 19.1958 52.7014 18.4827 51.9883C17.7696 51.2753 17.3685 50.3085 17.3672 49.3V42.0786C17.3672 41.9275 17.4272 41.7826 17.5341 41.6757C17.641 41.5688 17.7859 41.5088 17.937 41.5088C18.0882 41.5088 18.2331 41.5688 18.34 41.6757C18.4469 41.7826 18.5069 41.9275 18.5069 42.0786V49.3C18.5073 50.0065 18.7881 50.6838 19.2877 51.1834C19.7872 51.6829 20.4646 51.9637 21.171 51.9642H31.3914C32.0978 51.9637 32.7752 51.6829 33.2747 51.1834C33.7743 50.6838 34.0551 50.0065 34.0555 49.3V42.0786C34.0555 41.9275 34.1156 41.7826 34.2224 41.6757C34.3293 41.5688 34.4742 41.5088 34.6254 41.5088C34.7765 41.5088 34.9215 41.5688 35.0283 41.6757C35.1352 41.7826 35.1952 41.9275 35.1952 42.0786V49.3C35.194 50.3085 34.7928 51.2753 34.0797 51.9883C33.3666 52.7014 32.3998 53.1026 31.3914 53.1039Z" fill="#0064AC" stroke="#0064AC"/>
<path d="M29.2971 53.1038C29.146 53.1038 29.0011 53.0438 28.8942 52.9369C28.7873 52.8301 28.7273 52.6851 28.7273 52.534V49.0151C28.7273 48.6308 28.5747 48.2623 28.303 47.9906C28.0313 47.7189 27.6628 47.5663 27.2785 47.5663H25.2679C24.8851 47.5684 24.5186 47.722 24.2487 47.9935C23.9787 48.2649 23.8272 48.6322 23.8272 49.0151V52.534C23.8272 52.6851 23.7672 52.8301 23.6603 52.9369C23.5534 53.0438 23.4085 53.1038 23.2573 53.1038C23.1062 53.1038 22.9613 53.0438 22.8544 52.9369C22.7475 52.8301 22.6875 52.6851 22.6875 52.534V49.0151C22.6875 48.332 22.9589 47.6769 23.4419 47.1938C23.9249 46.7108 24.58 46.4395 25.2631 46.4395H27.2737C27.9568 46.4395 28.6119 46.7108 29.0949 47.1938C29.5779 47.6769 29.8493 48.332 29.8493 49.0151V52.534C29.8498 52.6822 29.7923 52.8248 29.6892 52.9313C29.586 53.0377 29.4453 53.0996 29.2971 53.1038Z" fill="#0064AC" stroke="#0064AC"/>
<path d="M13.611 51.9916C9.94561 51.9916 5.52362 51.0257 2.94962 47.0271C-1.80077 39.648 1.78737 24.8736 1.94352 24.249C1.97878 24.1083 2.06627 23.9862 2.18824 23.9075C2.31022 23.8289 2.45752 23.7997 2.60029 23.8257C2.92224 23.8852 10.4978 25.3211 16.6535 28.7724C16.7201 28.8083 16.7789 28.8572 16.8265 28.9161C16.8741 28.975 16.9094 29.0427 16.9305 29.1155C16.9516 29.1882 16.958 29.2644 16.9493 29.3396C16.9406 29.4148 16.917 29.4875 16.8799 29.5535C16.8428 29.6195 16.7929 29.6774 16.7332 29.7239C16.6734 29.7704 16.605 29.8045 16.5319 29.8242C16.4588 29.844 16.3825 29.849 16.3075 29.8389C16.2324 29.8289 16.1602 29.804 16.0949 29.7657C11.0225 26.9212 4.77186 25.4483 2.92708 25.0555C2.33147 27.7744 -0.0912215 40.1985 3.90741 46.4106C7.43117 51.8837 15.0147 51.0161 18.1039 50.3866C18.252 50.3565 18.406 50.3865 18.5321 50.47C18.6581 50.5535 18.7458 50.6836 18.7759 50.8317C18.806 50.9799 18.776 51.1339 18.6926 51.26C18.6091 51.386 18.479 51.4737 18.3308 51.5038C16.7774 51.8208 15.1965 51.9842 13.611 51.9916Z" fill="#0064AC" stroke="#0064AC"/>
<path d="M14.6883 44.1904C14.6422 44.1905 14.5963 44.1851 14.5515 44.1743L8.27342 42.6273C8.2007 42.6094 8.13224 42.5773 8.07193 42.5328C8.01162 42.4884 7.96065 42.4325 7.92194 42.3684C7.88322 42.3043 7.85751 42.2331 7.84629 42.1591C7.83506 42.085 7.83853 42.0095 7.8565 41.9368C7.87447 41.864 7.90659 41.7956 7.95102 41.7353C7.99545 41.675 8.05131 41.624 8.11544 41.5853C8.17956 41.5466 8.25069 41.5208 8.32475 41.5096C8.39881 41.4984 8.47436 41.5019 8.54708 41.5198L14.8251 43.0668C14.9643 43.0966 15.0872 43.1773 15.1698 43.2931C15.2525 43.4089 15.2888 43.5515 15.2716 43.6927C15.2545 43.834 15.1851 43.9637 15.0772 44.0564C14.9692 44.1491 14.8305 44.198 14.6883 44.1936V44.1904Z" fill="#0064AC" stroke="#0064AC"/>
<path d="M17.8387 48.6803C17.7428 48.6817 17.6482 48.6586 17.5637 48.6132C17.4792 48.5679 17.4076 48.5018 17.3558 48.4212L6.29833 31.3529C6.21593 31.2249 6.1878 31.0693 6.2201 30.9204C6.2524 30.7716 6.3425 30.6417 6.47058 30.5593C6.59866 30.4769 6.75422 30.4488 6.90305 30.4811C7.05188 30.5134 7.18178 30.6035 7.26418 30.7316L18.3248 47.8079C18.4075 47.934 18.437 48.0877 18.4068 48.2354C18.3767 48.3832 18.2893 48.513 18.1639 48.5966C18.0661 48.656 17.953 48.6851 17.8387 48.6803Z" fill="#0064AC" stroke="#0064AC"/>
<path d="M11.0915 38.4775C11.051 38.4772 11.0105 38.4729 10.9708 38.4647L7.08002 37.6227C6.93869 37.5844 6.81749 37.4932 6.74141 37.3681C6.66532 37.243 6.64016 37.0934 6.67114 36.9503C6.70212 36.8072 6.78687 36.6814 6.90788 36.599C7.0289 36.5165 7.17695 36.4837 7.32148 36.5072L11.2123 37.3507C11.3498 37.3804 11.4714 37.46 11.5538 37.574C11.6361 37.688 11.6734 37.8285 11.6584 37.9684C11.6434 38.1083 11.5772 38.2376 11.4726 38.3316C11.3679 38.4256 11.2322 38.4776 11.0915 38.4775Z" fill="#0064AC" stroke="#0064AC"/>
<path d="M11.247 38.3778C11.2059 38.3782 11.1648 38.3739 11.1247 38.3649C10.9772 38.3325 10.8485 38.2431 10.7667 38.1161C10.685 37.9891 10.6568 37.8349 10.6884 37.6872L11.5319 33.7964C11.5658 33.6495 11.6559 33.5215 11.7828 33.44C11.9097 33.3585 12.0635 33.3299 12.2112 33.3602C12.3591 33.3926 12.4881 33.4823 12.5699 33.6096C12.6517 33.737 12.6796 33.8916 12.6475 34.0395L11.804 37.9287C11.7764 38.0559 11.7061 38.1698 11.6048 38.2516C11.5034 38.3333 11.3772 38.3778 11.247 38.3778Z" fill="#0064AC" stroke="#0064AC"/>
<path d="M38.0951 51.8948C36.8487 51.8959 35.6064 51.7533 34.3926 51.4698C34.2474 51.4313 34.1233 51.3371 34.0472 51.2075C33.9712 51.078 33.9493 50.9237 33.9864 50.7781C34.0236 50.6326 34.1167 50.5075 34.2455 50.4303C34.3743 50.353 34.5285 50.3297 34.6744 50.3655C34.75 50.3848 42.2193 52.228 45.0331 47.5195C47.5605 43.2874 45.772 35.1244 45.2392 32.9866C43.6825 33.3617 38.9949 34.6334 35.5806 37.048C35.4573 37.1353 35.3043 37.17 35.1553 37.1445C35.0063 37.119 34.8735 37.0354 34.7862 36.912C34.6989 36.7886 34.6642 36.6356 34.6897 36.4866C34.7152 36.3376 34.7989 36.2049 34.9223 36.1176C39.2428 33.059 45.273 31.8002 45.5289 31.7487C45.6695 31.7212 45.8153 31.7473 45.9377 31.8217C46.0601 31.8962 46.1503 32.0137 46.1906 32.1511C46.3129 32.5841 49.1637 42.8142 46.0038 48.1038C44.159 51.209 40.748 51.8948 38.0951 51.8948Z" fill="#0064AC" stroke="#0064AC"/>
<path d="M34.5369 51.4876C34.4367 51.4869 34.3383 51.4597 34.252 51.4087C34.1656 51.3578 34.0943 51.2848 34.0453 51.1974C33.9962 51.1099 33.9712 51.011 33.9727 50.9107C33.9743 50.8104 34.0023 50.7124 34.054 50.6264L42.0706 37.2043C42.1481 37.0745 42.274 36.9808 42.4205 36.9438C42.5671 36.9069 42.7223 36.9296 42.8521 37.0071C42.9819 37.0846 43.0756 37.2105 43.1126 37.357C43.1496 37.5036 43.1268 37.6588 43.0493 37.7886L35.0327 51.2108C34.9815 51.2962 34.9088 51.3668 34.8218 51.4154C34.7348 51.464 34.6366 51.4889 34.5369 51.4876Z" fill="#0064AC" stroke="#0064AC"/>
<path d="M37.8288 45.5655C37.7022 45.5652 37.5792 45.5228 37.4793 45.445C37.3794 45.3672 37.3081 45.2584 37.2767 45.1357L36.3768 41.562C36.3397 41.4154 36.3623 41.26 36.4398 41.13C36.5172 41.0001 36.6431 40.9062 36.7897 40.869C36.9364 40.8319 37.0918 40.8545 37.2218 40.9319C37.3517 41.0094 37.4456 41.1353 37.4827 41.2819L38.3826 44.8556C38.4192 45.0022 38.3962 45.1574 38.3187 45.2871C38.2411 45.4168 38.1154 45.5106 37.9689 45.5478C37.9232 45.56 37.8761 45.566 37.8288 45.5655Z" fill="#0064AC" stroke="#0064AC"/>
<path d="M38.1902 45.7793C38.0499 45.7806 37.914 45.7303 37.8085 45.6379C37.7029 45.5456 37.6349 45.4176 37.6176 45.2783C37.6003 45.1391 37.6349 44.9984 37.7146 44.883C37.7944 44.7675 37.9138 44.6855 38.0502 44.6525L41.6238 43.7526C41.7705 43.7157 41.9258 43.7385 42.0556 43.8161C42.1854 43.8937 42.2791 44.0197 42.316 44.1663C42.353 44.313 42.3301 44.4683 42.2525 44.5981C42.1749 44.7279 42.049 44.8216 41.9023 44.8585L38.3303 45.7584C38.2846 45.7709 38.2376 45.7779 38.1902 45.7793Z" fill="#0064AC" stroke="#0064AC"/>
<path d="M15.0239 43.8558H14.9692C14.8947 43.849 14.8224 43.8275 14.7562 43.7926C14.6901 43.7577 14.6315 43.7101 14.5838 43.6525C14.5361 43.5949 14.5002 43.5285 14.4782 43.4571C14.4563 43.3856 14.4486 43.3105 14.4557 43.2361L14.9917 37.4715C14.9898 37.3911 15.005 37.3111 15.0362 37.2369C15.0674 37.1628 15.114 37.0961 15.1729 37.0412C15.2318 36.9863 15.3016 36.9445 15.3778 36.9186C15.454 36.8926 15.5348 36.8831 15.6149 36.8907C15.695 36.8983 15.7727 36.9227 15.8426 36.9624C15.9126 37.0021 15.9734 37.0562 16.021 37.1211C16.0686 37.186 16.1019 37.2603 16.1187 37.339C16.1355 37.4177 16.1355 37.4991 16.1186 37.5778L15.5825 43.3407C15.5687 43.4801 15.5042 43.6096 15.4012 43.7045C15.2983 43.7995 15.164 43.8533 15.0239 43.8558Z" fill="#0064AC" stroke="#0064AC"/>
<path d="M31.1082 29.4792H21.4577C21.312 29.4795 21.1717 29.4239 21.0657 29.3239C20.9597 29.2239 20.8961 29.0871 20.8878 28.9416L20.0829 14.6663C20.0786 14.5889 20.09 14.5115 20.1166 14.4387C20.1432 14.3659 20.1843 14.2993 20.2375 14.2429C20.2907 14.1866 20.3548 14.1417 20.4259 14.1109C20.4971 14.0802 20.5737 14.0643 20.6512 14.0642H31.9114C31.9889 14.0645 32.0655 14.0806 32.1366 14.1114C32.2077 14.1422 32.2719 14.1871 32.3251 14.2433C32.3784 14.2996 32.4197 14.3661 32.4465 14.4388C32.4734 14.5115 32.4852 14.5889 32.4813 14.6663L31.6764 28.9416C31.6682 29.0868 31.6048 29.2234 31.4991 29.3233C31.3935 29.4233 31.2536 29.4791 31.1082 29.4792ZM21.9969 28.3395H30.5705L31.311 15.2039H21.2565L21.9969 28.3395Z" fill="#0064AC" stroke="#0064AC"/>
</svg>
