<svg width="26" height="26" viewBox="0 0 26 26" fill="none" xmlns="http://www.w3.org/2000/svg">
<path fill-rule="evenodd" clip-rule="evenodd" d="M12.1071 12.4908C12.6991 11.6599 12.633 10.7849 12.2226 9.21086C11.4107 6.09787 11.734 4.39163 14.5326 2.37157L15.8986 1.38562L16.229 3.03752C16.5801 4.79309 17.1567 5.87892 18.6372 7.96751C18.696 8.05047 18.696 8.05047 18.7551 8.1338C20.8877 11.1425 21.6667 12.9562 21.6667 16.25C21.6667 20.2457 17.6273 23.8333 13 23.8333C8.37244 23.8333 4.33333 20.2462 4.33333 16.25C4.33333 16.1753 4.33341 16.1776 4.32075 15.8475C4.22287 13.2944 4.69496 11.2963 6.60515 9.13883C7.00875 8.68299 7.46751 8.24488 7.98376 7.82567L9.12342 6.90023L9.67163 8.26211C10.0767 9.26841 10.5513 10.0595 11.0875 10.64C11.5416 11.1316 11.8785 11.7499 12.1071 12.4908ZM8.22736 10.5751C6.75688 12.2359 6.40728 13.7156 6.48583 15.7645C6.50045 16.1459 6.5 16.1325 6.5 16.25C6.5 18.9885 9.51557 21.6666 13 21.6666C16.4841 21.6666 19.5 18.9881 19.5 16.25C19.5 13.4964 18.8844 12.0629 16.9875 9.38674C16.9287 9.30384 16.9287 9.30384 16.8696 9.2205C15.7176 7.59535 15.0309 6.46487 14.5766 5.20055C13.8347 6.08959 13.8783 6.97382 14.3191 8.66411C15.1309 11.7771 14.8077 13.4833 12.009 15.5034L10.4133 16.6552L10.2937 14.6908C10.2172 13.4358 9.93315 12.5835 9.49584 12.11C9.06378 11.6422 8.67367 11.0946 8.32384 10.468C8.29121 10.5036 8.25905 10.5393 8.22736 10.5751Z" fill="#D634FF"/>
</svg>
