<svg 
 xmlns="http://www.w3.org/2000/svg"
 xmlns:xlink="http://www.w3.org/1999/xlink"
 width="514px" height="514px">
<path fill-rule="evenodd"  fill="rgb(4, 124, 154)"
 d="M513.186,237.256 L513.186,276.855 L453.374,285.523 C451.120,301.206 447.037,316.296 441.337,330.568 L488.774,367.960 L468.975,402.254 L412.835,379.852 C403.178,392.084 392.111,403.151 379.879,412.808 L402.281,468.948 L367.987,488.748 L330.595,441.310 C316.323,447.010 301.232,451.093 285.550,453.347 L276.881,513.159 L237.282,513.159 L228.614,453.347 C212.931,451.093 197.841,447.010 183.568,441.310 L146.177,488.748 L111.883,468.948 L134.285,412.808 C122.053,403.151 110.986,392.084 101.329,379.852 L45.189,402.254 L25.390,367.960 L72.826,330.568 C67.127,316.296 63.044,301.206 60.789,285.523 L0.978,276.855 L0.978,237.256 L60.789,228.587 C63.161,212.085 67.563,196.242 73.736,181.315 L31.047,147.666 L50.846,113.372 L101.781,133.696 C112.839,119.794 125.725,107.414 140.074,96.912 L121.681,50.819 L155.975,31.020 L187.663,71.220 C200.717,66.342 214.423,62.802 228.614,60.762 L237.282,0.951 L276.881,0.951 L285.550,60.762 C301.232,63.017 316.323,67.100 330.595,72.799 L367.987,25.363 L402.281,45.163 L379.879,101.302 C392.111,110.959 403.178,122.026 412.835,134.258 L468.975,111.856 L488.774,146.150 L441.337,183.541 C447.037,197.814 451.120,212.905 453.374,228.587 L513.186,237.256 ZM257.082,111.856 C176.891,111.856 111.883,176.864 111.883,257.055 C111.883,337.246 176.891,402.254 257.082,402.254 C337.273,402.254 402.281,337.246 402.281,257.055 C402.281,176.864 337.273,111.856 257.082,111.856 ZM257.556,384.162 C187.621,384.162 130.927,327.468 130.927,257.533 C130.927,187.598 187.621,130.904 257.556,130.904 C327.491,130.904 384.185,187.598 384.185,257.533 C384.185,327.468 327.491,384.162 257.556,384.162 Z"/>
</svg>