
<svg 
 xmlns="http://www.w3.org/2000/svg"
 xmlns:xlink="http://www.w3.org/1999/xlink"
 width="138px" height="22px">
<path fill-rule="evenodd"  fill="rgb(255, 168, 0)"
 d="M136.792,9.636 L136.793,9.636 L131.663,13.339 C131.439,13.497 131.346,13.783 131.434,14.042 L133.402,20.047 C133.616,20.699 133.259,21.401 132.605,21.614 C132.225,21.737 131.808,21.672 131.484,21.437 L126.368,17.713 C126.149,17.550 125.847,17.550 125.627,17.713 L120.511,21.437 C120.076,21.760 119.480,21.761 119.045,21.438 C118.602,21.125 118.418,20.559 118.593,20.047 L120.561,14.042 C120.650,13.783 120.556,13.497 120.332,13.339 L115.202,9.636 C114.644,9.234 114.519,8.457 114.922,7.901 C115.157,7.578 115.532,7.387 115.932,7.387 L115.934,7.387 L122.267,7.399 C122.541,7.402 122.785,7.225 122.866,6.964 L124.812,0.953 C125.023,0.300 125.725,-0.059 126.380,0.151 C126.761,0.274 127.060,0.572 127.183,0.953 L129.128,6.964 C129.209,7.225 129.453,7.402 129.727,7.399 L136.060,7.387 L136.062,7.387 C136.750,7.387 137.308,7.943 137.308,8.629 C137.308,9.027 137.116,9.402 136.792,9.636 ZM109.794,9.636 L104.663,13.339 C104.439,13.497 104.346,13.783 104.434,14.042 L106.403,20.047 C106.616,20.699 106.259,21.401 105.605,21.614 C105.225,21.737 104.808,21.672 104.485,21.437 L99.368,17.713 C99.149,17.550 98.847,17.550 98.627,17.713 L93.511,21.437 C93.076,21.760 92.480,21.761 92.045,21.438 C91.602,21.125 91.418,20.559 91.593,20.047 L93.561,14.042 C93.650,13.783 93.556,13.497 93.332,13.339 L88.202,9.636 C87.644,9.234 87.519,8.457 87.922,7.901 C88.157,7.578 88.532,7.387 88.932,7.387 L88.934,7.387 L95.267,7.399 C95.541,7.402 95.785,7.225 95.866,6.964 L97.812,0.953 C98.023,0.300 98.725,-0.059 99.380,0.151 C99.761,0.274 100.060,0.572 100.183,0.953 L102.128,6.964 C102.209,7.225 102.453,7.402 102.727,7.399 L109.060,7.387 L109.062,7.387 C109.750,7.387 110.308,7.943 110.308,8.629 C110.308,9.027 110.116,9.402 109.792,9.636 L109.794,9.636 ZM80.794,9.636 L75.663,13.339 C75.439,13.497 75.346,13.783 75.434,14.042 L77.403,20.047 C77.616,20.699 77.259,21.401 76.605,21.614 C76.225,21.737 75.808,21.672 75.485,21.437 L70.368,17.713 C70.149,17.550 69.847,17.550 69.627,17.713 L64.511,21.437 C64.076,21.760 63.480,21.761 63.045,21.438 C62.602,21.125 62.418,20.559 62.593,20.047 L64.561,14.042 C64.650,13.783 64.556,13.497 64.332,13.339 L59.202,9.636 C58.644,9.234 58.519,8.457 58.922,7.901 C59.157,7.578 59.532,7.387 59.932,7.387 L59.934,7.387 L66.267,7.399 C66.541,7.402 66.785,7.225 66.866,6.964 L68.812,0.953 C69.023,0.300 69.725,-0.059 70.380,0.151 C70.761,0.274 71.060,0.572 71.183,0.953 L73.128,6.964 C73.209,7.225 73.453,7.402 73.727,7.399 L80.060,7.387 L80.062,7.387 C80.750,7.387 81.308,7.943 81.308,8.629 C81.308,9.027 81.116,9.402 80.792,9.636 L80.794,9.636 ZM51.794,9.636 L46.663,13.339 C46.439,13.497 46.346,13.783 46.434,14.042 L48.403,20.047 C48.616,20.699 48.259,21.401 47.605,21.614 C47.225,21.737 46.808,21.672 46.485,21.437 L41.368,17.713 C41.149,17.550 40.847,17.550 40.627,17.713 L35.511,21.437 C35.076,21.760 34.480,21.761 34.045,21.438 C33.602,21.125 33.418,20.559 33.593,20.047 L35.561,14.042 C35.650,13.783 35.556,13.497 35.332,13.339 L30.202,9.636 C29.644,9.234 29.519,8.457 29.922,7.901 C30.157,7.578 30.532,7.387 30.932,7.387 L30.934,7.387 L37.267,7.399 C37.541,7.402 37.785,7.225 37.866,6.964 L39.812,0.953 C40.023,0.300 40.725,-0.059 41.380,0.151 C41.761,0.274 42.060,0.572 42.183,0.953 L44.128,6.964 C44.209,7.225 44.453,7.402 44.727,7.399 L51.060,7.387 L51.062,7.387 C51.750,7.387 52.308,7.943 52.308,8.629 C52.308,9.027 52.116,9.402 51.792,9.636 L51.794,9.636 ZM22.794,9.636 L17.663,13.339 C17.439,13.497 17.346,13.783 17.434,14.042 L19.403,20.047 C19.616,20.699 19.259,21.401 18.605,21.614 C18.225,21.737 17.808,21.672 17.484,21.437 L12.368,17.713 C12.149,17.550 11.847,17.550 11.627,17.713 L6.511,21.437 C6.076,21.760 5.480,21.761 5.045,21.438 C4.602,21.125 4.418,20.559 4.593,20.047 L6.561,14.042 C6.650,13.783 6.556,13.497 6.332,13.339 L1.202,9.636 C0.644,9.234 0.519,8.457 0.922,7.901 C1.157,7.578 1.532,7.387 1.932,7.387 L1.934,7.387 L8.267,7.399 C8.541,7.402 8.785,7.225 8.866,6.964 L10.812,0.953 C11.023,0.300 11.725,-0.059 12.380,0.151 C12.761,0.274 13.060,0.572 13.183,0.953 L15.128,6.964 C15.209,7.225 15.453,7.402 15.727,7.399 L22.060,7.387 L22.062,7.387 C22.750,7.387 23.308,7.943 23.308,8.629 C23.308,9.027 23.116,9.402 22.792,9.636 L22.794,9.636 Z"/>
</svg>