<svg width="26" height="26" viewBox="0 0 26 26" fill="none" xmlns="http://www.w3.org/2000/svg">
<g clip-path="url(#clip0_41_2)">
<path fill-rule="evenodd" clip-rule="evenodd" d="M12.5339 0C20.9036 0 26 6.02869 26 12.5339C26 20.9026 20.9036 26 12.5339 26C6.02869 26 0 20.9026 0 12.5339C0 6.02869 6.02869 0 12.5339 0Z" fill="#E7191E"/>
<path fill-rule="evenodd" clip-rule="evenodd" d="M18.7845 9.5605L15.2335 13.1115L18.7535 16.6315C19.3395 17.2175 19.3395 18.1675 18.7535 18.7535C18.1675 19.3385 17.2175 19.3385 16.6315 18.7535L13.1125 15.2335L9.5925 18.7535C9.0065 19.3385 8.0565 19.3385 7.4705 18.7535C6.8855 18.1675 6.8855 17.2175 7.4705 16.6315L10.9905 13.1115L7.4395 9.5605C6.8535 8.9745 6.8535 8.0245 7.4395 7.4395C8.0255 6.8535 8.9755 6.8535 9.5605 7.4395L13.1125 10.9905L16.6635 7.4395C17.2495 6.8535 18.1985 6.8535 18.7845 7.4395C19.3705 8.0245 19.3705 8.9745 18.7845 9.5605Z" fill="#889EBD"/>
</g>
<defs>
<clipPath id="clip0_41_2">
<rect width="26" height="26" fill="white"/>
</clipPath>
</defs>
</svg>
