<svg 
 xmlns="http://www.w3.org/2000/svg"
 xmlns:xlink="http://www.w3.org/1999/xlink"
 width="45px" height="46px">
<path fill-rule="evenodd"  fill="rgb(4, 124, 154)"
 d="M22.500,3.999 C33.269,3.999 41.1000,12.730 41.1000,23.500 C41.1000,34.269 33.269,42.999 22.500,42.999 C11.730,42.999 2.1000,34.269 2.1000,23.500 C2.1000,12.730 11.730,3.999 22.500,3.999 Z"/>
<path fill-rule="evenodd"  fill="rgb(255, 255, 255)"
 d="M39.350,8.820 C40.199,7.477 41.051,6.134 41.894,4.788 C42.566,3.716 42.405,2.121 42.630,0.768 C41.419,1.350 40.196,1.911 39.004,2.529 C38.748,2.662 38.607,3.012 38.405,3.255 C37.699,4.104 36.992,4.956 36.285,5.805 C32.455,2.698 27.583,0.833 22.281,0.833 C9.995,0.833 -0.000,10.838 -0.000,23.137 C-0.000,35.436 9.996,45.441 22.281,45.441 C34.567,45.441 44.562,35.436 44.562,23.137 C44.562,17.691 42.600,12.697 39.349,8.819 L39.350,8.820 ZM22.282,41.571 C12.129,41.571 3.868,33.303 3.868,23.139 C3.868,12.975 12.129,4.705 22.282,4.705 C26.644,4.705 30.654,6.234 33.812,8.780 C29.545,13.912 25.242,19.088 20.794,24.436 C18.808,22.167 17.141,20.289 15.503,18.385 C13.840,16.449 11.900,15.567 9.802,17.501 C7.767,19.375 8.359,21.446 9.986,23.363 C12.506,26.335 14.989,29.340 17.531,32.293 C19.846,34.985 22.594,34.875 24.517,31.916 C28.756,25.390 32.980,18.855 37.156,12.289 C39.379,15.336 40.696,19.086 40.696,23.138 C40.696,33.303 32.436,41.571 22.282,41.571 L22.282,41.571 Z"/>
</svg>