<svg 
 xmlns="http://www.w3.org/2000/svg"
 xmlns:xlink="http://www.w3.org/1999/xlink"
 width="79px" height="90px">
<path fill-rule="evenodd"  fill="rgb(255, 255, 255)"
 d="M77.393,63.924 L69.035,59.128 L77.294,54.334 C78.488,53.635 78.886,52.136 78.189,50.937 C77.493,49.739 76.000,49.340 74.806,50.039 L64.059,56.232 L44.456,44.744 L63.860,33.556 L74.806,39.949 C75.204,40.149 75.602,40.249 76.000,40.249 C76.896,40.249 77.692,39.850 78.189,38.951 C78.886,37.752 78.488,36.253 77.294,35.554 L68.836,30.660 L77.294,25.765 C78.488,25.066 78.886,23.567 78.189,22.368 C77.493,21.170 76.000,20.770 74.806,21.470 L66.447,26.264 L66.447,16.775 C66.447,15.376 65.353,14.277 63.960,14.277 C62.566,14.277 61.472,15.376 61.472,16.775 L61.472,29.161 L41.869,40.549 L41.869,18.073 L52.815,11.680 C54.009,10.981 54.407,9.482 53.710,8.284 C53.014,7.086 51.521,6.686 50.327,7.385 L41.869,12.280 L41.869,2.491 C41.869,1.092 40.675,-0.007 39.381,-0.007 C38.087,-0.007 36.893,1.092 36.893,2.491 L36.893,12.180 L28.634,7.385 C27.440,6.686 25.947,7.086 25.251,8.284 C24.554,9.482 24.952,10.981 26.146,11.680 L36.893,17.973 L36.893,40.749 L17.489,29.461 L17.489,16.775 C17.489,15.376 16.394,14.277 15.001,14.277 C13.608,14.277 12.514,15.376 12.514,16.775 L12.514,26.564 L4.055,21.669 C2.861,20.970 1.369,21.370 0.672,22.568 C-0.024,23.767 0.374,25.265 1.568,25.965 L9.926,30.760 L1.767,35.554 C0.573,36.253 0.175,37.752 0.871,38.951 C1.369,39.750 2.165,40.249 3.060,40.249 C3.458,40.249 3.956,40.149 4.254,39.949 L14.902,33.756 L34.505,45.144 L15.101,56.332 L4.155,49.939 C2.961,49.239 1.468,49.639 0.772,50.837 C0.075,52.036 0.473,53.535 1.667,54.234 L10.125,59.128 L1.667,64.023 C0.473,64.722 0.075,66.221 0.772,67.420 C1.269,68.219 2.065,68.718 2.961,68.718 C3.359,68.718 3.856,68.618 4.155,68.418 L12.514,63.624 L12.514,73.113 C12.514,74.512 13.608,75.611 15.001,75.611 C16.394,75.611 17.489,74.512 17.489,73.113 L17.489,60.727 L37.092,49.340 L37.092,71.814 L26.146,78.208 C24.952,78.907 24.554,80.406 25.251,81.604 C25.748,82.404 26.544,82.903 27.440,82.903 C27.838,82.903 28.335,82.803 28.634,82.603 L37.092,77.708 L37.092,87.498 C37.092,88.896 38.187,89.995 39.580,89.995 C40.973,89.995 42.068,88.896 42.068,87.498 L42.068,77.809 L50.327,82.603 C50.725,82.803 51.123,82.903 51.521,82.903 C52.417,82.903 53.213,82.503 53.710,81.604 C54.407,80.406 54.009,78.907 52.815,78.208 L42.068,71.915 L42.068,49.239 L61.472,60.427 L61.472,73.113 C61.472,74.512 62.566,75.611 63.960,75.611 C65.353,75.611 66.447,74.512 66.447,73.113 L66.447,63.324 L74.906,68.219 C75.304,68.418 75.702,68.519 76.100,68.519 C76.995,68.519 77.791,68.119 78.289,67.220 C78.985,66.121 78.587,64.623 77.393,63.924 Z"/>
</svg>