<svg 
 xmlns="http://www.w3.org/2000/svg"
 xmlns:xlink="http://www.w3.org/1999/xlink"
 width="57px" height="80px">
<path fill-rule="evenodd"  fill="rgb(255, 255, 255)"
 d="M34.719,78.667 C34.437,78.776 34.296,79.089 34.390,79.377 C34.480,79.666 34.770,79.838 35.063,79.776 C43.250,78.078 49.577,73.107 53.345,65.392 C58.996,53.859 57.564,39.125 49.698,27.873 C49.550,27.662 49.276,27.572 49.037,27.655 C48.798,27.733 48.626,27.963 48.638,28.225 C48.767,31.512 48.286,34.612 47.214,37.450 C46.243,40.007 43.809,40.757 41.845,40.359 C39.872,39.961 37.916,38.329 38.030,35.581 C38.851,14.603 27.883,3.188 24.494,0.189 C24.314,0.029 24.052,-0.002 23.844,0.111 C23.633,0.221 23.504,0.438 23.523,0.680 C24.415,10.457 15.548,22.079 10.191,28.135 C5.080,33.913 1.754,40.679 0.572,47.702 C-1.001,57.049 0.874,65.424 5.863,71.293 C9.819,75.950 15.642,78.968 22.712,79.999 L22.791,79.999 C23.053,79.999 23.280,79.827 23.350,79.569 C23.429,79.289 23.280,78.992 22.998,78.878 C19.253,77.390 16.538,74.201 15.364,69.902 C14.053,65.077 14.921,59.638 17.629,55.281 C17.668,56.640 17.919,57.928 18.381,59.139 C18.991,60.740 20.494,61.196 21.726,60.958 C22.959,60.708 24.172,59.689 24.102,57.979 C23.742,48.656 28.089,43.248 30.151,41.217 C30.151,46.125 34.319,51.642 36.991,54.660 C39.476,57.466 41.088,60.746 41.660,64.155 C42.802,70.971 40.196,76.398 34.679,78.667 L34.719,78.667 Z"/>
</svg>