<svg 
 xmlns="http://www.w3.org/2000/svg"
 xmlns:xlink="http://www.w3.org/1999/xlink"
 width="45px" height="48px">
<path fill-rule="evenodd"  fill="rgb(255, 255, 255)"
 d="M22.491,12.424 C19.954,12.424 17.519,13.427 15.727,15.211 C13.932,16.998 12.926,19.420 12.928,21.945 C12.930,24.468 13.941,26.889 15.737,28.672 C17.534,30.454 19.969,31.453 22.506,31.449 C25.043,31.445 27.477,30.437 29.267,28.650 C31.059,26.862 32.061,24.438 32.054,21.913 C32.045,19.395 31.035,16.984 29.243,15.205 C27.451,13.427 25.022,12.426 22.491,12.424 L22.491,12.424 ZM27.321,19.600 L22.813,26.054 C22.623,26.333 22.316,26.514 21.979,26.548 L21.863,26.548 C21.567,26.546 21.282,26.432 21.068,26.226 L18.384,23.654 L18.387,23.654 C17.929,23.215 17.916,22.489 18.356,22.033 C18.799,21.578 19.529,21.565 19.986,22.006 L21.714,23.638 L25.451,18.266 C25.814,17.744 26.531,17.616 27.054,17.976 C27.578,18.337 27.708,19.050 27.345,19.572 L27.321,19.600 ZM43.220,3.472 C40.037,2.892 36.941,1.911 34.006,0.551 C33.600,0.360 33.119,0.422 32.775,0.710 C29.908,3.152 26.264,4.499 22.492,4.514 C18.709,4.505 15.053,3.159 12.179,0.710 C11.840,0.435 11.376,0.372 10.977,0.551 C8.042,1.911 4.946,2.892 1.763,3.472 C1.226,3.571 0.835,4.033 0.824,4.576 C0.662,14.312 2.603,23.614 6.445,31.421 C8.697,36.003 13.728,44.136 22.088,47.247 C22.218,47.291 22.354,47.315 22.492,47.315 C22.630,47.315 22.766,47.291 22.896,47.247 C31.256,44.136 36.311,35.998 38.539,31.421 C42.380,23.614 44.298,14.331 44.159,4.576 C44.149,4.033 43.758,3.571 43.220,3.472 L43.220,3.472 ZM22.491,33.718 C19.343,33.718 16.325,32.474 14.101,30.262 C11.874,28.047 10.624,25.044 10.624,21.913 C10.624,18.783 11.874,15.782 14.101,13.566 C16.325,11.352 19.343,10.108 22.491,10.108 C25.640,10.108 28.658,11.352 30.882,13.566 C33.108,15.781 34.358,18.783 34.358,21.913 C34.356,25.044 33.104,28.045 30.880,30.258 C28.654,32.469 25.637,33.715 22.491,33.718 L22.491,33.718 Z"/>
</svg>