<svg width="54" height="54" viewBox="0 0 54 54" fill="none" xmlns="http://www.w3.org/2000/svg">
<g clip-path="url(#clip0_42_9)">
<path fill-rule="evenodd" clip-rule="evenodd" d="M9.235 22.061C9.235 22.677 8.735 23.177 8.118 23.177C7.502 23.177 7.002 22.677 7.002 22.061V21.845C7.002 21.227 7.502 20.729 8.118 20.729C8.735 20.729 9.235 21.227 9.235 21.845V22.061ZM9.998 12.018L11.587 1.54805C11.67 0.994046 12.147 0.597046 12.69 0.597046H40.119C40.692 0.597046 41.167 1.03105 41.228 1.58905L42.813 12.018C44.675 14.074 45.811 16.795 45.811 19.765V22.772L49.079 23.434C49.607 23.539 49.973 24.006 49.973 24.525L49.977 30.333C49.977 30.909 49.541 31.384 48.981 31.442L45.811 32.086V35.092C45.811 38.064 44.673 40.785 42.811 42.841L41.22 52.134C41.128 52.677 40.655 53.06 40.121 53.06L37.581 53.063C36.964 53.063 36.465 52.563 36.465 51.947C36.465 51.33 36.964 50.83 37.581 50.83H39.181L40.177 45.009C38.44 46.055 36.408 46.659 34.243 46.659H18.568C16.403 46.659 14.371 46.055 12.634 45.006L13.63 50.828H32.346C32.963 50.828 33.462 51.327 33.462 51.944C33.462 52.562 32.963 53.06 32.346 53.06H12.69C12.115 53.06 11.641 52.625 11.58 52.067L9.1 42.837C8.138 40.781 7 38.06 7 35.088V25.588C7 24.971 7.499 24.472 8.116 24.472C8.733 24.472 9.232 24.971 9.232 25.588V35.088C9.232 37.659 10.281 39.992 11.971 41.681C13.662 43.375 15.997 44.424 18.565 44.424H34.24C36.811 44.424 39.144 43.375 40.833 41.685C42.527 39.993 43.575 37.658 43.575 35.09V19.76C43.575 17.189 42.527 14.857 40.837 13.167C39.145 11.473 36.811 10.424 34.243 10.424H18.567C16.235 10.424 14.094 11.29 12.454 12.716C10.791 14.161 9.642 16.182 9.322 18.459C9.237 19.067 8.674 19.494 8.066 19.409C7.458 19.324 7.03 18.762 7.115 18.153C7.445 15.814 8.48 13.691 9.997 12.013L9.998 12.018ZM40.232 9.87905L39.161 2.83005H13.65L12.579 9.87905C14.327 8.81005 16.379 8.19405 18.568 8.19405H34.243C36.429 8.19405 38.481 8.81005 40.23 9.87705L40.232 9.87905ZM45.813 29.816L47.747 29.424V25.432L45.813 25.039V29.816ZM26.407 12.495C30.526 12.495 34.258 14.168 36.961 16.869L36.968 16.876C39.669 19.58 41.341 23.312 41.341 27.429C41.341 31.55 39.669 35.284 36.968 37.988C34.267 40.69 30.532 42.362 26.409 42.362C22.291 42.362 18.559 40.69 15.855 37.988C13.15 35.282 11.478 31.55 11.478 27.429C11.478 23.31 13.15 19.576 15.851 16.874C18.557 14.168 22.289 12.495 26.409 12.495H26.407ZM35.39 18.446C33.094 16.15 29.918 14.728 26.407 14.728C22.9 14.728 19.723 16.15 17.425 18.446C15.129 20.744 13.708 23.92 13.708 27.429C13.708 30.937 15.129 34.114 17.425 36.412C19.723 38.708 22.899 40.13 26.407 40.13C29.915 40.13 33.09 38.708 35.387 36.41C37.685 34.112 39.107 30.938 39.107 27.429C39.107 23.919 37.685 20.742 35.39 18.446ZM25.291 17.696C25.291 17.079 25.79 16.579 26.407 16.579C27.024 16.579 27.524 17.079 27.524 17.696V27.429C27.524 27.856 27.284 28.227 26.931 28.415L19.435 32.788C18.903 33.098 18.219 32.919 17.909 32.387C17.599 31.855 17.778 31.17 18.31 30.861L25.289 26.788V17.693L25.291 17.696Z" fill="#047C9A"/>
</g>
<defs>
<clipPath id="clip0_42_9">
<rect width="43" height="54" fill="white" transform="translate(7)"/>
</clipPath>
</defs>
</svg>
