<svg width="54" height="54" viewBox="0 0 54 54" fill="none" xmlns="http://www.w3.org/2000/svg">
<g clip-path="url(#clip0_42_10)">
<path fill-rule="evenodd" clip-rule="evenodd" d="M51.955 17.242C47.79 20.345 47.385 25.291 46.956 30.526C46.634 34.449 46.302 38.504 44.284 41.832C42.111 45.415 38.029 46.574 34.717 47.183C33.808 47.349 32.895 47.502 31.981 47.655C29.063 48.063 26.184 48.707 23.37 49.582C21.518 50.215 19.424 51.063 17.938 52.541C17.598 52.879 17.048 52.878 16.709 52.536C16.371 52.196 16.373 51.644 16.714 51.305C18.449 49.58 20.768 48.631 22.808 47.935C25.711 47.027 28.683 46.359 31.694 45.938C32.599 45.786 33.503 45.635 34.404 45.469C37.358 44.924 40.983 43.919 42.795 40.928C44.6 37.951 44.902 34.274 45.22 30.383C45.662 24.992 46.119 19.419 50.913 15.844C51.299 15.555 51.845 15.635 52.133 16.021C52.42 16.408 52.341 16.954 51.955 17.242ZM50.56 13.095C50.557 13.11 50.556 13.123 50.552 13.137C50.534 13.202 50.508 13.264 50.475 13.323C50.467 13.337 50.458 13.35 50.45 13.363C50.42 13.409 50.387 13.453 50.35 13.493C50.343 13.5 50.335 13.514 50.331 13.518C50.326 13.523 50.32 13.524 50.316 13.528C50.261 13.583 50.198 13.63 50.131 13.668C49.408 14.061 48.658 14.404 47.934 14.736C47.279 15.038 46.601 15.348 45.964 15.688C44.799 16.255 43.778 17.081 42.981 18.103C42.773 18.38 42.597 18.679 42.456 18.995C41.457 21.238 42.278 23.859 43.07 26.396C43.197 26.792 43.316 27.181 43.428 27.56C43.824 28.725 43.986 29.957 43.908 31.186C43.578 34.334 40.269 36.386 37.535 37.186C37.35 37.24 37.165 37.285 36.979 37.325C36.737 41.174 34.834 43.488 31.037 44.576C29.384 44.998 27.698 45.275 25.997 45.402C24.414 45.519 22.844 45.771 21.305 46.156C17.218 47.309 14.221 49.11 12.398 51.51C12.386 51.526 12.371 51.537 12.357 51.552C12.338 51.575 12.317 51.597 12.295 51.617C12.262 51.648 12.226 51.676 12.188 51.7C12.166 51.717 12.143 51.731 12.119 51.745C12.076 51.768 12.03 51.788 11.983 51.803C11.962 51.81 11.942 51.82 11.919 51.825C11.85 51.844 11.778 51.853 11.706 51.854C11.624 51.852 11.541 51.839 11.462 51.815C11.438 51.807 11.414 51.796 11.39 51.786C11.359 51.776 11.328 51.765 11.298 51.751C9.58 50.808 8.008 49.62 6.631 48.223C4.281 45.873 2.56 43.087 1.906 40.582C1.901 40.569 1.901 40.557 1.901 40.545C1.894 40.514 1.89 40.484 1.887 40.453C1.881 40.426 1.881 40.401 1.881 40.372C1.881 40.343 1.883 40.313 1.885 40.285C1.887 40.258 1.891 40.23 1.895 40.203C1.901 40.176 1.907 40.148 1.916 40.122C1.923 40.095 1.932 40.068 1.942 40.042C1.952 40.017 1.964 39.992 1.976 39.968C1.989 39.942 2.003 39.918 2.018 39.895C2.032 39.871 2.048 39.849 2.066 39.827C2.083 39.805 2.101 39.784 2.121 39.763C2.138 39.743 2.158 39.726 2.179 39.708C2.201 39.687 2.224 39.668 2.249 39.65C2.27 39.634 2.292 39.621 2.315 39.608C2.343 39.592 2.371 39.577 2.4 39.565C2.411 39.56 2.421 39.553 2.432 39.548C2.677 39.456 2.926 39.366 3.167 39.282C3.544 39.165 3.911 39.016 4.262 38.837C5.44 38.111 6.472 37.173 7.308 36.069C8.924 33.958 9.71999 31.331 9.55099 28.676C9.47699 27.996 9.351 27.321 9.174 26.659C8.776 25.385 8.65999 24.038 8.83399 22.714C9.56099 18.96 13.368 17.376 17.034 17.634C17.408 16.298 18.111 15.078 19.077 14.084C21.751 11.183 25.423 9.72702 28.974 8.31902C30.229 7.82202 31.413 7.35302 32.55 6.82402C35.896 5.27002 38.073 3.59002 39.402 1.53702C39.408 1.52702 39.417 1.51902 39.424 1.51002C39.458 1.46402 39.496 1.42002 39.537 1.38002C39.557 1.36102 39.577 1.34502 39.6 1.32702C39.623 1.30902 39.648 1.29002 39.671 1.27602C39.693 1.26202 39.716 1.25002 39.741 1.23802C39.767 1.22502 39.793 1.21102 39.819 1.20102C39.844 1.19102 39.869 1.18502 39.896 1.17702C39.924 1.17002 39.95 1.16102 39.978 1.15702C40.006 1.15202 40.033 1.14802 40.061 1.14802C40.089 1.14502 40.116 1.14302 40.144 1.14302C40.172 1.14402 40.2 1.14602 40.227 1.15002C40.256 1.15302 40.284 1.15702 40.312 1.16202C40.339 1.16902 40.366 1.17702 40.392 1.18602C40.421 1.19402 40.449 1.20402 40.477 1.21602C40.487 1.22002 40.498 1.22202 40.508 1.22702C42.489 2.21302 44.292 3.52302 45.844 5.10202C48.159 7.42002 49.87 10.165 50.546 12.64L50.551 12.656L50.557 12.675C50.561 12.686 50.561 12.697 50.561 12.707C50.573 12.762 50.581 12.816 50.583 12.871C50.583 12.892 50.584 12.912 50.581 12.934C50.579 12.989 50.572 13.042 50.56 13.095ZM16.894 19.372C14.424 19.222 11.122 20.034 10.543 23.043C10.425 24.125 10.535 25.22 10.867 26.257C11.066 27.007 11.206 27.77 11.286 28.541C11.487 31.621 10.567 34.67 8.69499 37.123C7.72799 38.398 6.534 39.484 5.171 40.324C4.742 40.559 4.291 40.752 3.824 40.898C4.711 43.2 6.089 45.279 7.861 46.993C8.958 48.096 10.187 49.06 11.519 49.862C13.595 47.457 16.714 45.641 20.836 44.481C22.47 44.069 24.137 43.798 25.818 43.672C27.418 43.555 29.005 43.298 30.561 42.904C33.538 42.051 34.968 40.4 35.226 37.469C34.25 37.446 33.295 37.175 32.451 36.682C30.15 35.28 29.506 32.772 28.938 30.559C28.76 29.809 28.543 29.069 28.289 28.341C27.443 26.075 25.17 25.309 22.763 24.497C21.972 24.23 21.154 23.954 20.396 23.621C19.592 23.325 18.848 22.882 18.203 22.317C17.424 21.527 16.958 20.481 16.894 19.372ZM44.615 6.33202C43.369 5.07002 41.95 3.99102 40.401 3.12802C38.874 5.17202 36.594 6.86402 33.282 8.40202C32.099 8.95102 30.836 9.45302 29.615 9.93702C26.244 11.273 22.76 12.655 20.354 15.262C19.537 16.081 18.957 17.106 18.674 18.228C18.437 19.236 18.71 20.296 19.405 21.064C19.905 21.479 20.474 21.805 21.085 22.025C21.777 22.326 22.523 22.581 23.314 22.848C25.874 23.712 28.776 24.691 29.912 27.732C30.188 28.517 30.423 29.316 30.616 30.126C31.15 32.201 31.653 34.162 33.348 35.194C34.141 35.644 35.057 35.829 35.962 35.721C36.006 35.713 36.05 35.709 36.095 35.708C36.417 35.67 36.736 35.606 37.047 35.515C39.439 34.815 41.954 33.15 42.179 31.004C42.229 30.002 42.087 29.001 41.761 28.053C41.654 27.682 41.535 27.302 41.414 26.915C40.564 24.205 39.602 21.132 40.868 18.284C41.059 17.855 41.298 17.448 41.58 17.072C42.529 15.837 43.749 14.838 45.145 14.152C45.829 13.786 46.532 13.464 47.212 13.152C47.715 12.922 48.194 12.695 48.665 12.461C47.777 10.147 46.395 8.05502 44.615 6.33202ZM34.382 29.093C34.35 29.093 34.319 29.091 34.288 29.088C34.286 29.088 34.285 29.088 34.284 29.088C33.807 29.035 33.463 28.604 33.516 28.127C34.012 23.495 30.529 21.935 30.494 21.92C30.053 21.73 29.85 21.217 30.039 20.776C30.229 20.335 30.741 20.131 31.182 20.321C32.808 21.025 35.749 23.598 35.244 28.316C35.197 28.757 34.825 29.092 34.382 29.093ZM24.94 28.61C26.203 29.896 26.383 31.689 26.543 33.272C26.6 33.845 26.654 34.384 26.752 34.868C26.848 35.339 26.545 35.8 26.075 35.896C26.018 35.907 25.96 35.913 25.901 35.913C25.489 35.913 25.133 35.622 25.051 35.217C24.942 34.631 24.863 34.041 24.813 33.447C24.67 32.024 24.535 30.68 23.701 29.832C22.961 29.079 21.839 28.866 20.651 28.634C19.126 28.34 17.397 28.007 16.291 26.422C16.021 26.03 16.117 25.493 16.505 25.217C16.897 24.94 17.44 25.033 17.716 25.426C18.418 26.431 19.605 26.66 20.98 26.925C22.311 27.181 23.821 27.472 24.94 28.61ZM25.96 8.22802L24.768 8.63402C18.033 10.938 9.652 13.804 7.393 21.04C6.979 22.494 6.656 23.972 6.427 25.465C5.725 29.433 4.1 33.539 1.561 36.149C1.41 36.265 1.226 36.327 1.036 36.327C0.764996 36.327 0.508996 36.2 0.344996 35.983C0.0549956 35.601 0.128996 35.055 0.510996 34.764C3.408 32.562 4.072 28.798 4.717 25.161C4.959 23.595 5.299 22.045 5.735 20.521C8.255 12.439 17.101 9.41702 24.208 6.98702L25.396 6.58102C28.999 5.34402 33.083 3.94502 35.458 0.954018C35.758 0.577018 36.306 0.516018 36.681 0.815018C37.057 1.11502 37.119 1.66302 36.82 2.04002C34.128 5.43002 29.788 6.91602 25.96 8.22802Z" fill="#047C9A"/>
</g>
<defs>
<clipPath id="clip0_42_10">
<rect width="53" height="53" fill="white"/>
</clipPath>
</defs>
</svg>
