<svg width="54" height="54" viewBox="0 0 54 54" fill="none" xmlns="http://www.w3.org/2000/svg">
<path fill-rule="evenodd" clip-rule="evenodd" d="M27.805 3.998C14.646 3.995 3.976 14.718 3.972 27.948C3.969 41.179 14.634 51.907 27.794 51.911C36.007 51.912 43.642 47.661 47.998 40.661C48.247 40.261 48.495 39.842 48.703 39.443C55.014 27.833 50.769 13.278 39.222 6.933C35.721 5.009 31.795 4 27.805 3.998ZM39.391 46.57C29.165 53.004 15.689 49.884 9.29 39.603C7.116 36.11 5.964 32.074 5.964 27.954C5.964 27.266 5.964 26.577 6.063 25.898C6.063 25.668 6.123 25.449 6.152 25.219C6.212 24.77 6.261 24.321 6.341 23.882C6.391 23.612 6.46 23.353 6.53 23.083C6.599 22.813 6.698 22.295 6.807 21.915C6.917 21.536 6.986 21.356 7.076 21.087C7.165 20.817 7.304 20.358 7.443 20.008C7.582 19.659 7.681 19.45 7.8 19.18C7.92 18.911 8.098 18.502 8.257 18.182C8.416 17.863 8.545 17.643 8.694 17.373C8.843 17.104 9.051 16.725 9.24 16.375C9.429 16.026 9.577 15.856 9.756 15.597C9.935 15.337 10.173 14.988 10.392 14.688C10.61 14.389 10.779 14.199 10.977 13.96L11.454 13.401C12.127 13.866 12.529 14.636 12.526 15.457C12.536 15.597 12.536 15.737 12.526 15.876C12.446 16.421 12.82 16.929 13.362 17.01C13.67 17.056 13.982 16.954 14.204 16.734L16.11 14.818C17.687 13.286 20.201 13.328 21.725 14.914C22.437 15.655 22.837 16.643 22.841 17.673C22.839 18.729 22.422 19.741 21.68 20.488L13.41 28.812C13.023 29.203 13.023 29.835 13.412 30.224C13.746 30.559 14.267 30.611 14.661 30.349C15.808 29.606 17.338 29.937 18.078 31.091C18.335 31.491 18.472 31.959 18.473 32.436C18.478 32.806 18.396 33.172 18.235 33.504C17.914 33.956 18.018 34.584 18.468 34.906C18.918 35.229 19.542 35.124 19.863 34.672L31.081 23.382C31.731 22.736 32.61 22.377 33.523 22.384C35.442 22.368 37.012 23.918 37.028 25.847C37.037 26.796 36.66 27.709 35.986 28.374L28.321 36.08C27.936 36.471 27.94 37.104 28.329 37.491C28.618 37.778 29.051 37.859 29.423 37.696C30.671 37.139 32.132 37.705 32.686 38.96C32.821 39.266 32.893 39.597 32.898 39.932C32.896 40.155 32.866 40.376 32.809 40.591C32.643 41.116 32.932 41.677 33.454 41.845C33.812 41.959 34.204 41.86 34.467 41.589L40.086 35.939C41.641 34.384 44.155 34.391 45.702 35.955C46.426 36.687 46.84 37.673 46.857 38.704C46.688 39.014 46.509 39.323 46.321 39.623C44.558 42.431 42.189 44.806 39.391 46.57ZM48.147 35.939C46.59 33.026 42.978 31.933 40.08 33.499C39.584 33.767 39.128 34.105 38.726 34.502L34.755 38.495C34.536 37.826 34.165 37.218 33.672 36.718C33.124 36.161 32.439 35.758 31.687 35.55L37.515 29.691C39.647 27.548 39.648 24.071 37.516 21.927C36.492 20.897 35.102 20.318 33.653 20.318C32.156 20.289 30.714 20.885 29.671 21.965L20.349 31.328C20.152 30.548 19.751 29.834 19.188 29.262C18.586 28.657 17.825 28.238 16.994 28.054L23.119 21.885C25.526 19.631 25.659 15.841 23.416 13.421C21.173 11.001 17.404 10.867 14.997 13.122C14.895 13.218 14.796 13.318 14.7 13.421L14.253 13.87C14.034 13.281 13.696 12.744 13.261 12.293C13.134 12.179 13.002 12.072 12.864 11.973C21.677 3.692 35.498 4.163 43.734 13.023C49.455 19.179 51.17 28.082 48.147 35.939ZM1.993 8.989C1.993 8.438 2.437 7.991 2.985 7.991H3.978V6.993C3.978 6.441 4.423 5.994 4.971 5.994C5.519 5.994 5.964 6.441 5.964 6.993V7.991H6.956C7.505 7.991 7.949 8.438 7.949 8.989C7.949 9.54 7.505 9.987 6.956 9.987H5.964V10.985C5.964 11.536 5.519 11.983 4.971 11.983C4.423 11.983 3.978 11.536 3.978 10.985V9.987H2.985C2.437 9.987 1.993 9.54 1.993 8.989ZM51.632 46.919C51.632 47.471 51.187 47.917 50.639 47.917H49.646V48.916C49.646 49.467 49.202 49.914 48.654 49.914C48.105 49.914 47.661 49.467 47.661 48.916V47.917H46.668C46.12 47.917 45.675 47.471 45.675 46.919C45.675 46.368 46.12 45.921 46.668 45.921H47.661V44.923C47.661 44.372 48.105 43.925 48.654 43.925C49.202 43.925 49.646 44.372 49.646 44.923V45.921H50.639C51.187 45.921 51.632 46.368 51.632 46.919ZM41.704 4.497C41.704 3.67 42.371 3 43.193 3C44.016 3 44.682 3.67 44.682 4.497C44.682 5.324 44.016 5.994 43.193 5.994C42.371 5.994 41.704 5.324 41.704 4.497ZM3.978 42.427C3.978 43.255 3.311 43.925 2.489 43.925C1.666 43.925 1 43.255 1 42.427C1 41.601 1.666 40.931 2.489 40.931C3.311 40.931 3.978 41.601 3.978 42.427ZM52.625 16.475C52.625 17.302 51.958 17.973 51.135 17.973C50.313 17.973 49.646 17.302 49.646 16.475C49.646 15.648 50.313 14.978 51.135 14.978C51.958 14.978 52.625 15.648 52.625 16.475Z" fill="#047C9A"/>
</svg>
