<svg width="61" height="59" viewBox="0 0 61 59" fill="none" xmlns="http://www.w3.org/2000/svg">
<g clip-path="url(#clip0_43_13)">
<path fill-rule="evenodd" clip-rule="evenodd" d="M55.907 16.8229C55.907 16.8229 55.783 16.7519 55.712 16.7169L30.949 7.87794C30.754 7.80794 30.542 7.80794 30.348 7.87794L5.566 16.7169C5.496 16.7339 5.425 16.7699 5.372 16.8229C5.142 16.9819 5 17.2649 5 17.5479V42.2949C5 42.6659 5.23 43.0019 5.584 43.1259L30.348 51.9639C30.348 51.9639 30.348 51.9639 30.365 51.9639C30.365 51.9639 30.365 51.9639 30.383 51.9639C30.418 51.9639 30.454 51.9819 30.507 51.0999C30.542 51.0999 30.595 51.0999 30.631 51.0999C30.666 51.0999 30.719 51.0999 30.754 51.0999C30.79 51.0999 30.825 51.0999 30.878 51.9639C30.878 51.9639 30.878 51.9639 30.896 51.9639C30.896 51.9639 30.896 51.9639 30.914 51.9639L55.677 43.1259C56.031 43.0019 56.261 42.6659 56.261 42.2949V17.5479C56.261 17.2649 56.119 16.9819 55.889 16.8229H55.907ZM30.631 25.4489L25.006 23.4339L47.134 15.5329L52.759 17.5479L30.631 25.4489ZM21.486 24.0709V31.8309L21.026 31.1759C20.884 30.9819 20.69 30.8579 20.442 30.8059C20.212 30.7699 19.965 30.8059 19.77 30.9639L18.426 31.9189L16.869 29.7089C16.728 29.5149 16.533 29.3909 16.285 29.3379C16.232 29.3379 16.179 29.3379 16.144 29.3379C15.967 29.3379 15.773 29.3909 15.631 29.4969L14.959 29.9749V21.7549L18.196 22.9039L21.433 24.0529L21.486 24.0709ZM44.498 14.6129L22.37 22.5149L16.745 20.4999L38.873 12.5979L44.498 14.6129ZM30.613 9.66394L36.238 11.6789L14.11 19.5809L8.485 17.5649L30.613 9.66394ZM6.752 18.8029L13.243 21.1179V31.6889C13.243 32.0249 13.42 32.3249 13.721 32.4669C14.021 32.6259 14.375 32.5909 14.641 32.3959L15.985 31.4409L17.541 33.6509C17.683 33.8459 17.877 33.9699 18.125 34.0229C18.355 34.0579 18.603 34.0229 18.797 33.8629L20.142 32.9089L21.698 35.1179C21.875 35.3659 22.14 35.4889 22.423 35.4889C22.512 35.4889 22.6 35.4889 22.689 35.4539C23.06 35.3309 23.308 34.9949 23.308 34.6059V24.6709L29.799 26.9869V49.8609L6.805 41.6409V18.7679L6.752 18.8029ZM54.51 41.6759L31.515 49.8779V27.0049L54.51 18.8029V41.6759ZM35.106 41.3759C34.947 40.9159 35.176 40.4039 35.636 40.2449L44.923 36.9209C45.383 36.7619 45.896 36.9919 46.055 37.4519C46.214 37.9109 45.984 38.4239 45.524 38.5829L36.238 41.9059C36.132 41.9419 36.043 41.9599 35.937 41.9599C35.566 41.9599 35.23 41.7289 35.106 41.3759ZM35.106 44.9109C34.947 44.4509 35.176 43.9389 35.636 43.7799L44.923 40.4559C45.383 40.2979 45.896 40.5269 46.055 40.9869C46.214 41.4469 45.984 41.9599 45.524 42.1179L36.238 45.4419C36.132 45.4769 36.043 45.4949 35.937 45.4949C35.566 45.4949 35.23 45.2649 35.106 44.9109ZM46.638 27.7119L49.292 22.3209C49.433 22.0369 49.698 21.8609 49.999 21.8259C50.3 21.7899 50.601 21.9319 50.795 22.1789L53.448 25.6789C53.749 26.0679 53.661 26.6159 53.272 26.9159C52.882 27.2169 52.334 27.1279 52.033 26.7399L50.972 25.3429V31.9889C50.972 32.4839 50.583 32.8729 50.088 32.8729C49.592 32.8729 49.203 32.4839 49.203 31.9889V26.5099L48.23 28.4899C48.071 28.8079 47.77 28.9849 47.434 28.9849C47.311 28.9849 47.169 28.9489 47.045 28.8959C46.603 28.6839 46.426 28.1539 46.638 27.7119Z" fill="#047C9A"/>
</g>
<defs>
<clipPath id="clip0_43_13">
<rect width="52" height="45" fill="white" transform="translate(5 7)"/>
</clipPath>
</defs>
</svg>
