<svg width="61" height="59" viewBox="0 0 61 59" fill="none" xmlns="http://www.w3.org/2000/svg">
<g clip-path="url(#clip0_43_10)">
<path fill-rule="evenodd" clip-rule="evenodd" d="M53.534 50.6521H6.956C3.101 50.6521 0 47.5184 0 43.617C0 43.3085 0.304 43.004 0.605 43.004H4.687V12.4109C4.687 10.7287 6.049 9.35205 7.712 9.35205H52.778C54.44 9.35205 55.802 10.7287 55.802 12.4109V43.004H59.884C60.188 43.004 60.489 43.3085 60.489 43.617C60.489 47.5154 57.391 50.6521 53.534 50.6521ZM54.515 12.4109C54.515 11.4196 53.685 10.577 52.701 10.577H7.712C6.732 10.577 5.899 11.4165 5.899 12.4109V43.004H54.515V12.4109ZM24.498 44.2269V46.2156L35.993 46.2186V44.229L24.498 44.2269ZM37.2 44.229V46.8285C37.2 47.136 36.896 47.4405 36.594 47.4405H23.818C23.513 47.4405 23.212 47.133 23.212 46.8285V44.229H5.293L1.208 44.2269C1.512 47.133 4.008 49.4281 6.956 49.4281H53.533C56.481 49.4281 58.976 47.133 59.278 44.229H37.2ZM8.318 12.4109H52.172C52.477 12.4109 52.778 12.7194 52.778 13.0238V40.5572C52.778 40.8616 52.474 41.1701 52.172 41.1701H8.318C8.014 41.1701 7.712 40.8616 7.712 40.5572V13.0238C7.712 12.7163 8.017 12.4109 8.318 12.4109ZM8.997 39.9452H51.493H51.567V13.6368H8.997V39.9452ZM40.984 34.8209C40.83 34.8957 40.68 34.9736 40.529 34.9736C40.375 34.9736 40.225 34.9736 40.074 34.8209L36.521 31.227L34.554 34.1341C34.403 34.3607 34.253 34.4385 34.025 34.4385H33.949C33.647 34.3607 33.497 34.2089 33.42 33.9783L29.562 22.0455C29.485 21.8159 29.562 21.5863 29.713 21.4335C29.864 21.2808 30.091 21.2039 30.318 21.2808L42.115 25.1053C42.343 25.1053 42.57 25.336 42.57 25.5656C42.644 25.7952 42.57 26.0258 42.343 26.1775L39.622 28.0903L43.175 31.6842C43.249 31.839 43.326 31.9917 43.326 32.1444C43.326 32.2992 43.326 32.4519 43.175 32.6037L40.984 34.8209ZM38.03 28.5586V28.4818L37.954 28.4029V28.326C37.877 28.2511 37.877 28.2511 37.877 28.1732V28.0954V28.0185V27.8657C37.954 27.8657 37.954 27.7879 37.954 27.7879L38.03 27.71V27.6331H38.107L38.184 27.5552L40.603 25.8731L30.989 22.9781L34.014 32.5389L35.676 30.0921L35.753 30.0132V29.9363H35.83L35.907 29.8584C35.907 29.7805 35.907 29.7805 35.984 29.7805H36.06H36.211H36.288C36.362 29.8584 36.362 29.8584 36.438 29.8584H36.515L36.592 29.9363H36.669L40.299 33.6081L41.66 32.2304L38.03 28.5586Z" fill="#047C9A"/>
</g>
<defs>
<clipPath id="clip0_43_10">
<rect width="61" height="42" fill="white" transform="translate(0 9)"/>
</clipPath>
</defs>
</svg>
