<svg width="61" height="59" viewBox="0 0 61 59" fill="none" xmlns="http://www.w3.org/2000/svg">
<g clip-path="url(#clip0_43_11)">
<path fill-rule="evenodd" clip-rule="evenodd" d="M44.453 27.402H44.058C43.35 29.072 42.316 30.589 41.025 31.872C40.872 32.031 40.657 32.113 40.435 32.113C40.227 32.107 40.026 32.024 39.88 31.878C39.554 31.552 39.554 31.033 39.88 30.707C41.046 29.529 41.962 28.123 42.573 26.585V17.272C41.289 14.105 38.763 11.597 35.577 10.343C29.165 7.82103 21.913 10.96 19.38 17.355C19.359 17.403 19.338 17.445 19.311 17.48V26.578C19.311 27.035 18.943 27.402 18.485 27.402V27.395H17.506C14.46 27.395 11.989 24.929 11.989 21.887C11.989 18.845 14.46 16.378 17.506 16.378H18.062C19.484 13.073 22.128 10.44 25.439 9.01303C32.6 5.92903 40.907 9.22803 44.002 16.385H44.453C47.5 16.385 49.97 18.852 49.97 21.893C49.97 24.935 47.5 27.402 44.453 27.402ZM17.659 18.034H17.458C15.32 18.034 13.592 19.766 13.592 21.893C13.592 24.021 15.327 25.746 17.458 25.746H17.659V18.034ZM44.433 18.034H44.231V25.753H44.433C46.57 25.753 48.298 24.021 48.298 21.893C48.298 19.76 46.563 18.034 44.433 18.034ZM20.817 21.949C20.817 16.337 25.376 11.791 30.997 11.791C36.611 11.798 41.164 16.344 41.171 21.949V21.956C41.171 27.569 36.611 32.113 30.99 32.113C25.369 32.113 20.817 27.561 20.817 21.949ZM39.512 21.949C39.512 17.237 35.695 13.433 30.983 13.44C26.278 13.447 22.468 17.258 22.468 21.956C22.475 26.654 26.292 30.458 30.997 30.458C35.695 30.451 39.512 26.647 39.512 21.949ZM31.289 33.791C41.018 33.797 48.902 41.662 48.909 51.376C48.909 51.833 48.541 52.201 48.083 52.201H14.522C14.064 52.201 13.696 51.833 13.696 51.376C13.703 41.669 21.573 33.804 31.289 33.791ZM47.215 50.545C46.813 42.362 40.262 35.821 32.066 35.419C23.266 34.989 15.778 41.759 15.348 50.545H47.215Z" fill="#047C9A"/>
</g>
<defs>
<clipPath id="clip0_43_11">
<rect width="38" height="45" fill="white" transform="translate(12 7.30005)"/>
</clipPath>
</defs>
</svg>
