<svg width="61" height="59" viewBox="0 0 61 59" fill="none" xmlns="http://www.w3.org/2000/svg">
<path fill-rule="evenodd" clip-rule="evenodd" d="M58.3706 54.8241C58.3171 55.0928 58.207 55.3079 57.9919 55.4696L54.3657 58.3758C54.2021 58.5355 53.985 58.59 53.7688 58.59H53.6607C53.39 58.5374 53.1749 58.4284 53.0123 58.2142L48.5741 52.7239L45.7045 55.7918C45.4338 56.0605 45.055 56.1676 44.7298 56.0605C44.4055 55.9534 44.1358 55.6847 44.0803 55.3079L41.7521 40.3443C41.6996 40.0211 41.8077 39.6968 42.0784 39.4817C42.349 39.2655 42.6723 39.213 42.9975 39.3201L57.1798 44.7558C57.505 44.9184 57.7212 45.1871 57.7757 45.5639C57.8283 45.8871 57.6676 46.2639 57.3424 46.4256L53.7163 48.5792L58.209 54.0695C58.3706 54.2311 58.4252 54.4998 58.3706 54.8241ZM51.6033 48.9015C51.3881 48.6863 51.3326 48.4166 51.3881 48.1479C51.4426 47.8792 51.6052 47.665 51.8214 47.5024L54.7435 45.7801L43.6996 41.7444L45.5389 53.2118L47.8671 50.7349C48.0852 50.5177 48.3004 50.4106 48.5711 50.4106H48.6266C48.8973 50.4106 49.168 50.5197 49.3306 50.7349L53.9314 56.3322L56.2051 54.4978L51.6033 48.9015ZM17.3925 42.0121C15.7138 42.0121 14.3603 40.6656 14.3603 38.9958V31.5145C14.3603 29.8457 15.7138 28.4992 17.3925 28.4992H23.2923C24.971 28.4992 26.3245 29.8457 26.3245 31.5145V38.9958C26.3245 40.6656 24.971 42.0121 23.2923 42.0121H17.3925ZM24.4296 38.9958V31.5145C24.4296 30.9216 23.9437 30.3831 23.2943 30.3831H17.3955C16.744 30.3831 16.2572 30.869 16.2572 31.5145L16.2552 38.9958C16.2552 39.6443 16.744 40.1282 17.3935 40.1282H23.2923C23.9437 40.1282 24.4296 39.6423 24.4296 38.9958ZM38.827 40.1282C39.3139 40.1282 39.7472 40.5595 39.7472 41.0424C39.7472 41.5263 39.3684 41.9576 38.827 41.9576H29.6799C29.194 41.9576 28.7607 41.5263 28.7607 41.0424C28.7607 40.5595 29.1385 40.1282 29.6799 40.1282H38.827ZM29.7354 30.3286C29.2486 30.3286 28.8153 29.8983 28.8153 29.4134C28.8153 28.9305 29.194 28.4992 29.7354 28.4992H44.351C44.8369 28.4992 45.2702 28.9305 45.2702 29.4134C45.2702 29.8983 44.8924 30.3286 44.351 30.3286H29.7354ZM44.351 36.1976H29.7354C29.2486 36.1976 28.8153 35.7673 28.8153 35.2834C28.8153 34.7995 29.194 34.3682 29.7354 34.3682H44.351C44.8369 34.3682 45.2702 34.745 45.2702 35.2834C45.2702 35.7673 44.8369 36.1976 44.351 36.1976ZM51.6558 40.3969C51.1699 40.3969 50.7356 40.0211 50.7356 39.4817V23.816H8.83934V43.5203C8.83934 45.2416 10.3009 46.6953 12.0877 46.6953H39.8573C40.3987 46.6953 40.832 47.1256 40.7774 47.665C40.7774 48.1479 40.3987 48.5792 39.8573 48.5792H12.0877C9.27265 48.5792 7 46.3185 7 43.5203V16.5489C7 13.7498 9.27265 11.49 12.0877 11.49H47.4903C50.3043 11.49 52.578 13.7498 52.578 16.5489L52.576 39.4817C52.576 39.9665 52.1972 40.3969 51.6558 40.3969ZM50.7366 16.4944C50.7366 14.772 49.3306 13.3194 47.5438 13.3194H12.0877C10.3029 13.3194 8.89487 14.772 8.89487 16.4964V21.8795L50.7366 21.8776V16.4944ZM12.7391 16.7115H14.0371C14.5785 16.7115 14.9573 17.1944 14.9573 17.6803C14.9573 18.1642 14.5785 18.5955 14.0371 18.5955H12.7391C12.2503 18.5955 11.817 18.1116 11.819 17.6258C11.819 17.1419 12.1977 16.7115 12.7391 16.7115ZM17.3945 16.7115H18.6934C19.2348 16.7115 19.6126 17.1944 19.6106 17.6803C19.6106 18.1642 19.2329 18.5955 18.6915 18.5955H17.3925C16.9067 18.5955 16.4733 18.1116 16.4753 17.6258C16.4753 17.1419 16.8541 16.7115 17.3945 16.7115ZM22.1034 16.7115H23.4024C23.8882 16.7115 24.3215 17.1944 24.3195 17.6803C24.3195 18.1642 23.9418 18.5955 23.4004 18.5955H22.1014C21.56 18.5955 21.1823 18.1116 21.1842 17.6258C21.1842 17.1419 21.562 16.7115 22.1034 16.7115ZM39.2088 16.7115H46.8944C47.4357 16.7115 47.8691 17.1944 47.8691 17.6803C47.8691 18.1642 47.4913 18.5955 46.9499 18.5955H39.2088C38.6674 18.5955 38.2886 18.1116 38.2886 17.6258C38.2886 17.1419 38.6674 16.7115 39.2088 16.7115Z" fill="#047C9A"/>
</svg>
