<svg width="268" height="955" viewBox="0 0 268 955" fill="none" xmlns="http://www.w3.org/2000/svg">
<path fill-rule="evenodd" clip-rule="evenodd" d="M-9.15527e-05 954.925C28.6037 950.108 52.3931 928.348 58.8053 898.772C64.8285 870.991 86.5284 849.291 114.31 843.268C150.362 835.451 174.8 801.815 171.093 765.112C168.237 736.829 182.169 709.485 206.729 695.172C238.602 676.598 251.45 637.055 236.582 603.294C225.126 577.278 229.927 546.968 248.862 525.766C273.434 498.251 273.434 456.674 248.862 429.159C229.927 407.957 225.126 377.647 236.582 351.631C251.45 317.87 238.602 278.327 206.729 259.753C182.169 245.439 168.237 218.096 171.093 189.813C174.8 153.11 150.362 119.473 114.31 111.657C86.5284 105.634 64.8285 83.9339 58.8053 56.1527C52.3931 26.5768 28.6037 4.8168 -9.15527e-05 6.69415e-05V954.925Z" fill="url(#paint0_linear_9_399)"/>
<defs>
<linearGradient id="paint0_linear_9_399" x1="-0.000123382" y1="477.462" x2="267" y2="477.462" gradientUnits="userSpaceOnUse">
<stop stop-color="white" stop-opacity="0"/>
<stop offset="1" stop-color="white"/>
</linearGradient>
</defs>
</svg>
