<svg width="100" height="100" viewBox="0 0 100 100" fill="none" xmlns="http://www.w3.org/2000/svg">
<circle cx="50" cy="50" r="47.5" fill="white" fill-opacity="0.2" stroke="white" stroke-width="5"/>
<rect x="39" y="55" width="23" height="23" rx="11.5" fill="#F0DECE"/>
<path d="M33.9333 59.0333C32.8667 53.7333 32.9 49.9666 33.1333 47.4666C33.3 45.6 33.6667 43.9 33.5333 41.0667C33.5 40.0333 33.4667 38.7 33.4667 36.7C33.4667 35.5 33.6333 34.3 34 33.1667C34.4 31.9667 34.9667 30.8 36.0667 30.0333C37.5667 29 38.6333 29.4333 43.2 28.3C43.6667 28.1667 44.0667 28.0667 44.3333 28" stroke="#252525" stroke-miterlimit="10" stroke-linecap="round" stroke-linejoin="round"/>
<path d="M50.4668 62.4666C45.8001 62.5 41.8668 61.8333 38.9668 61.1333" stroke="#252525" stroke-miterlimit="10" stroke-linecap="round" stroke-linejoin="round"/>
<path d="M38.2 64.3667C41.8333 66 44.3 67.8667 45.9333 69.3667L50.4666 73.9334" stroke="#252525" stroke-miterlimit="10" stroke-linecap="round" stroke-linejoin="round"/>
<path d="M62.7335 64.3667C59.1001 66 56.6335 67.8667 55.0001 69.3667L50.4668 73.9334V76.4334" stroke="#252525" stroke-miterlimit="10" stroke-linecap="round" stroke-linejoin="round"/>
<path d="M39.6667 42.4333C39.7 44.3667 39.7 47.4 39.5 49.7001" stroke="#252525" stroke-miterlimit="10" stroke-linecap="round" stroke-linejoin="round"/>
<path d="M41.2332 45.4333C41.7666 46.8 42.0999 48.4 42.1332 49.1667C42.1332 49.3 42.3332 51.8 41.4332 54.3334C41.3332 54.6334 41.1666 55.0334 40.6332 56.5C40.1666 57.8 39.6999 59.0667 39.2666 60.3667C39.2666 60.3667 39.1332 60.6334 38.9666 61.1667C38.7999 61.6667 38.5665 62.4 38.3665 63.3C37.6665 66.3334 37.1332 71.3334 39.2666 76.5" stroke="#252525" stroke-miterlimit="10" stroke-linecap="round" stroke-linejoin="round"/>
<path d="M59.6333 45.5C59.0999 46.8667 58.8666 48.4 58.7999 49.1667C58.7999 49.3 58.5999 51.8 59.4999 54.3333C59.5999 54.6333 59.7666 55.0333 60.2999 56.5C60.7666 57.8 61.2333 59.0667 61.6666 60.3667C61.6666 60.3667 61.7999 60.6333 61.9666 61.1667C62.1333 61.6667 62.3666 62.4 62.5666 63.3C63.2666 66.3333 63.7999 71.3333 61.6666 76.5" stroke="#252525" stroke-miterlimit="10" stroke-linecap="round" stroke-linejoin="round"/>
<path d="M67.0001 59.0333C68.0667 53.7333 68.0334 49.9666 67.8001 47.4666C67.6334 45.6 67.2667 43.9 67.4001 41.0667C67.4334 40.0333 67.4667 38.7 67.4667 36.7C67.4667 35.5 67.3001 34.3 66.9334 33.1667C66.5334 31.9667 65.9667 30.8 64.8667 30.0333C63.3667 29 62.3001 29.4333 57.7334 28.3C57.2668 28.1667 56.8668 28.0667 56.6001 28" stroke="#252525" stroke-miterlimit="10" stroke-linecap="round" stroke-linejoin="round"/>
<path d="M50.4668 62.4666C55.1335 62.5 59.0668 61.8333 61.9668 61.1333" stroke="#252525" stroke-miterlimit="10" stroke-linecap="round" stroke-linejoin="round"/>
<path d="M61.3 42.4333C61.2666 44.3667 61.2666 47.4 61.4666 49.7001" stroke="#252525" stroke-miterlimit="10" stroke-linecap="round" stroke-linejoin="round"/>
<path d="M50.4668 37.8667C49.2001 37.1 46.6001 35.8667 43.3334 36.1667C42.1001 36.2667 41.0334 36.5667 40.2334 36.9C39.7667 38.2334 39.1668 40.1334 39.6668 42.4334C39.8334 43.1 40.0334 43.7 40.3001 44.2334C40.8001 45.2334 41.7334 45.9667 42.8334 46.2334C43.0334 46.2667 43.1334 46.3 43.1334 46.3C43.6334 46.4 44.8001 46.6333 46.1001 46.6C46.8334 46.5667 48.0001 46.4333 49.4001 45.8667C49.6334 45.7667 50.0001 45.6 50.4668 45.5333C50.9334 45.6 51.3334 45.7667 51.5334 45.8667C52.9334 46.4333 54.1001 46.5667 54.8334 46.6C56.1334 46.6333 57.3001 46.4 57.8001 46.3C57.8001 46.3 57.9334 46.2667 58.1001 46.2334C59.2001 45.9667 60.1334 45.2667 60.6334 44.2334C60.8668 43.7334 61.1001 43.1334 61.2668 42.4334C61.8001 40.1 61.1668 38.2334 60.7001 36.9C59.8668 36.5667 58.8334 36.2667 57.6001 36.1667C54.3334 35.8667 51.7334 37.1334 50.4668 37.8667Z" stroke="#252525" stroke-miterlimit="10" stroke-linecap="round" stroke-linejoin="round"/>
</svg>
