<svg width="1920" height="972" viewBox="0 0 1920 972" fill="none" xmlns="http://www.w3.org/2000/svg">
<path d="M907.482 -5651.59C939.676 -5671.46 980.324 -5671.46 1012.52 -5651.59L1082.4 -5608.46C1111.4 -5590.56 1147.53 -5588.67 1178.25 -5603.44L1252.25 -5639.03C1286.35 -5655.42 1326.77 -5651.17 1356.71 -5628.05L1421.7 -5577.85C1448.68 -5557.02 1484.41 -5551.36 1516.5 -5562.84L1593.82 -5590.49C1629.44 -5603.23 1669.2 -5594.78 1696.56 -5568.65L1755.95 -5511.94C1780.6 -5488.4 1815.54 -5479.04 1848.66 -5487.1L1928.45 -5506.52C1965.2 -5515.47 2003.86 -5502.91 2028.34 -5474.06L2081.47 -5411.46C2103.53 -5385.47 2137.3 -5372.5 2171.08 -5377.06L2252.46 -5388.03C2289.95 -5393.09 2327.09 -5376.55 2348.41 -5345.31L2394.71 -5277.49C2413.93 -5249.34 2446.16 -5232.92 2480.23 -5233.92L2562.31 -5236.32C2600.13 -5237.43 2635.33 -5217.11 2653.28 -5183.81L2692.23 -5111.52C2708.4 -5081.51 2738.74 -5061.81 2772.73 -5059.24L2854.61 -5053.06C2892.33 -5050.21 2925.22 -5026.31 2939.59 -4991.32L2970.77 -4915.36C2983.72 -4883.82 3011.83 -4861.06 3045.37 -4854.95L3126.15 -4840.24C3163.37 -4833.46 3193.58 -4806.27 3204.21 -4769.96L3227.28 -4691.15C3236.86 -4658.44 3262.44 -4632.86 3295.15 -4623.28L3373.96 -4600.21C3410.27 -4589.58 3437.46 -4559.37 3444.24 -4522.15L3458.95 -4441.37C3465.06 -4407.83 3487.82 -4379.72 3519.36 -4366.77L3595.32 -4335.59C3630.31 -4321.22 3654.21 -4288.33 3657.06 -4250.61L3663.24 -4168.73C3665.81 -4134.74 3685.51 -4104.4 3715.52 -4088.23L3787.81 -4049.28C3821.11 -4031.33 3841.43 -3996.13 3840.32 -3958.31L3837.92 -3876.23C3836.92 -3842.16 3853.34 -3809.93 3881.49 -3790.71L3949.31 -3744.41C3980.55 -3723.09 3997.09 -3685.95 3992.03 -3648.46L3981.06 -3567.08C3976.5 -3533.3 3989.47 -3499.53 4015.46 -3477.47L4078.06 -3424.34C4106.91 -3399.86 4119.47 -3361.2 4110.52 -3324.45L4091.1 -3244.66C4083.04 -3211.54 4092.4 -3176.6 4115.94 -3151.95L4172.65 -3092.56C4198.78 -3065.2 4207.23 -3025.44 4194.49 -2989.82L4166.84 -2912.5C4155.36 -2880.41 4161.02 -2844.68 4181.85 -2817.7L4232.05 -2752.71C4255.17 -2722.77 4259.42 -2682.35 4243.03 -2648.25L4207.44 -2574.25C4192.67 -2543.53 4194.56 -2507.4 4212.46 -2478.4L4255.59 -2408.52C4275.46 -2376.32 4275.46 -2335.68 4255.59 -2303.48L4212.46 -2233.6C4194.56 -2204.6 4192.67 -2168.47 4207.44 -2137.75L4243.03 -2063.75C4259.42 -2029.65 4255.17 -1989.23 4232.05 -1959.29L4181.85 -1894.3C4161.02 -1867.32 4155.36 -1831.59 4166.84 -1799.5L4194.49 -1722.18C4207.23 -1686.56 4198.78 -1646.8 4172.65 -1619.44L4115.94 -1560.05C4092.4 -1535.4 4083.04 -1500.46 4091.1 -1467.34L4110.52 -1387.55C4119.47 -1350.8 4106.91 -1312.14 4078.06 -1287.66L4015.46 -1234.53C3989.47 -1212.47 3976.5 -1178.7 3981.06 -1144.92L3992.03 -1063.54C3997.09 -1026.05 3980.55 -988.915 3949.31 -967.585L3881.49 -921.289C3853.34 -902.071 3836.92 -869.837 3837.92 -835.766L3840.32 -753.687C3841.43 -715.873 3821.11 -680.67 3787.81 -662.724L3715.52 -623.769C3685.51 -607.599 3665.81 -577.259 3663.24 -543.27L3657.06 -461.389C3654.21 -423.666 3630.31 -390.78 3595.32 -376.413L3519.36 -345.228C3487.82 -332.283 3465.06 -304.169 3458.95 -270.635L3444.24 -189.849C3437.46 -152.63 3410.27 -122.422 3373.96 -111.792L3295.15 -88.7178C3262.44 -79.1396 3236.86 -53.5591 3227.28 -20.8467L3204.21 57.959C3193.58 94.2651 3163.37 121.464 3126.15 128.242L3045.37 142.952C3011.83 149.058 2983.72 171.825 2970.77 203.356L2939.59 279.319C2925.22 314.314 2892.33 338.207 2854.61 341.057L2772.73 347.242C2738.74 349.81 2708.4 369.513 2692.23 399.519L2653.28 471.806C2635.33 505.108 2600.13 525.433 2562.31 524.323L2480.23 521.916C2446.16 520.916 2413.93 537.34 2394.71 565.491L2348.41 633.31C2327.09 664.554 2289.95 681.087 2252.46 676.032L2171.08 665.058C2137.3 660.502 2103.53 673.467 2081.47 699.456L2028.34 762.063C2003.86 790.907 1965.2 803.468 1928.45 794.521L1848.66 775.101C1815.54 767.039 1780.6 776.402 1755.95 799.943L1696.56 856.654C1669.2 882.781 1629.44 891.232 1593.82 878.492L1516.5 850.838C1484.41 839.359 1448.68 845.019 1421.7 865.854L1356.71 916.046C1326.77 939.17 1286.35 943.419 1252.25 927.025L1178.25 891.441C1147.53 876.671 1111.4 878.564 1082.4 896.465L1012.52 939.59C980.324 959.457 939.676 959.457 907.482 939.59L837.603 896.465C808.597 878.564 772.47 876.671 741.751 891.441L667.747 927.025C633.653 943.419 593.228 939.17 563.287 916.046L498.299 865.854C471.322 845.019 435.591 839.359 403.497 850.838L326.178 878.492C290.558 891.232 250.797 882.781 223.438 856.654L164.053 799.943C139.402 776.402 104.458 767.039 71.3391 775.101L-8.44604 794.521C-45.2031 803.468 -83.8623 790.907 -108.341 762.063L-161.473 699.456C-183.528 673.467 -217.302 660.502 -251.082 665.058L-332.46 676.032C-369.951 681.087 -407.085 664.554 -428.414 633.31L-474.711 565.491C-493.929 537.34 -526.163 520.916 -560.234 521.916L-642.313 524.323C-680.127 525.433 -715.33 505.108 -733.276 471.806L-772.231 399.519C-788.401 369.513 -818.741 349.81 -852.73 347.242L-934.611 341.057C-972.334 338.207 -1005.22 314.314 -1019.59 279.319L-1050.77 203.356C-1063.72 171.825 -1091.83 149.058 -1125.37 142.952L-1206.15 128.242C-1243.37 121.464 -1273.58 94.2651 -1284.21 57.959L-1307.28 -20.8467C-1316.86 -53.5591 -1342.44 -79.1396 -1375.15 -88.7178L-1453.96 -111.792C-1490.27 -122.422 -1517.46 -152.63 -1524.24 -189.849L-1538.95 -270.635C-1545.06 -304.169 -1567.82 -332.283 -1599.36 -345.228L-1675.32 -376.413C-1710.31 -390.78 -1734.21 -423.666 -1737.06 -461.389L-1743.24 -543.27C-1745.81 -577.259 -1765.51 -607.599 -1795.52 -623.769L-1867.81 -662.724C-1901.11 -680.67 -1921.43 -715.873 -1920.32 -753.687L-1917.92 -835.767C-1916.92 -869.837 -1933.34 -902.071 -1961.49 -921.289L-2029.31 -967.585C-2060.55 -988.915 -2077.09 -1026.05 -2072.03 -1063.54L-2061.06 -1144.92C-2056.5 -1178.7 -2069.47 -1212.47 -2095.46 -1234.53L-2158.06 -1287.66C-2186.91 -1312.14 -2199.47 -1350.8 -2190.52 -1387.55L-2171.1 -1467.34C-2163.04 -1500.46 -2172.4 -1535.4 -2195.94 -1560.05L-2252.65 -1619.44C-2278.78 -1646.8 -2287.23 -1686.56 -2274.49 -1722.18L-2246.84 -1799.5C-2235.36 -1831.59 -2241.02 -1867.32 -2261.85 -1894.3L-2312.05 -1959.29C-2335.17 -1989.23 -2339.42 -2029.65 -2323.03 -2063.75L-2287.44 -2137.75C-2272.67 -2168.47 -2274.56 -2204.6 -2292.46 -2233.6L-2335.59 -2303.48C-2355.46 -2335.68 -2355.46 -2376.32 -2335.59 -2408.52L-2292.46 -2478.4C-2274.56 -2507.4 -2272.67 -2543.53 -2287.44 -2574.25L-2323.03 -2648.25C-2339.42 -2682.35 -2335.17 -2722.77 -2312.05 -2752.71L-2261.85 -2817.7C-2241.02 -2844.68 -2235.36 -2880.41 -2246.84 -2912.5L-2274.49 -2989.82C-2287.23 -3025.44 -2278.78 -3065.2 -2252.65 -3092.56L-2195.94 -3151.95C-2172.4 -3176.6 -2163.04 -3211.54 -2171.1 -3244.66L-2190.52 -3324.45C-2199.47 -3361.2 -2186.91 -3399.86 -2158.06 -3424.34L-2095.46 -3477.47C-2069.47 -3499.53 -2056.5 -3533.3 -2061.06 -3567.08L-2072.03 -3648.46C-2077.09 -3685.95 -2060.55 -3723.09 -2029.31 -3744.41L-1961.49 -3790.71C-1933.34 -3809.93 -1916.92 -3842.16 -1917.92 -3876.23L-1920.32 -3958.31C-1921.43 -3996.13 -1901.11 -4031.33 -1867.81 -4049.28L-1795.52 -4088.23C-1765.51 -4104.4 -1745.81 -4134.74 -1743.24 -4168.73L-1737.06 -4250.61C-1734.21 -4288.33 -1710.31 -4321.22 -1675.32 -4335.59L-1599.36 -4366.77C-1567.82 -4379.72 -1545.06 -4407.83 -1538.95 -4441.37L-1524.24 -4522.15C-1517.46 -4559.37 -1490.27 -4589.58 -1453.96 -4600.21L-1375.15 -4623.28C-1342.44 -4632.86 -1316.86 -4658.44 -1307.28 -4691.15L-1284.21 -4769.96C-1273.58 -4806.27 -1243.37 -4833.46 -1206.15 -4840.24L-1125.37 -4854.95C-1091.83 -4861.06 -1063.72 -4883.82 -1050.77 -4915.36L-1019.59 -4991.32C-1005.22 -5026.31 -972.334 -5050.21 -934.611 -5053.06L-852.73 -5059.24C-818.741 -5061.81 -788.401 -5081.51 -772.231 -5111.52L-733.276 -5183.81C-715.33 -5217.11 -680.127 -5237.43 -642.313 -5236.32L-560.234 -5233.92C-526.163 -5232.92 -493.929 -5249.34 -474.712 -5277.49L-428.414 -5345.31C-407.085 -5376.55 -369.951 -5393.09 -332.46 -5388.03L-251.082 -5377.06C-217.302 -5372.5 -183.528 -5385.47 -161.473 -5411.46L-108.341 -5474.06C-83.8623 -5502.91 -45.2031 -5515.47 -8.44604 -5506.52L71.3394 -5487.1C104.458 -5479.04 139.402 -5488.4 164.052 -5511.94L223.438 -5568.65C250.797 -5594.78 290.558 -5603.23 326.178 -5590.49L403.496 -5562.84C435.591 -5551.36 471.322 -5557.02 498.299 -5577.85L563.287 -5628.05C593.228 -5651.17 633.654 -5655.42 667.747 -5639.03L741.751 -5603.44C772.47 -5588.67 808.597 -5590.56 837.604 -5608.46L907.482 -5651.59Z" fill="url(#paint0_radial_153_94)"/>
<path d="M901.665 -5585.21C939.691 -5596.81 980.309 -5596.81 1018.33 -5585.21L1160.19 -5541.96C1188.27 -5533.39 1217.9 -5531.12 1246.97 -5535.29L1393.76 -5556.39C1433.11 -5562.04 1473.25 -5555.84 1509.06 -5538.58L1642.65 -5474.18C1669.1 -5461.43 1698.03 -5454.66 1727.4 -5454.35L1875.69 -5452.79C1915.44 -5452.37 1954.16 -5440.11 1986.92 -5417.58L2109.11 -5333.55C2133.3 -5316.91 2160.86 -5305.8 2189.84 -5301.01L2336.15 -5276.83C2375.37 -5270.35 2411.77 -5252.33 2440.71 -5225.06L2548.63 -5123.36C2570 -5103.22 2595.55 -5088.03 2623.45 -5078.88L2764.36 -5032.65C2802.13 -5020.26 2835.36 -4996.89 2859.79 -4965.53L2950.92 -4848.54C2968.97 -4825.37 2991.9 -4806.47 3018.07 -4793.16L3150.27 -4725.96C3185.71 -4707.95 3214.98 -4679.78 3234.34 -4645.06L3306.55 -4515.53C3320.85 -4489.88 3340.62 -4467.7 3364.46 -4450.55L3484.85 -4363.96C3517.13 -4340.75 3541.75 -4308.45 3555.58 -4271.17L3607.17 -4132.14C3617.39 -4104.61 3633.54 -4079.67 3654.48 -4059.08L3760.25 -3955.13C3788.6 -3927.26 3808.01 -3891.58 3815.98 -3852.63L3845.75 -3707.35C3851.64 -3678.59 3863.8 -3651.47 3881.35 -3627.93L3970.01 -3509.05C3993.78 -3477.18 4007.51 -3438.95 4009.45 -3399.25L4016.69 -3251.12C4018.12 -3221.8 4025.99 -3193.14 4039.75 -3167.2L4109.22 -3036.18C4127.84 -3001.05 4135.58 -2961.18 4131.43 -2921.64L4115.98 -2774.15C4112.92 -2744.95 4116.32 -2715.43 4125.96 -2687.69L4174.62 -2547.6C4187.66 -2510.04 4189.21 -2469.45 4179.08 -2431.01L4141.29 -2287.61C4133.81 -2259.21 4132.67 -2229.52 4137.96 -2200.63L4164.66 -2054.76C4171.82 -2015.66 4167.16 -1975.3 4151.28 -1938.86L4092.04 -1802.91C4080.31 -1775.99 4074.66 -1746.81 4075.47 -1717.46L4079.59 -1569.22C4080.7 -1529.48 4069.94 -1490.31 4048.68 -1456.72L3969.38 -1331.4C3953.68 -1306.59 3943.64 -1278.62 3939.96 -1249.49L3921.41 -1102.35C3916.43 -1062.91 3899.82 -1025.85 3873.68 -995.891L3776.18 -884.146C3756.88 -862.019 3742.68 -835.913 3734.6 -807.681L3693.8 -665.105C3682.87 -626.885 3660.79 -592.791 3630.39 -567.177L3516.97 -471.625C3494.52 -452.704 3476.5 -429.071 3464.21 -402.403L3402.12 -267.726C3385.48 -231.623 3358.46 -201.299 3324.5 -180.626L3197.83 -103.505C3172.75 -88.2349 3151.34 -67.6284 3135.12 -43.1499L3053.2 80.4722C3031.24 113.611 2999.91 139.454 2963.19 154.702L2826.24 211.583C2799.12 222.846 2774.81 239.942 2755.05 261.658L2655.22 371.327C2628.46 400.725 2593.55 421.482 2554.93 430.947L2410.9 466.254C2382.38 473.246 2355.75 486.432 2332.9 504.875L2217.5 598.021C2186.57 622.989 2148.89 638.173 2109.29 641.633L1961.55 654.541C1932.3 657.097 1903.97 666.062 1878.57 680.802L1750.31 755.24C1715.93 775.194 1676.38 784.45 1636.71 781.824L1488.73 772.028C1459.43 770.088 1430.06 774.625 1402.71 785.314L1264.59 839.3C1227.57 853.772 1187.07 856.882 1148.26 848.231L1003.52 815.962C974.858 809.572 945.142 809.572 916.48 815.962L771.735 848.231C732.934 856.882 692.434 853.772 655.408 839.3L517.285 785.314C489.935 774.624 460.567 770.088 431.267 772.028L283.292 781.824C243.624 784.45 204.074 775.194 169.691 755.24L41.4275 680.802C16.03 666.062 -12.3015 657.097 -41.5544 654.541L-189.291 641.633C-228.894 638.173 -266.568 622.989 -297.502 598.021L-412.899 504.875C-435.749 486.432 -462.38 473.246 -490.9 466.254L-634.935 430.947C-673.546 421.482 -708.46 400.725 -735.22 371.327L-835.047 261.658C-854.813 239.942 -879.119 222.846 -906.238 211.583L-1043.19 154.702C-1079.91 139.454 -1111.24 113.611 -1133.2 80.4722L-1215.12 -43.1499C-1231.34 -67.6284 -1252.75 -88.2349 -1277.83 -103.505L-1404.5 -180.626C-1438.46 -201.299 -1465.48 -231.623 -1482.12 -267.726L-1544.21 -402.403C-1556.5 -429.071 -1574.52 -452.704 -1596.97 -471.625L-1710.39 -567.177C-1740.79 -592.791 -1762.87 -626.885 -1773.8 -665.105L-1814.6 -807.681C-1822.68 -835.913 -1836.88 -862.019 -1856.18 -884.146L-1953.68 -995.891C-1979.82 -1025.85 -1996.43 -1062.91 -2001.41 -1102.35L-2019.96 -1249.49C-2023.64 -1278.62 -2033.68 -1306.59 -2049.38 -1331.4L-2128.68 -1456.72C-2149.94 -1490.31 -2160.7 -1529.48 -2159.59 -1569.22L-2155.47 -1717.46C-2154.66 -1746.81 -2160.31 -1775.99 -2172.04 -1802.91L-2231.28 -1938.86C-2247.16 -1975.3 -2251.82 -2015.66 -2244.66 -2054.76L-2217.96 -2200.63C-2212.67 -2229.52 -2213.81 -2259.21 -2221.29 -2287.61L-2259.08 -2431.01C-2269.21 -2469.45 -2267.66 -2510.04 -2254.62 -2547.6L-2205.96 -2687.69C-2196.32 -2715.43 -2192.92 -2744.95 -2195.98 -2774.15L-2211.43 -2921.64C-2215.58 -2961.18 -2207.84 -3001.05 -2189.22 -3036.18L-2119.75 -3167.2C-2105.99 -3193.14 -2098.12 -3221.8 -2096.69 -3251.12L-2089.45 -3399.25C-2087.51 -3438.95 -2073.78 -3477.18 -2050.01 -3509.05L-1961.35 -3627.93C-1943.8 -3651.47 -1931.64 -3678.59 -1925.75 -3707.35L-1895.98 -3852.63C-1888.01 -3891.58 -1868.6 -3927.26 -1840.25 -3955.13L-1734.48 -4059.08C-1713.54 -4079.67 -1697.39 -4104.61 -1687.17 -4132.14L-1635.58 -4271.17C-1621.75 -4308.45 -1597.13 -4340.75 -1564.85 -4363.96L-1444.46 -4450.55C-1420.62 -4467.7 -1400.85 -4489.88 -1386.55 -4515.53L-1314.34 -4645.06C-1294.98 -4679.78 -1265.71 -4707.95 -1230.27 -4725.96L-1098.07 -4793.16C-1071.9 -4806.47 -1048.97 -4825.37 -1030.92 -4848.54L-939.786 -4965.53C-915.355 -4996.89 -882.132 -5020.26 -844.359 -5032.65L-703.45 -5078.88C-675.549 -5088.03 -650.005 -5103.22 -628.634 -5123.36L-520.706 -5225.06C-491.774 -5252.33 -455.373 -5270.35 -416.151 -5276.83L-269.836 -5301.01C-240.864 -5305.8 -213.302 -5316.91 -189.108 -5333.55L-66.9185 -5417.58C-34.1636 -5440.11 4.56177 -5452.37 44.3135 -5452.79L192.604 -5454.35C221.967 -5454.66 250.902 -5461.43 277.353 -5474.18L410.939 -5538.58C446.749 -5555.84 486.891 -5562.04 526.241 -5556.39L673.031 -5535.29C702.097 -5531.12 731.727 -5533.39 759.815 -5541.96L901.665 -5585.21Z" fill="url(#paint1_radial_153_94)"/>
<mask id="mask0_153_94" style="mask-type:alpha" maskUnits="userSpaceOnUse" x="0" y="0" width="1920" height="762">
<path fill-rule="evenodd" clip-rule="evenodd" d="M1920 607.236C1613.83 707.675 1286.76 762 947 762C616.84 762 298.661 710.701 0 615.639L0 0H1920V607.236Z" fill="#D9D9D9"/>
</mask>
<g mask="url(#mask0_153_94)">
<path fill-rule="evenodd" clip-rule="evenodd" d="M1920 607.236C1613.83 707.675 1286.76 762 947 762C616.84 762 298.661 710.701 0 615.639L0 0H1920V607.236Z" fill="url(#paint2_linear_153_94)"/>
</g>
<defs>
<radialGradient id="paint0_radial_153_94" cx="0" cy="0" r="1" gradientUnits="userSpaceOnUse" gradientTransform="translate(960 -2945.59) rotate(90) scale(3897.82)">
<stop offset="0.965226" stop-color="#F0E6DE"/>
<stop offset="1" stop-color="white"/>
</radialGradient>
<radialGradient id="paint1_radial_153_94" cx="0" cy="0" r="1" gradientUnits="userSpaceOnUse" gradientTransform="translate(960 -2939.47) rotate(90) scale(3791.45)">
<stop offset="0.975875" stop-color="#F0E6DE"/>
<stop offset="1" stop-color="white"/>
</radialGradient>
<linearGradient id="paint2_linear_153_94" x1="960" y1="0" x2="960" y2="959" gradientUnits="userSpaceOnUse">
<stop stop-color="#F0E6DE"/>
<stop offset="1" stop-color="white"/>
</linearGradient>
</defs>
</svg>
