<svg width="1920" height="275" viewBox="0 0 1920 275" fill="none" xmlns="http://www.w3.org/2000/svg">
<g clip-path="url(#clip0_126_96)">
<path d="M907.482 6623.59C939.676 6643.46 980.324 6643.46 1012.52 6623.59L1082.4 6580.46C1111.4 6562.56 1147.53 6560.67 1178.25 6575.44L1252.25 6611.03C1286.35 6627.42 1326.77 6623.17 1356.71 6600.05L1421.7 6549.85C1448.68 6529.02 1484.41 6523.36 1516.5 6534.84L1593.82 6562.49C1629.44 6575.23 1669.2 6566.78 1696.56 6540.65L1755.95 6483.94C1780.6 6460.4 1815.54 6451.04 1848.66 6459.1L1928.45 6478.52C1965.2 6487.47 2003.86 6474.91 2028.34 6446.06L2081.47 6383.46C2103.53 6357.47 2137.3 6344.5 2171.08 6349.06L2252.46 6360.03C2289.95 6365.09 2327.09 6348.55 2348.41 6317.31L2394.71 6249.49C2413.93 6221.34 2446.16 6204.92 2480.23 6205.92L2562.31 6208.32C2600.13 6209.43 2635.33 6189.11 2653.28 6155.81L2692.23 6083.52C2708.4 6053.51 2738.74 6033.81 2772.73 6031.24L2854.61 6025.06C2892.33 6022.21 2925.22 5998.31 2939.59 5963.32L2970.77 5887.36C2983.72 5855.82 3011.83 5833.06 3045.37 5826.95L3126.15 5812.24C3163.37 5805.46 3193.58 5778.27 3204.21 5741.96L3227.28 5663.15C3236.86 5630.44 3262.44 5604.86 3295.15 5595.28L3373.96 5572.21C3410.27 5561.58 3437.46 5531.37 3444.24 5494.15L3458.95 5413.37C3465.06 5379.83 3487.82 5351.72 3519.36 5338.77L3595.32 5307.59C3630.31 5293.22 3654.21 5260.33 3657.06 5222.61L3663.24 5140.73C3665.81 5106.74 3685.51 5076.4 3715.52 5060.23L3787.81 5021.28C3821.11 5003.33 3841.43 4968.13 3840.32 4930.31L3837.92 4848.23C3836.92 4814.16 3853.34 4781.93 3881.49 4762.71L3949.31 4716.41C3980.55 4695.09 3997.09 4657.95 3992.03 4620.46L3981.06 4539.08C3976.5 4505.3 3989.47 4471.53 4015.46 4449.47L4078.06 4396.34C4106.91 4371.86 4119.47 4333.2 4110.52 4296.45L4091.1 4216.66C4083.04 4183.54 4092.4 4148.6 4115.94 4123.95L4172.65 4064.56C4198.78 4037.2 4207.23 3997.44 4194.49 3961.82L4166.84 3884.5C4155.36 3852.41 4161.02 3816.68 4181.85 3789.7L4232.05 3724.71C4255.17 3694.77 4259.42 3654.35 4243.03 3620.25L4207.44 3546.25C4192.67 3515.53 4194.56 3479.4 4212.47 3450.4L4255.59 3380.52C4275.46 3348.32 4275.46 3307.68 4255.59 3275.48L4212.47 3205.6C4194.56 3176.6 4192.67 3140.47 4207.44 3109.75L4243.03 3035.75C4259.42 3001.65 4255.17 2961.23 4232.05 2931.29L4181.85 2866.3C4161.02 2839.32 4155.36 2803.59 4166.84 2771.5L4194.49 2694.18C4207.23 2658.56 4198.78 2618.8 4172.65 2591.44L4115.94 2532.05C4092.4 2507.4 4083.04 2472.46 4091.1 2439.34L4110.52 2359.55C4119.47 2322.8 4106.91 2284.14 4078.06 2259.66L4015.46 2206.53C3989.47 2184.47 3976.5 2150.7 3981.06 2116.92L3992.03 2035.54C3997.09 1998.05 3980.55 1960.91 3949.31 1939.59L3881.49 1893.29C3853.34 1874.07 3836.92 1841.84 3837.92 1807.77L3840.32 1725.69C3841.43 1687.87 3821.11 1652.67 3787.81 1634.72L3715.52 1595.77C3685.51 1579.6 3665.81 1549.26 3663.24 1515.27L3657.06 1433.39C3654.21 1395.67 3630.31 1362.78 3595.32 1348.41L3519.36 1317.23C3487.82 1304.28 3465.06 1276.17 3458.95 1242.63L3444.24 1161.85C3437.46 1124.63 3410.27 1094.42 3373.96 1083.79L3295.15 1060.72C3262.44 1051.14 3236.86 1025.56 3227.28 992.847L3204.21 914.041C3193.58 877.735 3163.37 850.535 3126.15 843.758L3045.37 829.048C3011.83 822.942 2983.72 800.175 2970.77 768.644L2939.59 692.681C2925.22 657.685 2892.33 633.793 2854.61 630.943L2772.73 624.758C2738.74 622.19 2708.4 602.487 2692.23 572.481L2653.28 500.194C2635.33 466.892 2600.13 446.567 2562.31 447.677L2480.23 450.084C2446.16 451.084 2413.93 434.66 2394.71 406.509L2348.41 338.69C2327.09 307.446 2289.95 290.913 2252.46 295.968L2171.08 306.942C2137.3 311.498 2103.53 298.533 2081.47 272.545L2028.34 209.937C2003.86 181.093 1965.2 168.532 1928.45 177.479L1848.66 196.899C1815.54 204.961 1780.6 195.598 1755.95 172.057L1696.56 115.346C1669.2 89.2192 1629.44 80.7677 1593.82 93.5079L1516.5 121.162C1484.41 132.641 1448.68 126.981 1421.7 106.147L1356.71 55.9536C1326.77 32.83 1286.35 28.581 1252.25 44.9744L1178.25 80.5585C1147.53 95.3292 1111.4 93.4358 1082.4 75.535L1012.52 32.4102C980.324 12.5428 939.676 12.5428 907.482 32.4103L837.603 75.535C808.597 93.4358 772.47 95.3291 741.751 80.5584L667.747 44.9744C633.653 28.581 593.228 32.8299 563.287 55.9536L498.299 106.147C471.322 126.981 435.591 132.641 403.496 121.162L326.179 93.5079C290.558 80.7678 250.797 89.2191 223.438 115.346L164.053 172.057C139.402 195.598 104.458 204.961 71.3391 196.899L-8.44603 177.479C-45.2031 168.532 -83.8624 181.093 -108.341 209.937L-161.473 272.545C-183.528 298.533 -217.302 311.498 -251.082 306.942L-332.46 295.968C-369.951 290.913 -407.085 307.446 -428.414 338.69L-474.711 406.509C-493.929 434.66 -526.163 451.084 -560.234 450.084L-642.313 447.677C-680.127 446.567 -715.33 466.892 -733.276 500.194L-772.231 572.481C-788.401 602.487 -818.741 622.19 -852.73 624.758L-934.611 630.943C-972.334 633.793 -1005.22 657.685 -1019.59 692.681L-1050.77 768.644C-1063.72 800.176 -1091.83 822.942 -1125.37 829.048L-1206.15 843.758C-1243.37 850.535 -1273.58 877.735 -1284.21 914.041L-1307.28 992.847C-1316.86 1025.56 -1342.44 1051.14 -1375.15 1060.72L-1453.96 1083.79C-1490.27 1094.42 -1517.46 1124.63 -1524.24 1161.85L-1538.95 1242.63C-1545.06 1276.17 -1567.82 1304.28 -1599.36 1317.23L-1675.32 1348.41C-1710.31 1362.78 -1734.21 1395.67 -1737.06 1433.39L-1743.24 1515.27C-1745.81 1549.26 -1765.51 1579.6 -1795.52 1595.77L-1867.81 1634.72C-1901.11 1652.67 -1921.43 1687.87 -1920.32 1725.69L-1917.92 1807.77C-1916.92 1841.84 -1933.34 1874.07 -1961.49 1893.29L-2029.31 1939.59C-2060.55 1960.91 -2077.09 1998.05 -2072.03 2035.54L-2061.06 2116.92C-2056.5 2150.7 -2069.47 2184.47 -2095.46 2206.53L-2158.06 2259.66C-2186.91 2284.14 -2199.47 2322.8 -2190.52 2359.55L-2171.1 2439.34C-2163.04 2472.46 -2172.4 2507.4 -2195.94 2532.05L-2252.65 2591.44C-2278.78 2618.8 -2287.23 2658.56 -2274.49 2694.18L-2246.84 2771.5C-2235.36 2803.59 -2241.02 2839.32 -2261.85 2866.3L-2312.05 2931.29C-2335.17 2961.23 -2339.42 3001.65 -2323.03 3035.75L-2287.44 3109.75C-2272.67 3140.47 -2274.56 3176.6 -2292.46 3205.6L-2335.59 3275.48C-2355.46 3307.68 -2355.46 3348.32 -2335.59 3380.52L-2292.46 3450.4C-2274.56 3479.4 -2272.67 3515.53 -2287.44 3546.25L-2323.03 3620.25C-2339.42 3654.35 -2335.17 3694.77 -2312.05 3724.71L-2261.85 3789.7C-2241.02 3816.68 -2235.36 3852.41 -2246.84 3884.5L-2274.49 3961.82C-2287.23 3997.44 -2278.78 4037.2 -2252.65 4064.56L-2195.94 4123.95C-2172.4 4148.6 -2163.04 4183.54 -2171.1 4216.66L-2190.52 4296.45C-2199.47 4333.2 -2186.91 4371.86 -2158.06 4396.34L-2095.46 4449.47C-2069.47 4471.53 -2056.5 4505.3 -2061.06 4539.08L-2072.03 4620.46C-2077.09 4657.95 -2060.55 4695.09 -2029.31 4716.41L-1961.49 4762.71C-1933.34 4781.93 -1916.92 4814.16 -1917.92 4848.23L-1920.32 4930.31C-1921.43 4968.13 -1901.11 5003.33 -1867.81 5021.28L-1795.52 5060.23C-1765.51 5076.4 -1745.81 5106.74 -1743.24 5140.73L-1737.06 5222.61C-1734.21 5260.33 -1710.31 5293.22 -1675.32 5307.59L-1599.36 5338.77C-1567.82 5351.72 -1545.06 5379.83 -1538.95 5413.37L-1524.24 5494.15C-1517.46 5531.37 -1490.27 5561.58 -1453.96 5572.21L-1375.15 5595.28C-1342.44 5604.86 -1316.86 5630.44 -1307.28 5663.15L-1284.21 5741.96C-1273.58 5778.27 -1243.37 5805.46 -1206.15 5812.24L-1125.37 5826.95C-1091.83 5833.06 -1063.72 5855.82 -1050.77 5887.36L-1019.59 5963.32C-1005.22 5998.31 -972.334 6022.21 -934.611 6025.06L-852.73 6031.24C-818.741 6033.81 -788.401 6053.51 -772.231 6083.52L-733.276 6155.81C-715.33 6189.11 -680.127 6209.43 -642.313 6208.32L-560.234 6205.92C-526.163 6204.92 -493.929 6221.34 -474.712 6249.49L-428.414 6317.31C-407.085 6348.55 -369.951 6365.09 -332.46 6360.03L-251.082 6349.06C-217.302 6344.5 -183.528 6357.47 -161.473 6383.46L-108.341 6446.06C-83.8623 6474.91 -45.2031 6487.47 -8.44608 6478.52L71.3393 6459.1C104.458 6451.04 139.402 6460.4 164.053 6483.94L223.438 6540.65C250.797 6566.78 290.558 6575.23 326.178 6562.49L403.496 6534.84C435.591 6523.36 471.322 6529.02 498.299 6549.85L563.287 6600.05C593.228 6623.17 633.653 6627.42 667.747 6611.03L741.751 6575.44C772.47 6560.67 808.597 6562.56 837.603 6580.46L907.482 6623.59Z" fill="white"/>
</g>
<defs>
<clipPath id="clip0_126_96">
<rect width="1920" height="275" fill="white"/>
</clipPath>
</defs>
</svg>
