<svg width="139" height="139" viewBox="0 0 139 139" fill="none" xmlns="http://www.w3.org/2000/svg">
<circle cx="69.0745" cy="69.0745" r="69.0745" transform="matrix(1 0 0 -1 0 139)" fill="#F0E6DE"/>
<circle cx="69.0745" cy="69.0745" r="69.0745" transform="matrix(1 0 0 -1 0 139)" fill="url(#paint0_radial_211_94)"/>
<path d="M138.149 69.9255C138.149 83.772 133.988 97.299 126.205 108.751C118.422 120.203 107.377 129.052 94.5025 134.149C81.6283 139.247 67.5194 140.357 54.0064 137.336C40.4933 134.316 28.1999 127.304 18.7214 117.21C9.24276 107.117 3.01649 94.4072 0.850421 80.7311C-1.31565 67.0551 0.678465 53.0437 6.57402 40.515C12.4696 27.9863 21.9944 17.5186 33.9127 10.4702C45.831 3.42174 59.5925 0.117889 73.4117 0.98732L69.0745 69.9255H138.149Z" fill="url(#paint1_linear_211_94)" fill-opacity="0.2"/>
<defs>
<radialGradient id="paint0_radial_211_94" cx="0" cy="0" r="1" gradientUnits="userSpaceOnUse" gradientTransform="translate(69.0745 69.0745) rotate(90) scale(69.0745)">
<stop stop-color="white"/>
<stop offset="1" stop-color="white" stop-opacity="0"/>
</radialGradient>
<linearGradient id="paint1_linear_211_94" x1="69.0745" y1="139" x2="69.0745" y2="0.851013" gradientUnits="userSpaceOnUse">
<stop stop-color="#4E1601" stop-opacity="0"/>
<stop offset="1" stop-color="#4E1601"/>
</linearGradient>
</defs>
</svg>
