<svg width="65" height="39" viewBox="0 0 65 39" fill="none" xmlns="http://www.w3.org/2000/svg">
<path d="M64.5303 6.53033C64.8232 6.23744 64.8232 5.76256 64.5303 5.46967L59.7574 0.696699C59.4645 0.403806 58.9896 0.403806 58.6967 0.696699C58.4038 0.989593 58.4038 1.46447 58.6967 1.75736L62.9393 6L58.6967 10.2426C58.4038 10.5355 58.4038 11.0104 58.6967 11.3033C58.9896 11.5962 59.4645 11.5962 59.7574 11.3033L64.5303 6.53033ZM0 38.8167H35.5768V37.3167H0V38.8167ZM43.8645 30.529V13.5377H42.3645V30.529H43.8645ZM50.6522 6.75H64V5.25H50.6522V6.75ZM43.8645 13.5377C43.8645 9.78895 46.9035 6.75 50.6522 6.75V5.25C46.0751 5.25 42.3645 8.96052 42.3645 13.5377H43.8645ZM35.5768 38.8167C40.154 38.8167 43.8645 35.1062 43.8645 30.529H42.3645C42.3645 34.2777 39.3256 37.3167 35.5768 37.3167V38.8167Z" fill="#714534"/>
</svg>
