<svg width="1029" height="292" viewBox="0 0 1029 292" fill="none" xmlns="http://www.w3.org/2000/svg">
<path fill-rule="evenodd" clip-rule="evenodd" d="M3.48207e-06 292L8.25611 278.04L29.4074 246.917L52.4711 217.183L77.3563 188.956L103.965 162.348L132.192 137.463L161.925 114.399L193.048 93.2476L225.438 74.0923L258.967 57.0086L293.502 42.0639L328.907 29.3171L365.043 18.8187L401.767 10.6099L438.934 4.72327L476.397 1.18201L514.009 6.12949e-06L551.62 1.18201L589.083 4.72327L626.25 10.6099L662.974 18.8187L699.11 29.3171L734.515 42.0639L769.05 57.0086L802.579 74.0923L834.969 93.2476L866.092 114.399L895.826 137.463L924.052 162.348L950.661 188.956L975.546 217.183L998.61 246.917L1019.76 278.04L1028.02 292L3.48207e-06 292Z" fill="url(#paint0_linear_9_188)"/>
<defs>
<linearGradient id="paint0_linear_9_188" x1="514.009" y1="292" x2="514.009" y2="0.318093" gradientUnits="userSpaceOnUse">
<stop stop-color="white" stop-opacity="0"/>
<stop offset="1" stop-color="white"/>
</linearGradient>
</defs>
</svg>
