<svg width="952" height="269" viewBox="0 0 952 269" fill="none" xmlns="http://www.w3.org/2000/svg">
<path fill-rule="evenodd" clip-rule="evenodd" d="M0.840625 268.247C-4.04853 244.097 12.9448 220.921 37.529 218.39C58.8768 216.192 75.0913 198.184 75.0456 176.723C74.9926 151.84 96.5586 132.422 121.3 135.076C142.638 137.364 162.243 123.121 166.66 102.12C171.782 77.769 196.914 63.2591 220.563 70.999C240.959 77.6741 263.096 67.818 271.783 48.1942C281.856 25.4404 309.455 16.4728 330.978 28.9604C349.541 39.7304 373.244 34.6922 385.821 17.3033C400.404 -2.85902 429.265 -5.89243 447.722 10.7973C463.639 25.1912 487.872 25.1913 503.789 10.7973C522.246 -5.89243 551.107 -2.85901 565.69 17.3033C578.267 34.6922 601.97 39.7304 620.533 28.9605C642.056 16.4728 669.655 25.4404 679.728 48.1942C688.415 67.8181 710.552 77.6742 730.948 70.999C754.597 63.2591 779.729 77.7691 784.851 102.12C789.268 123.121 808.873 137.364 830.211 135.076C854.952 132.422 876.518 151.84 876.465 176.723C876.42 198.184 892.634 216.192 913.982 218.39C938.566 220.921 955.559 244.097 950.67 268.247L0.840625 268.247Z" fill="url(#paint0_linear_9_214)"/>
<defs>
<linearGradient id="paint0_linear_9_214" x1="475.755" y1="268.247" x2="475.755" y2="40" gradientUnits="userSpaceOnUse">
<stop stop-color="white" stop-opacity="0"/>
<stop offset="1" stop-color="white"/>
</linearGradient>
</defs>
</svg>
