<svg width="62" height="62" viewBox="0 0 62 62" fill="none" xmlns="http://www.w3.org/2000/svg">
<path d="M38.8389 12.0432C42.192 12.2261 45.4842 13.0796 48.4715 14.5732C52.9525 16.8289 56.7628 20.6088 58.5308 25.3336C58.8966 26.3396 58.1345 27.4369 57.0676 27.4369H17.7144C16.6475 27.4369 15.855 26.37 16.2512 25.3336C18.2631 19.9382 22.8355 15.8535 28.109 13.7502C31.4926 12.409 35.181 11.8298 38.8389 12.0432Z" stroke="white" stroke-width="1.5" stroke-miterlimit="10" stroke-linecap="round" stroke-linejoin="round"/>
<path d="M30.3953 36.0331H27.2251H18.7813C17.4096 36.0331 16.2817 34.57 16.2817 32.802C16.2817 31.8875 16.5561 31.0949 17.0133 30.5158C17.4706 29.9366 18.0802 29.5708 18.7813 29.5708H22.2868H33.0168" stroke="white" stroke-width="1.5" stroke-miterlimit="10" stroke-linecap="round" stroke-linejoin="round"/>
<path d="M52.6475 29.5708H56.092C57.4637 29.5708 58.5916 31.034 58.5916 32.802" stroke="white" stroke-width="1.5" stroke-miterlimit="10" stroke-linecap="round" stroke-linejoin="round"/>
<path d="M50.0263 29.5708C50.0263 29.5708 39.7231 36.0941 37.3759 39.5082C35.0592 36.0941 24.7256 29.5708 24.7256 29.5708" stroke="white" stroke-width="1.5" stroke-miterlimit="10" stroke-linecap="round" stroke-linejoin="round"/>
<path d="M30.395 16.4023C30.517 16.067 30.9132 15.8841 31.2485 16.0365C31.4009 16.0975 31.4924 16.1889 31.5838 16.3413" stroke="white" stroke-width="1.5" stroke-miterlimit="10" stroke-linecap="round" stroke-linejoin="round"/>
<path d="M36.7051 18.3838C36.827 18.0484 37.2233 17.8655 37.5586 18.018C37.711 18.0789 37.8025 18.1704 37.8939 18.3228" stroke="white" stroke-width="1.5" stroke-miterlimit="10" stroke-linecap="round" stroke-linejoin="round"/>
<path d="M25.7314 20.4565C25.8534 20.1212 26.2497 19.9383 26.585 20.0907C26.7374 20.1517 26.8288 20.2431 26.9203 20.3955" stroke="white" stroke-width="1.5" stroke-miterlimit="10" stroke-linecap="round" stroke-linejoin="round"/>
<path d="M32.8032 20.4565C32.9252 20.1212 33.3214 19.9383 33.6567 20.0907C33.8091 20.1517 33.9006 20.2431 33.9921 20.3955" stroke="white" stroke-width="1.5" stroke-miterlimit="10" stroke-linecap="round" stroke-linejoin="round"/>
<path d="M28.5054 23.8095C28.6273 23.4742 29.0236 23.2913 29.3589 23.4437C29.5113 23.5047 29.6027 23.5962 29.6942 23.7486" stroke="white" stroke-width="1.5" stroke-miterlimit="10" stroke-linecap="round" stroke-linejoin="round"/>
<path d="M36.7051 23.8095C36.827 23.4742 37.2233 23.2913 37.5586 23.4437C37.711 23.5047 37.8025 23.5962 37.8939 23.7486" stroke="white" stroke-width="1.5" stroke-miterlimit="10" stroke-linecap="round" stroke-linejoin="round"/>
<path d="M43.7773 23.8095C43.8993 23.4742 44.2955 23.2913 44.6309 23.4437C44.7833 23.5047 44.8747 23.5962 44.9662 23.7486" stroke="white" stroke-width="1.5" stroke-miterlimit="10" stroke-linecap="round" stroke-linejoin="round"/>
<path d="M40.6982 20.4565C40.8202 20.1212 41.2164 19.9383 41.5518 20.0907C41.7042 20.1517 41.7956 20.2431 41.8871 20.3955" stroke="white" stroke-width="1.5" stroke-miterlimit="10" stroke-linecap="round" stroke-linejoin="round"/>
<path d="M46.8862 20.4565C47.0082 20.1212 47.4044 19.9383 47.7397 20.0907C47.8922 20.1517 47.9836 20.2431 48.0751 20.3955" stroke="white" stroke-width="1.5" stroke-miterlimit="10" stroke-linecap="round" stroke-linejoin="round"/>
<path d="M42.1309 16.4023C42.2528 16.067 42.6491 15.8841 42.9844 16.0365C43.1368 16.0975 43.2282 16.1889 43.3197 16.3413" stroke="white" stroke-width="1.5" stroke-miterlimit="10" stroke-linecap="round" stroke-linejoin="round"/>
<path d="M53.3184 48.958H33.0474" stroke="white" stroke-width="1.5" stroke-miterlimit="10" stroke-linecap="round" stroke-linejoin="round"/>
<path d="M10.2767 48.0435L2.01588 46.0011C1.31478 45.8182 0.857535 45.1171 1.04043 44.3855L1.25381 43.5625C1.43671 42.8614 2.13781 42.4042 2.8694 42.5871L10.7949 44.5075" stroke="white" stroke-width="1.5" stroke-miterlimit="10" stroke-linecap="round" stroke-linejoin="round"/>
<path d="M16.2818 43.2577L8.81357 40.4533C8.11246 40.2094 7.77716 39.4473 8.02102 38.7462L8.32585 37.9537C8.56971 37.2526 9.33177 36.9173 10.0329 37.1612L19.4216 40.6362" stroke="white" stroke-width="1.5" stroke-miterlimit="10" stroke-linecap="round" stroke-linejoin="round"/>
<path d="M28.292 43.9893L39.3268 41.6726C40.0583 41.5202 40.7594 41.9774 40.9119 42.709L41.0947 43.5625C41.2472 44.2941 40.7899 44.9952 40.0583 45.1476L33.6569 46.3669" stroke="white" stroke-width="1.5" stroke-miterlimit="10" stroke-linecap="round" stroke-linejoin="round"/>
<path d="M19.2388 43.7452L26.3717 38.2279C26.9509 37.7706 27.7739 37.862 28.2312 38.4412L28.7799 39.1118C29.2371 39.691 29.1457 40.5141 28.5665 40.9713L24.2684 44.172" stroke="white" stroke-width="1.5" stroke-miterlimit="10" stroke-linecap="round" stroke-linejoin="round"/>
<path d="M11.7397 47.6167C11.7397 48.1959 12.197 48.6836 12.7761 48.6836L30.4561 49.0799C31.1877 49.0799 31.7669 48.4702 31.7669 47.7386V46.8851C31.7669 46.1535 31.1573 45.5744 30.4257 45.5744L12.8371 45.4829C12.2579 45.4829 11.8007 45.9401 11.7702 46.5193L11.7397 47.6167Z" stroke="white" stroke-width="1.5" stroke-miterlimit="10" stroke-linecap="round" stroke-linejoin="round"/>
<path d="M46.3378 44.4463C45.9111 43.4709 45.6367 42.404 45.6367 41.2761C45.6367 37.039 49.0813 33.5945 53.3184 33.5945C57.5555 33.5945 61 37.039 61 41.2761C61 45.5132 57.5555 48.9578 53.3184 48.9578" stroke="white" stroke-width="1.5" stroke-miterlimit="10" stroke-linecap="round" stroke-linejoin="round"/>
<path d="M49.2642 37.2217L57.3726 45.3301" stroke="white" stroke-width="1.5" stroke-miterlimit="10" stroke-linecap="round" stroke-linejoin="round"/>
<path d="M57.3726 37.2217L49.2642 45.3301" stroke="white" stroke-width="1.5" stroke-miterlimit="10" stroke-linecap="round" stroke-linejoin="round"/>
</svg>
