<svg width="62" height="62" viewBox="0 0 62 62" fill="none" xmlns="http://www.w3.org/2000/svg">
<path d="M46.59 12.9644C46.59 14.8931 45.8054 16.2333 44.792 16.2333C43.7787 16.2333 42.9614 14.8931 42.9614 12.9644C42.9614 11.0357 43.7787 9.49928 44.7593 9.49928C45.7727 9.46659 46.59 11.0357 46.59 12.9644Z" stroke="white" stroke-width="1.5" stroke-miterlimit="10" stroke-linecap="round" stroke-linejoin="round"/>
<path d="M8.7027 34.1145C8.7027 34.1145 0.33418 24.1442 5.92409 16.5603C7.88546 13.9124 11.0563 12.4087 14.3907 12.4087H21.6477" stroke="white" stroke-width="1.5" stroke-miterlimit="10" stroke-linecap="round" stroke-linejoin="round"/>
<path d="M23.3147 6.03418H21.5168C19.4574 6.03418 17.8229 7.93017 18.2479 9.95692C18.444 10.8722 18.9343 11.7222 19.8496 12.2779" stroke="white" stroke-width="1.5" stroke-miterlimit="10" stroke-linecap="round" stroke-linejoin="round"/>
<path d="M23.3149 1.03271H16.9077" stroke="white" stroke-width="1.5" stroke-miterlimit="10" stroke-linecap="round" stroke-linejoin="round"/>
<path d="M23.642 6.03418C24.4183 6.03418 25.0476 4.90725 25.0476 3.5171C25.0476 2.12695 24.4183 1 23.642 1C22.8657 1 22.2363 2.12695 22.2363 3.5171C22.2363 4.90725 22.8657 6.03418 23.642 6.03418Z" stroke="white" stroke-width="1.5" stroke-miterlimit="10" stroke-linecap="round" stroke-linejoin="round"/>
<path d="M39.9536 27.2496C41.0651 27.8053 41.8169 27.8053 42.3399 27.5765C45.2493 26.3343 44.4648 16.887 42.4053 16.3313" stroke="white" stroke-width="1.5" stroke-miterlimit="10" stroke-linecap="round" stroke-linejoin="round"/>
<path d="M7.9834 14.5335C8.17954 14.4028 8.34298 14.3047 8.47374 14.1739C11.3831 11.8857 13.1157 7.08031 12.9849 2.96143" stroke="white" stroke-width="1.5" stroke-miterlimit="10" stroke-linecap="round" stroke-linejoin="round"/>
<path d="M32.5332 8.19165C33.1543 8.68199 33.8081 8.91082 34.4292 9.10695C35.3772 9.36847 36.3252 9.49923 37.3059 9.49923H44.7918" stroke="white" stroke-width="1.5" stroke-miterlimit="10" stroke-linecap="round" stroke-linejoin="round"/>
<path d="M37.8291 16.4295C40.7385 16.4295 44.7593 16.2334 44.7593 16.2334" stroke="white" stroke-width="1.5" stroke-miterlimit="10" stroke-linecap="round" stroke-linejoin="round"/>
<path d="M33.9058 19.3389C33.9058 19.4042 33.8405 19.5023 33.8405 19.6658C33.4155 22.0848 36.0633 24.2423 37.6978 25.648C38.0247 25.9422 39.1362 26.6613 39.9534 27.2497" stroke="white" stroke-width="1.5" stroke-miterlimit="10" stroke-linecap="round" stroke-linejoin="round"/>
<path d="M34.756 60.4622C34.2003 60.6911 33.5792 60.8545 32.9254 60.8872C30.441 61.0506 27.9566 60.2334 25.6683 59.2854C22.7262 58.0759 19.5881 56.278 17.2671 54.0878C14.8154 51.7668 7.06797 44.4117 8.70245 34.1472C9.22548 30.7802 10.86 28.0015 11.4811 26.9228C12.4944 25.1902 13.7693 23.5884 15.1423 22.1174C17.169 19.9599 19.5227 18.162 21.6475 16.0699C25.9952 11.7875 29.5584 5.08618 36.4885 5.08618" stroke="white" stroke-width="1.5" stroke-miterlimit="10" stroke-linecap="round" stroke-linejoin="round"/>
<path d="M37.8287 16.4294H36.3903C35.8019 16.3967 32.9252 16.3967 30.5062 18.5542C28.2506 20.5809 27.8583 23.1307 27.793 23.7845" stroke="white" stroke-width="1.5" stroke-miterlimit="10" stroke-linecap="round" stroke-linejoin="round"/>
<path d="M32.0105 52.3552C30.5721 50.165 29.7549 47.5498 29.7549 44.7385C29.7549 37.0892 35.9659 30.8455 43.6479 30.8455" stroke="white" stroke-width="1.5" stroke-miterlimit="10" stroke-linecap="round" stroke-linejoin="round"/>
<path d="M53.0296 34.5393C53.8796 35.3239 54.5987 36.1738 55.2525 37.1545C56.6909 39.3447 57.5408 41.9598 57.5408 44.7711C57.5408 52.4205 51.3298 58.6642 43.6477 58.6642C40.4769 58.6642 37.5348 57.5854 35.1812 55.7875" stroke="white" stroke-width="1.5" stroke-miterlimit="10" stroke-linecap="round" stroke-linejoin="round"/>
<path d="M53.8618 46.3897C54.7683 40.7387 50.9222 35.4228 45.2712 34.5163C39.6202 33.6097 34.3043 37.4559 33.3978 43.1069C32.4912 48.7578 36.3374 54.0738 41.9884 54.9803C47.6393 55.8868 52.9553 52.0407 53.8618 46.3897Z" stroke="white" stroke-width="1.5" stroke-miterlimit="10" stroke-linecap="round" stroke-linejoin="round"/>
<path d="M46.5249 52.7148C46.5903 51.3418 46.6557 49.9362 46.7864 48.5632C46.9172 47.3537 47.0479 46.0788 47.7017 45C48.094 44.3789 50.7419 42.6464 51.8533 41.9272" stroke="white" stroke-width="1.5" stroke-miterlimit="10" stroke-linecap="round" stroke-linejoin="round"/>
<path d="M35.9336 47.844L42.0138 46.5037C42.2754 46.5037 42.6349 46.4711 42.8638 46.7326C43.0272 46.896 43.0599 47.1248 42.9945 47.9094C42.8965 49.4458 42.7003 51.4399 42.5696 52.9436" stroke="white" stroke-width="1.5" stroke-miterlimit="10" stroke-linecap="round" stroke-linejoin="round"/>
<path d="M49.6633 38.3967C47.375 39.9331 44.9233 41.3388 42.3081 42.3195C40.0852 43.1367 37.7643 43.5617 35.4106 43.6924" stroke="white" stroke-width="1.5" stroke-miterlimit="10" stroke-linecap="round" stroke-linejoin="round"/>
<path d="M40.248 43.0385C40.3788 43.2347 41.1307 44.5422 42.6998 44.8364C43.942 45.0653 45.5437 44.673 46.2629 43.3327C46.9821 42.0251 46.4264 40.6522 46.3283 40.4561" stroke="white" stroke-width="1.5" stroke-miterlimit="10" stroke-linecap="round" stroke-linejoin="round"/>
</svg>
