<svg width="62" height="62" viewBox="0 0 62 62" fill="none" xmlns="http://www.w3.org/2000/svg">
<path d="M44.3003 13.9C43.3003 12.8667 41.8003 12.2 40.3337 12.3333C39.367 12.4333 38.5336 12.9334 37.8003 13.5667C36.167 15.0334 36.2337 17.5 37.167 19.3C37.667 20.2667 38.4336 21.0333 39.2336 21.7667C40.2003 22.7 41.267 23.5 42.3003 24.3667C42.9336 24.9 44.267 26.0333 44.3003 26.0333C44.3003 26.0333 45.6336 24.9333 46.3003 24.3667C47.3336 23.5 48.4004 22.7 49.367 21.7667C50.1337 21.0333 50.9337 20.2667 51.4337 19.3C52.367 17.5 52.4003 15 50.8003 13.5667C50.1003 12.9334 49.2337 12.4333 48.267 12.3333C46.8003 12.2 45.3003 12.8667 44.3003 13.9Z" stroke="white" stroke-width="1.5" stroke-miterlimit="10" stroke-linecap="round" stroke-linejoin="round"/>
<path d="M22.5333 41H60.6333V5H2V41H5.46667" stroke="white" stroke-width="1.5" stroke-miterlimit="10" stroke-linecap="round" stroke-linejoin="round"/>
<path d="M7.83333 50.1002H2V38.2668" stroke="white" stroke-width="1.5" stroke-miterlimit="10" stroke-linecap="round" stroke-linejoin="round"/>
<path d="M60.6333 38.2668V50.1002H20" stroke="white" stroke-width="1.5" stroke-miterlimit="10" stroke-linecap="round" stroke-linejoin="round"/>
<path d="M54.8669 32.9334H52.4668L50.7002 35.5001L48.9335 33.0001H44.9335L43.9001 30.6667L42.4001 34.8001L40.4668 32.9334L38.2668 34.5001L36.9001 31.7001L35.1335 33.6334H30.4668" stroke="white" stroke-width="1.5" stroke-miterlimit="10" stroke-linecap="round" stroke-linejoin="round"/>
<path d="M20.8 26.9336L13.3667 27.0669" stroke="white" stroke-width="1.5" stroke-miterlimit="10" stroke-linecap="round" stroke-linejoin="round"/>
<path d="M7.83355 27.4334L10.0669 40.0334C10.4335 42.1667 12.3335 43.7334 14.5002 43.6667C16.6335 43.6334 18.4336 42.0668 18.7669 39.9334L20.8002 26.9001C22.1336 26.8668 23.1669 25.7668 23.1669 24.4334L23.1336 22.3001C23.1002 21.2334 22.5669 20.2668 21.6669 19.7334C20.0669 18.7668 17.4002 17.5667 13.9669 17.6667C10.6336 17.7667 8.06687 19.0668 6.56687 20.0668C5.7002 20.6668 5.16687 21.6667 5.20021 22.7001L5.2669 25.0668C5.30023 26.4334 6.43356 27.5001 7.80022 27.4001L7.83355 27.4334Z" stroke="white" stroke-width="1.5" stroke-miterlimit="10" stroke-linecap="round" stroke-linejoin="round"/>
<path d="M7.8335 16.3C9.00016 15.7 11.1335 14.8 13.9668 14.7C17.4335 14.5666 20.0335 15.7333 21.2002 16.3666" stroke="white" stroke-width="1.5" stroke-miterlimit="10" stroke-linecap="round" stroke-linejoin="round"/>
<path d="M5.4668 13.7C7.03346 12.9 9.93346 11.6333 13.8001 11.5333C18.4668 11.3666 22.0001 12.9333 23.6001 13.8" stroke="white" stroke-width="1.5" stroke-miterlimit="10" stroke-linecap="round" stroke-linejoin="round"/>
<path d="M26.7334 57.8667V50.1001" stroke="white" stroke-width="1.5" stroke-miterlimit="10" stroke-linecap="round" stroke-linejoin="round"/>
<path d="M35.9004 57.8667V50.1001" stroke="white" stroke-width="1.5" stroke-miterlimit="10" stroke-linecap="round" stroke-linejoin="round"/>
<path d="M14.5 43.7002V54.1669C14.5 56.2002 16.1667 57.8669 18.2 57.8669H46.4" stroke="white" stroke-width="1.5" stroke-miterlimit="10" stroke-linecap="round" stroke-linejoin="round"/>
<path d="M54.1669 45.9001C54.1669 46.6667 53.5669 47.2667 52.8002 47.2667H51.8002C51.0335 47.2667 50.4336 46.6667 50.4336 45.9001V45.1667C50.4336 44.4 51.0335 43.8 51.8002 43.8H52.5669" stroke="white" stroke-width="1.5" stroke-miterlimit="10" stroke-linecap="round" stroke-linejoin="round"/>
<path d="M47.467 45.5334H46.4004" stroke="white" stroke-width="1.5" stroke-miterlimit="10" stroke-linecap="round" stroke-linejoin="round"/>
<path d="M43.267 45.5334H42.167" stroke="white" stroke-width="1.5" stroke-miterlimit="10" stroke-linecap="round" stroke-linejoin="round"/>
<path d="M38.6003 45.5334H37.5337" stroke="white" stroke-width="1.5" stroke-miterlimit="10" stroke-linecap="round" stroke-linejoin="round"/>
</svg>
