<svg width="62" height="62" viewBox="0 0 62 62" fill="none" xmlns="http://www.w3.org/2000/svg">
<path d="M4.92359 22.1131C4.09234 22.1463 3.39409 21.6808 3.36084 21.0823C3.36084 20.4838 4.02584 20.0183 4.85709 19.9851C5.68834 19.9518 6.38659 20.4173 6.41984 21.0158" stroke="white" stroke-width="1.5" stroke-miterlimit="10" stroke-linecap="round" stroke-linejoin="round"/>
<path d="M9.34596 28.1646C8.51471 28.1978 7.81645 27.7323 7.7832 27.1338C7.7832 26.5353 8.4482 26.0698 9.27945 26.0366C10.1107 26.0033 10.809 26.4689 10.8422 27.0674" stroke="white" stroke-width="1.5" stroke-miterlimit="10" stroke-linecap="round" stroke-linejoin="round"/>
<path d="M14.2333 24.1413C13.4686 23.8088 13.0363 23.0773 13.2691 22.5453C13.5018 22.0133 14.3331 21.847 15.0978 22.2128C15.8626 22.5453 16.2948 23.2768 16.0621 23.8088" stroke="white" stroke-width="1.5" stroke-miterlimit="10" stroke-linecap="round" stroke-linejoin="round"/>
<path d="M19.9192 36.3439C19.2874 36.9092 18.4562 37.0422 18.0572 36.6099C17.6582 36.1777 17.8577 35.3797 18.4895 34.7812C19.1212 34.2159 19.9525 34.0829 20.3515 34.5152" stroke="white" stroke-width="1.5" stroke-miterlimit="10" stroke-linecap="round" stroke-linejoin="round"/>
<path d="M3.39381 32.8196C2.56256 32.8529 1.8643 32.3874 1.83105 31.7889C1.83105 31.1904 2.49605 30.7249 3.3273 30.6916C4.15855 30.6584 4.85681 31.1239 4.89006 31.7224" stroke="white" stroke-width="1.5" stroke-miterlimit="10" stroke-linecap="round" stroke-linejoin="round"/>
<path d="M13.9008 40.9991C13.1693 41.4314 12.3381 41.3981 12.0388 40.8994C11.7396 40.4006 12.0721 39.6359 12.8036 39.2036C13.5351 38.7714 14.3663 38.8046 14.6656 39.3034" stroke="white" stroke-width="1.5" stroke-miterlimit="10" stroke-linecap="round" stroke-linejoin="round"/>
<path d="M17.6917 31.2566C16.8604 31.2899 16.1622 30.8244 16.1289 30.2259C16.1289 29.6274 16.7939 29.1619 17.6252 29.1286C18.4564 29.0954 19.1547 29.5609 19.1879 30.1594" stroke="white" stroke-width="1.5" stroke-miterlimit="10" stroke-linecap="round" stroke-linejoin="round"/>
<path d="M11.6731 34.9475C10.8419 34.9808 10.1436 34.5153 10.1104 33.9168C10.1104 33.3183 10.7754 32.8528 11.6066 32.8195C12.4379 32.7863 13.1361 33.2518 13.1694 33.8503" stroke="white" stroke-width="1.5" stroke-miterlimit="10" stroke-linecap="round" stroke-linejoin="round"/>
<path d="M25.6052 32.2874C24.774 32.3206 24.0757 31.8551 24.0425 31.2566C24.0425 30.6581 24.7075 30.1926 25.5387 30.1594C26.37 30.1261 27.0682 30.5916 27.1015 31.1901" stroke="white" stroke-width="1.5" stroke-miterlimit="10" stroke-linecap="round" stroke-linejoin="round"/>
<path d="M5.68824 41.5643C4.85699 41.5975 4.15874 41.132 4.12549 40.5335C4.12549 39.935 4.79049 39.4695 5.62174 39.4362C6.45299 39.403 7.15124 39.8685 7.18449 40.467" stroke="white" stroke-width="1.5" stroke-miterlimit="10" stroke-linecap="round" stroke-linejoin="round"/>
<path d="M55.7629 22.1131C56.5941 22.1463 57.2923 21.6808 57.3256 21.0823C57.3256 20.4838 56.6606 20.0183 55.8293 19.9851C54.9981 19.9518 54.2999 20.4173 54.2666 21.0158" stroke="white" stroke-width="1.5" stroke-miterlimit="10" stroke-linecap="round" stroke-linejoin="round"/>
<path d="M51.3405 28.1646C52.1717 28.1978 52.87 27.7323 52.9032 27.1338C52.9032 26.5353 52.2382 26.0698 51.407 26.0366C50.5757 26.0033 49.8775 26.4689 49.8442 27.0674" stroke="white" stroke-width="1.5" stroke-miterlimit="10" stroke-linecap="round" stroke-linejoin="round"/>
<path d="M46.4528 24.1413C47.2175 23.8088 47.6498 23.0773 47.417 22.5453C47.1843 22.0133 46.353 21.847 45.5883 22.2128C44.8235 22.5453 44.3913 23.2768 44.624 23.8088" stroke="white" stroke-width="1.5" stroke-miterlimit="10" stroke-linecap="round" stroke-linejoin="round"/>
<path d="M40.7672 36.3439C41.399 36.9092 42.2302 37.0422 42.6292 36.6099C43.0282 36.1777 42.8287 35.3797 42.197 34.7812C41.5652 34.2159 40.734 34.0829 40.335 34.5152" stroke="white" stroke-width="1.5" stroke-miterlimit="10" stroke-linecap="round" stroke-linejoin="round"/>
<path d="M57.2921 32.8196C58.1234 32.8529 58.8216 32.3874 58.8549 31.7889C58.8549 31.1904 58.1899 30.7249 57.3586 30.6916C56.5274 30.6584 55.8291 31.1239 55.7959 31.7224" stroke="white" stroke-width="1.5" stroke-miterlimit="10" stroke-linecap="round" stroke-linejoin="round"/>
<path d="M46.7853 40.9991C47.5168 41.4314 48.348 41.3981 48.6473 40.8994C48.9465 40.4006 48.614 39.6359 47.8825 39.2036C47.151 38.7714 46.3198 38.8046 46.0205 39.3034" stroke="white" stroke-width="1.5" stroke-miterlimit="10" stroke-linecap="round" stroke-linejoin="round"/>
<path d="M42.9948 31.2566C43.826 31.2899 44.5243 30.8244 44.5575 30.2259C44.5575 29.6274 43.8925 29.1619 43.0613 29.1286C42.23 29.0954 41.5318 29.5609 41.4985 30.1594" stroke="white" stroke-width="1.5" stroke-miterlimit="10" stroke-linecap="round" stroke-linejoin="round"/>
<path d="M49.0129 34.9475C49.8441 34.9808 50.5424 34.5153 50.5756 33.9168C50.5756 33.3183 49.9106 32.8528 49.0794 32.8195C48.2481 32.7863 47.5499 33.2518 47.5166 33.8503" stroke="white" stroke-width="1.5" stroke-miterlimit="10" stroke-linecap="round" stroke-linejoin="round"/>
<path d="M35.0812 32.2874C35.9125 32.3206 36.6107 31.8551 36.644 31.2566C36.644 30.6581 35.979 30.1926 35.1477 30.1594C34.3165 30.1261 33.6182 30.5916 33.585 31.1901" stroke="white" stroke-width="1.5" stroke-miterlimit="10" stroke-linecap="round" stroke-linejoin="round"/>
<path d="M54.9982 41.5643C55.8295 41.5975 56.5277 41.132 56.561 40.5335C56.561 39.935 55.896 39.4695 55.0647 39.4362C54.2335 39.403 53.5352 39.8685 53.502 40.467" stroke="white" stroke-width="1.5" stroke-miterlimit="10" stroke-linecap="round" stroke-linejoin="round"/>
<path d="M1 48.6133H60.2515" stroke="white" stroke-width="1.5" stroke-miterlimit="10" stroke-linecap="round" stroke-linejoin="round"/>
<path d="M1 14H60.2515" stroke="white" stroke-width="1.5" stroke-miterlimit="10" stroke-linecap="round" stroke-linejoin="round"/>
<path d="M60.2515 17.5244H59.9855H52.1053C48.2815 17.5244 44.5575 19.0872 42.0637 21.9467C39.57 24.8062 35.3805 26.6682 30.6258 26.6682C25.871 26.6682 21.6815 24.8062 19.1878 21.9467C16.6608 19.0539 12.97 17.5244 9.14625 17.5244H1" stroke="white" stroke-width="1.5" stroke-miterlimit="10" stroke-linecap="round" stroke-linejoin="round"/>
<path d="M60.2515 45.0888H59.9855H52.1053C48.2815 45.0888 44.5575 43.5261 42.0637 40.6666C39.57 37.8071 35.3805 35.9451 30.6258 35.9451C25.871 35.9451 21.6815 37.8071 19.1878 40.6666C16.6608 43.5593 12.97 45.0888 9.14625 45.0888H1" stroke="white" stroke-width="1.5" stroke-miterlimit="10" stroke-linecap="round" stroke-linejoin="round"/>
<path d="M9.14648 45.0889H21.316" stroke="white" stroke-width="1.5" stroke-miterlimit="10" stroke-linecap="round" stroke-linejoin="round"/>
<path d="M52.1054 45.0889H40.3682" stroke="white" stroke-width="1.5" stroke-miterlimit="10" stroke-linecap="round" stroke-linejoin="round"/>
<path d="M9.14648 17.5244H21.316" stroke="white" stroke-width="1.5" stroke-miterlimit="10" stroke-linecap="round" stroke-linejoin="round"/>
<path d="M52.1054 17.5244H40.3682" stroke="white" stroke-width="1.5" stroke-miterlimit="10" stroke-linecap="round" stroke-linejoin="round"/>
</svg>
