<svg width="62" height="62" viewBox="0 0 62 62" fill="none" xmlns="http://www.w3.org/2000/svg">
<path d="M34.0717 56.7418H13.7377C11.8353 56.7418 10.0264 55.775 9.12198 54.0909C8.90367 53.6855 8.71654 53.2177 8.62298 52.7499C8.43586 51.939 8.49823 51.1905 8.62298 50.5668C8.84129 49.5376 9.40266 48.6332 10.12 47.8847L23.3121 34.1624C24.123 33.2891 24.8091 32.3223 25.3081 31.2308C25.9318 29.8585 26.2749 28.3616 26.2749 26.8334V26.2721V22.6543V18.9119V15.8244V12.0819V10.0859" stroke="white" stroke-width="1.5" stroke-miterlimit="10" stroke-linecap="round" stroke-linejoin="round"/>
<path d="M31.4519 10.0547H26.3061H23.9358C23.3433 10.0547 22.8755 9.58693 22.8755 8.99437V6.7801C22.8755 6.18754 23.3433 5.71973 23.9358 5.71973H34.1964" stroke="white" stroke-width="1.5" stroke-miterlimit="10" stroke-linecap="round" stroke-linejoin="round"/>
<path d="M28.52 14.1401H26.3057" stroke="white" stroke-width="1.5" stroke-miterlimit="10" stroke-linecap="round" stroke-linejoin="round"/>
<path d="M30.36 18.9119H26.3057" stroke="white" stroke-width="1.5" stroke-miterlimit="10" stroke-linecap="round" stroke-linejoin="round"/>
<path d="M28.52 24.4944H26.3057" stroke="white" stroke-width="1.5" stroke-miterlimit="10" stroke-linecap="round" stroke-linejoin="round"/>
<path d="M34.0716 56.7418C35.2879 48.7267 54.0002 48.446 54.0002 39.9008C54.0002 31.0748 34.0093 31.0748 34.0093 22.2489C34.0093 13.8907 51.8795 13.4541 53.8443 5.93799" stroke="white" stroke-width="1.5" stroke-miterlimit="10" stroke-linecap="round" stroke-linejoin="round"/>
<path d="M48.9478 51.0969C51.5675 52.5627 53.5946 54.278 53.9689 56.7418" stroke="white" stroke-width="1.5" stroke-miterlimit="10" stroke-linecap="round" stroke-linejoin="round"/>
<path d="M39.2799 33.3203C35.9117 35.0356 34.0093 36.6885 34.0093 39.9008C34.0093 42.9883 36.4419 44.9843 39.623 46.6684" stroke="white" stroke-width="1.5" stroke-miterlimit="10" stroke-linecap="round" stroke-linejoin="round"/>
<path d="M48.4482 15.5125C51.5981 17.1966 53.9995 19.1925 53.9995 22.2489C53.9995 25.0869 51.9412 27.0205 49.1344 28.611" stroke="white" stroke-width="1.5" stroke-miterlimit="10" stroke-linecap="round" stroke-linejoin="round"/>
<path d="M34.1958 5.93799C34.7572 8.15227 36.7531 9.74281 39.2169 11.115" stroke="white" stroke-width="1.5" stroke-miterlimit="10" stroke-linecap="round" stroke-linejoin="round"/>
<path d="M53.8752 5.68848H34.1338" stroke="white" stroke-width="1.5" stroke-miterlimit="10" stroke-linecap="round" stroke-linejoin="round"/>
<path d="M35.2568 18.7559H42.9289" stroke="white" stroke-width="1.5" stroke-miterlimit="10" stroke-linecap="round" stroke-linejoin="round"/>
<path d="M35.9429 25.6482H52.5656" stroke="white" stroke-width="1.5" stroke-miterlimit="10" stroke-linecap="round" stroke-linejoin="round"/>
<path d="M53.189 37.0315H34.7886" stroke="white" stroke-width="1.5" stroke-miterlimit="10" stroke-linecap="round" stroke-linejoin="round"/>
<path d="M52.5651 43.6121H45.6416" stroke="white" stroke-width="1.5" stroke-miterlimit="10" stroke-linecap="round" stroke-linejoin="round"/>
<path d="M53.9375 56.7417H34.0713" stroke="white" stroke-width="1.5" stroke-miterlimit="10" stroke-linecap="round" stroke-linejoin="round"/>
<path d="M32.4499 50.8785C32.4499 52.7809 30.8906 54.3403 28.9881 54.3403C27.0857 54.3403 25.5264 52.7809 25.5264 50.8785C25.5264 48.9761 27.0857 47.4167 28.9881 47.4167C30.9217 47.4479 32.4499 48.9761 32.4499 50.8785Z" stroke="white" stroke-width="1.5" stroke-miterlimit="10" stroke-linecap="round" stroke-linejoin="round"/>
<path d="M21.7216 45.9821C21.7216 46.9489 20.9419 47.6974 20.0063 47.6974C19.0707 47.6974 18.291 46.9177 18.291 45.9821C18.291 45.0153 19.0707 44.2668 20.0063 44.2668C20.9419 44.2668 21.7216 45.0153 21.7216 45.9821Z" stroke="white" stroke-width="1.5" stroke-miterlimit="10" stroke-linecap="round" stroke-linejoin="round"/>
<path d="M15.7645 52.6874C15.7645 53.3735 15.2031 53.9349 14.517 53.9349C13.8309 53.9349 13.2695 53.3735 13.2695 52.6874C13.2695 52.0013 13.8309 51.4399 14.517 51.4399C15.2031 51.4399 15.7645 52.0013 15.7645 52.6874Z" stroke="white" stroke-width="1.5" stroke-miterlimit="10" stroke-linecap="round" stroke-linejoin="round"/>
<path d="M29.6405 41.689C30.5783 40.7512 30.5783 39.2307 29.6405 38.2929C28.7027 37.3552 27.1822 37.3551 26.2444 38.2929C25.3066 39.2307 25.3066 40.7512 26.2444 41.689C27.1822 42.6268 28.7027 42.6268 29.6405 41.689Z" stroke="white" stroke-width="1.5" stroke-miterlimit="10" stroke-linecap="round" stroke-linejoin="round"/>
<path d="M46.6712 19.442C46.2969 20.44 45.1742 20.939 44.1762 20.5647C43.1782 20.1905 42.6792 19.0677 43.0535 18.0697C43.4277 17.0718 44.5504 16.5728 45.5484 16.947C46.5464 17.3524 47.0454 18.444 46.6712 19.442Z" stroke="white" stroke-width="1.5" stroke-miterlimit="10" stroke-linecap="round" stroke-linejoin="round"/>
<path d="M45.5174 44.2982C45.1431 45.2962 44.0204 45.7952 43.0224 45.4209C42.0244 45.0467 41.5254 43.9239 41.8996 42.9259C42.2739 41.928 43.3966 41.429 44.3946 41.8032C45.3926 42.2086 45.8916 43.3002 45.5174 44.2982Z" stroke="white" stroke-width="1.5" stroke-miterlimit="10" stroke-linecap="round" stroke-linejoin="round"/>
</svg>
