<svg width="62" height="62" viewBox="0 0 62 62" fill="none" xmlns="http://www.w3.org/2000/svg">
<path d="M24.9625 19.0623C24.2975 18.3973 23.3333 17.9651 22.369 18.0648C21.7373 18.1313 21.2053 18.4638 20.7398 18.8628C19.6758 19.8271 19.709 21.4231 20.3075 22.6201C20.64 23.2518 21.1388 23.7506 21.6375 24.2161C22.2693 24.8146 22.9675 25.3466 23.6325 25.9119C24.0648 26.2776 24.9293 27.0091 24.9293 26.9758C24.9293 26.9758 25.7938 26.2444 26.226 25.9119C26.891 25.3466 27.5893 24.8146 28.221 24.2161C28.7198 23.7173 29.2518 23.2518 29.551 22.6201C30.1495 21.4231 30.1828 19.8271 29.1188 18.8628C28.6533 18.4306 28.1213 18.1313 27.4895 18.0648C26.5918 17.9651 25.5943 18.3973 24.9625 19.0623Z" stroke="white" stroke-width="1.5" stroke-miterlimit="10" stroke-linecap="round" stroke-linejoin="round"/>
<path d="M37.7636 7.19199V4H23.2998V7.19199" stroke="white" stroke-width="1.5" stroke-miterlimit="10" stroke-linecap="round" stroke-linejoin="round"/>
<path d="M23.2998 7.19189C23.2998 9.78539 25.5275 11.8801 28.254 11.8801H32.8425C35.569 11.8801 37.7968 9.78539 37.7968 7.19189" stroke="white" stroke-width="1.5" stroke-miterlimit="10" stroke-linecap="round" stroke-linejoin="round"/>
<path d="M20.9391 9.32007H15.2866V52.6781H46.4419V9.32007H40.1244" stroke="white" stroke-width="1.5" stroke-miterlimit="10" stroke-linecap="round" stroke-linejoin="round"/>
<path d="M27.9883 7.49121H33.2085" stroke="white" stroke-width="1.5" stroke-miterlimit="10" stroke-linecap="round" stroke-linejoin="round"/>
<path d="M23.3 4H12.9925C11.33 4 10 5.33 10 6.9925V55.0388C10 56.7013 11.33 58.0313 12.9925 58.0313H48.304C49.9665 58.0313 51.2965 56.7013 51.2965 55.0388V6.9925C51.2965 5.33 49.9665 4 48.304 4H37.7637" stroke="white" stroke-width="1.5" stroke-miterlimit="10" stroke-linecap="round" stroke-linejoin="round"/>
<path d="M38.3951 21.159L38.2344 43.6028L42.5569 43.6337L42.7176 21.19L38.3951 21.159Z" stroke="white" stroke-width="1.5" stroke-miterlimit="10" stroke-linecap="round" stroke-linejoin="round"/>
<path d="M38.3955 21.1569L40.59 14.4736L42.718 21.1901" stroke="white" stroke-width="1.5" stroke-miterlimit="10" stroke-linecap="round" stroke-linejoin="round"/>
<path d="M38.229 43.6006L38.1958 46.2273C38.1958 47.4243 39.1601 48.3886 40.3571 48.4218C41.5541 48.4218 42.5183 47.4576 42.5515 46.2606L42.5848 43.6338" stroke="white" stroke-width="1.5" stroke-miterlimit="10" stroke-linecap="round" stroke-linejoin="round"/>
<path d="M23.9649 34.058V36.452H19.7754V32.3955H21.5376" stroke="white" stroke-width="1.5" stroke-miterlimit="10" stroke-linecap="round" stroke-linejoin="round"/>
<path d="M23.9648 36.4519H33.0088" stroke="white" stroke-width="1.5" stroke-miterlimit="10" stroke-linecap="round" stroke-linejoin="round"/>
<path d="M23.9649 43.6342V46.0282H19.7754V41.9717H21.5376" stroke="white" stroke-width="1.5" stroke-miterlimit="10" stroke-linecap="round" stroke-linejoin="round"/>
<path d="M23.9648 46.0283H33.0088" stroke="white" stroke-width="1.5" stroke-miterlimit="10" stroke-linecap="round" stroke-linejoin="round"/>
</svg>
