<svg width="86" height="86" viewBox="0 0 86 86" fill="none" xmlns="http://www.w3.org/2000/svg">
<circle cx="43" cy="43" r="43" fill="white"/>
<path d="M38.3351 31.4588C39.4571 31.4588 40.9371 32.3064 42.466 33.7483C41.7066 34.5243 40.9487 35.4324 40.2196 36.4519C38.9696 36.5736 37.8018 36.7762 36.748 37.0464C36.1251 34.4106 36.3169 32.3393 37.4588 31.6804C37.7165 31.5309 38.0103 31.4588 38.3351 31.4588Z" fill="#245083"/>
<path d="M49.2537 37.0468C49.3507 36.6302 49.428 36.2238 49.4846 35.8299C49.7887 33.7165 49.4433 32.2062 48.5412 31.6804C47.3986 31.0211 45.5084 31.8916 43.536 33.7503C44.2947 34.5259 45.0519 35.4333 45.7804 36.4519C47.031 36.5737 48.1994 36.7764 49.2537 37.0468Z" fill="#245083"/>
<path d="M41.9536 41.2732C41.9536 40.6959 42.4227 40.2268 43 40.2268C43.5773 40.2268 44.0464 40.6959 44.0464 41.2732C44.0464 41.8505 43.5773 42.3196 43 42.3196C42.4227 42.3196 41.9536 41.8505 41.9536 41.2732Z" fill="#245083"/>
<path fill-rule="evenodd" clip-rule="evenodd" d="M38.2574 41.2773C38.5834 40.5793 38.9501 39.8733 39.3557 39.1701C39.7612 38.4683 40.1885 37.7989 40.6293 37.1685C41.3957 37.1021 42.1894 37.067 43 37.067C43.811 37.067 44.605 37.1022 45.3718 37.1686C45.8122 37.799 46.2392 38.4684 46.6443 39.1701C47.0507 39.8734 47.418 40.5796 47.7444 41.2779C47.4157 41.978 47.0478 42.6823 46.6443 43.3815C46.24 44.0812 45.814 44.7488 45.3746 45.3775C44.6069 45.4441 43.812 45.4794 43 45.4794C42.1877 45.4794 41.3926 45.4441 40.6247 45.3775C40.1854 44.7487 39.7596 44.081 39.3557 43.3815C38.95 42.6794 38.5834 41.9744 38.2574 41.2773ZM43 43.067C42.0103 43.067 41.2062 42.2629 41.2062 41.2732C41.2062 40.2835 42.0103 39.4794 43 39.4794C43.9897 39.4794 44.7938 40.2835 44.7938 41.2732C44.7938 42.2629 43.9897 43.067 43 43.067Z" fill="#245083"/>
<path d="M37.8597 40.3835C37.4804 39.4851 37.1716 38.6081 36.9373 37.7763C37.7746 37.5633 38.6884 37.3921 39.6559 37.2712C39.3328 37.7593 39.0171 38.2692 38.7114 38.799C38.4051 39.3296 38.1211 39.8588 37.8597 40.3835Z" fill="#245083"/>
<path d="M36.2169 44.571C36.5094 43.5259 36.9168 42.4162 37.4347 41.2758C36.916 40.1336 36.5082 39.0223 36.2156 37.9758C33.6209 38.7539 31.9227 39.9548 31.9227 41.2732C31.9227 42.5918 33.6215 43.793 36.2169 44.571Z" fill="#245083"/>
<path d="M36.9404 44.7709C37.7758 44.9833 38.6872 45.1541 39.6522 45.2747C39.3304 44.7883 39.0159 44.2803 38.7114 43.7526C38.4055 43.2226 38.1217 42.6941 37.8606 42.17C37.4825 43.0662 37.1745 43.941 36.9404 44.7709Z" fill="#245083"/>
<path d="M36.7509 45.5008C37.8029 45.7703 38.9684 45.9725 40.2158 46.0942C40.9454 47.1147 41.7041 48.024 42.4643 48.801C40.4918 50.6599 38.6014 51.5305 37.4588 50.8711C36.3165 50.209 36.1268 48.137 36.7509 45.5008Z" fill="#245083"/>
<path d="M43 46.2268C43.612 46.2268 44.2118 46.2083 44.7965 46.1724C44.2079 46.95 43.6026 47.6558 42.9993 48.2745C42.396 47.6557 41.7908 46.9498 41.2025 46.1724C41.7875 46.2082 42.3876 46.2268 43 46.2268Z" fill="#245083"/>
<path d="M43.535 48.8017C44.2955 48.0245 45.0544 47.115 45.7842 46.0941C47.0323 45.9724 48.1984 45.7701 49.2509 45.5003C49.8751 48.1384 49.6838 50.2118 48.5412 50.8711C47.3962 51.5302 45.5059 50.6591 43.535 48.8017Z" fill="#245083"/>
<path d="M47.2887 43.7526C46.9841 44.2803 46.6696 44.7883 46.3478 45.2747C47.3134 45.154 48.2255 44.983 49.0614 44.7705C48.8272 43.94 48.5188 43.0645 48.1402 42.1678C47.8769 42.697 47.5926 43.2266 47.2887 43.7526Z" fill="#245083"/>
<path d="M48.5647 41.2748C49.0828 42.4155 49.4902 43.5256 49.7828 44.571C52.3783 43.793 54.0773 42.5918 54.0773 41.2732C54.0773 39.9545 52.3783 38.7533 49.7826 37.9753C49.485 39.0383 49.0744 40.1508 48.5647 41.2748Z" fill="#245083"/>
<path d="M49.0662 37.7772C48.8304 38.6205 48.5198 39.4972 48.1423 40.3874C47.8803 39.8614 47.5957 39.3309 47.2887 38.799C46.9829 38.2692 46.6672 37.7593 46.3441 37.2713C47.313 37.3922 48.228 37.5638 49.0662 37.7772Z" fill="#245083"/>
<path d="M41.2076 36.3737C41.7953 35.5979 42.3995 34.8936 43.0017 34.276C43.6034 34.8937 44.207 35.598 44.794 36.3738C44.2101 36.3381 43.6112 36.3196 43 36.3196C42.3894 36.3196 41.791 36.3381 41.2076 36.3737Z" fill="#245083"/>
<path fill-rule="evenodd" clip-rule="evenodd" d="M43 56.1701C51.2273 56.1701 57.8969 49.5005 57.8969 41.2732C57.8969 33.0459 51.2273 26.3763 43 26.3763C34.7727 26.3763 28.1031 33.0459 28.1031 41.2732C28.1031 49.5005 34.7727 56.1701 43 56.1701ZM31.1753 41.2732C31.1753 42.9506 33.0692 44.4082 36.029 45.3C35.3221 48.3078 35.6376 50.6753 37.0876 51.5155C37.4485 51.7268 37.8608 51.8248 38.3041 51.8248C39.6433 51.8248 41.3095 50.9153 43 49.3265C44.6905 50.9153 46.3568 51.8248 47.6959 51.8248C48.1392 51.8248 48.5516 51.7217 48.9124 51.5155C50.3627 50.6783 50.678 48.3096 49.9707 45.3001C52.9307 44.4083 54.8248 42.9507 54.8248 41.2732C54.8248 39.5957 52.9307 38.1381 49.9708 37.2464C50.0764 36.7985 50.1604 36.3614 50.2217 35.9382C50.5773 33.4691 50.1134 31.7268 48.9124 31.0361C47.4593 30.1991 45.2512 31.1088 43 33.2245C40.7488 31.1088 38.5407 30.1991 37.0876 31.0361C35.6383 31.8758 35.3224 34.2412 36.0279 37.2468C33.0687 38.1386 31.1753 39.596 31.1753 41.2732Z" fill="#245083"/>
<path fill-rule="evenodd" clip-rule="evenodd" d="M51.5361 23.5722V16.0722C51.5502 16.0707 51.5642 16.0693 51.5783 16.068C51.6225 16.064 51.6667 16.0609 51.7109 16.0582C51.7271 16.0572 51.7433 16.0562 51.7595 16.0553C51.783 16.054 51.8064 16.0528 51.8299 16.0516C53.1083 15.9433 54.134 14.8918 54.134 13.6082V13.5619C54.1289 12.2784 53.1083 11.2268 51.8299 11.1186C45.9485 10.6186 40.0464 10.6186 34.165 11.1186C32.8866 11.2268 31.8608 12.2784 31.8608 13.5619V13.6082C31.866 14.8918 32.8866 15.9433 34.165 16.0516C34.2629 16.0619 34.3608 16.067 34.4588 16.0722V23.5722C27.8866 26.7474 23.3505 33.4845 23.3505 41.2732C23.3505 52.1237 32.1495 60.9227 43 60.9227C53.8505 60.9227 62.6495 52.1237 62.6495 41.2732C62.6495 33.4845 58.1134 26.7474 51.5361 23.5722ZM50.6701 25.3608L49.5464 24.8196V16.2629L42.8866 16.4691L36.4485 16.2629V24.8196L35.3247 25.3608C29.2577 28.2938 25.3402 34.5412 25.3402 41.2732C25.3402 51.0103 33.2629 58.933 43 58.933C52.7371 58.933 60.6598 51.0155 60.6598 41.2732C60.6598 34.5412 56.7423 28.2938 50.6701 25.3608Z" fill="#245083"/>
<path d="M61.0825 16.3402C61.2401 18.2946 62.7312 19.9433 65.0258 20.2844C65.6858 20.9771 66.313 21.7009 66.9058 22.4536C65.1641 21.3808 63.3693 21.8626 62.1907 23.0825C63.5304 24.5842 65.8 24.9879 67.8827 23.7643C68.1409 24.1307 68.3914 24.5032 68.634 24.8814C69.0433 25.5209 69.4273 26.1734 69.7857 26.8377C68.0713 25.2553 65.9794 25.4273 64.433 26.5515C65.611 28.4639 68.0379 29.3442 70.5646 28.3856C71.1335 29.6013 71.6199 30.8512 72.0216 32.1275C70.4377 29.8743 68.0144 29.6148 66.0361 30.5825C66.9678 32.9367 69.4961 34.3807 72.4936 33.7919C72.8358 35.1445 73.085 36.5224 73.2386 37.9169C72.086 35.1977 69.6058 34.3806 67.3093 34.9536C67.7666 37.633 70.0985 39.7084 73.3848 39.7465C73.41 40.2538 73.4227 40.7629 73.4227 41.2732C73.4227 42.2262 73.3781 43.1765 73.2897 44.1206C72.6922 40.8669 70.1822 39.3934 67.5516 39.4845C67.4269 42.4906 69.4863 45.2797 73.0443 46.066C72.8881 47.0481 72.6841 48.0205 72.433 48.9794C72.3814 49.1752 72.5 49.3814 72.701 49.433C72.7319 49.4381 72.7629 49.4433 72.7938 49.4433C72.9587 49.4433 73.1082 49.335 73.1649 49.1701C73.425 48.176 73.6353 47.1678 73.7954 46.1499C78.1922 46.1914 80.1722 43.3152 80.067 40.2783C77.5703 40.1748 75.2232 41.578 74.049 44.095C74.133 43.1608 74.1752 42.2208 74.1752 41.2783C74.1752 40.7412 74.1615 40.2055 74.1342 39.6715C78.0068 38.8695 79.2055 35.9608 78.5412 33.299C76.3543 33.6722 74.5697 35.2943 73.9669 37.6648C73.8063 36.2786 73.5534 34.9089 73.2107 33.5636C76.574 32.0748 77.101 29.1845 75.9845 26.8918C74.0933 27.6403 72.7895 29.419 72.6551 31.6436C72.2562 30.415 71.7804 29.211 71.2296 28.0383C73.9256 26.209 73.9392 23.6006 72.6031 21.7629C71.0684 22.7082 70.1984 24.4578 70.41 26.4178C70.0536 25.7617 69.6729 25.1168 69.268 24.4845C69.0125 24.0856 68.7483 23.6931 68.4758 23.3072C70.5452 21.2753 70.1484 18.9755 68.6804 17.5619C67.4965 18.6181 66.995 20.2523 67.4354 21.9172C66.8261 21.1486 66.1816 20.4097 65.5035 19.7026C65.0359 17.0232 63.028 16.0335 61.0825 16.3402Z" fill="#245083"/>
<path d="M5.93298 40.2783C8.43952 40.1744 10.7952 41.589 11.9647 44.1247C11.8784 43.1784 11.835 42.2268 11.835 41.2732C11.835 40.7385 11.8486 40.2051 11.8757 39.6736C7.99524 38.8745 6.79397 35.9631 7.45876 33.299C9.65383 33.6736 11.4435 35.3063 12.0397 37.6912C12.1998 36.2973 12.4532 34.9198 12.7974 33.5672C9.4268 32.0795 8.89811 29.1863 10.0155 26.8918C11.913 27.6428 13.2193 29.431 13.3463 31.6662C13.7459 30.4312 14.2233 29.221 14.7763 28.0423C12.0744 26.2128 12.0598 23.602 13.3969 21.7629C14.9361 22.711 15.8067 24.4681 15.5881 26.4352C15.9479 25.7713 16.3328 25.1189 16.7423 24.4794C16.9959 24.0835 17.2579 23.694 17.5281 23.311C15.4542 21.2782 15.8507 18.9764 17.3196 17.5619C18.5062 18.6205 19.0073 20.2597 18.5615 21.9286C19.1711 21.1585 19.8162 20.4182 20.4953 19.7094C20.9607 17.0248 22.9704 16.0333 24.9175 16.3402C24.7599 18.2933 23.2708 19.9411 20.9787 20.2838C20.3193 20.9755 19.6929 21.6979 19.1014 22.4491C20.8409 21.3822 22.6323 21.8643 23.8093 23.0825C22.4703 24.5833 20.2026 24.9874 18.1208 23.7664C17.8648 24.1304 17.6166 24.5004 17.3763 24.8763C16.9683 25.5134 16.5854 26.1635 16.2279 26.8252C17.9397 25.2562 20.0247 25.4303 21.567 26.5515C20.3899 28.4625 17.9657 29.3429 15.4411 28.3878C14.8748 29.5979 14.3903 30.8417 13.9897 32.1114C15.5738 29.8731 17.9903 29.6171 19.9639 30.5825C19.0327 32.9352 16.5071 34.3789 13.5121 33.793C13.1712 35.1401 12.9225 36.5119 12.7687 37.8997C13.9244 35.1943 16.399 34.3818 18.6907 34.9536C18.2336 37.6316 15.904 39.7062 12.6204 39.7464C12.5952 40.2539 12.5825 40.7629 12.5825 41.2732C12.5825 42.2205 12.626 43.1658 12.713 44.1056C13.3155 40.8624 15.8218 39.3935 18.4485 39.4845C18.573 42.4896 16.515 45.2779 12.959 46.0652C13.115 47.0468 13.3193 48.0195 13.5722 48.9794C13.6237 49.1804 13.5051 49.3814 13.3041 49.433C13.2732 49.4433 13.2371 49.4433 13.2062 49.4433C13.0412 49.4433 12.8917 49.335 12.8454 49.165C12.5861 48.1716 12.3762 47.1652 12.2162 46.1498C7.81126 46.1964 5.82766 43.3179 5.93298 40.2783Z" fill="#245083"/>
<path fill-rule="evenodd" clip-rule="evenodd" d="M15.1237 50.9588L19.9845 49.2371L20.6289 51.0619C20.7629 51.433 20.8093 51.7732 20.768 52.0722C20.7268 52.3711 20.6134 52.6289 20.4278 52.8402C20.2423 53.0515 19.9897 53.2165 19.6804 53.3247C19.3711 53.433 19.0773 53.4639 18.799 53.4124C18.5258 53.3608 18.2783 53.2268 18.0619 53.0155C18.0378 52.992 18.0143 52.9675 17.9914 52.9419L16.4381 54.6753L16.0928 53.6907L17.5302 52.1079L17.2138 51.2121L15.4381 51.8402L15.1237 50.9588ZM18.232 51.7629L17.9456 50.9532L19.5619 50.3815L19.8454 51.1907C19.9227 51.4124 19.9536 51.6031 19.9381 51.7629C19.9227 51.9278 19.866 52.067 19.768 52.1753C19.6701 52.2835 19.5309 52.3711 19.3608 52.433C19.1907 52.4949 19.0309 52.5103 18.8918 52.4845C18.7526 52.4588 18.6237 52.3866 18.5155 52.268C18.4021 52.1495 18.3093 51.9794 18.232 51.7629Z" fill="#245083"/>
<path d="M21.4742 53.232L16.9845 55.7681L18.6495 58.7113L19.3299 58.3247L18.1289 56.201L19.3557 55.5103L20.4588 57.4639L21.1392 57.0773L20.0361 55.1237L21.2526 54.433L22.4433 56.5412L23.1237 56.1546L21.4742 53.232Z" fill="#245083"/>
<path d="M24.9381 61.1546L24.3299 60.433C24.433 60.3144 24.5052 60.1856 24.5516 60.0567C24.5979 59.9227 24.6186 59.7886 24.6134 59.6546C24.6082 59.5206 24.5773 59.3866 24.5206 59.2526C24.4639 59.1185 24.3866 58.9948 24.2835 58.8711C24.1031 58.6546 23.8918 58.5103 23.6443 58.4381C23.3969 58.3608 23.134 58.366 22.8454 58.4433C22.5619 58.5206 22.268 58.6856 21.9742 58.9381C21.6701 59.1907 21.4588 59.4536 21.3299 59.7216C21.201 59.9897 21.1546 60.2474 21.1907 60.5051C21.2268 60.7577 21.3299 60.9897 21.5103 61.2062C21.6082 61.3247 21.7165 61.4227 21.8351 61.5C21.9536 61.5773 22.0773 61.6288 22.2113 61.6598C22.3454 61.6907 22.4794 61.6959 22.6134 61.6804C22.7526 61.6598 22.8866 61.6134 23.0206 61.5412L23.6237 62.2629C23.4124 62.3917 23.1907 62.4845 22.9485 62.5309C22.7113 62.5825 22.4639 62.5876 22.2217 62.5464C21.9794 62.5051 21.7371 62.4227 21.5052 62.2886C21.2732 62.1546 21.0567 61.969 20.8608 61.7371C20.567 61.3917 20.3866 61.0154 20.3196 60.6082C20.2526 60.201 20.3041 59.7938 20.4742 59.3814C20.6443 58.9691 20.9433 58.5876 21.366 58.2268C21.7938 57.8711 22.2217 57.6443 22.6546 57.5464C23.0876 57.4484 23.5 57.4691 23.8918 57.6082C24.2835 57.7474 24.6186 57.9845 24.9124 58.3299C25.0979 58.5515 25.2371 58.7783 25.3351 59.0206C25.433 59.2629 25.4845 59.5051 25.4897 59.7526C25.4949 60 25.4536 60.2422 25.3608 60.4845C25.2732 60.7165 25.134 60.9433 24.9381 61.1546Z" fill="#245083"/>
<path fill-rule="evenodd" clip-rule="evenodd" d="M27.5155 66.1546C27.9227 65.9691 28.299 65.6598 28.6392 65.2216C28.9794 64.7835 29.1907 64.3453 29.2783 63.9072C29.3557 63.4691 29.3196 63.0567 29.1701 62.6701C29.0155 62.2835 28.7629 61.9536 28.4072 61.6752C28.0515 61.3969 27.6701 61.2319 27.2577 61.1752C26.8454 61.1185 26.4381 61.1804 26.0309 61.366C25.6237 61.5515 25.2474 61.8608 24.9072 62.299C24.567 62.7371 24.3505 63.1753 24.2732 63.6134C24.1959 64.0515 24.232 64.4639 24.3814 64.8505C24.5309 65.2371 24.7835 65.567 25.1392 65.8453C25.4948 66.1237 25.8763 66.2887 26.2886 66.3454C26.701 66.4021 27.1082 66.3402 27.5155 66.1546ZM28.366 63.7474C28.2938 64.0361 28.1392 64.3299 27.8969 64.6392C27.6546 64.9484 27.4021 65.1701 27.1443 65.3093C26.8814 65.4485 26.6237 65.5051 26.3711 65.4794C26.1186 65.4587 25.8814 65.3608 25.6598 65.1856C25.4381 65.0103 25.2835 64.8041 25.201 64.5618C25.1185 64.3196 25.1082 64.0567 25.1804 63.768C25.2526 63.4794 25.4072 63.1855 25.6495 62.8763C25.8866 62.567 26.1392 62.3453 26.4021 62.2062C26.6649 62.067 26.9227 62.0103 27.1753 62.0361C27.4278 62.0567 27.6649 62.1546 27.8866 62.3299C28.1082 62.5051 28.2629 62.7113 28.3454 62.9536C28.4278 63.1959 28.4381 63.4588 28.366 63.7474Z" fill="#245083"/>
<path d="M30.5773 63.4536L31.6134 63.933L31.433 67.9691L31.4897 67.9948L34.4485 65.2474L35.4845 65.7268L33.3196 70.4072L32.5052 70.0309L33.9949 66.8144L33.9536 66.7938L31.1804 69.3969L30.5722 69.1134L30.7629 65.3093L30.7217 65.2887L29.232 68.5103L28.4175 68.134L30.5773 63.4536Z" fill="#245083"/>
<path d="M37.1186 66.0928L35.9949 65.8866L35.067 70.9433L35.9485 71.1082L36.5928 67.6186L36.6392 67.6289L37.4021 71.366L38.0619 71.4897L40.1031 68.2783L40.1495 68.2887L39.5052 71.7732L40.3866 71.9381L41.3196 66.866L40.1959 66.6598L38.0103 70.0567L37.9485 70.0464L37.1186 66.0928Z" fill="#245083"/>
<path d="M42.0361 71.9588L41.9175 66.8041L45.268 66.7268L45.2887 67.5103L42.8711 67.5619L42.9021 68.9639L45.1495 68.9124L45.1701 69.6959L42.9227 69.7474L42.9536 71.1546L45.3917 71.0979L45.4124 71.8814L42.0361 71.9588Z" fill="#245083"/>
<path d="M51.067 70.866L50.0051 65.8196L49.0979 66.0103L49.8247 69.4484L49.7784 69.4588L46.6804 66.5206L45.8608 66.6907L46.9227 71.7371L47.835 71.5464L47.1083 68.1082L47.1495 68.0979L50.2526 71.0361L51.067 70.866Z" fill="#245083"/>
<path fill-rule="evenodd" clip-rule="evenodd" d="M54.2526 69.6598L52.6495 70.3557L50.5928 65.6288L52.2268 64.9175C52.6959 64.7113 53.1392 64.634 53.5619 64.6752C53.9794 64.7165 54.3608 64.8763 54.6959 65.1495C55.0309 65.4227 55.3041 65.8041 55.5206 66.2938C55.7371 66.7886 55.8299 67.2474 55.799 67.6804C55.7732 68.1134 55.6289 68.5 55.366 68.8402C55.1031 69.1752 54.7319 69.4484 54.2526 69.6598ZM53.1804 69.2422L53.8866 68.9381C54.2165 68.7938 54.4639 68.6134 54.634 68.3969C54.799 68.1804 54.8866 67.9278 54.8917 67.6392C54.8969 67.3505 54.8196 67.0257 54.6649 66.6649C54.5051 66.3041 54.3196 66.0258 54.1082 65.835C53.8917 65.6443 53.6495 65.5361 53.3814 65.5103C53.1134 65.4845 52.8196 65.5412 52.5 65.6804L51.768 66L53.1804 69.2422Z" fill="#245083"/>
<path d="M54.9227 63.634L57.8093 67.9072L60.6031 66.0206L60.1649 65.3711L58.1443 66.7371L57.3557 65.5722L59.2165 64.3144L58.7783 63.6649L56.9175 64.9227L56.134 63.7629L58.1392 62.4072L57.701 61.7577L54.9227 63.634Z" fill="#245083"/>
<path fill-rule="evenodd" clip-rule="evenodd" d="M63.0412 63.8608L61.7938 65.0876L58.1804 61.4072L59.4536 60.1598C59.8196 59.799 60.2062 59.567 60.6134 59.4536C61.0206 59.3402 61.4278 59.3557 61.8402 59.4897C62.2526 59.6237 62.6443 59.8866 63.0206 60.268C63.3969 60.6495 63.6495 61.0515 63.7784 61.4639C63.9072 61.8763 63.9124 62.2886 63.7887 62.701C63.6649 63.1134 63.4124 63.4949 63.0412 63.8608ZM61.8918 63.8557L62.4381 63.3196C62.6959 63.067 62.8608 62.8093 62.9433 62.5464C63.0206 62.2835 63.0103 62.0155 62.9175 61.7474C62.8196 61.4742 62.634 61.1959 62.3557 60.9175C62.0773 60.634 61.8041 60.4433 61.5361 60.3454C61.268 60.2423 61.0051 60.2268 60.7423 60.3041C60.4845 60.3763 60.2268 60.5361 59.9794 60.7783L59.4124 61.335L61.8918 63.8557Z" fill="#245083"/>
<path fill-rule="evenodd" clip-rule="evenodd" d="M62.5 56.7216L66.9278 59.3608L68.0103 57.5773C68.2113 57.2371 68.3299 56.9278 68.3557 56.6392C68.3814 56.3557 68.3402 56.1031 68.2216 55.8814C68.1031 55.6598 67.9278 55.4845 67.701 55.3454C67.4742 55.2113 67.2526 55.1392 67.0412 55.1392C66.8247 55.134 66.634 55.1804 66.4587 55.2732C66.2887 55.366 66.1495 55.4897 66.0464 55.6392L66.0051 55.6134C66.0567 55.4485 66.0773 55.2835 66.067 55.1186C66.0567 54.9536 66.0103 54.799 65.9227 54.6546C65.835 54.5052 65.701 54.3814 65.5206 54.2732C65.2989 54.1443 65.0721 54.0773 64.835 54.0825C64.5979 54.0825 64.366 54.1598 64.1392 54.3144C63.9124 54.4691 63.701 54.7062 63.5103 55.0258L62.5 56.7216ZM65.335 56.2423L64.8608 57.0361L63.6392 56.3093L64.1237 55.5C64.2629 55.2629 64.4278 55.1186 64.6082 55.0619C64.7886 55.0051 64.9691 55.0309 65.1392 55.134C65.268 55.2113 65.3608 55.3144 65.4175 55.433C65.4742 55.5515 65.4948 55.6856 65.4794 55.8247C65.4639 55.9639 65.4175 56.1031 65.335 56.2423ZM67.2526 57.2938L66.7371 58.1546L65.4433 57.3866L65.9691 56.5C66.067 56.3351 66.1804 56.2113 66.3144 56.1288C66.4484 56.0464 66.5876 56 66.732 56C66.8763 55.9949 67.0155 56.0361 67.1443 56.1134C67.3196 56.2165 67.4227 56.366 67.4588 56.5619C67.4948 56.7577 67.4278 57.0052 67.2526 57.2938Z" fill="#245083"/>
<path d="M64.5361 53.3453L64.8969 52.3557L67.4742 51.9536L67.4897 51.9072L65.7783 49.9381L66.1392 48.9484L68.5361 51.8196L70.3454 52.4794L70.0258 53.3557L68.2165 52.6959L64.5361 53.3453Z" fill="#245083"/>
<path d="M10.2113 49.8402L9.70103 49.9639L9.92268 50.8608L7.51031 51.4536L7.65979 52.0619L10.0722 51.4691L10.2938 52.3608L10.8041 52.2371L10.2113 49.8402Z" fill="#245083"/>
<path d="M8.03608 53.5L10.8866 52.5361L11.0928 53.1392L9.91752 53.5361L10.3299 54.7577L11.5052 54.3608L11.7113 54.9639L8.86082 55.9278L8.65464 55.3247L9.8299 54.9278L9.41753 53.7062L8.24227 54.1031L8.03608 53.5Z" fill="#245083"/>
<path d="M11.8711 55.3505L9.10825 56.5464L9.92268 58.4021L10.4021 58.1959L9.84536 56.9124L10.5052 56.6289L11.0155 57.8093L11.4948 57.6031L10.9845 56.4227L11.6443 56.1392L12.1959 57.4175L12.6753 57.2113L11.8711 55.3505Z" fill="#245083"/>
<path d="M13.5979 58.9948L10.9433 60.4124L10.6443 59.8505L13.299 58.433L13.5979 58.9948Z" fill="#245083"/>
<path d="M12.5515 63.1186L15.1134 61.5464L14.7835 61L13.1701 61.9897L13.1546 61.9691L14.0876 59.8711L13.7938 59.3969L11.232 60.9691L11.567 61.5103L13.1804 60.5206L13.1907 60.5413L12.2629 62.6495L12.5515 63.1186Z" fill="#245083"/>
<path d="M14.8608 62.1134L15.2835 61.8041L16.7474 63.7938L16.3247 64.1031L15.7783 63.3608L13.7783 64.8299L13.4072 64.3247L15.4072 62.8557L14.8608 62.1134Z" fill="#245083"/>
<path d="M16.9536 64.0361L14.6701 65.9949L16 67.5361L16.3969 67.1959L15.4845 66.134L16.0309 65.665L16.8711 66.6392L17.268 66.299L16.4278 65.3247L16.9691 64.8557L17.8763 65.9124L18.2732 65.5722L16.9536 64.0361Z" fill="#245083"/>
<path fill-rule="evenodd" clip-rule="evenodd" d="M16.4278 68.0051L18.5567 65.8763L19.3969 66.7165C19.5567 66.8763 19.665 67.0412 19.7216 67.2165C19.7784 67.3917 19.7835 67.5567 19.7423 67.7216C19.701 67.8866 19.6031 68.0361 19.4639 68.1804C19.3247 68.3196 19.1701 68.4124 19.0103 68.4536C18.8454 68.4948 18.6804 68.4845 18.5103 68.4227C18.5047 68.4206 18.4991 68.4185 18.4935 68.4164C18.488 68.4143 18.4825 68.4121 18.477 68.4099L18.1031 69.6856L17.6082 69.1907L17.9605 68.0378L17.634 67.7113L16.8814 68.4639L16.4278 68.0051ZM18.299 67.6546L17.9949 67.3505L18.6392 66.7062L18.9433 67.0103C19.0258 67.0979 19.0876 67.1804 19.1186 67.2629C19.1495 67.3454 19.1546 67.4227 19.134 67.5C19.1134 67.5773 19.067 67.6495 18.9948 67.7216C18.9278 67.7938 18.8557 67.835 18.7784 67.8557C18.7062 67.8763 18.6289 67.866 18.5464 67.835C18.4691 67.799 18.3866 67.7423 18.299 67.6546Z" fill="#245083"/>
<path d="M20.3866 71.6443L22.3299 69.3505L21.8505 68.9382L20.6289 70.3815L20.6083 70.366L20.8402 68.0825L20.4124 67.7217L18.4691 70.0155L18.9536 70.4278L20.1804 68.9845L20.1959 69L19.9691 71.2887L20.3866 71.6443Z" fill="#245083"/>
<path fill-rule="evenodd" clip-rule="evenodd" d="M21.3454 72.366L20.7887 71.9742L23.3711 70.1186L24.0412 70.5928L23.1495 73.6495L22.5928 73.2577L22.8084 72.5616L21.922 71.9358L21.3454 72.366ZM23.3144 70.9278L22.9637 72.0602L22.3428 71.6219L23.2938 70.9124L23.3144 70.9278Z" fill="#245083"/>
<path d="M24.7165 71.0619L24.4485 71.5103L25.2371 71.9845L23.9588 74.1134L24.5 74.4381L25.7784 72.3093L26.567 72.7835L26.8351 72.335L24.7165 71.0619Z" fill="#245083"/>
<path d="M27.7062 72.7783L26.3041 75.4381L25.7423 75.1392L27.1443 72.4794L27.7062 72.7783Z" fill="#245083"/>
<path fill-rule="evenodd" clip-rule="evenodd" d="M29.4948 76.1959C29.701 76.0361 29.8711 75.8041 30.0052 75.5052C30.1392 75.2062 30.1959 74.9278 30.1907 74.6649C30.1701 74.4072 30.0876 74.1752 29.9433 73.9794C29.799 73.7835 29.6031 73.6289 29.3608 73.5206C29.1134 73.4124 28.8711 73.366 28.6289 73.3918C28.3866 73.4124 28.1598 73.5051 27.9536 73.6649C27.7474 73.8247 27.5773 74.0567 27.4433 74.3557C27.3093 74.6546 27.2474 74.933 27.268 75.1959C27.2835 75.4536 27.366 75.6856 27.5103 75.8814C27.6546 76.0773 27.8505 76.232 28.0928 76.3402C28.3351 76.4484 28.5773 76.4948 28.8196 76.4691C29.0619 76.4484 29.2887 76.3557 29.4948 76.1959ZM29.5516 74.7113C29.5464 74.8711 29.5052 75.0464 29.4175 75.2423C29.3299 75.4381 29.2268 75.5876 29.1134 75.6959C28.9948 75.8041 28.866 75.8711 28.732 75.8918C28.5979 75.9124 28.4588 75.8918 28.3196 75.8299C28.1804 75.7681 28.0722 75.6753 28 75.5618C27.9278 75.4433 27.8866 75.3093 27.8917 75.1495C27.8969 74.9897 27.9381 74.8144 28.0258 74.6186C28.1083 74.4227 28.2113 74.2732 28.3299 74.165C28.4485 74.0567 28.5773 73.9897 28.7113 73.9691C28.8454 73.9484 28.9845 73.9691 29.1237 74.0309C29.2629 74.0928 29.3711 74.1856 29.4433 74.299C29.5155 74.4175 29.5516 74.5516 29.5516 74.7113Z" fill="#245083"/>
<path d="M33.3351 75.0773L32.3608 77.9227L31.8402 77.7423L31.2165 75.5258L31.1959 75.5206L30.5825 77.3144L29.9794 77.1083L30.9536 74.2629L31.4794 74.4433L32.0928 76.6546L32.1186 76.665L32.7319 74.8763L33.3351 75.0773Z" fill="#245083"/>
<path fill-rule="evenodd" clip-rule="evenodd" d="M32.866 78.0722L33.5258 78.2371L33.9002 77.6334L34.9632 77.893L35.0154 78.5979L35.6753 78.7629L35.3866 75.5928L34.5928 75.3969L32.866 78.0722ZM34.9243 77.3687L34.835 76.1649L34.8144 76.1598L34.1789 77.1842L34.9243 77.3687Z" fill="#245083"/>
<path d="M36.1701 78.8454L36.6546 75.8763L37.2835 75.9794L36.8814 78.433L38.1546 78.6392L38.0722 79.1546L36.1701 78.8454Z" fill="#245083"/>
<path d="M41.2526 77.0155C41.335 77.0825 41.3814 77.1804 41.3866 77.299L42.0051 77.3351C42.0155 77.1598 41.9742 76.9948 41.8917 76.8557C41.8041 76.7165 41.6804 76.6031 41.5206 76.5155C41.3608 76.4278 41.1649 76.3814 40.9433 76.366C40.7268 76.3505 40.5257 76.3763 40.3505 76.4433C40.1752 76.5103 40.0361 76.6082 39.9278 76.7371C39.8196 76.866 39.7629 77.0258 39.7526 77.2062C39.7371 77.4278 39.799 77.6082 39.9381 77.7474C40.0773 77.8866 40.2732 77.9949 40.5206 78.0722L40.8402 78.1753C40.8689 78.1835 40.8964 78.192 40.9228 78.2008C40.942 78.2072 40.9606 78.2138 40.9785 78.2205C41.029 78.2392 41.0742 78.2588 41.1134 78.2784C41.1856 78.3144 41.2423 78.3557 41.2783 78.4072C41.3144 78.4588 41.3299 78.5155 41.3247 78.5825C41.3196 78.6546 41.2938 78.7165 41.2474 78.7681C41.1959 78.8196 41.134 78.8608 41.0515 78.8866C40.9691 78.9124 40.8763 78.9227 40.768 78.9175C40.6598 78.9124 40.5618 78.8918 40.4794 78.8505C40.3969 78.8093 40.3299 78.7577 40.2835 78.6856C40.2371 78.6134 40.2113 78.5309 40.2113 78.4278L39.5979 78.3918C39.5876 78.6083 39.6288 78.7887 39.7216 78.9433C39.8093 79.0928 39.9433 79.2113 40.1185 79.299C40.2938 79.3815 40.5 79.433 40.7423 79.4485C40.9845 79.4639 41.1959 79.4381 41.3763 79.3763C41.5515 79.3144 41.6907 79.2165 41.7938 79.0876C41.8969 78.9588 41.9536 78.8041 41.9639 78.6186C41.9742 78.4949 41.9536 78.3814 41.9175 78.2835C41.8814 78.1856 41.8247 78.098 41.7474 78.0206C41.6701 77.9485 41.5824 77.8815 41.4742 77.8247C41.366 77.768 41.2474 77.7217 41.1185 77.6856L40.8505 77.6031C40.7886 77.5825 40.7268 77.5619 40.6701 77.5361C40.6134 77.5155 40.5618 77.4845 40.5206 77.4536C40.4794 77.4227 40.4433 77.3866 40.4227 77.3454C40.402 77.3041 40.3917 77.2526 40.3969 77.201C40.402 77.134 40.4227 77.0773 40.4639 77.0309C40.5051 76.9846 40.5618 76.9485 40.634 76.9227C40.7062 76.9021 40.7938 76.8918 40.8969 76.8969C41.0515 76.9021 41.1701 76.9485 41.2526 77.0155Z" fill="#245083"/>
<path d="M45.0773 77.4845L44.433 77.5C44.4175 77.4175 44.3918 77.3454 44.3557 77.2784C44.3196 77.2113 44.268 77.1598 44.2113 77.1134C44.1546 77.067 44.0876 77.0361 44.0154 77.0103C43.9433 76.9897 43.8608 76.9742 43.7732 76.9794C43.6186 76.9846 43.4845 77.0258 43.3711 77.1031C43.2577 77.1804 43.1701 77.2938 43.1083 77.4433C43.0464 77.5928 43.0206 77.768 43.0258 77.9794C43.0309 78.1959 43.067 78.3711 43.134 78.5155C43.201 78.6598 43.2938 78.7681 43.4124 78.8402C43.5309 78.9124 43.6649 78.9485 43.8144 78.9433C43.9021 78.9433 43.9794 78.9278 44.0515 78.9021C44.1237 78.8763 44.1907 78.8454 44.2423 78.799C44.299 78.7526 44.3454 78.701 44.3814 78.6392C44.4175 78.5773 44.4433 78.5052 44.4536 78.4227L45.0979 78.4124C45.0825 78.5516 45.0464 78.6856 44.9794 78.8144C44.9175 78.9433 44.8299 79.0619 44.7216 79.1598C44.6134 79.2577 44.4845 79.3454 44.3299 79.4072C44.1752 79.4691 44.0052 79.5 43.8144 79.5052C43.5464 79.5103 43.3041 79.4536 43.0928 79.335C42.8814 79.2165 42.7113 79.0464 42.5825 78.8196C42.4536 78.5928 42.3917 78.3144 42.3814 77.9897C42.3763 77.6598 42.433 77.3814 42.5515 77.1495C42.6701 76.9175 42.835 76.7371 43.0412 76.6134C43.2526 76.4897 43.4845 76.4227 43.7526 76.4175C43.9278 76.4124 44.0876 76.433 44.2371 76.4794C44.3866 76.5258 44.5206 76.5928 44.6392 76.6856C44.7577 76.7784 44.8557 76.8866 44.9278 77.0206C45 77.1546 45.0515 77.3093 45.0773 77.4845Z" fill="#245083"/>
<path d="M46.3144 79.3299L46.0721 76.3299L45.4381 76.3814L45.6804 79.3815L46.3144 79.3299Z" fill="#245083"/>
<path d="M46.933 79.2784L46.5309 76.299L48.5412 76.0258L48.6134 76.5464L47.2371 76.732L47.3351 77.4433L48.6082 77.2732L48.6804 77.7938L47.4072 77.9639L47.5051 78.6753L48.8917 78.4897L48.9639 79.0103L46.933 79.2784Z" fill="#245083"/>
<path d="M51.5052 78.4846L52.0412 78.366L51.4021 75.4278L50.7835 75.5619L51.1856 77.4124L51.1598 77.4175L49.4897 75.8454L48.9433 75.9639L49.5825 78.9021L50.2062 78.7681L49.8041 76.9175L49.8247 76.9124L51.5052 78.4846Z" fill="#245083"/>
<path d="M51.8557 75.8505L51.701 75.3505L54.0618 74.6237L54.2165 75.1237L53.3351 75.3969L54.067 77.768L53.4639 77.9536L52.7319 75.5825L51.8557 75.8505Z" fill="#245083"/>
<path d="M56.0258 77.0825L54.9742 74.2629L54.3763 74.4845L55.4278 77.3041L56.0258 77.0825Z" fill="#245083"/>
<path d="M56.6031 76.866L55.4072 74.1031L57.2371 73.3144L57.4433 73.7938L56.201 74.3299L56.4845 74.9897L57.6083 74.5052L57.8145 74.9845L56.6907 75.4691L57.1856 76.6082L56.6031 76.866Z" fill="#245083"/>
<path d="M59.4639 75.5567L58.1289 72.8608L57.5567 73.1443L58.8917 75.8402L59.4639 75.5567Z" fill="#245083"/>
<path d="M61.366 72.268L60.8093 72.5876C60.7578 72.5206 60.701 72.4691 60.634 72.433C60.5722 72.3969 60.5 72.3711 60.4278 72.3557C60.3557 72.3402 60.2835 72.3454 60.2062 72.3608C60.1289 72.3763 60.0567 72.4072 59.9794 72.4484C59.8454 72.5258 59.7474 72.6289 59.6856 72.7526C59.6237 72.8763 59.6031 73.0206 59.6186 73.1753C59.634 73.3299 59.6959 73.5051 59.799 73.6856C59.9072 73.8711 60.0258 74.0103 60.1495 74.1082C60.2784 74.201 60.4124 74.2526 60.5464 74.2629C60.6856 74.268 60.8196 74.2371 60.9485 74.1598C61.0206 74.1185 61.0876 74.067 61.1392 74.0103C61.1907 73.9536 61.232 73.8917 61.2577 73.8299C61.273 73.7901 61.2847 73.7503 61.2917 73.7084C61.2964 73.6797 61.299 73.65 61.299 73.6186C61.299 73.5464 61.2887 73.469 61.2577 73.3917L61.8145 73.0722C61.8711 73.201 61.8969 73.3351 61.9072 73.4794C61.9124 73.6237 61.8918 73.768 61.8454 73.9072C61.799 74.0515 61.7217 74.1856 61.6186 74.3093C61.5155 74.4381 61.3814 74.5464 61.2114 74.6443C60.9794 74.7784 60.7423 74.8454 60.4949 74.8454C60.2526 74.8454 60.0206 74.7784 59.799 74.6392C59.5773 74.5 59.3866 74.2887 59.2217 74.0052C59.0567 73.7216 58.9742 73.4484 58.9639 73.1855C58.9536 72.9227 59.0155 72.6907 59.1392 72.4794C59.2629 72.268 59.4382 72.0979 59.6701 71.9639C59.8196 71.8763 59.9742 71.8196 60.1289 71.7835C60.2835 71.7474 60.433 71.7474 60.5773 71.768C60.7217 71.7938 60.8608 71.8453 60.9949 71.9227C61.1392 72.0155 61.2577 72.1237 61.366 72.268Z" fill="#245083"/>
<path d="M64.1443 70.2938L64.6598 69.9124C64.5412 69.7835 64.4124 69.6856 64.2732 69.6134C64.134 69.5464 63.9897 69.5103 63.8402 69.5052C63.6907 69.5 63.5412 69.5206 63.3917 69.5722C63.2423 69.6237 63.0979 69.701 62.9587 69.8041C62.7474 69.9639 62.5928 70.1546 62.4948 70.3763C62.3969 70.5979 62.3711 70.8402 62.4072 71.0979C62.4433 71.3557 62.5619 71.6186 62.7577 71.8815C62.9536 72.1443 63.1649 72.3351 63.4021 72.4433C63.6392 72.5515 63.8763 72.5979 64.1185 72.567C64.3608 72.5361 64.5876 72.4433 64.8041 72.2835C64.9587 72.1649 65.0825 72.0412 65.1701 71.9021C65.2577 71.7629 65.3144 71.6186 65.3453 71.4742C65.3763 71.3299 65.3814 71.1856 65.3557 71.0412C65.3299 70.9021 65.2835 70.7681 65.2165 70.6495L64.6959 71.0309C64.7319 71.1083 64.7577 71.1804 64.7629 71.2526C64.768 71.3247 64.7629 71.3969 64.7423 71.4639C64.7216 71.5309 64.6907 71.5979 64.6443 71.6598C64.5979 71.7217 64.5412 71.7784 64.4742 71.8299C64.3557 71.9227 64.2268 71.9691 64.0876 71.9794C63.9536 71.9897 63.8144 71.9536 63.6752 71.8763C63.5361 71.799 63.4021 71.6701 63.2732 71.5C63.1495 71.3299 63.067 71.1701 63.0309 71.0155C62.9948 70.8608 63 70.7165 63.0464 70.5876C63.0928 70.4588 63.1804 70.3454 63.3041 70.2526C63.3367 70.2293 63.3682 70.2092 63.4 70.1918C63.4388 70.1706 63.4782 70.1533 63.5206 70.1392C63.5979 70.1134 63.6701 70.1031 63.7423 70.1082C63.8144 70.1134 63.8866 70.1289 63.9536 70.1598C64.0206 70.1907 64.0876 70.2319 64.1443 70.2938Z" fill="#245083"/>
<path fill-rule="evenodd" clip-rule="evenodd" d="M67.366 68.1237C67.5825 68.366 67.7268 68.6186 67.7835 68.8711C67.8454 69.1237 67.835 69.366 67.7577 69.6031C67.6804 69.835 67.5412 70.0412 67.3454 70.2165C67.1443 70.3969 66.9278 70.5103 66.6856 70.5618C66.4484 70.6134 66.2062 70.5928 65.9588 70.5051C65.7113 70.4175 65.4794 70.2474 65.2629 70.0051C65.0464 69.7629 64.9021 69.5103 64.8402 69.2577C64.7784 69.0052 64.7886 68.7629 64.866 68.5309C64.9433 68.299 65.0825 68.0928 65.2835 67.9175C65.4794 67.7423 65.701 67.6237 65.9381 67.5722C66.1753 67.5206 66.4227 67.5361 66.665 67.6289C66.9124 67.7113 67.1495 67.8763 67.366 68.1237ZM66.8866 68.5515C66.7474 68.3917 66.6031 68.2783 66.4588 68.2165C66.3144 68.1495 66.1753 68.1289 66.0412 68.1495C65.9072 68.1701 65.7783 68.232 65.6649 68.3351C65.5515 68.4381 65.4742 68.5567 65.4381 68.6856C65.4021 68.8196 65.4124 68.9587 65.4587 69.1082C65.5103 69.2577 65.6031 69.4124 65.7474 69.5722C65.8918 69.7319 66.0309 69.8454 66.1753 69.9072C66.3196 69.9742 66.4588 69.9948 66.5979 69.9742C66.7371 69.9536 66.8608 69.8917 66.9742 69.7886C67.0876 69.6856 67.1649 69.567 67.201 69.4381C67.2371 69.3041 67.2268 69.1649 67.1804 69.0154C67.1237 68.866 67.0258 68.7113 66.8866 68.5515Z" fill="#245083"/>
<path d="M67.1495 66.1856L66.6186 66.7629L68.8505 68.799L69.268 68.3453L67.8145 67.0206L67.8299 67L69.7938 67.7423L70.0773 67.433L69.165 65.5464L69.1804 65.5258L70.6289 66.8453L71.0464 66.3917L68.8247 64.3608L68.2938 64.9381L69.2268 66.9124L69.201 66.9381L67.1495 66.1856Z" fill="#245083"/>
<path d="M69.067 64.0515L69.5309 63.4175L71.6495 63.9433L71.6701 63.9124L70.5258 62.0515L70.9897 61.4175L73.4175 63.1959L73.0515 63.6959L71.4691 62.5412L71.4536 62.5619L72.5619 64.335L72.3144 64.6753L70.2784 64.1495L70.2629 64.1701L71.8505 65.3299L71.4845 65.8299L69.067 64.0515Z" fill="#245083"/>
<path d="M72.4742 58.9227L72.1495 59.4691L73.7835 60.4433C73.8866 60.5052 73.9588 60.5773 74.0103 60.6649C74.0619 60.7526 74.0876 60.8505 74.0825 60.9536C74.0825 61.0567 74.0464 61.1598 73.9845 61.268C73.9175 61.3711 73.8454 61.4536 73.7526 61.5052C73.6649 61.5567 73.567 61.5876 73.4639 61.5825C73.3608 61.5773 73.2577 61.5464 73.1598 61.4897L71.5258 60.5258L71.201 61.0721L72.8815 62.067C73.0722 62.1804 73.2629 62.232 73.4588 62.2268C73.6546 62.2216 73.8351 62.1598 74.0103 62.0464C74.1856 61.933 74.3351 61.768 74.4639 61.5515C74.5928 61.335 74.665 61.1237 74.6804 60.9175C74.6959 60.7113 74.6598 60.5206 74.5722 60.3454C74.4846 60.1701 74.3454 60.0309 74.1547 59.9175L72.4742 58.9227Z" fill="#245083"/>
<path d="M73.7526 56.2835L76.4691 57.5825L76.232 58.0773L73.9588 58.4433L73.9484 58.4639L75.6546 59.2784L75.3815 59.8505L72.6649 58.5516L72.9072 58.0464L75.1753 57.6907L75.1856 57.6649L73.4794 56.8505L73.7526 56.2835Z" fill="#245083"/>
<path d="M76.9382 56.3969L74.1495 55.268L73.9124 55.8557L76.701 56.9845L76.9382 56.3969Z" fill="#245083"/>
<path d="M74.7887 55.1289L74.2938 54.9588L75.0876 52.6186L75.5825 52.7887L75.2835 53.6598L77.634 54.4588L77.433 55.0516L75.0825 54.2526L74.7887 55.1289Z" fill="#245083"/>
<path d="M75.3041 51.8041L75.134 52.4949L77.2784 51.9021L78.3093 52.1598L78.4639 51.5464L77.433 51.2887L75.8093 49.7526L75.6392 50.4433L76.732 51.4227L76.7268 51.4536L75.3041 51.8041Z" fill="#245083"/>
<path fill-rule="evenodd" clip-rule="evenodd" d="M43 3C20.9086 3 3 20.9086 3 43C3 65.0914 20.9086 83 43 83C65.0914 83 83 65.0914 83 43C83 20.9086 65.0914 3 43 3ZM3.92784 43C3.92784 21.421 21.421 3.92784 43 3.92784C64.579 3.92784 82.0722 21.421 82.0722 43C82.0722 64.579 64.579 82.0722 43 82.0722C21.421 82.0722 3.92784 64.579 3.92784 43Z" fill="#245083"/>
</svg>
