<svg width="86" height="86" viewBox="0 0 86 86" fill="none" xmlns="http://www.w3.org/2000/svg">
<circle cx="43" cy="43" r="43" fill="white"/>
<path d="M61.6554 36.5C60.8126 38.2095 59.7178 39.8559 58.2922 41.2424C57.6069 41.9277 56.8744 42.5107 56.1025 43.007C56.8665 43.4954 57.5912 44.0862 58.2764 44.7637C59.702 46.1502 60.8047 47.8045 61.6475 49.5218L68.1691 42.9991L61.6554 36.5Z" fill="#245083"/>
<path d="M41.1138 27.5981C41.8857 28.378 42.5394 29.213 43.075 30.1032C43.5791 29.2997 44.1856 28.5434 44.8945 27.8344C46.2807 26.4086 47.9269 25.3136 49.636 24.4707L43.0041 17.8376L36.5298 24.3131C38.1838 25.1403 39.767 26.2195 41.1138 27.5981Z" fill="#245083"/>
<path d="M44.8708 58.1635C44.1698 57.4624 43.5712 56.714 43.075 55.9263C42.5473 56.8007 41.9015 57.6278 41.1374 58.3999C39.7906 59.7863 38.1996 60.8577 36.5298 61.6927L43.0041 68.1682L49.636 61.5352C47.9111 60.6923 46.2571 59.5894 44.8708 58.1635Z" fill="#245083"/>
<path d="M27.7242 45C28.5197 44.2043 29.3782 43.5426 30.284 43.0069C29.3703 42.4712 28.5118 41.8016 27.7084 41.006C26.3301 39.6668 25.251 38.0755 24.424 36.4133L17.8394 42.999L24.4397 49.6005C25.2667 47.9383 26.3458 46.347 27.7242 45Z" fill="#245083"/>
<path d="M23.8413 23.738C23.9437 23.738 34.1436 23.7538 39.4522 29.2367C43.7448 33.53 42.3035 38.4221 41.5158 40.2733L29.7407 29.6384L40.3738 41.4156C38.5228 42.2034 33.6316 43.645 29.339 39.3516C23.8571 34.0342 23.8413 23.8326 23.8413 23.738Z" fill="#245083"/>
<path d="M62.1362 62.0315C62.1362 61.9291 62.1204 51.7275 56.6385 46.4179C52.3459 42.1246 47.4547 43.5662 45.6038 44.3618L56.2368 56.139L44.4617 45.5041C43.6741 47.3554 42.2327 52.2474 46.5253 56.5408C51.8339 62.0158 62.0338 62.0315 62.1362 62.0315Z" fill="#245083"/>
<path d="M62.1518 23.9666C62.1518 24.069 62.1361 34.2706 56.6541 39.5802C52.3615 43.8735 47.4703 42.4319 45.6194 41.6441L56.2524 29.8669L44.4773 40.5018C43.6897 38.6506 42.2483 33.7585 46.5409 29.4652C51.8496 23.9902 62.0494 23.9666 62.1518 23.9666Z" fill="#245083"/>
<path d="M23.8569 62.2679C23.9593 62.2679 34.1592 62.2521 39.4678 56.7693C43.7605 52.4759 42.3191 47.5917 41.5315 45.7326L29.7563 56.3675L40.3894 44.5903C38.5384 43.8026 33.6472 42.3609 29.3546 46.6464C23.8806 51.9639 23.8569 62.1655 23.8569 62.2679Z" fill="#245083"/>
<path d="M8.58432 36.8229L4.22083 35.9642L4.2287 37.0041L3.56709 37.012L3.3623 35.0583L3.47257 34.9008L8.78911 35.9564L9.0569 35.1607L9.64763 35.2789L9.14354 37.8628L8.54494 37.847L8.58432 36.8229Z" fill="#245083"/>
<path d="M6.78053 33.9553C5.44155 33.5221 4.65392 32.8682 4.43338 31.9938C4.34674 31.6708 4.37037 31.3084 4.50427 30.9067C4.74056 30.1662 5.22889 29.7171 5.96139 29.5596C6.56787 29.4256 7.30037 29.4965 8.14314 29.7723C9.48212 30.2055 10.2619 30.8594 10.4903 31.7417C10.5769 32.0647 10.5533 32.4271 10.4194 32.8288C10.1831 33.5693 9.69478 34.0183 8.9544 34.1759C8.34792 34.3019 7.6233 34.231 6.78053 33.9553ZM7.07195 33.0651C8.10376 33.396 8.85988 33.4039 9.34034 33.073C9.50574 32.9627 9.61601 32.8052 9.6869 32.5925C9.8208 32.1907 9.70265 31.8126 9.34034 31.4581C9.01741 31.143 8.5212 30.883 7.85171 30.6624C6.81991 30.3237 6.06378 30.3237 5.58333 30.6546C5.41792 30.7727 5.29978 30.9382 5.23677 31.1509C5.16588 31.3636 5.16588 31.5684 5.23677 31.7496C5.30765 31.9386 5.4258 32.1119 5.5912 32.2616C5.91413 32.5846 6.41034 32.8524 7.07195 33.0651Z" fill="#245083"/>
<path d="M8.53716 28.7955C7.27695 28.1653 6.5917 27.4091 6.49719 26.511C6.45781 26.1801 6.53657 25.8256 6.7256 25.4475C7.07216 24.7543 7.61563 24.3762 8.36388 24.3289C8.98611 24.2816 9.69498 24.4628 10.4905 24.8567C11.7507 25.479 12.4281 26.2432 12.5226 27.1491C12.562 27.48 12.4832 27.8345 12.2942 28.2126C11.9476 28.9058 11.4041 29.2761 10.648 29.3312C10.0415 29.3706 9.34055 29.1894 8.53716 28.7955ZM8.95461 27.9526C9.9234 28.4332 10.6716 28.5513 11.1994 28.2914C11.3726 28.2047 11.5144 28.0629 11.6089 27.866C11.798 27.4878 11.735 27.094 11.4278 26.6922C11.1521 26.3377 10.7032 25.999 10.073 25.6917C9.09638 25.2112 8.34813 25.093 7.82829 25.3451C7.64713 25.4396 7.51324 25.5814 7.41084 25.7863C7.30845 25.9832 7.28482 26.188 7.31633 26.385C7.35571 26.5819 7.45022 26.771 7.592 26.9443C7.88342 27.3067 8.34025 27.6454 8.95461 27.9526Z" fill="#245083"/>
<path d="M10.9549 21.1306C10.8131 21.0203 10.695 20.8864 10.5847 20.7288C10.4744 20.5713 10.3957 20.4137 10.3405 20.2404C10.2224 19.8465 10.2933 19.492 10.5532 19.1769C10.8131 18.8618 11.1282 18.7121 11.5141 18.7358C11.8764 18.7594 12.2151 18.9012 12.5459 19.169C12.8925 19.4526 13.113 19.7756 13.1918 20.1459C13.2784 20.5161 13.2075 20.8549 12.9712 21.1464C12.7034 21.4693 12.3648 21.6111 11.9552 21.5717C11.6008 21.5324 11.2699 21.3906 10.9549 21.1306ZM11.0021 19.5472C10.884 19.6969 10.8604 19.8623 10.947 20.0671C11.0258 20.264 11.1754 20.4531 11.3802 20.6264C11.5929 20.7997 11.8055 20.9021 12.0182 20.9337C12.2309 20.9652 12.3963 20.9179 12.5144 20.7761C12.6247 20.6343 12.6404 20.4689 12.5617 20.264C12.4829 20.0592 12.3333 19.8702 12.1285 19.6969C11.9158 19.5235 11.711 19.4211 11.4984 19.3817C11.2857 19.3424 11.1203 19.3975 11.0021 19.5472ZM13.05 16.0889L13.1681 16.144L15.3893 23.0212L14.8931 23.6278L14.767 23.5963L12.5617 16.6797L13.05 16.0889ZM15.4995 20.4767C15.1845 20.2168 14.9797 19.9253 14.8852 19.5866C14.767 19.1927 14.8379 18.8382 15.09 18.531C15.3499 18.2158 15.6728 18.074 16.0588 18.0977C16.4053 18.1134 16.7519 18.2552 17.0906 18.531C17.4292 18.8067 17.6498 19.1297 17.7364 19.4999C17.8231 19.8702 17.7443 20.201 17.5001 20.5004C17.2402 20.8155 16.9094 20.9573 16.4998 20.9179C16.1454 20.8785 15.8146 20.7367 15.4995 20.4767ZM15.5389 18.8933C15.4208 19.043 15.405 19.2084 15.4838 19.4054C15.5704 19.6023 15.7122 19.7835 15.9327 19.9568C16.1454 20.1301 16.3581 20.2325 16.5707 20.264C16.7834 20.2956 16.9409 20.2483 17.0591 20.1065C17.1693 19.9647 17.1851 19.7993 17.1063 19.5944C17.0276 19.3975 16.8779 19.2084 16.6652 19.0351C16.4526 18.8618 16.2399 18.7594 16.0351 18.72C15.8225 18.6964 15.6571 18.7515 15.5389 18.8933Z" fill="#245083"/>
<path d="M20.2567 15.8289L20.6505 16.333C20.6741 16.3645 20.6899 16.3803 20.7057 16.3882L21.1625 16.1518L21.5484 16.656L20.1701 17.7116L19.6975 17.2705L20.0755 16.8372L17.2243 13.0953L16.7675 13.3789L16.3579 12.8353L17.8465 11.7009L22.8716 14.5763L20.0834 10.921L19.5951 11.2046L19.1934 10.6768L20.5954 9.60547L21.0916 10.0703L20.6978 10.5035L23.9822 14.8126L22.9347 15.6004L17.8938 12.725L20.2567 15.8289Z" fill="#245083"/>
<path d="M24.2191 13.946L24.5579 13.5836L23.5811 7.8959L24.3373 7.49414L28.5992 11.433L29.0403 11.3778L29.2136 11.9135L27.3545 12.9061L27.1024 12.4413L27.709 11.9057L26.7085 10.9367L25.0148 11.8348L25.2748 13.1976L26.0389 12.9928L26.291 13.4654L24.5815 14.3793L24.2191 13.946ZM24.8572 11.047L26.1256 10.3695L24.4161 8.73094L24.8572 11.047Z" fill="#245083"/>
<path d="M29.6228 11.1731L30.5208 10.6532L28.9216 6.28109L27.8897 6.65922L27.8503 7.6203L27.3382 7.80936L26.9443 6.18656L31.2377 4.6189L31.9939 6.10778L31.4819 6.29685L30.8202 5.59573L29.7646 5.98174L31.3637 10.3539L32.4036 10.1648L32.5296 10.7477L29.9379 11.6931L29.6228 11.1731Z" fill="#245083"/>
<path d="M35.8447 3.57105L37.6172 3.21655L37.7433 3.8704L37.2627 4.05947L37.9166 7.37598C38.0505 8.05346 37.9481 8.62065 37.6093 9.06181C37.3179 9.46357 36.8925 9.71565 36.341 9.82594C35.6635 9.95986 35.1121 9.88109 34.6788 9.59749C34.2456 9.30601 33.962 8.84123 33.8359 8.18738L33.1742 4.84724L32.6149 4.90238L32.481 4.24065L34.5134 3.83889L34.6394 4.49274L34.0486 4.68968L34.7025 7.98256C34.7812 8.40008 34.9546 8.70731 35.2066 8.89637C35.4587 9.09332 35.7975 9.14846 36.215 9.06181C36.7585 8.95152 37.0815 8.64429 37.1839 8.14012C37.2233 7.95893 37.2155 7.73835 37.1603 7.48627L36.5065 4.18551L35.955 4.20914L35.8447 3.57105Z" fill="#245083"/>
<path d="M39.8533 8.49469L39.6563 3.78382L39.0891 3.76019L39.0576 3.08271L40.9483 3.00393C41.7754 2.97242 42.4135 3.12997 42.8547 3.49235C43.2486 3.82321 43.4613 4.28799 43.4849 4.8867C43.5006 5.29634 43.414 5.65084 43.217 5.95019C43.0201 6.24954 42.7444 6.478 42.3899 6.64343L43.3352 8.39228L43.8473 8.47893L43.8709 9.09339L42.6262 9.14854L41.5233 6.89551C41.3815 6.91915 41.2319 6.9349 41.0822 6.94278L40.6725 6.95854L40.7356 8.47893L41.4446 8.57346L41.4682 9.18792L39.3806 9.27458L39.2624 8.65224L39.8533 8.49469ZM42.5474 4.91033C42.5159 4.10681 41.9566 3.73656 40.8695 3.77594L40.5544 3.7917L40.6568 6.17077L41.0349 6.15501C41.5627 6.13138 41.9645 5.98958 42.2402 5.72174C42.4608 5.50904 42.5632 5.23332 42.5474 4.91033Z" fill="#245083"/>
<path d="M43.9648 8.4946L44.4454 8.38431L46.8245 3.12988L47.6831 3.21654L48.9987 8.86485L49.3926 9.06967L49.235 9.61323L47.1396 9.39265L47.1947 8.86485L47.9982 8.76244L47.7068 7.3996L45.8004 7.19478L45.2489 8.47096L45.9973 8.73093L45.9421 9.26661L44.02 9.06179L43.9648 8.4946ZM46.1233 6.45427L47.5492 6.60395L47.0529 4.2879L46.1233 6.45427Z" fill="#245083"/>
<path d="M51.0538 3.71289L52.9208 4.18555L52.8342 4.84728L52.2433 4.80001L51.1089 9.32181L52.8105 9.74721L53.3383 8.94368L53.8898 9.0776L53.3068 10.661L49.6279 9.73933L49.6988 9.10124L50.2503 9.14063L51.4004 4.54005L50.8884 4.36674L51.0538 3.71289Z" fill="#245083"/>
<path d="M57.362 11.4331C57.488 11.5276 57.8503 11.764 58.4646 12.15L58.1811 12.6856L55.7788 11.5513L55.9678 10.9447L56.5428 11.0786L58.5513 6.81676L58.0629 6.53316L58.3544 5.9187L60.0635 6.72223C60.8118 7.07672 61.3001 7.51 61.5285 8.0378C61.7254 8.51046 61.7018 9.02251 61.4419 9.56608C61.1426 10.1963 60.7094 10.5744 60.1344 10.6847C59.6225 10.7792 59.0317 10.669 58.3386 10.346L57.9684 10.1727L57.362 11.4331ZM60.5834 9.14856C60.9221 8.42381 60.607 7.83298 59.6225 7.3682L59.3389 7.23428L58.2914 9.46367L58.63 9.62122C59.1263 9.85755 59.5516 9.91269 59.8903 9.80241C60.1974 9.7 60.4259 9.4873 60.5834 9.14856Z" fill="#245083"/>
<path d="M60.8674 13.2528L63.4587 9.31396L63.0098 8.96734L63.3878 8.40015L64.9631 9.44C65.6562 9.89691 66.0737 10.4011 66.2233 10.9446C66.3493 11.4409 66.2548 11.9451 65.924 12.4414C65.6956 12.788 65.4199 13.0165 65.0813 13.1425C64.7505 13.2686 64.3881 13.2922 64.0101 13.2213L63.758 15.1907L64.1282 15.561L63.7895 16.0809L62.7499 15.3955L63.1752 12.9298C63.0492 12.8668 62.9153 12.7959 62.7971 12.7092L62.4506 12.4808L61.6157 13.7491L62.1355 14.2454L61.7968 14.7653L60.0562 13.6152L60.3239 13.0401L60.8674 13.2528ZM65.1521 11.9215C65.5932 11.2519 65.3569 10.6217 64.4512 10.023L64.1912 9.84964L62.8759 11.8427L63.1909 12.0475C63.632 12.339 64.0416 12.4572 64.4196 12.3941C64.7268 12.3548 64.971 12.1972 65.1521 11.9215Z" fill="#245083"/>
<path d="M65.9714 18.0503C65.3727 17.5067 65.1127 16.845 65.1915 16.0809C65.2703 15.3719 65.6011 14.6944 66.1998 14.0405C66.7907 13.3867 67.4366 12.9849 68.1377 12.8431C68.894 12.6856 69.5715 12.8825 70.1702 13.4261C70.7689 13.9696 71.0367 14.6314 70.958 15.3955C70.8792 16.1124 70.5483 16.7899 69.9575 17.4437C69.3667 18.0976 68.7207 18.4914 68.0196 18.6332C67.2554 18.7987 66.578 18.5939 65.9714 18.0503ZM66.8852 14.6865C66.4519 15.1671 66.1841 15.6555 66.0895 16.1518C65.9792 16.6874 66.1132 17.1286 66.4992 17.4752C66.8852 17.8218 67.3421 17.9242 67.8699 17.7667C68.3504 17.6249 68.8152 17.3098 69.2485 16.8292C69.6896 16.3408 69.9654 15.8445 70.0678 15.3404C70.1702 14.7889 70.0363 14.3399 69.6503 13.9933C69.2721 13.6467 68.8152 13.56 68.2874 13.7254C67.7911 13.883 67.3263 14.206 66.8852 14.6865Z" fill="#245083"/>
<path d="M69.1614 20.059L72.8396 17.1049L72.5482 16.648L73.068 16.2305L74.1314 17.5539C74.7378 18.3102 75.0214 19.0822 74.9741 19.8542C74.9269 20.6499 74.5252 21.351 73.7533 21.9733C72.9814 22.5878 72.2016 22.8477 71.414 22.7532C70.6343 22.6587 69.9333 22.2254 69.3189 21.4613L68.2871 20.1772L68.7282 19.7124L69.1614 20.059ZM69.76 20.8074C70.7918 22.0915 71.926 22.2333 73.1626 21.2407C73.7218 20.7917 74.029 20.2717 74.0762 19.6809C74.1235 19.1058 73.9266 18.5465 73.4855 18.003L73.3437 17.8375L69.7127 20.7523L69.76 20.8074Z" fill="#245083"/>
<path d="M78.5812 24.1476L79.4713 25.7231L78.8963 26.054L78.5655 25.6522L75.6276 27.3223C75.0211 27.661 74.4619 27.7477 73.9342 27.5665C73.4616 27.4168 73.0914 27.0938 72.8157 26.6054C72.4771 26.0067 72.3747 25.4553 72.5086 24.9511C72.6425 24.4469 73.0048 24.0294 73.5797 23.7064L76.5413 22.0285L76.3128 21.5164L76.8957 21.1855L77.9196 22.9895L77.3446 23.3204L76.9666 22.8241L74.0445 24.4863C73.6743 24.699 73.438 24.9511 73.3356 25.2504C73.2332 25.5498 73.2883 25.8885 73.501 26.2588C73.7767 26.7393 74.1705 26.952 74.6824 26.889C74.8715 26.8654 75.0763 26.7945 75.2968 26.6605L78.2189 24.9984L78.022 24.4863L78.5812 24.1476Z" fill="#245083"/>
<path d="M76.2184 33.3567C75.8325 33.0967 75.5174 32.6555 75.2811 32.0174C74.9897 31.2454 74.9818 30.4971 75.2733 29.7566C75.5883 28.953 76.1869 28.3858 77.0612 28.055C77.9906 27.7005 78.8334 27.7083 79.5974 28.0707C80.2905 28.4016 80.7867 28.9688 81.0939 29.7644C81.2278 30.1189 81.3302 30.5522 81.4011 31.0642L79.9361 31.8048L79.7234 31.2376L80.5032 30.568C80.5032 30.4498 80.448 30.2528 80.3535 29.9929C80.2511 29.7329 80.1015 29.4966 79.8888 29.2996C79.6761 29.1027 79.4477 28.953 79.1878 28.8585C78.6443 28.6615 78.0694 28.6773 77.4786 28.8979C76.8328 29.1421 76.376 29.536 76.1082 30.0795C75.8325 30.631 75.8167 31.2297 76.0609 31.8835C76.1554 32.1277 76.2736 32.3326 76.4232 32.5059C76.5729 32.6792 76.6989 32.7973 76.8013 32.8604L76.2184 33.3567Z" fill="#245083"/>
<path d="M76.7222 34.4911L77.1161 35.4522L81.6607 34.4596L81.4244 33.3804L80.4793 33.207L80.3611 32.6714L82.023 32.498L82.9997 36.9647L81.4244 37.5083L81.3063 36.9726L82.0939 36.4133L81.8576 35.3183L77.313 36.3109L77.3602 37.3665L76.7616 37.4137L76.1709 34.7196L76.7222 34.4911Z" fill="#245083"/>
<path d="M77.4079 49.0254L81.7714 49.8683L81.7635 48.8284L82.4251 48.8206L82.6457 50.7742L82.5354 50.9318L77.211 49.9077L76.9511 50.7033L76.3604 50.593L76.8566 47.9934L77.4552 48.0092L77.4079 49.0254Z" fill="#245083"/>
<path d="M79.2269 51.8849C80.5738 52.3103 81.3535 52.9641 81.5898 53.8307C81.6765 54.1537 81.6528 54.5161 81.5268 54.9178C81.2905 55.6583 80.8101 56.1073 80.0776 56.2728C79.4711 56.4067 78.7386 56.3437 77.8958 56.0758C76.5569 55.6504 75.7692 54.9966 75.5408 54.1143C75.4542 53.7913 75.4778 53.4289 75.6038 53.0272C75.8401 52.2867 76.3284 51.8376 77.0609 51.6801C77.6595 51.5383 78.3842 51.6092 79.2269 51.8849ZM78.9434 52.7751C77.9116 52.4442 77.1555 52.4442 76.675 52.7751C76.5175 52.8854 76.3993 53.0508 76.3363 53.2556C76.2103 53.6574 76.3284 54.0355 76.6907 54.3821C77.0137 54.6972 77.5178 54.9572 78.1794 55.1699C79.2191 55.5008 79.9673 55.5008 80.4478 55.1699C80.6132 55.0517 80.7234 54.8863 80.7943 54.6736C80.8652 54.4609 80.8652 54.2561 80.7943 54.0749C80.7234 53.8858 80.6053 53.7125 80.4399 53.5629C80.1012 53.2477 79.605 52.9878 78.9434 52.7751Z" fill="#245083"/>
<path d="M77.4944 57.0527C78.7625 57.6751 79.4399 58.4313 79.5423 59.3294C79.5817 59.6603 79.5029 60.0148 79.3139 60.4008C78.9752 61.1019 78.4317 61.4721 77.6835 61.5273C77.0612 61.5745 76.3524 61.4012 75.549 61.0074C74.2888 60.3929 73.6035 59.6288 73.5011 58.7228C73.4617 58.392 73.5405 58.0375 73.7217 57.6514C74.0604 56.9503 74.6117 56.5801 75.3599 56.5328C75.9901 56.4934 76.6989 56.6667 77.4944 57.0527ZM77.077 57.9035C76.1082 57.423 75.3599 57.3127 74.8322 57.5727C74.659 57.6593 74.5172 57.8011 74.4227 57.9981C74.2336 58.3762 74.2966 58.7701 74.6038 59.164C74.8795 59.5185 75.3363 59.8493 75.9586 60.1566C76.9352 60.6371 77.6835 60.7474 78.2033 60.4874C78.3845 60.3929 78.5184 60.2511 78.6208 60.0463C78.7231 59.8415 78.7468 59.6445 78.7074 59.4476C78.668 59.2506 78.5735 59.0616 78.4317 58.8882C78.1561 58.5416 77.6992 58.2029 77.077 57.9035Z" fill="#245083"/>
<path d="M70.5792 65.4031C70.8942 65.6552 71.099 65.9545 71.1935 66.2933C71.3117 66.6872 71.2487 67.0417 70.9966 67.3568C70.7446 67.6719 70.4216 67.8216 70.0278 67.7979C69.6813 67.7822 69.3347 67.6404 68.996 67.3646C68.6495 67.0889 68.4368 66.7659 68.3423 66.4036C68.2556 66.0333 68.3344 65.7025 68.5707 65.4031C68.8227 65.088 69.1614 64.9462 69.571 64.9777C69.9254 65.0013 70.2641 65.1431 70.5792 65.4031ZM70.5477 66.9786C70.6658 66.829 70.6816 66.6635 70.5949 66.4666C70.5083 66.2696 70.3586 66.0885 70.146 65.9152C69.9333 65.7418 69.7206 65.6394 69.508 65.6079C69.2953 65.5764 69.1378 65.6316 69.0197 65.7655C68.9094 65.9073 68.8936 66.0727 68.9724 66.2775C69.0512 66.4745 69.2008 66.6635 69.4135 66.8368C69.6261 67.0102 69.8388 67.1126 70.0515 67.152C70.2641 67.1835 70.4295 67.1283 70.5477 66.9786ZM73.0445 69.7752L72.9263 69.7201L70.6737 62.8507L71.162 62.2441L71.288 62.2757L73.5249 69.1844L73.0445 69.7752ZM75.1238 64.7256C75.2656 64.8359 75.3916 64.9698 75.494 65.1274C75.6043 65.2849 75.683 65.4425 75.7382 65.6158C75.8563 66.0097 75.7854 66.3642 75.5334 66.6872C75.2813 67.0023 74.9584 67.152 74.5725 67.1362C74.2102 67.1126 73.8715 66.9708 73.5407 66.7029C73.1941 66.4193 72.9736 66.0963 72.8869 65.7261C72.7924 65.3558 72.8712 65.0171 73.1075 64.7256C73.3674 64.4026 73.7061 64.2608 74.1235 64.3002C74.4701 64.3239 74.8009 64.4735 75.1238 64.7256ZM75.0844 66.3169C75.2026 66.1672 75.2183 65.9939 75.1396 65.797C75.0608 65.6 74.9112 65.411 74.6985 65.2455C74.4858 65.0722 74.2732 64.9698 74.0605 64.9383C73.8479 64.9068 73.6825 64.9619 73.5643 65.0959C73.454 65.2377 73.4383 65.4031 73.517 65.6079C73.5958 65.8127 73.7455 66.0018 73.9581 66.1672C74.1708 66.3405 74.3834 66.443 74.5882 66.4745C74.8009 66.5139 74.9663 66.4587 75.0844 66.3169Z" fill="#245083"/>
<path d="M65.8374 70.0746L65.4436 69.5783C65.4199 69.5468 65.4042 69.531 65.3884 69.5232L64.9316 69.7674L64.5457 69.2632L65.924 68.1997L66.3966 68.6409L66.0185 69.0741L68.8855 72.8003L69.3424 72.5167L69.7598 73.0602L68.2791 74.2025L63.2382 71.3508L66.0422 74.9982L66.5226 74.7146L66.9243 75.2424L65.5223 76.3216L65.0183 75.8568L65.4042 75.4236L62.104 71.1302L63.1516 70.3188L68.2082 73.1705L65.8374 70.0746Z" fill="#245083"/>
<path d="M61.8922 71.9809L61.5614 72.3433L62.5697 78.0231L61.8134 78.4328L57.5359 74.5176L57.0947 74.5727L56.9214 74.037L58.7648 73.0287L59.0169 73.4935L58.4103 74.037L59.4186 74.9981L61.1044 74.0922L60.8366 72.7293L60.0725 72.9341L59.8204 72.4615L61.522 71.5398L61.8922 71.9809ZM61.262 74.8799L60.0016 75.5574L61.7189 77.1881L61.262 74.8799Z" fill="#245083"/>
<path d="M56.4884 74.7777L55.5904 75.2976L57.2053 79.6618L58.2373 79.2758L58.2766 78.3148L58.7887 78.1257L59.1905 79.7485L54.905 81.3398L54.1409 79.8509L54.6529 79.6618L55.3146 80.363L56.3624 79.977L54.7474 75.6127L53.7076 75.8097L53.5815 75.2267L56.1733 74.2656L56.4884 74.7777Z" fill="#245083"/>
<path d="M50.3058 82.4032L48.5334 82.7656L48.3994 82.1118L48.88 81.9227L48.2104 78.6141C48.0686 77.9366 48.171 77.3694 48.5097 76.9282C48.8012 76.5265 49.2187 76.2744 49.7702 76.1562C50.4398 76.0223 50.9991 76.0932 51.4324 76.3768C51.8656 76.6604 52.1492 77.1331 52.2832 77.779L52.9606 81.1192L53.5121 81.064L53.646 81.7258L51.6135 82.1354L51.4796 81.4815L52.0705 81.2767L51.4009 77.9838C51.3142 77.5663 51.1488 77.267 50.8967 77.07C50.6446 76.8731 50.3058 76.8258 49.8883 76.9125C49.3448 77.0228 49.0218 77.33 48.9273 77.842C48.8879 78.0232 48.8957 78.2438 48.9509 78.4959L49.6205 81.7888L50.1719 81.7573L50.3058 82.4032Z" fill="#245083"/>
<path d="M46.2731 77.5032L46.4936 82.214L47.0608 82.2298L47.0923 82.9073L45.2017 82.9939C44.3745 83.0333 43.7364 82.8757 43.2953 82.5212C42.8935 82.1904 42.6808 81.7335 42.6572 81.1348C42.6414 80.7251 42.7281 80.3706 42.925 80.0713C43.122 79.7719 43.3977 79.5435 43.7443 79.378L42.7911 77.6371L42.2791 77.5504L42.2476 76.936L43.4922 76.8808L44.603 79.126C44.7448 79.1023 44.8945 79.0866 45.0441 79.0787L45.4538 79.0629L45.3829 77.5425L44.666 77.448L44.6345 76.8335L46.7221 76.739L46.8403 77.3614L46.2731 77.5032ZM43.6025 81.1033C43.6419 81.9068 44.2012 82.277 45.2884 82.2298L45.6035 82.214L45.4932 79.835L45.115 79.8507C44.5872 79.8743 44.1855 80.024 43.9176 80.2919C43.6892 80.5046 43.5868 80.7724 43.6025 81.1033Z" fill="#245083"/>
<path d="M42.17 77.519L41.6894 77.6372L39.334 82.9074L38.4753 82.8207L37.1283 77.1803L36.7344 76.9754L36.8919 76.4319L38.9874 76.6446L38.9323 77.1724L38.1287 77.2827L38.4202 78.6455L40.3266 78.8346L40.8702 77.5584L40.1218 77.3063L40.1769 76.7706L42.107 76.9676L42.17 77.519ZM40.0273 79.5751L38.6014 79.4333L39.1056 81.7415L40.0273 79.5751Z" fill="#245083"/>
<path d="M35.0966 82.3323L33.2217 81.8754L33.3004 81.2137L33.8913 81.2531L35.002 76.7234L33.2926 76.3059L32.7726 77.1094L32.2212 76.9755L32.7963 75.3921L36.4909 76.298L36.4279 76.9361L35.8764 76.9046L34.7421 81.5131L35.2541 81.6864L35.0966 82.3323Z" fill="#245083"/>
<path d="M28.7556 74.6436C28.6295 74.5569 28.2672 74.3127 27.6529 73.9346L27.9286 73.3989L30.3308 74.5176L30.1497 75.1241L29.5747 74.9981L27.582 79.2757L28.0782 79.5514L27.7947 80.1659L26.0776 79.3702C25.3215 79.0236 24.8331 78.5825 24.6126 78.0625C24.4157 77.5899 24.4393 77.0778 24.6914 76.5342C24.9828 75.904 25.4239 75.5259 25.9988 75.4077C26.5029 75.3053 27.1015 75.4156 27.7947 75.7386L28.1648 75.9119L28.7556 74.6436ZM25.5341 76.9439C25.1955 77.6686 25.5184 78.2595 26.5029 78.7242L26.7865 78.8582L27.8262 76.6209L27.4875 76.4633C26.9913 76.2349 26.5659 76.1719 26.2273 76.29C25.928 76.3846 25.6917 76.6051 25.5341 76.9439Z" fill="#245083"/>
<path d="M25.2427 72.8396L22.6671 76.7863L23.1161 77.1329L22.7459 77.7001L21.1628 76.6681C20.4696 76.2112 20.0443 75.7149 19.8947 75.1635C19.7608 74.6672 19.8632 74.163 20.1861 73.6667C20.4145 73.3201 20.6902 73.0838 21.021 72.9577C21.3518 72.8317 21.7062 72.8002 22.0922 72.8711L22.3363 70.9017L21.9662 70.5314L22.3048 70.0115L23.3445 70.689L22.9349 73.1626C23.061 73.2256 23.1949 73.2965 23.3209 73.3831L23.6674 73.6116L24.5023 72.3354L23.9746 71.847L24.3133 71.3271L26.0618 72.4693L25.7941 73.0444L25.2427 72.8396ZM20.9659 74.1945C20.5248 74.8641 20.7689 75.4944 21.6747 76.0931L21.9346 76.2664L23.2342 74.2733L22.9192 74.0685C22.4702 73.777 22.0607 73.6667 21.6905 73.7219C21.3833 73.7613 21.147 73.9188 20.9659 74.1945Z" fill="#245083"/>
<path d="M20.116 68.0736C20.7226 68.6171 20.9825 69.271 20.9038 70.0351C20.8329 70.7441 20.502 71.4216 19.9112 72.0833C19.3203 72.7372 18.6744 73.1468 17.9811 73.2886C17.2249 73.4461 16.5474 73.2571 15.9408 72.7135C15.3342 72.17 15.0743 71.5161 15.1452 70.7441C15.2161 70.0272 15.5469 69.3419 16.1299 68.6959C16.7207 68.042 17.3588 67.6403 18.0678 67.4985C18.8319 67.333 19.5094 67.53 20.116 68.0736ZM19.2258 71.4373C19.6591 70.9568 19.919 70.4684 20.0136 69.9642C20.1239 69.4285 19.9821 68.9874 19.6039 68.6407C19.2179 68.2941 18.761 68.1996 18.2332 68.3572C17.7527 68.499 17.2879 68.8141 16.8546 69.3025C16.4135 69.7909 16.1456 70.2872 16.0432 70.7914C15.9408 71.3428 16.0826 71.7918 16.4607 72.1306C16.8467 72.4772 17.2958 72.5638 17.8236 72.3905C18.3199 72.2487 18.7847 71.9257 19.2258 71.4373Z" fill="#245083"/>
<path d="M16.9173 66.0726L13.2548 69.0425L13.5541 69.4916L13.0421 69.9091L11.9788 68.5935C11.3645 67.8372 11.0809 67.0731 11.1203 66.3011C11.1597 65.5054 11.5614 64.7964 12.3333 64.182C13.0973 63.5596 13.877 63.2997 14.6647 63.3863C15.4444 63.473 16.1454 63.9063 16.7676 64.6704L17.8073 65.9545L17.3662 66.4271L16.9173 66.0726ZM16.3108 65.3243C15.279 64.0481 14.1448 63.9063 12.9082 64.9067C12.349 65.3558 12.0497 65.8836 11.9946 66.4744C11.9552 67.0495 12.1521 67.6088 12.5932 68.1523L12.7349 68.3099L16.3502 65.3794L16.3108 65.3243Z" fill="#245083"/>
<path d="M7.48189 62.0315L6.58398 60.4638L7.15896 60.1329L7.48976 60.5347L10.4198 58.8489C11.0184 58.5023 11.5855 58.4235 12.1132 58.5968C12.5858 58.7465 12.9638 59.0616 13.2395 59.55C13.5782 60.1487 13.6884 60.6923 13.5545 61.2043C13.4207 61.7085 13.0662 62.126 12.4912 62.4569L9.53761 64.1506L9.76603 64.6626L9.18318 65.0014L8.15138 63.2052L8.72635 62.8744L9.10441 63.3707L12.0187 61.7006C12.3888 61.4879 12.6251 61.2358 12.7275 60.9365C12.8299 60.6371 12.7748 60.2984 12.5621 59.9281C12.2865 59.4476 11.8926 59.2349 11.3807 59.3058C11.1916 59.3294 10.9869 59.4082 10.7663 59.5342L7.85208 61.2043L8.05686 61.7164L7.48189 62.0315Z" fill="#245083"/>
<path d="M9.78993 52.8067C10.1759 53.0588 10.4909 53.5078 10.7351 54.1459C11.0344 54.9179 11.0344 55.6663 10.7587 56.4068C10.4437 57.2103 9.85294 57.7775 8.97866 58.1163C8.04926 58.4708 7.20649 58.4708 6.44248 58.1084C5.74936 57.7775 5.24528 57.2182 4.9381 56.4226C4.8042 56.0681 4.69393 55.6348 4.62305 55.1227L6.08805 54.3822L6.30858 54.9494L5.52883 55.619C5.52883 55.7372 5.58396 55.9341 5.67848 56.1941C5.78087 56.4541 5.9384 56.6825 6.14318 56.8873C6.35584 57.0843 6.59213 57.2261 6.84418 57.3206C7.39552 57.5097 7.96262 57.4939 8.55334 57.2655C9.19133 57.0213 9.64815 56.6274 9.92383 56.0759C10.1995 55.5245 10.2074 54.9258 9.96321 54.272C9.86869 54.0356 9.75055 53.8229 9.6009 53.6496C9.45125 53.4763 9.32522 53.3581 9.22283 53.2951L9.78993 52.8067Z" fill="#245083"/>
<path d="M9.28532 51.688L8.89151 50.7269L4.35473 51.7431L4.5989 52.8224L5.54406 52.9878L5.6622 53.5235L4.0003 53.7047L3 49.238L4.57527 48.6866L4.69341 49.2223L3.90578 49.7816L4.14995 50.8766L8.68672 49.8604L8.63159 48.8047L9.23019 48.7575L9.83667 51.4517L9.28532 51.688Z" fill="#245083"/>
</svg>
