<svg width="86" height="86" viewBox="0 0 86 86" fill="none" xmlns="http://www.w3.org/2000/svg">
<path d="M42.9974 0L45.5864 3.52252L48.6138 0.366177L50.7181 4.19814L54.1271 1.46471L55.7156 5.53907L59.4548 3.27496L60.4966 7.51952L64.4987 5.76084L64.9783 10.1085L69.1765 8.88624L69.0837 13.2546L73.4056 12.5944L72.7403 16.9163L77.1138 16.8235L75.8914 21.0216L80.2392 21.5013L78.4805 25.5034L82.725 26.5452L80.4609 30.2844L84.5353 31.8677L81.7967 35.2819L85.6287 37.3861L82.4723 40.4136L86 42.9974L82.4723 45.5864L85.6287 48.6138L81.7967 50.7181L84.5353 54.1271L80.4609 55.7156L82.725 59.4548L78.4805 60.4966L80.2392 64.4987L75.8914 64.9783L77.1138 69.1765L72.7403 69.0837L73.4056 73.4056L69.0837 72.7403L69.1765 77.1138L64.9783 75.8914L64.4987 80.2392L60.4966 78.4805L59.4548 82.725L55.7156 80.4609L54.1271 84.5353L50.7181 81.7967L48.6138 85.6287L45.5864 82.4723L42.9974 86L40.4136 82.4723L37.3861 85.6287L35.2819 81.7967L31.8677 84.5353L30.2844 80.4609L26.5452 82.725L25.5034 78.4805L21.5013 80.2392L21.0216 75.8914L16.8235 77.1138L16.9163 72.7403L12.5944 73.4056L13.2546 69.0837L8.88624 69.1765L10.1085 64.9783L5.76084 64.4987L7.51952 60.4966L3.27496 59.4548L5.53907 55.7156L1.46471 54.1271L4.19814 50.7181L0.366177 48.6138L3.52252 45.5864L0 42.9974L3.52252 40.4136L0.366177 37.3861L4.19814 35.2819L1.46471 31.8677L5.53907 30.2844L3.27496 26.5452L7.51952 25.5034L5.76084 21.5013L10.1085 21.0216L8.88624 16.8235L13.2546 16.9163L12.5944 12.5944L16.9163 13.2546L16.8235 8.88624L21.0216 10.1085L21.5013 5.76084L25.5034 7.51952L26.5452 3.27496L30.2844 5.53907L31.8677 1.46471L35.2819 4.19814L37.3861 0.366177L40.4136 3.52252L42.9974 0Z" fill="#245083"/>
<path d="M42.9974 79.9967C63.4316 79.9967 79.9967 63.4316 79.9967 42.9974C79.9967 22.5632 63.4316 5.99805 42.9974 5.99805C22.5632 5.99805 5.99805 22.5632 5.99805 42.9974C5.99805 63.4316 22.5632 79.9967 42.9974 79.9967Z" fill="white"/>
<path d="M42.9971 79.4964C63.155 79.4964 79.4962 63.1552 79.4962 42.9974C79.4962 22.8395 63.155 6.49829 42.9971 6.49829C22.8392 6.49829 6.49805 22.8395 6.49805 42.9974C6.49805 63.1552 22.8392 79.4964 42.9971 79.4964Z" fill="#245083"/>
<path d="M42.9973 78.9961C62.8789 78.9961 78.9961 62.8789 78.9961 42.9973C78.9961 23.1157 62.8789 6.99854 42.9973 6.99854C23.1157 6.99854 6.99854 23.1157 6.99854 42.9973C6.99854 62.8789 23.1157 78.9961 42.9973 78.9961Z" fill="white"/>
<path d="M42.9976 69.9967C57.9088 69.9967 69.9967 57.9088 69.9967 42.9976C69.9967 28.0864 57.9088 15.9985 42.9976 15.9985C28.0864 15.9985 15.9985 28.0864 15.9985 42.9976C15.9985 57.9088 28.0864 69.9967 42.9976 69.9967Z" fill="#245083"/>
<path d="M21.651 61.3527L16.2409 65.5973L15.1836 64.246L18.0872 61.9716C18.505 61.6416 18.7525 61.4353 18.8196 61.3476C18.8866 61.2599 18.9073 61.1568 18.8815 61.033C18.8557 60.9092 18.7164 60.6926 18.474 60.378L18.3709 60.2439L19.0001 59.7488C19.6551 60.2903 20.3307 60.5585 21.0321 60.5585L21.651 61.3527Z" fill="#245083"/>
<path d="M23.0692 66.108L21.4601 67.7429C21.0939 68.1142 20.8103 68.3669 20.5988 68.4959C20.3925 68.6248 20.1501 68.7022 19.882 68.7228C19.6086 68.7434 19.3507 68.697 19.1083 68.5887C18.8659 68.4752 18.6339 68.3102 18.4121 68.0936C18.1181 67.8048 17.9118 67.5314 17.7829 67.2736C17.6539 67.0157 17.6075 66.7578 17.6333 66.4999C17.6591 66.2421 17.7261 66.01 17.8345 65.8037C17.9428 65.5974 18.1645 65.3241 18.5049 64.9785L20.1914 63.2714C20.6349 62.8227 21.0063 62.5236 21.3054 62.374C21.6045 62.2244 21.9346 62.1987 22.3008 62.2915C22.667 62.3843 23.0125 62.5906 23.3426 62.9155C23.6108 63.1786 23.8067 63.4622 23.9254 63.7665C24.044 64.0708 24.0904 64.339 24.0595 64.5762C24.0337 64.8135 23.9512 65.0352 23.8222 65.2415C23.683 65.4478 23.4354 65.7366 23.0692 66.108ZM22.2492 64.4937C22.5071 64.2358 22.6515 64.0605 22.6927 63.9677C22.734 63.8748 22.7031 63.7871 22.6102 63.6943C22.5174 63.6066 22.4246 63.5808 22.3266 63.6221C22.2286 63.6634 22.0532 63.8078 21.8057 64.0605L19.4487 66.4484C19.1702 66.732 19.0155 66.9177 18.9846 67.0054C18.9536 67.093 18.9846 67.1756 19.0774 67.2684C19.1702 67.3561 19.2631 67.3819 19.3559 67.3406C19.4539 67.2993 19.6189 67.1601 19.8562 66.9177L22.2492 64.4937Z" fill="#245083"/>
<path d="M26.7519 68.8361L25.4006 70.6928C25.0963 71.1157 24.8488 71.4045 24.6631 71.5644C24.4774 71.7243 24.2505 71.8326 23.9875 71.8945C23.7193 71.9564 23.4614 71.9512 23.2035 71.8739C22.9457 71.7965 22.693 71.6676 22.4402 71.487C22.1102 71.2447 21.8575 71.0074 21.6976 70.7702C21.5325 70.5329 21.4449 70.2854 21.4346 70.0275C21.4242 69.7696 21.4552 69.5324 21.5274 69.3106C21.6047 69.0889 21.7853 68.7846 22.0689 68.3926L23.482 66.4534C23.8534 65.9428 24.1731 65.5921 24.4465 65.4013C24.7198 65.2105 25.0447 65.1331 25.4161 65.1744C25.7874 65.2105 26.1639 65.3652 26.5352 65.6385C26.8395 65.8603 27.0716 66.113 27.2366 66.3915C27.4017 66.6752 27.4842 66.933 27.4945 67.1754C27.4997 67.4178 27.4584 67.6448 27.3604 67.8717C27.2624 68.0935 27.0561 68.4132 26.7519 68.8361ZM25.7049 67.3611C25.9215 67.0671 26.0401 66.8712 26.0659 66.7732C26.0917 66.6803 26.0504 66.5927 25.9473 66.5153C25.8441 66.4379 25.7462 66.4328 25.6585 66.4844C25.5656 66.5411 25.4161 66.7113 25.2098 66.9949L23.2345 69.7077C22.9972 70.0327 22.8735 70.239 22.858 70.3266C22.8425 70.4143 22.8838 70.4968 22.9869 70.5742C23.0901 70.6515 23.1881 70.6567 23.2757 70.6051C23.3634 70.5484 23.5078 70.3885 23.7038 70.1152L25.7049 67.3611Z" fill="#245083"/>
<path d="M32.1877 68.8828L26.628 74.1072L26.04 73.8184L31.6101 68.5991L32.1877 68.8828ZM29.8204 69.1716L29.2995 70.234C29.1654 70.5125 29.0365 70.7085 28.9179 70.8168C28.7993 70.9303 28.6291 70.9973 28.4021 71.0128C28.1804 71.0334 27.9277 70.9715 27.644 70.8323C27.3191 70.6724 27.0922 70.5022 26.9735 70.3217C26.8498 70.1412 26.793 69.9658 26.8033 69.8008C26.8085 69.6357 26.8755 69.4243 27.0045 69.1664L27.5512 68.0576C27.7007 67.7533 27.8451 67.5418 27.9792 67.4284C28.1133 67.3149 28.2938 67.253 28.5156 67.2479C28.7374 67.2427 28.9798 67.3046 29.2428 67.4335C29.5316 67.5779 29.7431 67.743 29.872 67.9286C30.0009 68.1195 30.0628 68.3 30.0577 68.4702C30.0422 68.6404 29.9648 68.8776 29.8204 69.1716ZM28.9746 68.4186C29.052 68.2536 29.0932 68.1504 29.0984 68.104C29.0984 68.0576 29.0623 68.0163 28.9901 67.9802C28.923 67.9441 28.8663 67.9441 28.825 67.9751C28.7838 68.006 28.7271 68.0988 28.6497 68.2587L27.8864 69.8162C27.7987 69.9968 27.7575 70.1051 27.7575 70.1515C27.7575 70.1979 27.7936 70.2392 27.8709 70.2753C27.938 70.3062 27.9895 70.3062 28.0308 70.2753C28.0721 70.2443 28.1236 70.1515 28.201 70.0019L28.9746 68.4186ZM31.2181 73.5605L30.6972 74.623C30.5631 74.8963 30.4342 75.0923 30.3155 75.2058C30.1969 75.3192 30.0216 75.3863 29.7998 75.4069C29.578 75.4275 29.3253 75.3656 29.0417 75.2264C28.7167 75.0665 28.495 74.8963 28.3712 74.7158C28.2474 74.5301 28.1907 74.3599 28.1958 74.1897C28.201 74.0247 28.268 73.8133 28.397 73.5605L28.9437 72.4465C29.0932 72.1422 29.2325 71.936 29.3666 71.8173C29.5007 71.7039 29.6812 71.642 29.9029 71.6368C30.1247 71.6317 30.3671 71.6936 30.6301 71.8225C30.9241 71.9669 31.1356 72.1319 31.2645 72.3228C31.3934 72.5136 31.4553 72.6941 31.445 72.8643C31.4399 73.0345 31.3625 73.2666 31.2181 73.5605ZM30.3723 72.8127C30.4496 72.6477 30.4909 72.5445 30.4961 72.4981C30.5012 72.4517 30.4651 72.4104 30.3877 72.3743C30.3207 72.3382 30.264 72.3382 30.2279 72.3692C30.1866 72.4001 30.1299 72.4981 30.0525 72.658L29.2892 74.2155C29.2015 74.3909 29.1603 74.4992 29.1603 74.5456C29.1603 74.592 29.1964 74.6281 29.2737 74.6642C29.3408 74.7003 29.3975 74.7003 29.4336 74.6694C29.4697 74.6384 29.5265 74.5456 29.6038 74.396L30.3723 72.8127Z" fill="#245083"/>
<path d="M37.9688 73.3127L36.2256 72.9053L36.37 72.2967C36.4576 71.915 36.4989 71.6675 36.4886 71.5643C36.4783 71.4612 36.4112 71.3941 36.2874 71.3632C36.1791 71.3374 36.0966 71.3632 36.0399 71.4354C35.9832 71.5076 35.9109 71.7191 35.8336 72.0594L35.0806 75.2725C35.0084 75.5716 34.9826 75.7779 34.9981 75.8811C35.0136 75.9842 35.0806 76.0513 35.1941 76.0771C35.323 76.108 35.421 76.0719 35.488 75.9739C35.5602 75.8759 35.6324 75.6748 35.7047 75.3602L35.8903 74.566L35.5396 74.4834L35.7769 73.4674L37.814 73.9471L36.9682 77.5418L35.8748 77.2839L35.8284 76.7682C35.6634 76.9487 35.4726 77.0673 35.2714 77.1292C35.0651 77.1911 34.8434 77.1911 34.5958 77.1343C34.3018 77.0673 34.044 76.928 33.8222 76.7269C33.6004 76.5258 33.4457 76.304 33.3632 76.0616C33.2807 75.8192 33.2497 75.582 33.2703 75.3447C33.291 75.1075 33.358 74.7568 33.4663 74.2978L33.9357 72.307C34.0852 71.6675 34.2296 71.2085 34.3637 70.9351C34.503 70.6618 34.7608 70.4452 35.1425 70.2801C35.5241 70.1151 35.978 70.0945 36.4937 70.2182C37.0043 70.3369 37.4014 70.5432 37.6903 70.832C37.9791 71.1208 38.139 71.4199 38.1751 71.7345C38.2112 72.044 38.1647 72.4772 38.0358 73.0239L37.9688 73.3127Z" fill="#245083"/>
<path d="M42.8528 71.1935L42.5021 75.7784C42.4608 76.2993 42.4195 76.6603 42.368 76.8718C42.3164 77.0781 42.2029 77.2895 42.0173 77.4958C41.8316 77.7073 41.5995 77.8569 41.321 77.9497C41.0374 78.0425 40.7124 78.0735 40.3463 78.0477C39.9388 78.0167 39.583 77.9188 39.2787 77.764C38.9744 77.6042 38.7526 77.4082 38.6185 77.1812C38.4793 76.9543 38.4071 76.7171 38.3968 76.4695C38.3864 76.2271 38.4122 75.7165 38.469 74.9429L38.7784 70.884L40.5629 71.0181L40.1709 76.1601C40.1503 76.4592 40.1503 76.65 40.1761 76.7377C40.2019 76.8254 40.2637 76.8718 40.3617 76.877C40.4752 76.8873 40.5526 76.846 40.5887 76.7583C40.6299 76.6707 40.6609 76.454 40.6867 76.1137L41.0735 71.0594L42.8528 71.1935Z" fill="#245083"/>
<path d="M46.2158 70.9664L47.7115 77.7588L45.8857 77.8825L45.7052 76.6551L45.0657 76.7015L45.0451 77.9444L43.1987 78.0734L43.632 71.1469L46.2158 70.9664ZM45.5711 75.4431C45.4267 74.6746 45.272 73.7205 45.1018 72.5807C45.009 73.9062 44.9626 74.8758 44.9574 75.4843L45.5711 75.4431Z" fill="#245083"/>
<path d="M47.1187 70.8942L48.3564 70.6209C49.1816 70.4404 49.7438 70.3475 50.0532 70.3475C50.3575 70.3475 50.6309 70.4558 50.8733 70.6776C51.1157 70.8994 51.2962 71.2965 51.4251 71.869C51.5386 72.3899 51.554 72.7561 51.4612 72.9675C51.3684 73.1738 51.1363 73.3388 50.765 73.4575C51.1311 73.4678 51.389 73.5297 51.5386 73.6483C51.6881 73.7669 51.7913 73.8804 51.848 73.9938C51.9047 74.1073 51.9924 74.4374 52.111 74.9789L52.4978 76.753L50.8733 77.1089L50.3833 74.8758C50.3059 74.5147 50.2286 74.2981 50.1512 74.2259C50.0739 74.1537 49.9191 74.1434 49.6767 74.195L50.342 77.2224L48.5937 77.604L47.1187 70.8942ZM49.1197 71.6575L49.4498 73.1532C49.6458 73.1119 49.7799 73.0552 49.8469 72.983C49.914 72.9108 49.914 72.7303 49.8521 72.4311L49.7696 72.0598C49.7232 71.8483 49.6561 71.7142 49.5633 71.6678C49.4653 71.6163 49.3209 71.6163 49.1197 71.6575Z" fill="#245083"/>
<path d="M54.1637 68.8516L57.5676 74.9167L55.8605 75.5665L55.3293 74.4474L54.731 74.6743L55.0714 75.8657L53.3436 76.5258L51.75 69.7747L54.1637 68.8516ZM54.8548 73.3179C54.4937 72.6216 54.0657 71.7552 53.5706 70.7134C53.8697 72.0079 54.1069 72.9517 54.2771 73.5345L54.8548 73.3179Z" fill="#245083"/>
<path d="M58.4857 66.562L61.8535 72.5601L60.4867 73.3286L58.1453 71.0593L59.677 73.7876L58.3722 74.5199L55.0044 68.5218L56.3092 67.7895L58.7023 69.9969L57.186 67.2995L58.4857 66.562Z" fill="#245083"/>
<path d="M61.6002 64.179L62.4357 65.2723L61.5898 65.917L64.9267 70.2905L63.5033 71.3736L60.1664 67.0001L59.3257 67.6396L58.4902 66.5462L61.6002 64.179Z" fill="#245083"/>
<path d="M61.6265 64.1173L63.7565 62.0337L64.7209 63.0188L63.8699 63.8543L64.7828 64.7877L65.5822 64.009L66.4951 64.9425L65.6957 65.7212L66.7529 66.8043L67.6916 65.8863L68.656 66.8713L66.4383 69.0375L61.6265 64.1173Z" fill="#245083"/>
<path d="M63.9521 61.8067L65.8295 59.491L66.897 60.3574L66.1441 61.2858L67.1601 62.1058L67.8615 61.2393L68.8775 62.0645L68.1761 62.931L69.352 63.8851L70.1772 62.8639L71.2447 63.7304L69.2952 66.1389L63.9521 61.8067Z" fill="#245083"/>
<path d="M15.0647 22.0739L20.7173 25.9936L19.7373 27.4015L16.7099 25.3025C16.2716 24.9982 16.0034 24.828 15.9002 24.7867C15.7971 24.7455 15.6888 24.7558 15.5805 24.8228C15.4722 24.8847 15.302 25.0807 15.075 25.4056L14.977 25.5449L14.3169 25.0858C14.6418 24.3019 14.6985 23.5747 14.4871 22.9043L15.0647 22.0739Z" fill="#245083"/>
<path d="M20.3406 19.5464L22.0322 21.0937C22.419 21.4444 22.6769 21.7229 22.8162 21.924C22.9554 22.1251 23.0379 22.3624 23.0689 22.6357C23.0998 22.9091 23.0637 23.1669 22.9606 23.4145C22.8574 23.662 22.7027 23.8993 22.4913 24.1314C22.2128 24.4357 21.9497 24.6523 21.697 24.7915C21.4443 24.9256 21.1864 24.9875 20.9286 24.972C20.6707 24.9566 20.4386 24.8947 20.2271 24.7967C20.0157 24.6987 19.732 24.4821 19.3762 24.1572L17.6072 22.5377C17.143 22.1097 16.8284 21.7538 16.6685 21.4598C16.5086 21.1659 16.4725 20.8358 16.5499 20.4696C16.6273 20.1034 16.8232 19.7476 17.1378 19.4072C17.3906 19.1287 17.6691 18.9275 17.9682 18.7934C18.2673 18.6645 18.5355 18.6078 18.7728 18.6284C19.01 18.649 19.2369 18.7161 19.4484 18.8399C19.6598 18.9533 19.959 19.1906 20.3406 19.5464ZM18.7573 20.418C18.4891 20.1705 18.3086 20.0312 18.2158 19.9951C18.1229 19.959 18.0352 19.99 17.9476 20.0828C17.8599 20.1756 17.8393 20.2736 17.8857 20.3665C17.9321 20.4644 18.0817 20.6295 18.3447 20.8667L20.8202 23.1308C21.1142 23.399 21.305 23.5486 21.3927 23.5744C21.4804 23.6002 21.5629 23.5692 21.6506 23.4764C21.7383 23.3835 21.7589 23.2907 21.7125 23.1927C21.6661 23.0999 21.5217 22.94 21.2741 22.7079L18.7573 20.418Z" fill="#245083"/>
<path d="M24.3066 16.2716L25.7352 18.0664C26.0601 18.4738 26.2767 18.7884 26.3799 19.0102C26.483 19.232 26.5294 19.4795 26.5191 19.7529C26.5088 20.0262 26.4314 20.2738 26.2922 20.5059C26.1529 20.7328 25.957 20.9442 25.7146 21.1402C25.3948 21.3981 25.0957 21.5735 24.8275 21.6663C24.5541 21.7591 24.2963 21.7798 24.0436 21.723C23.7908 21.6663 23.5691 21.5735 23.3782 21.4394C23.1874 21.3104 22.9399 21.0526 22.6356 20.6761L21.1399 18.7988C20.748 18.3036 20.4953 17.9014 20.3818 17.5868C20.2735 17.2722 20.2838 16.9421 20.4179 16.5914C20.552 16.2407 20.7995 15.9209 21.1606 15.6321C21.4545 15.3949 21.7588 15.2401 22.0734 15.1576C22.388 15.0751 22.6614 15.0648 22.8935 15.1164C23.1255 15.1731 23.337 15.2762 23.5278 15.431C23.7238 15.5857 23.9817 15.8642 24.3066 16.2716ZM22.6046 16.8905C22.3777 16.6069 22.223 16.4367 22.1353 16.3851C22.0528 16.3335 21.9548 16.349 21.8568 16.4315C21.7588 16.5089 21.7227 16.6017 21.7485 16.7048C21.7794 16.808 21.9032 16.9988 22.125 17.2722L24.2189 19.8973C24.4665 20.2119 24.6315 20.3872 24.714 20.4285C24.7965 20.4698 24.8842 20.4491 24.9874 20.3718C25.0854 20.2944 25.1215 20.2016 25.0957 20.1036C25.0647 20.0056 24.9461 19.8199 24.7347 19.5569L22.6046 16.8905Z" fill="#245083"/>
<path d="M26.7931 13.4403L27.3501 14.4821C27.4945 14.7555 27.5822 14.9721 27.6028 15.1371C27.6235 15.3021 27.577 15.4775 27.4636 15.6683C27.3501 15.8591 27.1541 16.0293 26.8756 16.1789C26.5559 16.3491 26.2877 16.4316 26.0659 16.4265C25.8493 16.4213 25.674 16.3646 25.5399 16.2614C25.4109 16.1583 25.2768 15.9829 25.1427 15.7302L24.56 14.642C24.4001 14.3429 24.3124 14.1056 24.2969 13.9303C24.2815 13.7549 24.3382 13.5744 24.462 13.3887C24.5909 13.2031 24.7817 13.0432 25.0396 12.9039C25.3233 12.7492 25.5811 12.677 25.8132 12.6822C26.0453 12.6873 26.2258 12.7389 26.3599 12.8472C26.494 12.9504 26.6384 13.1515 26.7931 13.4403ZM25.6946 13.6879C25.6069 13.528 25.5502 13.4352 25.5141 13.4042C25.478 13.3733 25.4212 13.3784 25.349 13.4197C25.282 13.4558 25.251 13.4971 25.251 13.5486C25.251 13.6002 25.2923 13.7033 25.38 13.8581L26.2 15.3847C26.2928 15.56 26.3599 15.658 26.396 15.6838C26.4321 15.7096 26.4888 15.7044 26.561 15.6632C26.6281 15.6271 26.659 15.5858 26.6539 15.5342C26.6487 15.4827 26.6126 15.3847 26.5301 15.2403L25.6946 13.6879ZM27.9381 11.3412L28.9438 18.9072L28.3661 19.2166L27.3656 11.6507L27.9381 11.3412ZM31.1769 14.8586L31.7391 15.9056C31.8835 16.1738 31.966 16.3904 31.9918 16.5554C32.0124 16.7204 31.966 16.8958 31.8525 17.0918C31.7391 17.2826 31.5431 17.4528 31.2646 17.6024C30.95 17.7726 30.6767 17.8551 30.46 17.8448C30.2383 17.8396 30.0629 17.7829 29.934 17.6797C29.8051 17.5766 29.671 17.4012 29.5369 17.1485L28.9489 16.0551C28.789 15.756 28.7014 15.5239 28.6859 15.3434C28.6704 15.1681 28.7272 14.9875 28.8509 14.8019C28.9747 14.6162 29.1707 14.4563 29.4234 14.3171C29.7122 14.1624 29.9701 14.0902 30.2022 14.0953C30.4343 14.1005 30.6148 14.1572 30.7489 14.2655C30.8778 14.3738 31.0222 14.5698 31.1769 14.8586ZM30.0784 15.1113C29.9907 14.9514 29.934 14.8586 29.8927 14.8277C29.8566 14.7967 29.7999 14.8019 29.7277 14.8431C29.6606 14.8792 29.6297 14.9205 29.6297 14.9721C29.6349 15.0236 29.6761 15.1268 29.7586 15.2815L30.5787 16.8081C30.6715 16.9783 30.7334 17.0815 30.7695 17.1072C30.8056 17.133 30.8623 17.1279 30.9345 17.0866C31.0016 17.0505 31.0325 17.0093 31.0325 16.9628C31.0274 16.9164 30.9861 16.8184 30.9087 16.6637L30.0784 15.1113Z" fill="#245083"/>
<path d="M36.7828 11.1863L35.0551 11.6402L34.8952 11.0367C34.7972 10.6551 34.7147 10.423 34.658 10.3353C34.6012 10.2476 34.5084 10.2219 34.3846 10.2528C34.2763 10.2786 34.2144 10.3405 34.199 10.4333C34.1835 10.5261 34.2196 10.7428 34.3073 11.0831L35.1428 14.2756C35.2201 14.5747 35.2923 14.7655 35.3542 14.8481C35.4161 14.9306 35.5089 14.9615 35.6224 14.9306C35.7462 14.8996 35.8184 14.8223 35.839 14.7037C35.8545 14.585 35.8235 14.3684 35.741 14.059L35.5347 13.2699L35.184 13.3627L34.921 12.3519L36.9479 11.8207L37.8814 15.3896L36.7931 15.6733L36.5095 15.24C36.4476 15.4773 36.3393 15.6681 36.1846 15.8177C36.0298 15.9672 35.8339 16.0755 35.5915 16.1374C35.3026 16.2148 35.0087 16.2148 34.7199 16.1374C34.431 16.0652 34.1886 15.9363 34.003 15.7661C33.8173 15.5907 33.6781 15.3948 33.5852 15.173C33.4924 14.9512 33.3841 14.616 33.2655 14.157L32.7497 12.1817C32.5847 11.5473 32.497 11.078 32.4919 10.7685C32.4867 10.4643 32.6105 10.1497 32.8735 9.82474C33.1365 9.49982 33.5233 9.26774 34.0391 9.13365C34.5445 8.99955 34.9932 8.99439 35.38 9.11817C35.7668 9.23679 36.0505 9.42762 36.2258 9.69065C36.4012 9.94852 36.5611 10.3508 36.7055 10.8975L36.7828 11.1863Z" fill="#245083"/>
<path d="M41.7284 8.08685L42.1616 12.6615C42.208 13.1824 42.2287 13.5486 42.2132 13.76C42.1977 13.9715 42.1203 14.1984 41.9759 14.4356C41.8315 14.6729 41.6252 14.8585 41.3674 15.003C41.1043 15.1422 40.7897 15.2299 40.4236 15.266C40.0161 15.3021 39.6499 15.2711 39.3199 15.1628C38.995 15.0545 38.7422 14.905 38.5669 14.6987C38.3915 14.4975 38.2781 14.2758 38.2265 14.0385C38.1749 13.8013 38.113 13.2958 38.0408 12.5222L37.6592 8.4685L39.4385 8.29831L39.9233 13.4299C39.9491 13.7291 39.9852 13.9199 40.0264 13.9973C40.0677 14.0798 40.1347 14.1107 40.2327 14.1056C40.3462 14.0952 40.4132 14.0437 40.439 13.9457C40.4648 13.8528 40.4597 13.6311 40.4287 13.2907L39.9542 8.24673L41.7284 8.08685Z" fill="#245083"/>
<path d="M46.3292 8.25693L46.9429 15.1833L45.1172 15.075L45.0966 13.8373L44.457 13.8012L44.2765 15.0286L42.4302 14.9203L43.7505 8.10736L46.3292 8.25693ZM45.1172 12.6149C45.0708 11.831 45.0398 10.8666 45.014 9.71648C44.7562 11.0213 44.5808 11.9754 44.4983 12.5788L45.1172 12.6149Z" fill="#245083"/>
<path d="M48.4644 8.48895L49.7022 8.75714C50.5273 8.93765 51.0792 9.08721 51.3577 9.21615C51.6362 9.34508 51.8373 9.55654 51.9663 9.86083C52.0952 10.16 52.0952 10.5983 51.9714 11.1708C51.858 11.6917 51.7187 12.0321 51.5485 12.1817C51.3783 12.3312 51.0998 12.388 50.7079 12.3415C51.0328 12.5014 51.2442 12.6665 51.3319 12.8367C51.4196 13.0069 51.466 13.1564 51.466 13.2802C51.4712 13.4091 51.4093 13.7392 51.2958 14.2859L50.9141 16.06L49.2896 15.7093L49.7744 13.4762C49.8517 13.1152 49.8723 12.8882 49.8362 12.7902C49.8001 12.6923 49.6609 12.6149 49.4185 12.5633L48.7635 15.5959L47.0151 15.2194L48.4644 8.48895ZM49.9652 10.0207L49.6403 11.5164C49.8362 11.5576 49.9807 11.5628 50.0735 11.5267C50.1663 11.4906 50.2437 11.3255 50.3056 11.0264L50.3881 10.6551C50.4345 10.4436 50.4242 10.294 50.3623 10.2115C50.3004 10.129 50.1663 10.062 49.9652 10.0207Z" fill="#245083"/>
<path d="M56.706 10.8979L55.1846 17.6799L53.4775 17.0198L53.8333 15.8336L53.2351 15.6015L52.6884 16.7155L50.9658 16.0502L54.2924 9.96442L56.706 10.8979ZM54.2305 14.6835C54.4264 13.9253 54.6895 12.9918 55.0144 11.8881C54.3697 13.0537 53.9159 13.9098 53.6528 14.4617L54.2305 14.6835Z" fill="#245083"/>
<path d="M62.1364 13.7702L58.7016 19.727L57.3452 18.9431L58.1033 15.7713L56.5406 18.4789L55.2461 17.7311L58.6809 11.7743L59.9755 12.5221L59.2947 15.7042L60.8419 13.0224L62.1364 13.7702Z" fill="#245083"/>
<path d="M66.1903 16.8753L65.3342 17.9532L64.5038 17.293L61.0845 21.6046L59.6816 20.4958L63.101 16.1842L62.2707 15.5292L63.1268 14.4513L66.1903 16.8753Z" fill="#245083"/>
<path d="M66.9797 17.6332L69.0582 19.7684L68.0731 20.7277L67.2428 19.8716L66.3093 20.7793L67.0881 21.5787L66.1494 22.4915L65.3706 21.6921L64.2876 22.7494L65.2056 23.6881L64.2205 24.6473L62.0596 22.4245L66.9797 17.6332Z" fill="#245083"/>
<path d="M69.8931 20.7485L71.6982 23.1209L70.6049 23.9565L69.8828 23.0075L68.8462 23.7966L69.5218 24.6836L68.48 25.4779L67.8044 24.5908L66.6027 25.5088L67.3969 26.5558L66.3036 27.3913L64.4263 24.9209L69.8931 20.7485Z" fill="#245083"/>
<path d="M42.9976 68.9961C57.3562 68.9961 68.9961 57.3561 68.9961 42.9975C68.9961 28.6389 57.3562 16.999 42.9976 16.999C28.639 16.999 16.999 28.6389 16.999 42.9975C16.999 57.3561 28.639 68.9961 42.9976 68.9961Z" fill="white"/>
<path d="M42.9973 68.4958C57.0796 68.4958 68.4956 57.0798 68.4956 42.9975C68.4956 28.9152 57.0796 17.4992 42.9973 17.4992C28.915 17.4992 17.499 28.9152 17.499 42.9975C17.499 57.0798 28.915 68.4958 42.9973 68.4958Z" fill="#245083"/>
<path d="M42.9975 67.9955C56.8036 67.9955 67.9956 56.8035 67.9956 42.9975C67.9956 29.1914 56.8036 17.9995 42.9975 17.9995C29.1915 17.9995 17.9995 29.1914 17.9995 42.9975C17.9995 56.8035 29.1915 67.9955 42.9975 67.9955Z" fill="white"/>
<path d="M83.9989 52.9974H2.00108C0.897391 52.9974 0 52.1 0 50.9963V34.998C0 33.8943 0.897391 32.9969 2.00108 32.9969H83.9989C85.1026 32.9969 86 33.8943 86 34.998V50.9963C86 52.1052 85.1026 52.9974 83.9989 52.9974Z" fill="#245083"/>
<path d="M2.00103 51.9973C1.44918 51.9973 1.00049 51.5486 1.00049 50.9968V34.9985C1.00049 34.4466 1.44918 33.9979 2.00103 33.9979H83.9989C84.5507 33.9979 84.9994 34.4466 84.9994 34.9985V50.9968C84.9994 51.5486 84.5507 51.9973 83.9989 51.9973H2.00103Z" fill="white"/>
<path d="M2.00076 51.497C1.72741 51.497 1.50049 51.2753 1.50049 50.9968V34.9984C1.50049 34.7251 1.72226 34.4982 2.00076 34.4982H83.9986C84.2719 34.4982 84.4989 34.7199 84.4989 34.9984V50.9968C84.4989 51.2701 84.2771 51.497 83.9986 51.497H2.00076Z" fill="#245083"/>
<path d="M42.9984 64.9987L44.4631 62.0332L47.7329 61.5587L45.3657 59.2534L45.9227 55.999L42.9984 57.5359L40.0741 55.999L40.6363 59.2534L38.269 61.5587L41.5388 62.0332L42.9984 64.9987Z" fill="#245083"/>
<path d="M52.9983 60.2485L53.7307 58.7683L55.3656 58.5311L54.1845 57.3758L54.463 55.7461L52.9983 56.5146L51.5388 55.7461L51.8173 57.3758L50.6362 58.5311L52.266 58.7683L52.9983 60.2485Z" fill="#245083"/>
<path d="M32.9978 60.2485L33.7302 58.7683L35.3651 58.5311L34.184 57.3758L34.4625 55.7461L32.9978 56.5146L31.5383 55.7461L31.8168 57.3758L30.6357 58.5311L32.2706 58.7683L32.9978 60.2485Z" fill="#245083"/>
<path d="M42.9984 21.0007L44.4631 23.961L47.7329 24.4355L45.3657 26.7409L45.9227 30.0004L42.9984 28.4635L40.0741 30.0004L40.6363 26.7409L38.269 24.4355L41.5388 23.961L42.9984 21.0007Z" fill="#245083"/>
<path d="M32.9978 25.7505L33.7302 27.2307L35.3651 27.4679L34.184 28.6232L34.4625 30.2478L32.9978 29.4793L31.5383 30.2478L31.8168 28.6232L30.6357 27.4679L32.2706 27.2307L32.9978 25.7505Z" fill="#245083"/>
<path d="M52.9983 25.7505L53.7307 27.2307L55.3656 27.4679L54.1845 28.6232L54.463 30.2478L52.9983 29.4793L51.5388 30.2478L51.8173 28.6232L50.6362 27.4679L52.266 27.2307L52.9983 25.7505Z" fill="#245083"/>
<path d="M17.8346 46.0662C18.2214 46.3344 18.4741 46.5046 18.5928 46.5717C18.7681 46.6696 19.0105 46.7883 19.3096 46.9224L18.4484 48.6604C18.0151 48.449 17.5871 48.2014 17.1642 47.9126C16.7413 47.6238 16.4421 47.4072 16.2771 47.2576C15.5911 47.5516 14.735 47.7011 13.7087 47.7011C12.1873 47.7011 10.9856 47.304 10.1088 46.5098C9.07217 45.5711 8.55127 44.2508 8.55127 42.554C8.55127 40.9036 9.00512 39.6246 9.91283 38.7066C10.8205 37.7937 12.0944 37.3347 13.7242 37.3347C15.39 37.3347 16.669 37.7834 17.5768 38.6756C18.4793 39.5679 18.9332 40.8469 18.9332 42.5128C18.928 43.9929 18.5618 45.1792 17.8346 46.0662ZM15.4622 44.4829C15.7098 44.0394 15.8335 43.3792 15.8335 42.5025C15.8335 41.4916 15.6479 40.7696 15.2714 40.3363C14.8949 39.9031 14.3792 39.6865 13.7138 39.6865C13.1001 39.6865 12.5998 39.9083 12.2182 40.3518C11.8365 40.7953 11.6457 41.4864 11.6457 42.4251C11.6457 43.5185 11.8314 44.2869 12.2079 44.7305C12.5792 45.174 13.095 45.3958 13.7448 45.3958C13.9562 45.3958 14.1522 45.3751 14.3379 45.3339C14.08 45.0812 13.6674 44.8439 13.1053 44.6222L13.5901 43.5081C13.8634 43.5597 14.0749 43.6216 14.2296 43.6938C14.3843 43.766 14.6783 43.9568 15.1218 44.2663C15.225 44.3282 15.3384 44.4055 15.4622 44.4829Z" fill="white"/>
<path d="M27.1178 37.5098H30.2071V43.4821C30.2071 44.0752 30.1143 44.6322 29.9286 45.1583C29.743 45.6843 29.4541 46.1434 29.0622 46.5405C28.6702 46.9324 28.2525 47.2109 27.8192 47.3708C27.2158 47.5926 26.4938 47.706 25.6531 47.706C25.1632 47.706 24.6319 47.6699 24.0595 47.6029C23.4818 47.5359 23.0022 47.3966 22.6154 47.1955C22.2286 46.9943 21.8727 46.7055 21.553 46.329C21.2332 45.9577 21.0114 45.5709 20.8928 45.1738C20.702 44.5342 20.604 43.9721 20.604 43.4821V37.5098H23.6933V43.6214C23.6933 44.1681 23.8429 44.5961 24.1472 44.9004C24.4514 45.2099 24.8692 45.3594 25.4107 45.3594C25.9419 45.3594 26.3597 45.2099 26.664 44.9056C26.9683 44.6013 27.1178 44.1732 27.1178 43.6162V37.5098Z" fill="white"/>
<path d="M37.9379 45.8752H34.4205L33.9305 47.5307H30.769L34.534 37.5098H37.9121L41.677 47.5307H38.433L37.9379 45.8752ZM37.2983 43.709L36.1947 40.1092L35.1013 43.709H37.2983Z" fill="white"/>
<path d="M42.667 37.5098H45.7614V45.0654H50.5939V47.5307H42.667V37.5098Z" fill="white"/>
<path d="M52.126 37.5098H55.2307V47.5307H52.126V37.5098Z" fill="white"/>
<path d="M56.7471 37.5098H66.1594V39.9854H63.003V47.5307H59.9086V39.9854H56.7522V37.5098H56.7471Z" fill="white"/>
<path d="M66.5513 37.5098H69.9913L72.0078 40.8931L74.0295 37.5098H77.4489L73.555 43.3326V47.5307H70.4503V43.3326L66.5513 37.5098Z" fill="white"/>
</svg>
