<svg width="86" height="86" viewBox="0 0 86 86" fill="none" xmlns="http://www.w3.org/2000/svg">
<circle cx="43" cy="43" r="43" fill="white"/>
<path d="M42.8451 7.16281C42.6752 7.16659 42.5278 7.10993 42.4032 7.00038C42.2785 6.89083 42.2181 6.75485 42.2143 6.59618C42.2105 6.43376 42.271 6.29776 42.3918 6.18066C42.5127 6.06733 42.6563 6.0069 42.8263 6.00312C42.9962 5.99934 43.1436 6.05601 43.2644 6.16555C43.3853 6.2751 43.4495 6.41487 43.4533 6.57352C43.4571 6.73218 43.3967 6.86817 43.2796 6.98527C43.1587 7.10237 43.0113 7.15904 42.8451 7.16281Z" fill="#245083"/>
<path d="M42.3918 12.3456L42.3163 7.81632L43.3853 7.80121L43.4609 12.3304L42.3918 12.3456Z" fill="#245083"/>
<path d="M41.3152 8.65115L41.2472 7.82765L40.3559 7.90291L40.2651 6.81906L39.1998 6.90972L39.2916 7.99276L38.6521 8.04675L38.7201 8.87025L39.3614 8.8161L39.5738 11.3218C39.5927 11.6052 39.6758 11.8356 39.8156 12.0131C39.9553 12.1907 40.1329 12.3153 40.3557 12.3871C40.5748 12.4589 40.8204 12.4778 41.0848 12.4475C41.2359 12.4324 41.3643 12.4098 41.4663 12.3758C41.5683 12.3418 41.6476 12.3153 41.7043 12.2889L41.455 11.4729C41.4286 11.4843 41.387 11.4956 41.3303 11.5107C41.2775 11.5258 41.217 11.5334 41.149 11.5409C41.0584 11.5485 40.979 11.5409 40.9035 11.5183C40.8279 11.4956 40.7637 11.4503 40.7146 11.3785C40.6617 11.3067 40.6315 11.201 40.6202 11.0574L40.4249 8.72632L41.3152 8.65115Z" fill="#245083"/>
<path fill-rule="evenodd" clip-rule="evenodd" d="M36.1514 13.1917C35.8718 13.2522 35.6074 13.2522 35.3619 13.1993C35.1163 13.1464 34.9086 13.0331 34.7348 12.8631C34.5648 12.6931 34.4477 12.4627 34.3873 12.1718C34.3344 11.9225 34.3382 11.7034 34.3948 11.5221C34.4515 11.3407 34.5497 11.1821 34.6895 11.0499C34.8293 10.9177 34.9917 10.8043 35.1843 10.7137C35.3732 10.6192 35.5734 10.5399 35.785 10.4719L35.8123 10.4629C36.053 10.3839 36.2514 10.3188 36.4007 10.2641C36.5594 10.2075 36.6689 10.147 36.7331 10.0866C36.7973 10.0224 36.82 9.94306 36.7973 9.84107L36.7935 9.82218C36.7482 9.60308 36.6462 9.45198 36.4951 9.35754C36.3403 9.26689 36.1438 9.24422 35.9021 9.29711C35.6452 9.34999 35.4563 9.44821 35.3279 9.59176C35.2032 9.73529 35.1314 9.88639 35.1088 10.0488L34.104 10.1168C34.1229 9.82973 34.2022 9.58042 34.342 9.36132C34.4817 9.14223 34.6668 8.96091 34.9048 8.81359C35.1428 8.67004 35.4148 8.56427 35.7245 8.49628C35.9398 8.45094 36.1552 8.43205 36.378 8.43584C36.6009 8.43962 36.8124 8.48495 37.0089 8.5605C37.2091 8.63982 37.3828 8.76448 37.5302 8.93825C37.6775 9.11201 37.7833 9.34622 37.8437 9.64086L38.467 12.61L37.4622 12.8215L37.3337 12.2133L37.2998 12.2209C37.262 12.3569 37.1978 12.4929 37.1033 12.6213C37.0127 12.7535 36.8842 12.8669 36.7293 12.9688C36.5782 13.0708 36.3818 13.1426 36.1514 13.1917ZM36.2609 12.3682C36.4725 12.3229 36.6424 12.2436 36.7822 12.1265C36.9182 12.0094 37.0127 11.8734 37.0693 11.7185C37.126 11.5636 37.1335 11.4012 37.0995 11.2387L36.99 10.7174C36.9635 10.7514 36.9107 10.7892 36.8389 10.827C36.7671 10.8648 36.684 10.9063 36.5896 10.9441C36.5182 10.9738 36.4446 11.0012 36.3722 11.0281L36.3698 11.029C36.351 11.036 36.3323 11.0429 36.3138 11.0499C36.2899 11.0588 36.2667 11.0673 36.2444 11.0753C36.2274 11.0815 36.2109 11.0874 36.1948 11.0931C36.1702 11.1019 36.1467 11.1103 36.1242 11.1185C36.1075 11.1247 36.0914 11.1307 36.0758 11.1368C35.9247 11.1896 35.7925 11.2539 35.6792 11.3294C35.5659 11.405 35.4828 11.4918 35.4299 11.5901C35.377 11.692 35.3657 11.8091 35.3921 11.9414C35.4336 12.134 35.5319 12.2662 35.6943 12.3342C35.8567 12.4022 36.0456 12.4136 36.2609 12.3682Z" fill="#245083"/>
<path d="M31.2935 14.6347L30.3529 12.1529C30.2736 11.9489 30.2472 11.76 30.2698 11.5863C30.2925 11.4125 30.3529 11.2652 30.4625 11.1368C30.572 11.0083 30.7118 10.9101 30.8856 10.8459C31.1424 10.7477 31.3728 10.7514 31.5806 10.8572C31.7884 10.963 31.947 11.1556 32.0528 11.439L33.0161 13.9812L34.0133 13.6035L32.9934 10.9063C32.865 10.5663 32.6988 10.3019 32.4872 10.1093C32.2757 9.91662 32.0377 9.79951 31.7733 9.75796C31.5088 9.71641 31.2293 9.7504 30.9384 9.85995C30.6211 9.97705 30.3831 10.147 30.2207 10.3699C30.0583 10.5928 29.9752 10.8383 29.9676 11.1141L29.9185 11.133L29.6465 10.4115L28.6908 10.7741L30.2963 15.0125L31.2935 14.6347Z" fill="#245083"/>
<path d="M27.5462 16.4857L25.4044 12.4929L26.3186 12.0018L26.6774 12.6666L26.719 12.644C26.6699 12.3758 26.6963 12.1302 26.8096 11.9074C26.9192 11.6883 27.0892 11.5145 27.3196 11.3936C27.3725 11.3634 27.4291 11.337 27.4971 11.3067C27.5651 11.2765 27.6218 11.2538 27.6709 11.2387L28.1355 12.1038C28.0864 12.1114 28.0184 12.134 27.9278 12.168C27.8371 12.202 27.7502 12.2436 27.6709 12.2851C27.5009 12.3758 27.3649 12.4967 27.2705 12.644C27.1723 12.7913 27.1232 12.95 27.1118 13.1237C27.1043 13.2937 27.1458 13.4675 27.2365 13.6375L28.4982 15.9833L27.5462 16.4857Z" fill="#245083"/>
<path fill-rule="evenodd" clip-rule="evenodd" d="M24.188 18.5104C24.5658 18.4727 24.9397 18.3216 25.31 18.0571C25.597 17.8532 25.8199 17.6265 25.9823 17.381C26.141 17.1354 26.2354 16.8786 26.2657 16.6179C26.2959 16.3573 26.2581 16.1004 26.1561 15.8511L25.2797 16.3384C25.3137 16.4706 25.3213 16.599 25.2948 16.7237C25.2722 16.8483 25.2193 16.9654 25.1437 17.075C25.0644 17.1845 24.9624 17.2828 24.8378 17.3734C24.6489 17.5056 24.4562 17.585 24.256 17.6038C24.0596 17.6265 23.8669 17.5887 23.6781 17.4905C23.4982 17.3988 23.3327 17.25 23.1814 17.0441L25.7481 15.2089L25.5593 14.9407C25.3288 14.6158 25.0833 14.3703 24.8264 14.2003C24.5696 14.0303 24.3089 13.9246 24.0445 13.883C23.7801 13.8452 23.5194 13.8603 23.2663 13.9321C23.0132 14.0039 22.7715 14.121 22.5448 14.2834C22.1897 14.5365 21.9442 14.8349 21.7969 15.1825C21.6495 15.53 21.608 15.9002 21.6684 16.2893C21.7289 16.6821 21.8951 17.0674 22.1671 17.4452C22.4428 17.8305 22.7526 18.1138 23.1001 18.2951C23.4476 18.4764 23.8103 18.5482 24.188 18.5104ZM22.7631 16.4579L24.494 15.2202C24.3731 15.054 24.2296 14.9331 24.0672 14.8538C23.9047 14.7745 23.7309 14.7405 23.5534 14.7556C23.3721 14.7707 23.2021 14.8387 23.0359 14.9558C22.8583 15.0842 22.7337 15.2353 22.6619 15.4204C22.5901 15.6018 22.5637 15.7906 22.5901 15.9795C22.6135 16.1499 22.6694 16.3085 22.7631 16.4579Z" fill="#245083"/>
<path d="M17.8796 16.8143L18.6653 16.0891L19.3995 16.8858L20.0554 16.2817L20.6145 16.8899L19.9594 17.4933L21.5476 19.2168C21.6458 19.3226 21.7364 19.3868 21.8195 19.4133C21.9026 19.4397 21.982 19.4359 22.0537 19.4095C22.1255 19.3793 22.1935 19.3339 22.2577 19.2773C22.3068 19.2319 22.3484 19.1866 22.3824 19.1413L22.3958 19.1234L22.397 19.1219C22.424 19.086 22.4451 19.058 22.4579 19.0355L23.1568 19.5266C23.1463 19.545 23.1339 19.5656 23.1198 19.5884C23.0932 19.6312 23.0602 19.6814 23.0208 19.7381C22.9603 19.825 22.8735 19.9232 22.7639 20.029C22.5713 20.2179 22.3673 20.3501 22.1482 20.4294C21.9291 20.5087 21.71 20.5201 21.4909 20.4672C21.2718 20.4143 21.0678 20.2821 20.8752 20.0705L19.1717 18.2189L18.6993 18.654L18.1402 18.0458L18.6124 17.6109L17.8796 16.8143Z" fill="#245083"/>
<path d="M18.9184 23.9916L16.8861 22.2842C16.7199 22.1444 16.6028 21.9933 16.5386 21.8384C16.4706 21.676 16.4555 21.5136 16.4857 21.3511C16.5159 21.1849 16.5915 21.0338 16.7123 20.8903C16.8899 20.6787 17.0939 20.5692 17.3243 20.5578C17.5547 20.5465 17.7889 20.6372 18.0194 20.8336L20.1008 22.5826L20.7883 21.7629L18.5784 19.9081C18.3027 19.6739 18.0231 19.5228 17.7474 19.4586C17.4716 19.3944 17.2072 19.4095 16.9541 19.5001C16.701 19.5946 16.4744 19.7608 16.2742 19.9988C16.0588 20.2594 15.9342 20.5238 15.9002 20.7958C15.8662 21.0678 15.9115 21.3247 16.04 21.5664L16.006 21.608L15.4167 21.1131L14.7594 21.8951L18.2309 24.8113L18.9184 23.9916Z" fill="#245083"/>
<path d="M12.6704 22.3144L17.7096 25.6461L17.1052 26.5603L12.066 23.2285L12.6704 22.3144Z" fill="#245083"/>
<path d="M6.22221 42.2483L7.13637 42.3276L7.29502 40.4615L12.4022 40.8959L12.4929 39.8156L7.38569 39.3811L7.54434 37.5226L6.63019 37.4433L6.22221 42.2483Z" fill="#245083"/>
<path d="M10.487 35.6225L13.0595 36.2798L12.7951 37.3149L6.93994 35.819L7.19681 34.8066L9.40665 35.3694L9.41799 35.3166C9.19511 35.1504 9.04024 34.9426 8.95335 34.6895C8.86647 34.4364 8.86269 34.1418 8.94957 33.8056C9.0289 33.4996 9.16112 33.2503 9.34621 33.0576C9.53131 32.865 9.76552 32.7365 10.0413 32.6723C10.317 32.6119 10.6343 32.6232 10.9894 32.7139L13.7848 33.4278L13.5204 34.4628L10.8837 33.7905C10.589 33.7149 10.3397 33.7338 10.1357 33.8433C9.93172 33.9529 9.79574 34.1418 9.72396 34.4175C9.67863 34.5988 9.67485 34.7726 9.71641 34.9388C9.75796 35.1012 9.84484 35.2448 9.97328 35.3619C10.1055 35.4828 10.2755 35.5697 10.487 35.6225Z" fill="#245083"/>
<path fill-rule="evenodd" clip-rule="evenodd" d="M14.2267 31.777C14.5289 31.5504 14.7707 31.2255 14.952 30.81C15.0918 30.4851 15.1636 30.1792 15.1862 29.8883C15.1938 29.5974 15.1447 29.3292 15.0351 29.0912C14.9256 28.8532 14.7631 28.653 14.5441 28.4906L14.0454 29.3632C14.1436 29.4576 14.2154 29.5672 14.257 29.6843C14.2985 29.8014 14.3136 29.9298 14.3061 30.062C14.2985 30.1943 14.2607 30.3303 14.2003 30.4738C14.1096 30.6853 13.9812 30.8515 13.8226 30.9724C13.6639 31.0933 13.4788 31.1575 13.2673 31.1726C13.0628 31.1872 12.8442 31.1454 12.6115 31.0471L13.8641 28.1469L13.5619 28.0184C13.1993 27.8598 12.8631 27.7729 12.5533 27.7615C12.2436 27.7464 11.9678 27.7918 11.7185 27.8938C11.4692 27.9958 11.2576 28.1431 11.0763 28.3357C10.895 28.5284 10.7477 28.7513 10.6381 29.0081C10.4643 29.4048 10.4077 29.7901 10.4606 30.164C10.5135 30.5342 10.6683 30.8742 10.9214 31.1764C11.1745 31.4786 11.5183 31.7241 11.9451 31.9092C12.3795 32.0981 12.7951 32.1774 13.1842 32.1548C13.5732 32.1283 13.9208 32.0037 14.2267 31.777ZM11.9518 30.7598L12.7951 28.8041C12.6062 28.7248 12.4211 28.6946 12.2398 28.7097C12.0585 28.7248 11.896 28.7853 11.7487 28.891C11.6014 28.9968 11.4881 29.1441 11.4087 29.3292C11.3218 29.5294 11.2954 29.7259 11.3256 29.9185C11.3558 30.1112 11.4314 30.2849 11.5523 30.436C11.6604 30.5711 11.7926 30.6791 11.9518 30.7598Z" fill="#245083"/>
<path fill-rule="evenodd" clip-rule="evenodd" d="M45.2665 12.1945C45.5649 12.4249 45.9389 12.5609 46.3771 12.61C46.8191 12.6591 47.2082 12.6024 47.5519 12.4438C47.8957 12.2851 48.1752 12.0434 48.3905 11.7147C48.6058 11.3861 48.738 10.9894 48.7909 10.5248C48.84 10.0564 48.7985 9.64086 48.6587 9.27066C48.5189 8.90047 48.2999 8.60204 47.9977 8.37162C47.6992 8.14497 47.3253 8.00142 46.8871 7.95609C46.4489 7.91076 46.056 7.96365 45.7123 8.1223C45.3685 8.28095 45.089 8.52272 44.8736 8.85513C44.6583 9.18378 44.5261 9.58419 44.4732 10.0488C44.4241 10.5172 44.4657 10.9328 44.6055 11.2992C44.7452 11.6656 44.9643 11.964 45.2665 12.1945ZM47.0948 11.6278C46.9211 11.7412 46.7133 11.7865 46.4753 11.76C46.2336 11.7336 46.0371 11.6429 45.8898 11.4956C45.7425 11.3483 45.6405 11.1556 45.5876 10.9252C45.5309 10.691 45.5196 10.4379 45.5498 10.1659C45.58 9.89018 45.6443 9.64464 45.75 9.42932C45.852 9.214 45.9918 9.04779 46.1693 8.93446C46.3469 8.82114 46.5546 8.77581 46.8002 8.80225C47.042 8.82869 47.2308 8.91558 47.3781 9.06668C47.5217 9.21778 47.6199 9.40665 47.6766 9.64086C47.7332 9.87506 47.7446 10.1282 47.7143 10.4039C47.6841 10.6797 47.6161 10.9214 47.5141 11.1368C47.4084 11.3483 47.2686 11.5145 47.0948 11.6278Z" fill="#245083"/>
<path d="M50.9516 10.623L50.249 13.1842L49.2178 12.9008L50.4153 8.53027L51.4012 8.79848L51.1972 9.54265L51.2501 9.55775C51.4163 9.33866 51.6316 9.19134 51.8922 9.10823C52.1529 9.02513 52.4475 9.0289 52.7724 9.11579C53.0746 9.19889 53.3202 9.33488 53.509 9.52753C53.6979 9.72019 53.8226 9.95439 53.8792 10.2302C53.9359 10.5059 53.917 10.8232 53.8188 11.1707L53.0519 13.9548L52.0207 13.6715L52.7422 11.0499C52.8215 10.759 52.8102 10.5097 52.7044 10.3019C52.5986 10.0942 52.4136 9.95439 52.1491 9.88262C51.9678 9.83351 51.7978 9.82973 51.6392 9.86751C51.4767 9.90906 51.337 9.99217 51.2199 10.1168C51.0952 10.2453 51.0083 10.4115 50.9516 10.623Z" fill="#245083"/>
<path d="M62.0084 11.5901L58.9524 16.7992L58.0307 16.259L61.0867 11.0499L62.0084 11.5901Z" fill="#245083"/>
<path d="M65.4459 13.849L61.4418 18.3745L62.2615 19.0997L63.9614 17.177L66.0579 19.0317L64.358 20.9545L65.1815 21.6798L69.1857 17.1543L68.3622 16.429L66.6661 18.3442L64.5696 16.4895L66.2657 14.5743L65.4459 13.849Z" fill="#245083"/>
<path fill-rule="evenodd" clip-rule="evenodd" d="M66.9532 23.9992C66.6699 23.6441 66.4999 23.2777 66.4432 22.9037C66.3865 22.5297 66.4394 22.1633 66.6018 21.8044C66.7643 21.4493 67.0287 21.1207 67.3989 20.8261C67.7616 20.5352 68.1393 20.3501 68.5246 20.267C68.9099 20.1839 69.2839 20.2103 69.6352 20.335C69.9903 20.4634 70.3038 20.6938 70.572 21.0338C70.7458 21.2529 70.8742 21.4871 70.9611 21.7364C71.048 21.9857 71.0744 22.2464 71.048 22.5108C71.0216 22.779 70.9309 23.0434 70.776 23.3079C70.6211 23.5723 70.3869 23.8292 70.0772 24.0785L69.8203 24.2825L67.85 21.818C67.6569 21.9792 67.5168 22.1511 67.4329 22.3371C67.346 22.5297 67.3196 22.7261 67.3498 22.9226C67.38 23.119 67.4669 23.3079 67.6142 23.4892C67.7124 23.6101 67.8144 23.7083 67.9278 23.7763C68.0411 23.8481 68.1582 23.8896 68.2866 23.9085C68.4113 23.9274 68.5397 23.9161 68.6682 23.8707L69.2045 24.7207C68.959 24.834 68.7059 24.8869 68.4415 24.8718C68.1771 24.8567 67.9202 24.7773 67.6671 24.63C67.4102 24.4827 67.1723 24.2711 66.9532 23.9992ZM69.7447 23.0321L68.4138 21.3693C68.559 21.2666 68.7186 21.2002 68.8872 21.1698C69.0761 21.132 69.265 21.1471 69.4501 21.2114C69.6352 21.2756 69.7976 21.3927 69.9336 21.5627C70.0583 21.7213 70.1376 21.8913 70.1603 22.0688C70.1829 22.2464 70.1603 22.4164 70.0885 22.5864C70.0167 22.7564 69.9034 22.9037 69.7447 23.0321Z" fill="#245083"/>
<path fill-rule="evenodd" clip-rule="evenodd" d="M68.9779 26.5339C69.0044 26.7832 69.0875 27.0325 69.231 27.2818C69.3481 27.4858 69.4803 27.6444 69.639 27.7729C69.7825 27.8938 69.9298 27.9769 70.0847 28.0222C70.2396 28.0675 70.3869 28.0902 70.5267 28.0826L70.5456 28.1128L70.0054 28.4226L70.5191 29.3103L73.1445 27.7955C73.4052 27.6444 73.594 27.4707 73.7149 27.278C73.8358 27.0854 73.9 26.8814 73.9113 26.6661C73.9227 26.4545 73.8962 26.2392 73.832 26.0277C73.7678 25.8124 73.6809 25.6122 73.5714 25.4233C73.4127 25.1513 73.2276 24.9246 73.0161 24.7433C72.8045 24.562 72.5703 24.4411 72.321 24.3769C72.0717 24.3127 71.8073 24.3165 71.5277 24.3845L71.9017 25.3175C72.0604 25.2835 72.2304 25.3062 72.4041 25.3817C72.5779 25.4573 72.729 25.6084 72.8612 25.835C72.9821 26.0503 73.0274 26.2468 72.9858 26.4205C72.9481 26.5981 72.831 26.7416 72.6383 26.8512L72.6232 26.8587C72.5325 26.9116 72.4494 26.9154 72.3701 26.8738C72.2908 26.8323 72.2001 26.7454 72.0981 26.6132C71.9961 26.481 71.8639 26.3072 71.7091 26.0919C71.5769 25.9144 71.4371 25.7481 71.2898 25.597C71.1387 25.4422 70.9838 25.3213 70.8138 25.2306C70.6438 25.1362 70.4662 25.0909 70.2736 25.0946C70.081 25.0946 69.877 25.1589 69.6541 25.2873C69.3934 25.4384 69.2121 25.6197 69.1026 25.835C68.993 26.0503 68.9515 26.2845 68.9779 26.5339ZM70.436 27.5462C70.2849 27.4518 70.1527 27.312 70.047 27.1269C69.9374 26.9343 69.8883 26.7529 69.9034 26.5754C69.9185 26.4016 70.0129 26.2657 70.1829 26.1674C70.3038 26.0957 70.4171 26.073 70.5305 26.0919C70.64 26.1108 70.7496 26.1637 70.8553 26.2468C70.9611 26.3299 71.0631 26.4356 71.1613 26.5641C71.2029 26.6207 71.2558 26.6887 71.3162 26.7643C71.3506 26.8124 71.3877 26.8592 71.426 26.9054C71.4508 26.9353 71.476 26.965 71.5013 26.9947C71.5655 27.0703 71.626 27.1383 71.6864 27.1949C71.7468 27.2516 71.7959 27.2894 71.8375 27.3045L71.3766 27.5727C71.2331 27.6558 71.0782 27.6973 70.912 27.6936C70.7496 27.6898 70.5871 27.6407 70.436 27.5462Z" fill="#245083"/>
<path d="M70.8629 30.1376L75.0408 28.3848L75.4412 29.3405L74.7462 29.6314L74.765 29.6768C75.037 29.6503 75.2788 29.7032 75.4903 29.8354C75.6981 29.9676 75.853 30.1527 75.955 30.3907C75.9569 30.3951 75.9588 30.3996 75.9607 30.4042C75.964 30.4123 75.9674 30.4206 75.9707 30.4291C75.9771 30.4453 75.9836 30.4622 75.9902 30.4798L75.9997 30.5048L76.0001 30.5057C76.0052 30.5195 76.0106 30.5336 76.016 30.5479C76.0195 30.5571 76.0231 30.5664 76.0267 30.5758C76.0377 30.6087 76.0478 30.6399 76.0561 30.6688C76.065 30.6997 76.072 30.728 76.0758 30.7533L75.1692 31.1349C75.1655 31.0858 75.1504 31.014 75.1277 30.9195C75.1013 30.8251 75.071 30.7345 75.037 30.6513C74.9615 30.4738 74.8557 30.3265 74.7197 30.2169C74.5837 30.1074 74.4288 30.0394 74.2589 30.0167C74.0889 29.9903 73.9151 30.0167 73.7376 30.0923L71.2822 31.1235L70.8629 30.1376Z" fill="#245083"/>
<path d="M77.8815 32.9934L77.5793 31.9697L76.539 32.2791L76.3554 31.6599L75.5621 31.8942L75.7462 32.5149L73.3372 33.2314C73.0652 33.3107 72.8574 33.4354 72.7101 33.6091C72.5628 33.7829 72.4797 33.9869 72.4532 34.2173C72.4268 34.4477 72.457 34.6933 72.5401 34.9464C72.5854 35.0937 72.6345 35.2108 72.6874 35.3052C72.7403 35.3997 72.7856 35.4714 72.8196 35.5206L73.5676 35.1088C73.5525 35.0824 73.5336 35.0446 73.5071 34.9917C73.4807 34.9388 73.458 34.8821 73.4391 34.8179C73.4127 34.731 73.4051 34.648 73.4089 34.5724C73.4127 34.4969 73.4467 34.4251 73.5071 34.3609C73.5638 34.2966 73.6658 34.2437 73.8018 34.2022L76.049 33.5363L76.3025 34.3911L77.0958 34.1569L76.8421 33.3014L77.8815 32.9934Z" fill="#245083"/>
<path fill-rule="evenodd" clip-rule="evenodd" d="M73.4316 38.8787L73.3372 37.7153L79.5285 39.3509L79.638 40.6995L73.7867 43.306L73.6922 42.1425L75.1404 41.5224L74.9573 39.2575L73.4316 38.8787ZM78.3499 40.148L75.9931 41.1572L75.8575 39.481L78.3461 40.0989L78.3499 40.148Z" fill="#245083"/>
<path d="M76.7105 46.6113L76.7369 47.5897C77.1298 47.5481 77.4471 47.3857 77.6926 47.0948C77.9419 46.8077 78.0892 46.3998 78.1308 45.8709C78.161 45.5121 78.1308 45.1872 78.0401 44.9039C77.9495 44.6168 77.8059 44.3901 77.6133 44.2201C77.4206 44.0464 77.1864 43.9519 76.9069 43.9331C76.5745 43.9028 76.2949 43.9822 76.0645 44.1748C75.8341 44.3675 75.6565 44.6735 75.5319 45.1003L75.309 45.8596C75.2486 46.0636 75.1692 46.2109 75.0786 46.3053C74.9879 46.3998 74.8746 46.4413 74.7462 46.43C74.5951 46.4186 74.4704 46.3318 74.3797 46.1693C74.2891 46.0069 74.2551 45.7991 74.274 45.5461C74.2929 45.3005 74.3608 45.1041 74.4779 44.9605C74.595 44.8132 74.7575 44.7263 74.9652 44.6961L74.9501 43.6497C74.5308 43.68 74.1908 43.8575 73.9302 44.1748C73.6696 44.4921 73.5185 44.9303 73.4731 45.4818C73.4429 45.8596 73.4769 46.1996 73.5751 46.498C73.6733 46.7964 73.8244 47.0382 74.0284 47.2195C74.2324 47.4008 74.478 47.5028 74.7613 47.5292C75.0861 47.5519 75.3581 47.4688 75.5734 47.2761C75.7887 47.0835 75.9625 46.7775 76.0872 46.3582L76.3138 45.6027C76.3856 45.3761 76.4649 45.2174 76.5556 45.1267C76.6462 45.0323 76.7558 44.9945 76.888 45.0059C77.0391 45.0172 77.16 45.1003 77.2431 45.259C77.3262 45.4138 77.3602 45.6027 77.3413 45.8256C77.3262 45.9918 77.2884 46.1278 77.228 46.2373C77.1675 46.3431 77.0882 46.43 76.9976 46.4904C76.9069 46.5509 76.8125 46.5924 76.7105 46.6113Z" fill="#245083"/>
<path d="M75.7472 52.338L75.8568 51.3634C75.9588 51.3596 76.0607 51.3332 76.159 51.2841C76.2572 51.2387 76.3478 51.1632 76.4234 51.065C76.4989 50.9668 76.5556 50.8346 76.5934 50.6721C76.6425 50.4568 76.6349 50.2642 76.5745 50.0942C76.514 49.9242 76.4083 49.826 76.2572 49.7957C76.1287 49.7655 76.0154 49.7882 75.9096 49.8675C75.8077 49.9468 75.7057 50.0904 75.6037 50.3057L75.2712 51.0234C75.0861 51.4201 74.8746 51.6996 74.6329 51.862C74.3911 52.0207 74.1115 52.066 73.7942 51.998C73.5147 51.9338 73.288 51.7978 73.1143 51.5901C72.9368 51.3823 72.8234 51.1216 72.7705 50.8119C72.7176 50.5021 72.729 50.1622 72.8121 49.792C72.933 49.2518 73.1483 48.84 73.4467 48.5643C73.7489 48.2847 74.1115 48.1601 74.5308 48.1903L74.3986 49.2291C74.1871 49.2291 74.0171 49.2933 73.8811 49.4218C73.7451 49.5464 73.6507 49.7315 73.5978 49.9695C73.5412 50.2188 73.5487 50.4266 73.6167 50.6003C73.6847 50.7741 73.7942 50.8761 73.9416 50.9101C74.0662 50.9403 74.1833 50.9139 74.2891 50.8346C74.3949 50.7552 74.4893 50.6192 74.58 50.4266L74.9086 49.7089C75.0937 49.3047 75.3128 49.0251 75.5697 48.8703C75.8265 48.7154 76.1136 48.6738 76.4347 48.7494C76.7067 48.8098 76.9258 48.9382 77.092 49.1347C77.2582 49.3311 77.3678 49.5766 77.4169 49.8713C77.466 50.1659 77.4509 50.4908 77.3715 50.8421C77.2544 51.3596 77.0505 51.7449 76.7634 51.9905C76.48 52.2322 76.1401 52.3493 75.7472 52.338Z" fill="#245083"/>
<path fill-rule="evenodd" clip-rule="evenodd" d="M72.1699 53.1804C71.8715 53.4108 71.6411 53.7319 71.4786 54.1436C71.3162 54.5554 71.2671 54.9482 71.3237 55.326C71.388 55.7 71.5504 56.0324 71.811 56.327C72.0717 56.6179 72.423 56.8521 72.8574 57.0221C73.2918 57.1921 73.7073 57.2601 74.1002 57.2223C74.4931 57.1845 74.8406 57.0485 75.139 56.8181C75.4374 56.5877 75.6679 56.2666 75.8303 55.8548C75.9927 55.4431 76.0418 55.0502 75.9776 54.6763C75.9172 54.3023 75.751 53.9699 75.4903 53.6752C75.2297 53.3806 74.8784 53.1464 74.444 52.9764C74.0095 52.8026 73.594 52.7384 73.2049 52.7762C72.8159 52.814 72.4683 52.9499 72.1699 53.1804ZM72.2379 55.0956C72.1737 54.8954 72.185 54.6838 72.2719 54.4609C72.3626 54.2343 72.4985 54.0681 72.6836 53.9699C72.865 53.8679 73.0765 53.8188 73.3145 53.8263C73.5525 53.8339 73.798 53.8868 74.0549 53.9888C74.3117 54.087 74.5308 54.2192 74.7122 54.3741C74.8935 54.5289 75.0181 54.7065 75.0824 54.9067C75.1466 55.1069 75.1353 55.3185 75.0446 55.5489C74.9539 55.7718 74.8217 55.9342 74.6366 56.0362C74.4515 56.1382 74.24 56.1835 74.002 56.1759C73.764 56.1684 73.5147 56.1155 73.2578 56.0135C73.001 55.9115 72.7856 55.7831 72.6043 55.6282C72.423 55.4696 72.3021 55.2958 72.2379 55.0956Z" fill="#245083"/>
<path d="M69.3708 58.4764C69.5974 58.0874 69.8808 57.8003 70.2132 57.6189C70.5494 57.4376 70.912 57.3621 71.3011 57.3885C71.6902 57.415 72.0868 57.5434 72.4797 57.7738C72.8763 58.0042 73.1823 58.2876 73.4014 58.6162C73.6167 58.9486 73.73 59.3037 73.7376 59.6815C73.7451 60.0592 73.6394 60.4407 73.4165 60.8223C73.2314 61.1396 73.0085 61.3889 72.7479 61.5664C72.4872 61.744 72.2115 61.846 71.913 61.8686C71.6146 61.8913 71.32 61.8309 71.0253 61.6873L71.5391 60.8072C71.7468 60.8827 71.9546 60.8903 72.1586 60.8298C72.3626 60.7694 72.5288 60.6296 72.661 60.4067C72.7705 60.2179 72.8159 60.0214 72.797 59.8212C72.7781 59.621 72.6988 59.4246 72.5552 59.2357C72.4117 59.0468 72.2115 58.8769 71.947 58.722C71.6788 58.5671 71.4295 58.4727 71.1915 58.4387C70.9536 58.4047 70.7458 58.4311 70.5569 58.5104C70.3718 58.5936 70.2207 58.7295 70.1112 58.9222C70.0318 59.0582 69.9865 59.1942 69.9752 59.3339C69.9639 59.4699 69.9865 59.6059 70.0432 59.7381C70.0998 59.8703 70.1905 59.9874 70.3151 60.097L69.8014 60.9809C69.537 60.7958 69.3406 60.5729 69.2083 60.3085C69.0761 60.0441 69.0233 59.7532 69.0459 59.4397C69.0761 59.1262 69.1819 58.8051 69.3708 58.4764Z" fill="#245083"/>
<path d="M71.6486 63.4477L68.0033 60.7581L67.3687 61.6156L71.014 64.3051L71.6486 63.4477Z" fill="#245083"/>
<path d="M72.2455 64.0105C72.083 64.0407 71.9508 64.1276 71.8488 64.2636C71.7468 64.3996 71.709 64.5507 71.7317 64.7169C71.7506 64.8831 71.8224 65.0115 71.9508 65.106C72.0792 65.2004 72.2266 65.2344 72.389 65.2042C72.5514 65.174 72.6799 65.0909 72.7819 64.9549C72.8839 64.8189 72.9254 64.6678 72.9065 64.5016C72.8876 64.3354 72.8121 64.2032 72.6836 64.1087C72.5552 64.0143 72.4079 63.9803 72.2455 64.0105Z" fill="#245083"/>
<path fill-rule="evenodd" clip-rule="evenodd" d="M65.8728 63.289C66.0655 63.0774 66.2808 62.9226 66.5112 62.8243C66.7416 62.7261 66.9758 62.6959 67.2176 62.7337C67.4556 62.7715 67.686 62.8923 67.9051 63.0925C68.094 63.2663 68.2186 63.4439 68.2753 63.6252C68.3357 63.8065 68.3471 63.9916 68.3093 64.1805C68.2715 64.3693 68.2035 64.5545 68.1015 64.7433C67.9995 64.9284 67.8862 65.1135 67.754 65.2911L67.725 65.3304C67.5798 65.5274 67.461 65.6887 67.3725 65.8161C67.278 65.9521 67.2214 66.0655 67.2062 66.1523C67.1911 66.2392 67.2214 66.3186 67.2969 66.3903L67.3083 66.4016C67.4707 66.5527 67.6444 66.6208 67.822 66.6056C67.9995 66.5905 68.1733 66.4923 68.3433 66.311C68.5208 66.1183 68.619 65.9257 68.6379 65.7368C68.6568 65.5479 68.6266 65.3817 68.5473 65.2344L69.3254 64.596C69.4765 64.8415 69.5559 65.0909 69.571 65.3515C69.5861 65.6084 69.537 65.869 69.4312 66.1221C69.3217 66.379 69.163 66.6208 68.9477 66.8549C68.8004 67.0136 68.6342 67.1571 68.449 67.2818C68.2639 67.4065 68.0675 67.4933 67.8635 67.5462C67.6558 67.5991 67.4405 67.5991 67.2214 67.5424C66.9985 67.4858 66.7794 67.3574 66.5565 67.1534L64.324 65.1022L65.0191 64.3467L65.4762 64.7698L65.4988 64.7433C65.4497 64.6111 65.4233 64.4638 65.4233 64.3051C65.4233 64.1465 65.4573 63.9765 65.529 63.8027C65.6008 63.6365 65.7142 63.4628 65.8728 63.289ZM66.2657 64.0218C66.1221 64.1805 66.0277 64.3467 65.9823 64.5204C65.9408 64.6942 65.9408 64.8604 65.9861 65.0191C66.0314 65.1777 66.1183 65.3137 66.2392 65.427L66.6321 65.7897C66.6358 65.7481 66.6547 65.6877 66.6887 65.6122C66.7227 65.5366 66.7718 65.4573 66.8247 65.3742C66.8344 65.359 66.8442 65.3438 66.8541 65.3286C66.8675 65.308 66.8811 65.2874 66.8947 65.2669C66.912 65.2409 66.9293 65.215 66.9465 65.1894L66.9471 65.1884C66.9606 65.1683 66.974 65.1483 66.9872 65.1286C67.015 65.0896 67.0402 65.0524 67.0635 65.0179L67.0741 65.0021L67.0877 64.9822L67.0973 64.9681L67.1034 64.9592L67.1053 64.9566C67.109 64.9513 67.1127 64.946 67.1163 64.9408L67.1191 64.937L67.1227 64.932L67.126 64.9273L67.1307 64.9209C67.2214 64.7886 67.2931 64.6602 67.3422 64.5356C67.3914 64.4109 67.4065 64.29 67.3913 64.1767C67.3762 64.0634 67.3196 63.9614 67.2176 63.8669C67.074 63.7347 66.9154 63.6856 66.7454 63.7234C66.5754 63.7574 66.413 63.8594 66.2657 64.0218Z" fill="#245083"/>
<path d="M66.2279 70.8704L67.0401 70.1792L66.336 69.3487L66.8247 68.9326L66.2883 68.3017L65.8004 68.7171L64.1767 66.8021C63.9916 66.5867 63.7952 66.447 63.5761 66.3828C63.3608 66.3186 63.1417 66.3223 62.9188 66.3941C62.6959 66.4659 62.4882 66.5905 62.2879 66.7681C62.1746 66.8663 62.084 66.9607 62.0198 67.0476C61.9555 67.1345 61.9064 67.2025 61.8762 67.2554L62.5524 67.7767C62.557 67.7697 62.5627 67.7617 62.5694 67.7527L62.5742 67.7463L62.5799 67.7389L62.5859 67.7311C62.5892 67.7269 62.5927 67.7225 62.5963 67.718C62.6023 67.7105 62.6087 67.7025 62.6156 67.6941C62.6207 67.6879 62.6261 67.6814 62.6317 67.6747C62.6695 67.6293 62.7148 67.584 62.7639 67.5425C62.8319 67.4858 62.9037 67.4442 62.9755 67.4178C63.0472 67.3914 63.1266 67.3914 63.2097 67.4216C63.2928 67.4518 63.3797 67.5198 63.4741 67.6293L64.9869 69.4098L64.3051 69.9903L64.8415 70.6211L65.523 70.0409L66.2279 70.8704Z" fill="#245083"/>
<path d="M61.2756 67.6256L63.9161 71.3086L63.0472 71.9319L60.4068 68.2488L61.2756 67.6256Z" fill="#245083"/>
<path d="M63.8556 72.1435C63.9954 72.0452 64.1465 72.0037 64.3089 72.0264C64.4714 72.049 64.5998 72.1246 64.6942 72.253C64.7887 72.3852 64.8189 72.5325 64.7849 72.695C64.7509 72.8574 64.6678 72.9896 64.528 73.0878C64.392 73.1861 64.2409 73.2238 64.0747 73.2049C63.9123 73.1823 63.7801 73.1067 63.6856 72.9745C63.5912 72.8461 63.561 72.6987 63.595 72.5363C63.6327 72.3739 63.7159 72.2454 63.8556 72.1435Z" fill="#245083"/>
<path fill-rule="evenodd" clip-rule="evenodd" d="M59.0355 69.4048C58.654 69.3934 58.2724 69.4954 57.8872 69.7107C57.4981 69.9261 57.211 70.198 57.0297 70.5305C56.8408 70.8591 56.7539 71.218 56.769 71.6108C56.7841 72.0037 56.9088 72.4041 57.1354 72.8121C57.3621 73.22 57.6378 73.5374 57.9665 73.7564C58.2951 73.9755 58.6464 74.0927 59.0242 74.104C59.4019 74.1153 59.7872 74.0133 60.1725 73.798C60.5578 73.5827 60.8449 73.3107 61.0338 72.982C61.2227 72.6534 61.3058 72.2908 61.2907 71.8979C61.2756 71.5013 61.1509 71.1009 60.9243 70.6929C60.6976 70.2849 60.4181 69.9714 60.0932 69.7523C59.7646 69.5332 59.4133 69.4161 59.0355 69.4048ZM57.872 70.9271C57.9476 70.7307 58.0911 70.5758 58.2989 70.4587C58.5142 70.3416 58.722 70.3 58.9335 70.3378C59.1413 70.3756 59.3339 70.4738 59.5115 70.6287C59.689 70.7873 59.8439 70.9838 59.9799 71.2255C60.1159 71.4673 60.2028 71.709 60.2443 71.9432C60.2859 72.1775 60.2707 72.3965 60.1914 72.5892C60.1121 72.7819 59.9685 72.9405 59.7532 73.0614C59.5455 73.1785 59.3377 73.2163 59.13 73.1785C58.9222 73.1407 58.7295 73.0425 58.552 72.8839C58.3707 72.7252 58.2158 72.525 58.0798 72.2832C57.9476 72.0415 57.8607 71.8035 57.8191 71.5693C57.7776 71.3351 57.7965 71.1198 57.872 70.9271Z" fill="#245083"/>
<path d="M55.3147 73.9793L54.4005 71.4862L55.4015 71.1198L56.9579 75.3732L55.9984 75.7245L55.734 75.003L55.6849 75.0219C55.6735 75.2939 55.5866 75.5432 55.4242 75.7623C55.2618 75.9814 55.02 76.1476 54.7027 76.2647C54.4081 76.3705 54.1285 76.4045 53.8641 76.3592C53.5997 76.3138 53.3617 76.1929 53.1539 76.0003C52.9462 75.8076 52.78 75.5394 52.6591 75.1995L51.6656 72.491L52.6666 72.1246L53.6034 74.6782C53.7092 74.9615 53.8641 75.1579 54.0681 75.2637C54.2721 75.3694 54.5063 75.377 54.7631 75.2826C54.9369 75.2183 55.0805 75.1239 55.1862 74.9955C55.2958 74.8708 55.36 74.7197 55.3827 74.5497C55.4166 74.3722 55.3902 74.1833 55.3147 73.9793Z" fill="#245083"/>
<path d="M49.5615 77.5982L48.8627 73.1218L47.8088 73.2805L48.2205 75.9134C48.2508 76.1061 48.2319 76.2798 48.1676 76.4385C48.1034 76.6009 48.0014 76.7331 47.8617 76.8389C47.7219 76.9447 47.5557 77.0127 47.363 77.0429C47.2761 77.058 47.1817 77.0655 47.0835 77.0693C47.0247 77.0716 46.9755 77.0711 46.9348 77.0688C46.9075 77.0672 46.8841 77.0648 46.8644 77.0618L47.0155 78.0326C47.0646 78.0326 47.125 78.0326 47.2006 78.025C47.2724 78.0175 47.3404 78.0099 47.397 78.0024C47.6539 77.9646 47.8692 77.8588 48.0468 77.685C48.2243 77.5113 48.3338 77.2922 48.3754 77.0202L48.4207 77.0127L48.5378 77.7568L49.5615 77.5982Z" fill="#245083"/>
<path fill-rule="evenodd" clip-rule="evenodd" d="M43.9519 73.56C44.4052 73.5449 44.8019 73.6242 45.1381 73.8056C45.4743 73.9831 45.7349 74.2438 45.9238 74.5875C46.1127 74.9313 46.2147 75.3392 46.2298 75.8114C46.2449 76.276 46.1693 76.6916 46.0031 77.0467C45.8369 77.4055 45.5989 77.6888 45.2854 77.8966C44.9719 78.1044 44.5979 78.2177 44.1673 78.2328C43.8877 78.2441 43.6233 78.2064 43.3702 78.127C43.1171 78.0477 42.8942 77.9155 42.694 77.7342C42.4976 77.5528 42.3389 77.3224 42.2181 77.0391C42.0972 76.7558 42.033 76.4158 42.0179 76.0154L42.0065 75.6868L45.1598 75.5809C45.1493 75.328 45.0931 75.1139 44.9945 74.935C44.8925 74.7499 44.7528 74.6102 44.5752 74.5195C44.3977 74.4251 44.1937 74.3835 43.9633 74.3911C43.8084 74.3949 43.6686 74.4213 43.544 74.4704C43.4193 74.5195 43.3135 74.5875 43.2229 74.6782C43.1322 74.7688 43.068 74.8784 43.0227 75.0068L42.0216 74.9275C42.0745 74.663 42.1879 74.4288 42.3578 74.2286C42.5278 74.0284 42.7469 73.8698 43.0151 73.7527C43.2909 73.6356 43.6006 73.5714 43.9519 73.56ZM43.0529 76.3705L45.1832 76.2987C45.1785 76.4751 45.1401 76.6423 45.0625 76.7973C44.9794 76.9711 44.8548 77.1147 44.6923 77.2242C44.5299 77.3337 44.341 77.3942 44.1219 77.4017C43.9179 77.4093 43.7366 77.3678 43.578 77.2809C43.4193 77.194 43.2947 77.0731 43.204 76.9144C43.1133 76.7558 43.0604 76.5745 43.0529 76.3705Z" fill="#245083"/>
<path d="M40.4124 73.7829C40.114 73.5487 39.74 73.4051 39.2905 73.3523C38.9128 73.3069 38.5765 73.3372 38.2819 73.4505C37.9872 73.5562 37.7455 73.7224 37.5528 73.9491C37.3602 74.1758 37.2355 74.444 37.1713 74.7613L38.1837 74.8784C38.2366 74.7197 38.3083 74.5875 38.4066 74.4855C38.5048 74.3835 38.6181 74.308 38.7503 74.2626C38.8825 74.2173 39.0261 74.2022 39.1809 74.2211C39.4 74.2475 39.5851 74.3306 39.7362 74.4666C39.8873 74.6026 39.9931 74.7877 40.0573 75.0181C40.1215 75.2486 40.1329 75.5168 40.0989 75.8227C40.0649 76.1249 39.9893 76.378 39.8722 76.5858C39.7551 76.7898 39.6078 76.9409 39.4303 77.0391C39.2527 77.1335 39.0525 77.1713 38.8372 77.1449C38.5803 77.1147 38.3839 77.0164 38.2479 76.854C38.1119 76.6916 38.0364 76.4989 38.0213 76.276L37.0089 76.1589C36.9938 76.4838 37.058 76.7784 37.1978 77.0429C37.3375 77.3073 37.5377 77.5226 37.8059 77.6888C38.0741 77.855 38.3877 77.9608 38.7541 78.0024C39.1923 78.0515 39.5851 77.9986 39.9289 77.8399C40.2726 77.6813 40.556 77.4357 40.7713 77.1071C40.9866 76.7747 41.1226 76.3818 41.1755 75.9247C41.2284 75.4714 41.1906 75.0597 41.0584 74.6895C40.9262 74.3193 40.7108 74.0171 40.4124 73.7829Z" fill="#245083"/>
<path fill-rule="evenodd" clip-rule="evenodd" d="M34.8217 72.4683C35.2486 72.5854 35.5923 72.7819 35.853 73.0576C36.1136 73.3334 36.2836 73.662 36.3629 74.0473C36.4422 74.4326 36.4196 74.8519 36.2949 75.3015C36.1703 75.751 35.9738 76.125 35.7094 76.4158C35.445 76.7067 35.1277 76.9031 34.765 77.0051C34.3986 77.1071 34.0058 77.0958 33.5789 76.9787C33.1521 76.8616 32.8083 76.6651 32.5477 76.3894C32.287 76.1136 32.117 75.785 32.0415 75.3959C31.9621 75.0106 31.9886 74.5913 32.1132 74.138C32.2379 73.6885 32.4343 73.3145 32.6988 73.0274C32.9632 72.7365 33.2767 72.5439 33.6431 72.4419C34.0095 72.3399 34.3949 72.3475 34.8217 72.4683ZM34.5875 73.2918C34.3571 73.2276 34.1455 73.239 33.9529 73.322C33.764 73.4052 33.5978 73.5449 33.4618 73.7413C33.3258 73.9378 33.22 74.1644 33.1483 74.4326C33.0727 74.7008 33.0463 74.9539 33.0614 75.1919C33.0765 75.4299 33.1483 75.6339 33.2654 75.8077C33.3862 75.9776 33.56 76.0985 33.7905 76.1627C34.0284 76.2269 34.2438 76.2194 34.4326 76.1325C34.6253 76.0456 34.7915 75.9059 34.9275 75.7094C35.0635 75.513 35.1692 75.2826 35.2448 75.0144C35.3166 74.75 35.3468 74.4969 35.3279 74.2589C35.3128 74.0209 35.241 73.8169 35.1201 73.6469C35.003 73.4731 34.8255 73.356 34.5875 73.2918Z" fill="#245083"/>
<path d="M30.0281 75.8794L32.0679 71.8337L31.1122 71.354L29.8732 73.8131C29.7901 73.9793 29.6805 74.1115 29.5521 74.2022C29.4237 74.2967 29.2839 74.3495 29.1366 74.3609C28.9892 74.376 28.8457 74.3457 28.7097 74.2778C28.5095 74.1758 28.3773 74.0322 28.3131 73.8434C28.2489 73.6545 28.2715 73.4543 28.3773 73.2465L29.6919 70.6362L28.755 70.164L27.4858 72.6874C27.3687 72.9179 27.21 73.069 27.0098 73.1483C26.8096 73.2276 26.5943 73.2087 26.3639 73.0916C26.1712 72.9934 26.039 72.8536 25.9635 72.6685C25.8917 72.4834 25.9181 72.2643 26.0428 72.015L27.3347 69.4463L26.379 68.9628L25.0115 71.6788C24.7849 72.1321 24.7282 72.5326 24.8453 72.8876C24.9624 73.2427 25.2042 73.5109 25.5782 73.6998C25.8728 73.8471 26.1599 73.9076 26.4394 73.8811C26.719 73.8547 26.9607 73.7527 27.1647 73.5714L27.2063 73.594C27.1723 73.8622 27.2138 74.1115 27.3347 74.3382C27.4556 74.5648 27.652 74.7462 27.9278 74.8859C28.1997 75.0219 28.4642 75.0748 28.7248 75.0408C28.9855 75.0068 29.2159 74.8973 29.4161 74.7084L29.4652 74.7311L29.1177 75.4186L30.0281 75.8794Z" fill="#245083"/>
<path d="M25.7255 68.5359L22.813 72.0075L22.0311 71.3502L22.5259 70.7609L22.4844 70.7269C22.2464 70.8629 21.9933 70.9195 21.7327 70.8931C21.472 70.8667 21.2265 70.7533 20.9923 70.5569C20.7581 70.3605 20.607 70.1376 20.539 69.8845C20.471 69.6352 20.4899 69.3859 20.5881 69.1328L20.5503 69.1026C20.3123 69.231 20.0517 69.2763 19.7721 69.2386C19.4926 69.2008 19.2282 69.0761 18.9751 68.8646C18.654 68.5964 18.4802 68.2753 18.4462 67.9051C18.4122 67.5349 18.5596 67.1534 18.8844 66.7681L20.8412 64.4373L21.6609 65.1248L19.8099 67.3271C19.6286 67.5424 19.553 67.7464 19.5832 67.9429C19.6135 68.1393 19.7117 68.3055 19.8779 68.4453C20.0743 68.6115 20.2821 68.6795 20.4936 68.6493C20.7089 68.619 20.8978 68.5057 21.0603 68.3093L22.8772 66.1448L23.6781 66.8172L21.8007 69.0534C21.6496 69.231 21.5853 69.4199 21.6004 69.6163C21.6193 69.8127 21.7138 69.9865 21.8875 70.13C22.0046 70.2283 22.1368 70.2887 22.2842 70.3114C22.4315 70.334 22.5788 70.3151 22.7261 70.2547C22.8735 70.1943 23.0057 70.0923 23.1266 69.9525L24.8982 67.8409L25.7255 68.5359Z" fill="#245083"/>
<path fill-rule="evenodd" clip-rule="evenodd" d="M19.6777 63.2361C19.6172 62.8621 19.4473 62.4957 19.1602 62.1444C18.9373 61.8724 18.6993 61.6609 18.4273 61.5136C18.1705 61.37 17.9136 61.2907 17.6492 61.2756C17.3885 61.2605 17.1354 61.3134 16.8899 61.4305L17.4301 62.2766C17.5585 62.2351 17.6869 62.22 17.8116 62.2388C17.9363 62.2577 18.0571 62.3031 18.1705 62.3711C18.2838 62.4428 18.3896 62.5373 18.4878 62.6582C18.6351 62.8395 18.7258 63.0283 18.756 63.2248C18.79 63.4212 18.7635 63.6176 18.6766 63.8103C18.5967 63.9956 18.4574 64.1669 18.2654 64.3276L16.2855 61.88L16.0324 62.084C15.7226 62.3333 15.4922 62.5901 15.3373 62.8584C15.1825 63.1266 15.0956 63.391 15.0691 63.6592C15.0465 63.9274 15.0767 64.1843 15.1636 64.4336C15.2505 64.6829 15.3789 64.9133 15.5564 65.1324C15.8284 65.4686 16.1419 65.699 16.497 65.8237C16.8521 65.9484 17.2261 65.9673 17.6114 65.8841C17.9967 65.7973 18.3707 65.6122 18.7333 65.3175C19.1035 65.0191 19.3679 64.6942 19.5266 64.3354C19.689 63.9765 19.7381 63.6101 19.6777 63.2361ZM17.7058 64.7802C17.5606 64.8845 17.4032 64.9546 17.2336 64.9851C17.0448 65.0229 16.8559 65.0078 16.6708 64.9473C16.4857 64.8869 16.3233 64.7698 16.1873 64.5998C16.0588 64.4411 15.9833 64.2711 15.9568 64.0936C15.9342 63.9123 15.9568 63.7423 16.0248 63.5723C16.0966 63.4061 16.2099 63.255 16.3686 63.1266L17.7058 64.7802Z" fill="#245083"/>
<path d="M14.6083 60.4634L16.905 59.1337L17.4414 60.0592L13.5204 62.3295L13.0104 61.4456L13.6752 61.0603L13.6488 61.0149C13.3768 61.0527 13.1199 61.0074 12.8744 60.8865C12.6289 60.7618 12.4249 60.5541 12.2549 60.2632C12.1 59.9912 12.0207 59.723 12.0169 59.4548C12.0169 59.1866 12.0925 58.9335 12.2473 58.6955C12.4022 58.4576 12.6364 58.2498 12.9499 58.0685L15.4469 56.6217L15.9833 57.5472L13.6299 58.9109C13.3693 59.062 13.203 59.2508 13.1313 59.4699C13.0633 59.6928 13.0973 59.9194 13.2333 60.1574C13.3277 60.3199 13.4448 60.4408 13.5883 60.5276C13.7319 60.6107 13.8906 60.6523 14.0643 60.6447C14.2381 60.6334 14.4156 60.573 14.6083 60.4634Z" fill="#245083"/>
<path fill-rule="evenodd" clip-rule="evenodd" d="M14.6272 55.2278C14.6989 54.9029 14.6725 54.5705 14.5441 54.2381C14.4534 53.9963 14.3363 53.8112 14.1965 53.6752C14.053 53.543 13.9057 53.4524 13.7546 53.3995C13.6035 53.3466 13.4637 53.3126 13.3428 53.3012L13.3201 53.2408L13.9888 52.9877L13.6148 52.0056L7.96742 54.155L8.34895 55.156L10.4606 54.3514L10.4757 54.393C10.3926 54.4836 10.3133 54.5969 10.2301 54.7367C10.1508 54.8765 10.0979 55.0389 10.0753 55.2316C10.0526 55.4242 10.0866 55.6433 10.181 55.8926C10.3057 56.2175 10.4983 56.4819 10.7666 56.6821C11.031 56.8861 11.3596 57.0032 11.7411 57.0334C12.1227 57.0674 12.5495 56.9919 13.0217 56.8143C13.4864 56.6368 13.8528 56.4101 14.121 56.1344C14.3854 55.8586 14.5554 55.5564 14.6272 55.2278ZM13.2408 53.7961C13.4108 53.9019 13.5392 54.0605 13.6186 54.2721C13.7017 54.4912 13.713 54.6989 13.6526 54.8916C13.5921 55.088 13.4712 55.2618 13.2937 55.4167C13.1162 55.5715 12.8933 55.7 12.6289 55.802C12.3644 55.904 12.1189 55.9531 11.8847 55.9568C11.6505 55.9568 11.4465 55.9077 11.2765 55.802C11.1065 55.6962 10.9743 55.5338 10.8912 55.3109C10.8119 55.0956 10.7968 54.8916 10.8534 54.7027C10.9101 54.51 11.0234 54.3363 11.1972 54.1852C11.371 54.0341 11.5938 53.9056 11.8696 53.7999C12.1416 53.6941 12.3984 53.6412 12.6326 53.6412C12.8668 53.6375 13.0708 53.6903 13.2408 53.7961Z" fill="#245083"/>
<path d="M9.36132 48.2961L9.6673 49.2253C9.57664 49.2744 9.49731 49.3386 9.42554 49.4218C9.35377 49.5049 9.30466 49.6106 9.27822 49.7315C9.25177 49.8562 9.25177 49.9959 9.28955 50.1584C9.33488 50.3775 9.42176 50.5474 9.54642 50.6759C9.67108 50.8043 9.81084 50.8497 9.95817 50.8157C10.0866 50.7892 10.181 50.7212 10.2415 50.6079C10.3019 50.4946 10.3321 50.317 10.3397 50.0828V49.2933C10.3397 48.8551 10.419 48.5114 10.5701 48.2658C10.7212 48.0203 10.9592 47.8616 11.2727 47.7899C11.5523 47.7332 11.8167 47.7597 12.0622 47.8768C12.3078 47.9901 12.5231 48.179 12.7006 48.4396C12.882 48.7003 13.0104 49.0138 13.0897 49.384C13.2068 49.9279 13.1842 50.3888 13.0255 50.7666C12.8669 51.1443 12.5911 51.4125 12.1982 51.5598L11.8847 50.5626C12.0736 50.4757 12.2058 50.3435 12.2738 50.1735C12.3456 49.9997 12.3531 49.7957 12.304 49.554C12.2511 49.3047 12.1567 49.1158 12.0245 48.9873C11.8923 48.8589 11.7487 48.8098 11.5976 48.84C11.4692 48.8665 11.3747 48.9382 11.3143 49.0516C11.2538 49.1649 11.2199 49.3311 11.2199 49.5426L11.2236 50.3321C11.2236 50.7741 11.1443 51.1216 10.9743 51.371C10.8081 51.6203 10.5626 51.7789 10.2377 51.8431C9.96573 51.9036 9.71263 51.8809 9.47842 51.7714C9.24422 51.6618 9.04401 51.4843 8.8778 51.2387C8.7116 50.9932 8.58694 50.691 8.51139 50.3359C8.40183 49.8146 8.4245 49.384 8.58315 49.0364C8.74181 48.6965 9.00246 48.4472 9.36132 48.2961Z" fill="#245083"/>
<path d="M29.7447 44.0313L32.6119 33.4089H35.1277L40.0913 51.862L42.2596 44.0313H47.9183L50.7817 33.4089H53.2975L56.1646 44.0313H64.4109C64.97 42.1425 65.3213 40.1858 65.3213 38.161C65.3213 30.6136 59.4473 24.46 52.2511 24.46C48.4774 24.46 45.0512 26.1372 42.6751 28.8646C40.2311 26.1372 36.8049 24.46 33.0312 24.46C25.8312 24.46 19.893 30.6136 19.893 38.161C19.893 40.1858 20.3123 42.1425 20.8714 44.0313H29.7447Z" fill="#245083"/>
<path d="M54.1096 46.6189H63.3683C57.8456 58.5671 42.6789 66.2543 42.6789 66.2543L42.6751 66.2524L42.6705 66.25C42.2474 66.0329 27.3611 58.3954 21.9215 46.6189H31.7468L33.8698 38.7881L38.8334 57.2374H41.3492L44.2163 46.6151H49.9166L51.9754 38.7843L54.1096 46.6189Z" fill="#245083"/>
<path fill-rule="evenodd" clip-rule="evenodd" d="M14.7934 43C14.7934 58.552 27.448 71.2066 43 71.2066C58.552 71.2066 71.2066 58.552 71.2066 43C71.2066 27.448 58.552 14.7934 43 14.7934C27.448 14.7934 14.7934 27.448 14.7934 43ZM15.7755 43C15.7755 27.9882 27.9882 15.7755 43 15.7755C58.008 15.7755 70.2245 27.9882 70.2245 43C70.2245 58.0118 58.0118 70.2245 43 70.2245C27.9882 70.2245 15.7755 58.0118 15.7755 43Z" fill="#245083"/>
<path d="M9.59175 45.5347C10.1029 45.5347 10.5172 45.1203 10.5172 44.6092C10.5172 44.0981 10.1029 43.6837 9.59175 43.6837C9.08061 43.6837 8.66626 44.0981 8.66626 44.6092C8.66626 45.1203 9.08061 45.5347 9.59175 45.5347Z" fill="#245083"/>
<path fill-rule="evenodd" clip-rule="evenodd" d="M43 83C20.9431 83 3 65.0531 3 43C3 20.9469 20.9431 3 43 3C65.0569 3 83 20.9431 83 43C83 65.0569 65.0531 83 43 83ZM43 3.98215C21.4871 3.98215 3.98215 21.4871 3.98215 43C3.98215 64.5129 21.4833 82.0179 43 82.0179C64.5167 82.0179 82.0179 64.5167 82.0179 43C82.0179 21.4833 64.5129 3.98215 43 3.98215Z" fill="#245083"/>
<path fill-rule="evenodd" clip-rule="evenodd" d="M54.3531 14.283C54.5171 14.4727 54.7275 14.6301 54.9876 14.753C55.2002 14.8537 55.3993 14.9086 55.6028 14.9236C55.7897 14.9411 55.9581 14.9253 56.1112 14.8742C56.2642 14.8231 56.3982 14.7577 56.5087 14.6717L56.5414 14.6858L56.2744 15.2483L57.2027 15.6844L58.4951 12.9428C58.623 12.67 58.6791 12.4195 58.6685 12.1923C58.6579 11.9652 58.5943 11.761 58.4808 11.5777C58.3694 11.3974 58.2249 11.2357 58.0515 11.0985C57.8759 10.9583 57.6903 10.8434 57.4926 10.7508C57.2072 10.6179 56.9259 10.5373 56.6487 10.509C56.3715 10.4807 56.1102 10.515 55.8688 10.6045C55.6274 10.6939 55.4123 10.8479 55.2215 11.0632L56.0609 11.6162C56.1718 11.4978 56.3244 11.4195 56.5102 11.3824C56.696 11.3453 56.9063 11.3833 57.1442 11.494C57.3663 11.602 57.5155 11.7374 57.5805 11.9039C57.6508 12.0712 57.6365 12.2559 57.5407 12.4558L57.5326 12.4706C57.4883 12.5658 57.4222 12.6163 57.3333 12.6274C57.2445 12.6385 57.1205 12.6189 56.9613 12.5684C56.8021 12.518 56.5944 12.4507 56.3443 12.3622C56.1345 12.2918 55.9249 12.235 55.7177 12.1949C55.5052 12.1539 55.3091 12.1429 55.1177 12.1654C54.9242 12.1848 54.7526 12.2488 54.5965 12.3618C54.4382 12.4717 54.3073 12.6408 54.1975 12.8734C54.0696 13.1462 54.0241 13.3985 54.0569 13.6379C54.0898 13.8772 54.1892 14.0933 54.3531 14.283ZM56.1282 14.2828C55.9503 14.2915 55.762 14.2521 55.5695 14.1604C55.3696 14.0646 55.2259 13.9437 55.137 13.7893C55.0503 13.6379 55.0503 13.4723 55.1339 13.2947C55.1923 13.1668 55.2724 13.0835 55.3763 13.0344C55.477 12.9875 55.5972 12.9684 55.7315 12.9763C55.8657 12.9843 56.0098 13.013 56.1638 13.0624C56.2302 13.0853 56.3125 13.111 56.4052 13.1386C56.4609 13.1585 56.5181 13.1757 56.5759 13.1918C56.6133 13.2023 56.651 13.2123 56.6887 13.2222C56.7845 13.2477 56.8729 13.269 56.9549 13.2811C57.0369 13.2932 57.0987 13.2962 57.1415 13.2849L56.9159 13.7681C56.8454 13.9182 56.7419 14.0407 56.6032 14.1324C56.4676 14.2219 56.3062 14.2742 56.1282 14.2828Z" fill="#245083"/>
</svg>
