<svg width="80" height="80" viewBox="0 0 80 80" fill="none" xmlns="http://www.w3.org/2000/svg">
<path d="M58.6554 33.5C57.8126 35.2095 56.7178 36.8559 55.2922 38.2424C54.6069 38.9277 53.8744 39.5107 53.1025 40.007C53.8665 40.4954 54.5912 41.0862 55.2764 41.7637C56.702 43.1502 57.8047 44.8045 58.6475 46.5218L65.1691 39.9991L58.6554 33.5Z" fill="white"/>
<path d="M38.1138 24.5981C38.8857 25.378 39.5394 26.213 40.075 27.1032C40.5791 26.2997 41.1856 25.5434 41.8945 24.8344C43.2807 23.4086 44.9268 22.3136 46.636 21.4707L40.0041 14.8376L33.5298 21.3131C35.1838 22.1403 36.767 23.2195 38.1138 24.5981Z" fill="white"/>
<path d="M41.8708 55.1635C41.1698 54.4624 40.5712 53.714 40.075 52.9263C39.5473 53.8007 38.9015 54.6278 38.1374 55.3999C36.7906 56.7863 35.1996 57.8577 33.5298 58.6927L40.0041 65.1682L46.636 58.5352C44.9111 57.6923 43.2571 56.5894 41.8708 55.1635Z" fill="white"/>
<path d="M24.7242 42C25.5197 41.2044 26.3782 40.5426 27.284 40.007C26.3703 39.4713 25.5118 38.8017 24.7084 38.006C23.3301 36.6668 22.251 35.0755 21.424 33.4133L14.8394 39.9991L21.4397 46.6006C22.2667 44.9384 23.3458 43.3471 24.7242 42Z" fill="white"/>
<path d="M20.8413 20.738C20.9437 20.738 31.1436 20.7538 36.4522 26.2367C40.7448 30.53 39.3035 35.4221 38.5158 37.2733L26.7407 26.6384L37.3738 38.4156C35.5228 39.2034 30.6316 40.645 26.339 36.3516C20.8571 31.0342 20.8413 20.8326 20.8413 20.738Z" fill="white"/>
<path d="M59.1362 59.0315C59.1362 58.9291 59.1204 48.7275 53.6385 43.4179C49.3459 39.1246 44.4547 40.5662 42.6038 41.3618L53.2368 53.139L41.4617 42.5041C40.6741 44.3554 39.2327 49.2474 43.5253 53.5408C48.8339 59.0158 59.0338 59.0315 59.1362 59.0315Z" fill="white"/>
<path d="M59.1518 20.9666C59.1518 21.069 59.1361 31.2706 53.6541 36.5802C49.3615 40.8735 44.4703 39.4319 42.6194 38.6441L53.2524 26.8669L41.4773 37.5018C40.6897 35.6506 39.2483 30.7585 43.5409 26.4652C48.8496 20.9902 59.0494 20.9666 59.1518 20.9666Z" fill="white"/>
<path d="M20.8569 59.2679C20.9593 59.2679 31.1592 59.2521 36.4678 53.7693C40.7605 49.4759 39.3191 44.5917 38.5314 42.7326L26.7563 53.3675L37.3894 41.5903C35.5384 40.8026 30.6472 39.3609 26.3546 43.6464C20.8806 48.9639 20.8569 59.1655 20.8569 59.2679Z" fill="white"/>
<path d="M5.58432 33.8228L1.22083 32.9641L1.2287 34.004L0.56709 34.0119L0.362305 32.0582L0.472574 31.9006L5.78911 32.9562L6.0569 32.1606L6.64763 32.2788L6.14354 34.8627L5.54494 34.8469L5.58432 33.8228Z" fill="white"/>
<path d="M3.78053 30.9553C2.44155 30.5221 1.65392 29.8682 1.43338 28.9938C1.34674 28.6708 1.37037 28.3084 1.50427 27.9067C1.74056 27.1662 2.22889 26.7171 2.96139 26.5596C3.56787 26.4256 4.30037 26.4965 5.14314 26.7723C6.48212 27.2055 7.26187 27.8594 7.49029 28.7417C7.57693 29.0647 7.5533 29.4271 7.4194 29.8288C7.18311 30.5693 6.69478 31.0183 5.9544 31.1759C5.34792 31.3019 4.6233 31.231 3.78053 30.9553ZM4.07195 30.0651C5.10376 30.396 5.85988 30.4039 6.34034 30.073C6.50574 29.9627 6.61601 29.8052 6.6869 29.5925C6.8208 29.1907 6.70265 28.8126 6.34034 28.4581C6.01741 28.143 5.5212 27.883 4.85171 27.6624C3.81991 27.3237 3.06378 27.3237 2.58333 27.6546C2.41792 27.7727 2.29978 27.9382 2.23677 28.1509C2.16588 28.3636 2.16588 28.5684 2.23677 28.7496C2.30765 28.9386 2.4258 29.1119 2.5912 29.2616C2.91413 29.5846 3.41034 29.8524 4.07195 30.0651Z" fill="white"/>
<path d="M5.53716 25.7955C4.27695 25.1653 3.5917 24.4091 3.49719 23.511C3.45781 23.1801 3.53657 22.8256 3.7256 22.4475C4.07216 21.7543 4.61563 21.3762 5.36388 21.3289C5.98611 21.2816 6.69498 21.4628 7.49049 21.8567C8.75071 22.479 9.42807 23.2432 9.52259 24.1491C9.56197 24.48 9.48321 24.8345 9.29418 25.2126C8.94762 25.9058 8.40415 26.2761 7.64802 26.3312C7.04154 26.3706 6.34055 26.1894 5.53716 25.7955ZM5.95461 24.9526C6.9234 25.4332 7.67165 25.5513 8.19936 25.2914C8.37264 25.2047 8.51442 25.0629 8.60893 24.866C8.79797 24.4878 8.73496 24.094 8.42778 23.6922C8.15211 23.3377 7.70315 22.999 7.07305 22.6917C6.09638 22.2112 5.34813 22.093 4.82829 22.3451C4.64713 22.4396 4.51324 22.5814 4.41084 22.7863C4.30845 22.9832 4.28482 23.188 4.31633 23.385C4.35571 23.5819 4.45022 23.771 4.592 23.9443C4.88342 24.3067 5.34025 24.6454 5.95461 24.9526Z" fill="white"/>
<path d="M7.95489 18.1306C7.81312 18.0203 7.69497 17.8864 7.5847 17.7288C7.47444 17.5713 7.39567 17.4137 7.34054 17.2404C7.22239 16.8465 7.29328 16.492 7.5532 16.1769C7.81312 15.8618 8.12817 15.7121 8.51411 15.7358C8.87642 15.7594 9.21511 15.9012 9.54591 16.169C9.89247 16.4526 10.113 16.7756 10.1918 17.1459C10.2784 17.5161 10.2075 17.8549 9.97124 18.1464C9.70344 18.4693 9.36476 18.6111 8.95519 18.5717C8.60075 18.5324 8.26995 18.3906 7.95489 18.1306ZM8.00215 16.5472C7.884 16.6969 7.86038 16.8623 7.94702 17.0671C8.02578 17.264 8.17543 17.4531 8.38021 17.6264C8.59288 17.7997 8.80554 17.9021 9.0182 17.9337C9.23086 17.9652 9.39626 17.9179 9.51441 17.7761C9.62468 17.6343 9.64043 17.4689 9.56167 17.264C9.4829 17.0592 9.33325 16.8702 9.12847 16.6969C8.91581 16.5235 8.71102 16.4211 8.49836 16.3817C8.2857 16.3424 8.12029 16.3975 8.00215 16.5472ZM10.05 13.0889L10.1681 13.144L12.3893 20.0212L11.8931 20.6278L11.767 20.5963L9.56167 13.6797L10.05 13.0889ZM12.4995 17.4767C12.1845 17.2168 11.9797 16.9253 11.8852 16.5866C11.767 16.1927 11.8379 15.8382 12.09 15.531C12.3499 15.2158 12.6728 15.074 13.0588 15.0977C13.4053 15.1134 13.7519 15.2552 14.0906 15.531C14.4292 15.8067 14.6498 16.1297 14.7364 16.4999C14.8231 16.8702 14.7443 17.201 14.5001 17.5004C14.2402 17.8155 13.9094 17.9573 13.4998 17.9179C13.1454 17.8785 12.8146 17.7367 12.4995 17.4767ZM12.5389 15.8933C12.4208 16.043 12.405 16.2084 12.4838 16.4054C12.5704 16.6023 12.7122 16.7835 12.9327 16.9568C13.1454 17.1301 13.3581 17.2325 13.5707 17.264C13.7834 17.2956 13.9409 17.2483 14.0591 17.1065C14.1693 16.9647 14.1851 16.7993 14.1063 16.5944C14.0276 16.3975 13.8779 16.2084 13.6652 16.0351C13.4526 15.8618 13.2399 15.7594 13.0351 15.72C12.8225 15.6964 12.6571 15.7515 12.5389 15.8933Z" fill="white"/>
<path d="M17.2567 12.8289L17.6505 13.333C17.6741 13.3645 17.6899 13.3803 17.7057 13.3882L18.1625 13.1518L18.5484 13.656L17.1701 14.7116L16.6975 14.2705L17.0755 13.8372L14.2243 10.0953L13.7675 10.3789L13.3579 9.83533L14.8465 8.70094L19.8716 11.5763L17.0834 7.92104L16.5951 8.20464L16.1934 7.67684L17.5954 6.60547L18.0916 7.07025L17.6978 7.50353L20.9822 11.8126L19.9347 12.6004L14.8938 9.72504L17.2567 12.8289Z" fill="white"/>
<path d="M21.2191 10.946L21.5579 10.5836L20.5811 4.8959L21.3373 4.49414L25.5992 8.43299L26.0403 8.37785L26.2136 8.91353L24.3545 9.90612L24.1024 9.44134L24.709 8.90565L23.7085 7.9367L22.0148 8.83475L22.2748 10.1976L23.0389 9.99277L23.291 10.4654L21.5815 11.3793L21.2191 10.946ZM21.8572 8.04698L23.1256 7.3695L21.4161 5.73094L21.8572 8.04698Z" fill="white"/>
<path d="M26.6228 8.17314L27.5208 7.65321L25.9216 3.28109L24.8897 3.65922L24.8503 4.6203L24.3382 4.80936L23.9443 3.18656L28.2377 1.6189L28.9939 3.10778L28.4819 3.29685L27.8202 2.59573L26.7646 2.98174L28.3637 7.35386L29.4036 7.1648L29.5296 7.74775L26.9379 8.69307L26.6228 8.17314Z" fill="white"/>
<path d="M32.8447 0.571049L34.6172 0.216553L34.7433 0.870402L34.2627 1.05947L34.9166 4.37598C35.0505 5.05346 34.9481 5.62065 34.6093 6.06181C34.3179 6.46357 33.8925 6.71565 33.341 6.82594C32.6635 6.95986 32.1121 6.88109 31.6788 6.59749C31.2456 6.30601 30.962 5.84123 30.8359 5.18738L30.1742 1.84724L29.6149 1.90238L29.481 1.24065L31.5134 0.838891L31.6394 1.49274L31.0486 1.68968L31.7025 4.98256C31.7812 5.40008 31.9546 5.70731 32.2066 5.89637C32.4587 6.09332 32.7975 6.14846 33.215 6.06181C33.7585 5.95152 34.0815 5.64429 34.1839 5.14012C34.2233 4.95893 34.2155 4.73835 34.1603 4.48627L33.5065 1.18551L32.955 1.20914L32.8447 0.571049Z" fill="white"/>
<path d="M36.8533 5.49469L36.6563 0.783822L36.0891 0.760189L36.0576 0.0827068L37.9483 0.00392978C38.7754 -0.027581 39.4135 0.129973 39.8547 0.492347C40.2486 0.823211 40.4613 1.28799 40.4849 1.8867C40.5006 2.29634 40.414 2.65084 40.217 2.95019C40.0201 3.24954 39.7444 3.478 39.3899 3.64343L40.3352 5.39228L40.8473 5.47893L40.8709 6.09339L39.6262 6.14854L38.5233 3.89551C38.3815 3.91915 38.2319 3.9349 38.0822 3.94278L37.6725 3.95854L37.7356 5.47893L38.4446 5.57346L38.4682 6.18792L36.3806 6.27458L36.2624 5.65224L36.8533 5.49469ZM39.5474 1.91033C39.5159 1.10681 38.9566 0.736556 37.8695 0.775944L37.5544 0.7917L37.6568 3.17077L38.0349 3.15501C38.5627 3.13138 38.9645 2.98958 39.2402 2.72174C39.4608 2.50904 39.5632 2.23332 39.5474 1.91033Z" fill="white"/>
<path d="M40.9648 5.4946L41.4454 5.38431L43.8245 0.129883L44.6831 0.216537L45.9987 5.86485L46.3926 6.06967L46.235 6.61323L44.1396 6.39265L44.1947 5.86485L44.9982 5.76244L44.7068 4.3996L42.8004 4.19478L42.2489 5.47096L42.9973 5.73093L42.9421 6.26661L41.02 6.06179L40.9648 5.4946ZM43.1233 3.45427L44.5492 3.60395L44.0529 1.2879L43.1233 3.45427Z" fill="white"/>
<path d="M48.0538 0.712891L49.9208 1.18555L49.8342 1.84728L49.2433 1.80001L48.1089 6.32181L49.8105 6.74721L50.3383 5.94368L50.8898 6.0776L50.3068 7.66102L46.6279 6.73933L46.6988 6.10124L47.2503 6.14063L48.4004 1.54005L47.8884 1.36674L48.0538 0.712891Z" fill="white"/>
<path d="M54.362 8.43309C54.488 8.52762 54.8503 8.76395 55.4646 9.14996L55.1811 9.68564L52.7788 8.55126L52.9678 7.94467L53.5428 8.07859L55.5513 3.81676L55.0629 3.53316L55.3544 2.9187L57.0635 3.72223C57.8118 4.07672 58.3001 4.51 58.5285 5.0378C58.7254 5.51046 58.7018 6.02251 58.4419 6.56608C58.1426 7.19629 57.7094 7.57442 57.1344 7.68471C56.6225 7.77924 56.0317 7.66895 55.3386 7.34597L54.9684 7.17266L54.362 8.43309ZM57.5834 6.14856C57.9221 5.42381 57.607 4.83298 56.6225 4.3682L56.3389 4.23428L55.2914 6.46367L55.63 6.62122C56.1263 6.85755 56.5516 6.91269 56.8903 6.80241C57.1974 6.7 57.4259 6.4873 57.5834 6.14856Z" fill="white"/>
<path d="M57.8674 10.2528L60.4587 6.31396L60.0098 5.96734L60.3878 5.40015L61.9631 6.44C62.6562 6.89691 63.0737 7.40108 63.2233 7.94464C63.3493 8.44094 63.2548 8.94511 62.924 9.44141C62.6956 9.78803 62.4199 10.0165 62.0813 10.1425C61.7505 10.2686 61.3881 10.2922 61.0101 10.2213L60.758 12.1907L61.1282 12.561L60.7895 13.0809L59.7499 12.3955L60.1752 9.92982C60.0492 9.8668 59.9153 9.7959 59.7971 9.70925L59.4506 9.48079L58.6157 10.7491L59.1355 11.2454L58.7968 11.7653L57.0562 10.6152L57.3239 10.0401L57.8674 10.2528ZM62.1521 8.92148C62.5932 8.25187 62.3569 7.62166 61.4512 7.02295L61.1912 6.84964L59.8759 8.8427L60.1909 9.04752C60.632 9.339 61.0416 9.45716 61.4196 9.39414C61.7268 9.35475 61.971 9.1972 62.1521 8.92148Z" fill="white"/>
<path d="M62.9714 15.0503C62.3727 14.5067 62.1127 13.845 62.1915 13.0809C62.2703 12.3719 62.6011 11.6944 63.1998 11.0405C63.7907 10.3867 64.4366 9.98493 65.1377 9.84313C65.894 9.68558 66.5715 9.88252 67.1702 10.4261C67.7689 10.9696 68.0367 11.6314 67.958 12.3955C67.8792 13.1124 67.5483 13.7899 66.9575 14.4437C66.3667 15.0976 65.7207 15.4914 65.0196 15.6332C64.2554 15.7987 63.578 15.5939 62.9714 15.0503ZM63.8852 11.6865C63.4519 12.1671 63.1841 12.6555 63.0895 13.1518C62.9792 13.6874 63.1132 14.1286 63.4992 14.4752C63.8852 14.8218 64.3421 14.9242 64.8699 14.7667C65.3504 14.6249 65.8152 14.3098 66.2485 13.8292C66.6896 13.3408 66.9654 12.8445 67.0678 12.3404C67.1702 11.7889 67.0363 11.3399 66.6503 10.9933C66.2721 10.6467 65.8152 10.56 65.2874 10.7254C64.7911 10.883 64.3263 11.206 63.8852 11.6865Z" fill="white"/>
<path d="M66.1614 17.059L69.8396 14.1049L69.5482 13.648L70.068 13.2305L71.1314 14.5539C71.7378 15.3102 72.0214 16.0822 71.9741 16.8542C71.9269 17.6499 71.5252 18.351 70.7533 18.9733C69.9814 19.5878 69.2016 19.8477 68.414 19.7532C67.6343 19.6587 66.9333 19.2254 66.3189 18.4613L65.2871 17.1772L65.7282 16.7124L66.1614 17.059ZM66.76 17.8074C67.7918 19.0915 68.926 19.2333 70.1626 18.2407C70.7218 17.7917 71.029 17.2717 71.0762 16.6809C71.1235 16.1058 70.9266 15.5465 70.4855 15.003L70.3437 14.8375L66.7127 17.7523L66.76 17.8074Z" fill="white"/>
<path d="M75.5812 21.1476L76.4713 22.7231L75.8963 23.054L75.5655 22.6522L72.6276 24.3223C72.0211 24.661 71.4619 24.7477 70.9342 24.5665C70.4616 24.4168 70.0914 24.0938 69.8157 23.6054C69.4771 23.0067 69.3747 22.4553 69.5086 21.9511C69.6425 21.4469 70.0048 21.0294 70.5797 20.7064L73.5413 19.0285L73.3128 18.5164L73.8957 18.1855L74.9196 19.9895L74.3446 20.3204L73.9666 19.8241L71.0445 21.4863C70.6743 21.699 70.438 21.9511 70.3356 22.2504C70.2332 22.5498 70.2883 22.8885 70.501 23.2588C70.7767 23.7393 71.1705 23.952 71.6824 23.889C71.8715 23.8654 72.0763 23.7945 72.2968 23.6605L75.2189 21.9984L75.022 21.4863L75.5812 21.1476Z" fill="white"/>
<path d="M73.2184 30.3567C72.8325 30.0967 72.5174 29.6555 72.2811 29.0174C71.9897 28.2454 71.9818 27.4971 72.2733 26.7566C72.5883 25.953 73.1869 25.3858 74.0612 25.055C74.9906 24.7005 75.8334 24.7083 76.5974 25.0707C77.2905 25.4016 77.7867 25.9688 78.0939 26.7644C78.2278 27.1189 78.3302 27.5522 78.4011 28.0642L76.9361 28.8048L76.7234 28.2376L77.5032 27.568C77.5032 27.4498 77.448 27.2528 77.3535 26.9929C77.2511 26.7329 77.1015 26.4966 76.8888 26.2996C76.6761 26.1027 76.4477 25.953 76.1878 25.8585C75.6443 25.6615 75.0694 25.6773 74.4786 25.8979C73.8328 26.1421 73.376 26.536 73.1082 27.0795C72.8325 27.631 72.8167 28.2297 73.0609 28.8835C73.1554 29.1277 73.2736 29.3326 73.4232 29.5059C73.5729 29.6792 73.6989 29.7973 73.8013 29.8604L73.2184 30.3567Z" fill="white"/>
<path d="M73.7222 31.4911L74.1161 32.4522L78.6607 31.4596L78.4244 30.3804L77.4793 30.207L77.3611 29.6714L79.023 29.498L79.9997 33.9647L78.4244 34.5083L78.3063 33.9726L79.0939 33.4133L78.8576 32.3183L74.313 33.3109L74.3602 34.3665L73.7616 34.4137L73.1709 31.7196L73.7222 31.4911Z" fill="white"/>
<path d="M74.4079 46.0254L78.7714 46.8683L78.7635 45.8284L79.4251 45.8206L79.6457 47.7742L79.5354 47.9318L74.211 46.9077L73.9511 47.7033L73.3604 47.593L73.8566 44.9934L74.4552 45.0092L74.4079 46.0254Z" fill="white"/>
<path d="M76.2269 48.8849C77.5738 49.3103 78.3535 49.9641 78.5898 50.8307C78.6765 51.1537 78.6528 51.5161 78.5268 51.9178C78.2905 52.6583 77.8101 53.1073 77.0776 53.2728C76.4711 53.4067 75.7386 53.3437 74.8958 53.0758C73.5569 52.6504 72.7692 51.9966 72.5408 51.1143C72.4542 50.7913 72.4778 50.4289 72.6038 50.0272C72.8401 49.2867 73.3284 48.8376 74.0609 48.6801C74.6595 48.5383 75.3842 48.6092 76.2269 48.8849ZM75.9434 49.7751C74.9116 49.4442 74.1555 49.4442 73.675 49.7751C73.5175 49.8854 73.3993 50.0508 73.3363 50.2556C73.2103 50.6574 73.3284 51.0355 73.6907 51.3821C74.0137 51.6972 74.5178 51.9572 75.1794 52.1699C76.2191 52.5008 76.9673 52.5008 77.4478 52.1699C77.6132 52.0517 77.7234 51.8863 77.7943 51.6736C77.8652 51.4609 77.8652 51.2561 77.7943 51.0749C77.7234 50.8858 77.6053 50.7125 77.4399 50.5629C77.1012 50.2477 76.605 49.9878 75.9434 49.7751Z" fill="white"/>
<path d="M74.4944 54.0527C75.7625 54.6751 76.4399 55.4313 76.5423 56.3294C76.5817 56.6603 76.5029 57.0148 76.3139 57.4008C75.9752 58.1019 75.4317 58.4721 74.6835 58.5273C74.0612 58.5745 73.3524 58.4012 72.549 58.0074C71.2888 57.3929 70.6035 56.6288 70.5011 55.7228C70.4617 55.392 70.5405 55.0375 70.7217 54.6514C71.0604 53.9503 71.6117 53.5801 72.36 53.5328C72.9901 53.4934 73.6989 53.6667 74.4944 54.0527ZM74.077 54.9035C73.1082 54.423 72.3599 54.3127 71.8322 54.5727C71.659 54.6593 71.5172 54.8011 71.4227 54.9981C71.2336 55.3762 71.2966 55.7701 71.6038 56.164C71.8795 56.5185 72.3363 56.8493 72.9586 57.1566C73.9352 57.6371 74.6835 57.7474 75.2033 57.4874C75.3845 57.3929 75.5184 57.2511 75.6208 57.0463C75.7231 56.8415 75.7468 56.6445 75.7074 56.4476C75.668 56.2506 75.5735 56.0616 75.4317 55.8882C75.1561 55.5416 74.6992 55.2029 74.077 54.9035Z" fill="white"/>
<path d="M67.5792 62.4031C67.8942 62.6552 68.099 62.9545 68.1935 63.2933C68.3117 63.6872 68.2487 64.0417 67.9966 64.3568C67.7446 64.6719 67.4216 64.8216 67.0278 64.7979C66.6813 64.7822 66.3347 64.6404 65.996 64.3646C65.6495 64.0889 65.4368 63.7659 65.3423 63.4036C65.2556 63.0333 65.3344 62.7025 65.5707 62.4031C65.8227 62.088 66.1614 61.9462 66.571 61.9777C66.9254 62.0013 67.2641 62.1431 67.5792 62.4031ZM67.5477 63.9786C67.6658 63.829 67.6816 63.6635 67.5949 63.4666C67.5083 63.2696 67.3586 63.0885 67.146 62.9152C66.9333 62.7418 66.7206 62.6394 66.508 62.6079C66.2953 62.5764 66.1378 62.6316 66.0197 62.7655C65.9094 62.9073 65.8936 63.0727 65.9724 63.2775C66.0512 63.4745 66.2008 63.6635 66.4135 63.8368C66.6261 64.0102 66.8388 64.1126 67.0515 64.152C67.2641 64.1835 67.4295 64.1283 67.5477 63.9786ZM70.0445 66.7752L69.9263 66.7201L67.6737 59.8507L68.162 59.2441L68.288 59.2757L70.5249 66.1844L70.0445 66.7752ZM72.1238 61.7256C72.2656 61.8359 72.3916 61.9698 72.494 62.1274C72.6043 62.2849 72.683 62.4425 72.7382 62.6158C72.8563 63.0097 72.7854 63.3642 72.5334 63.6872C72.2813 64.0023 71.9584 64.152 71.5725 64.1362C71.2102 64.1126 70.8715 63.9708 70.5407 63.7029C70.1941 63.4193 69.9736 63.0963 69.8869 62.7261C69.7924 62.3558 69.8712 62.0171 70.1075 61.7256C70.3674 61.4026 70.7061 61.2608 71.1235 61.3002C71.4701 61.3239 71.8009 61.4735 72.1238 61.7256ZM72.0844 63.3169C72.2026 63.1672 72.2183 62.9939 72.1396 62.797C72.0608 62.6 71.9112 62.411 71.6985 62.2455C71.4858 62.0722 71.2732 61.9698 71.0605 61.9383C70.8479 61.9068 70.6825 61.9619 70.5643 62.0959C70.454 62.2377 70.4383 62.4031 70.517 62.6079C70.5958 62.8127 70.7455 63.0018 70.9581 63.1672C71.1708 63.3405 71.3834 63.443 71.5882 63.4745C71.8009 63.5139 71.9663 63.4587 72.0844 63.3169Z" fill="white"/>
<path d="M62.8374 67.0746L62.4436 66.5783C62.4199 66.5468 62.4042 66.531 62.3884 66.5232L61.9316 66.7674L61.5457 66.2632L62.924 65.1997L63.3966 65.6409L63.0185 66.0741L65.8855 69.8003L66.3424 69.5167L66.7598 70.0602L65.2791 71.2025L60.2382 68.3508L63.0422 71.9982L63.5226 71.7146L63.9243 72.2424L62.5223 73.3216L62.0183 72.8568L62.4042 72.4236L59.104 68.1302L60.1516 67.3188L65.2082 70.1705L62.8374 67.0746Z" fill="white"/>
<path d="M58.8922 68.9809L58.5614 69.3433L59.5697 75.0231L58.8134 75.4328L54.5359 71.5176L54.0947 71.5727L53.9214 71.037L55.7648 70.0287L56.0169 70.4935L55.4103 71.037L56.4186 71.9981L58.1044 71.0922L57.8366 69.7293L57.0725 69.9341L56.8204 69.4615L58.522 68.5398L58.8922 68.9809ZM58.262 71.8799L57.0016 72.5574L58.7189 74.1881L58.262 71.8799Z" fill="white"/>
<path d="M53.4884 71.7777L52.5904 72.2976L54.2053 76.6618L55.2373 76.2758L55.2766 75.3148L55.7887 75.1257L56.1905 76.7485L51.905 78.3398L51.1409 76.8509L51.6529 76.6618L52.3146 77.363L53.3624 76.977L51.7474 72.6127L50.7076 72.8097L50.5815 72.2267L53.1733 71.2656L53.4884 71.7777Z" fill="white"/>
<path d="M47.3058 79.4032L45.5334 79.7656L45.3994 79.1118L45.88 78.9227L45.2104 75.6141C45.0686 74.9366 45.171 74.3694 45.5097 73.9282C45.8012 73.5265 46.2187 73.2744 46.7702 73.1562C47.4398 73.0223 47.9991 73.0932 48.4324 73.3768C48.8656 73.6604 49.1492 74.1331 49.2832 74.779L49.9606 78.1192L50.5121 78.064L50.646 78.7258L48.6135 79.1354L48.4796 78.4815L49.0705 78.2767L48.4009 74.9838C48.3142 74.5663 48.1488 74.267 47.8967 74.07C47.6446 73.8731 47.3058 73.8258 46.8883 73.9125C46.3448 74.0228 46.0218 74.33 45.9273 74.842C45.8879 75.0232 45.8957 75.2438 45.9509 75.4959L46.6205 78.7888L47.1719 78.7573L47.3058 79.4032Z" fill="white"/>
<path d="M43.2731 74.5032L43.4936 79.214L44.0608 79.2298L44.0923 79.9073L42.2017 79.9939C41.3745 80.0333 40.7364 79.8757 40.2953 79.5212C39.8935 79.1904 39.6808 78.7335 39.6572 78.1348C39.6414 77.7251 39.7281 77.3706 39.925 77.0713C40.122 76.7719 40.3977 76.5435 40.7443 76.378L39.7911 74.6371L39.2791 74.5504L39.2476 73.936L40.4922 73.8808L41.603 76.126C41.7448 76.1023 41.8945 76.0866 42.0441 76.0787L42.4538 76.0629L42.3829 74.5425L41.666 74.448L41.6345 73.8335L43.7221 73.739L43.8403 74.3614L43.2731 74.5032ZM40.6025 78.1033C40.6419 78.9068 41.2012 79.277 42.2884 79.2298L42.6035 79.214L42.4932 76.835L42.115 76.8507C41.5872 76.8743 41.1855 77.024 40.9176 77.2919C40.6892 77.5046 40.5868 77.7724 40.6025 78.1033Z" fill="white"/>
<path d="M39.17 74.519L38.6894 74.6372L36.334 79.9074L35.4753 79.8207L34.1283 74.1803L33.7344 73.9754L33.8919 73.4319L35.9874 73.6446L35.9323 74.1724L35.1287 74.2827L35.4202 75.6455L37.3266 75.8346L37.8702 74.5584L37.1218 74.3063L37.1769 73.7706L39.107 73.9676L39.17 74.519ZM37.0273 76.5751L35.6014 76.4333L36.1056 78.7415L37.0273 76.5751Z" fill="white"/>
<path d="M32.0966 79.3323L30.2217 78.8754L30.3004 78.2137L30.8913 78.2531L32.002 73.7234L30.2926 73.3059L29.7726 74.1094L29.2212 73.9755L29.7963 72.3921L33.4909 73.298L33.4279 73.9361L32.8764 73.9046L31.7421 78.5131L32.2541 78.6864L32.0966 79.3323Z" fill="white"/>
<path d="M25.7556 71.6436C25.6295 71.5569 25.2672 71.3127 24.6529 70.9346L24.9286 70.3989L27.3308 71.5176L27.1497 72.1241L26.5747 71.9981L24.582 76.2757L25.0782 76.5514L24.7947 77.1659L23.0776 76.3702C22.3215 76.0236 21.8331 75.5825 21.6126 75.0625C21.4157 74.5899 21.4393 74.0778 21.6914 73.5342C21.9828 72.904 22.4239 72.5259 22.9988 72.4077C23.5029 72.3053 24.1015 72.4156 24.7947 72.7386L25.1648 72.9119L25.7556 71.6436ZM22.5341 73.9439C22.1955 74.6686 22.5184 75.2595 23.5029 75.7242L23.7865 75.8582L24.8262 73.6209L24.4875 73.4633C23.9913 73.2349 23.5659 73.1719 23.2273 73.29C22.928 73.3846 22.6917 73.6051 22.5341 73.9439Z" fill="white"/>
<path d="M22.2427 69.8396L19.6671 73.7863L20.1161 74.1329L19.7459 74.7001L18.1628 73.6681C17.4696 73.2112 17.0443 72.7149 16.8947 72.1635C16.7608 71.6672 16.8632 71.163 17.1861 70.6667C17.4145 70.3201 17.6902 70.0838 18.021 69.9577C18.3518 69.8317 18.7062 69.8002 19.0922 69.8711L19.3363 67.9017L18.9662 67.5314L19.3048 67.0115L20.3445 67.689L19.9349 70.1626C20.061 70.2256 20.1949 70.2965 20.3209 70.3831L20.6674 70.6116L21.5023 69.3354L20.9746 68.847L21.3133 68.3271L23.0618 69.4693L22.7941 70.0444L22.2427 69.8396ZM17.9659 71.1945C17.5248 71.8641 17.7689 72.4944 18.6747 73.0931L18.9346 73.2664L20.2342 71.2733L19.9192 71.0685C19.4702 70.777 19.0607 70.6667 18.6905 70.7219C18.3833 70.7613 18.147 70.9188 17.9659 71.1945Z" fill="white"/>
<path d="M17.116 65.0736C17.7226 65.6171 17.9825 66.271 17.9038 67.0351C17.8329 67.7441 17.502 68.4216 16.9112 69.0833C16.3203 69.7372 15.6744 70.1468 14.9811 70.2886C14.2249 70.4461 13.5474 70.2571 12.9408 69.7135C12.3342 69.17 12.0743 68.5161 12.1452 67.7441C12.2161 67.0272 12.5469 66.3419 13.1299 65.6959C13.7207 65.042 14.3588 64.6403 15.0678 64.4985C15.8319 64.333 16.5094 64.53 17.116 65.0736ZM16.2258 68.4373C16.6591 67.9568 16.919 67.4684 17.0136 66.9642C17.1239 66.4285 16.9821 65.9874 16.6039 65.6407C16.2179 65.2941 15.761 65.1996 15.2332 65.3572C14.7527 65.499 14.2879 65.8141 13.8546 66.3025C13.4135 66.7909 13.1456 67.2872 13.0432 67.7914C12.9408 68.3428 13.0826 68.7918 13.4607 69.1306C13.8467 69.4772 14.2958 69.5638 14.8236 69.3905C15.3199 69.2487 15.7847 68.9257 16.2258 68.4373Z" fill="white"/>
<path d="M13.9173 63.0726L10.2548 66.0425L10.5541 66.4916L10.0421 66.9091L8.97882 65.5935C8.36447 64.8372 8.08092 64.0731 8.1203 63.3011C8.15968 62.5054 8.56137 61.7964 9.33326 61.182C10.0973 60.5596 10.877 60.2997 11.6647 60.3863C12.4444 60.473 13.1454 60.9063 13.7676 61.6704L14.8073 62.9545L14.3662 63.4271L13.9173 63.0726ZM13.3108 62.3243C12.279 61.0481 11.1448 60.9063 9.90823 61.9067C9.34901 62.3558 9.04971 62.8836 8.99457 63.4744C8.95519 64.0495 9.1521 64.6088 9.59318 65.1523L9.73495 65.3099L13.3502 62.3794L13.3108 62.3243Z" fill="white"/>
<path d="M4.48189 59.0315L3.58398 57.4638L4.15896 57.1329L4.48976 57.5347L7.41976 55.8489C8.01837 55.5023 8.58546 55.4235 9.11318 55.5968C9.58576 55.7465 9.96382 56.0616 10.2395 56.55C10.5782 57.1487 10.6884 57.6923 10.5545 58.2043C10.4207 58.7085 10.0662 59.126 9.49124 59.4569L6.53761 61.1506L6.76603 61.6626L6.18318 62.0014L5.15138 60.2052L5.72635 59.8744L6.10441 60.3707L9.01866 58.7006C9.38885 58.4879 9.62514 58.2358 9.72753 57.9365C9.82993 57.6371 9.77479 57.2984 9.56213 56.9281C9.28646 56.4476 8.89264 56.2349 8.38068 56.3058C8.19165 56.3294 7.98686 56.4082 7.76632 56.5342L4.85208 58.2043L5.05686 58.7164L4.48189 59.0315Z" fill="white"/>
<path d="M6.78993 49.8066C7.17587 50.0587 7.49092 50.5078 7.73509 51.1458C8.03439 51.9179 8.03439 52.6662 7.75872 53.4068C7.44366 54.2103 6.85294 54.7775 5.97866 55.1162C5.04926 55.4707 4.20649 55.4707 3.44248 55.1083C2.74936 54.7775 2.24528 54.2182 1.9381 53.4225C1.8042 53.068 1.69393 52.6347 1.62305 52.1227L3.08805 51.3822L3.30858 51.9494L2.52883 52.619C2.52883 52.7371 2.58396 52.9341 2.67848 53.1941C2.78087 53.454 2.9384 53.6825 3.14318 53.8873C3.35584 54.0842 3.59213 54.226 3.84418 54.3206C4.39552 54.5096 4.96262 54.4939 5.55334 54.2654C6.19133 54.0212 6.64815 53.6273 6.92383 53.0759C7.1995 52.5244 7.20737 51.9257 6.96321 51.2719C6.86869 51.0356 6.75055 50.8229 6.6009 50.6496C6.45125 50.4762 6.32522 50.3581 6.22283 50.2951L6.78993 49.8066Z" fill="white"/>
<path d="M6.28532 48.6879L5.89151 47.7268L1.35473 48.7431L1.5989 49.8223L2.54406 49.9877L2.6622 50.5234L1.0003 50.7046L0 46.238L1.57527 45.6865L1.69341 46.2222L0.905779 46.7815L1.14995 47.8765L5.68672 46.8603L5.63159 45.8047L6.23019 45.7574L6.83667 48.4516L6.28532 48.6879Z" fill="white"/>
</svg>
