<svg width="81" height="80" viewBox="0 0 81 80" fill="none" xmlns="http://www.w3.org/2000/svg">
<path d="M40.0113 0L42.4197 3.27676L45.2359 0.34063L47.1933 3.90525L50.3645 1.36252L51.8422 5.15262L55.3204 3.04648L56.2895 6.9949L60.0125 5.35892L60.4587 9.4033L64.3639 8.26627L64.2775 12.3298L68.2979 11.7157L67.679 15.7361L71.7474 15.6498L70.6104 19.555L74.6548 20.0012L73.0188 23.7241L76.9672 24.6933L74.861 28.1715L78.6512 29.6444L76.1036 32.8204L79.6683 34.7778L76.7321 37.594L80.0137 39.9976L76.7321 42.406L79.6683 45.2222L76.1036 47.1796L78.6512 50.3508L74.861 51.8285L76.9672 55.3068L73.0188 56.2759L74.6548 59.9988L70.6104 60.445L71.7474 64.3502L67.679 64.2639L68.2979 68.2843L64.2775 67.6654L64.3639 71.7337L60.4587 70.5967L60.0125 74.6411L56.2895 73.0051L55.3204 76.9535L51.8422 74.8474L50.3645 78.6375L47.1933 76.09L45.2359 79.6546L42.4197 76.7184L40.0113 80L37.6077 76.7184L34.7915 79.6546L32.8341 76.09L29.6581 78.6375L28.1852 74.8474L24.7069 76.9535L23.7378 73.0051L20.0149 74.6411L19.5687 70.5967L15.6634 71.7337L15.7498 67.6654L11.7294 68.2843L12.3435 64.2639L8.27994 64.3502L9.41697 60.445L5.37259 59.9988L7.00857 56.2759L3.06015 55.3068L5.1663 51.8285L1.37619 50.3508L3.91892 47.1796L0.354302 45.2222L3.29043 42.406L0.0136719 39.9976L3.29043 37.594L0.354302 34.7778L3.91892 32.8204L1.37619 29.6444L5.1663 28.1715L3.06015 24.6933L7.00857 23.7241L5.37259 20.0012L9.41697 19.555L8.27994 15.6498L12.3435 15.7361L11.7294 11.7157L15.7498 12.3298L15.6634 8.26627L19.5687 9.4033L20.0149 5.35892L23.7378 6.9949L24.7069 3.04648L28.1852 5.15262L29.6581 1.36252L32.8341 3.90525L34.7915 0.34063L37.6077 3.27676L40.0113 0Z" fill="white"/>
<path d="M40.0113 74.4156C59.0198 74.4156 74.4292 59.0061 74.4292 39.9976C74.4292 20.989 59.0198 5.57959 40.0113 5.57959C21.0027 5.57959 5.59326 20.989 5.59326 39.9976C5.59326 59.0061 21.0027 74.4156 40.0113 74.4156Z" fill="#AF0A64"/>
<path d="M40.0112 73.9502C58.7627 73.9502 73.9638 58.7491 73.9638 39.9975C73.9638 21.246 58.7627 6.04492 40.0112 6.04492C21.2597 6.04492 6.05859 21.246 6.05859 39.9975C6.05859 58.7491 21.2597 73.9502 40.0112 73.9502Z" fill="white"/>
<path d="M40.0112 73.4848C58.5057 73.4848 73.4984 58.492 73.4984 39.9975C73.4984 21.503 58.5057 6.51025 40.0112 6.51025C21.5167 6.51025 6.52393 21.503 6.52393 39.9975C6.52393 58.492 21.5167 73.4848 40.0112 73.4848Z" fill="#AF0A64"/>
<path d="M40.0114 65.113C53.8823 65.113 65.1269 53.8684 65.1269 39.9975C65.1269 26.1266 53.8823 14.8821 40.0114 14.8821C26.1406 14.8821 14.896 26.1266 14.896 39.9975C14.896 53.8684 26.1406 65.113 40.0114 65.113Z" fill="white"/>
<path d="M20.1539 57.0724L15.1212 61.0208L14.1377 59.7638L16.8387 57.6481C17.2274 57.341 17.4576 57.1491 17.52 57.0676C17.5824 56.986 17.6016 56.8901 17.5776 56.7749C17.5536 56.6598 17.4241 56.4583 17.1986 56.1656L17.1026 56.0409L17.6879 55.5803C18.2972 56.0841 18.9257 56.3335 19.5782 56.3335L20.1539 57.0724Z" fill="white"/>
<path d="M21.4732 61.4956L19.9763 63.0165C19.6357 63.3619 19.3719 63.597 19.1751 63.7169C18.9832 63.8369 18.7578 63.9088 18.5083 63.928C18.254 63.9472 18.0141 63.904 17.7886 63.8033C17.5632 63.6977 17.3473 63.5442 17.141 63.3427C16.8675 63.0741 16.6756 62.8198 16.5557 62.5799C16.4357 62.34 16.3925 62.1001 16.4165 61.8603C16.4405 61.6204 16.5029 61.4045 16.6036 61.2126C16.7044 61.0207 16.9107 60.7664 17.2273 60.445L18.7961 58.857C19.2087 58.4396 19.5542 58.1613 19.8324 58.0222C20.1107 57.8831 20.4177 57.8591 20.7584 57.9454C21.099 58.0318 21.4204 58.2237 21.7275 58.5259C21.9769 58.7706 22.1593 59.0345 22.2696 59.3175C22.3799 59.6006 22.4231 59.8501 22.3943 60.0708C22.3704 60.2914 22.2936 60.4977 22.1736 60.6896C22.0441 60.8816 21.8138 61.1502 21.4732 61.4956ZM20.7104 59.994C20.9503 59.7541 21.0846 59.591 21.123 59.5046C21.1614 59.4183 21.1326 59.3367 21.0462 59.2504C20.9599 59.1688 20.8735 59.1448 20.7823 59.1832C20.6912 59.2216 20.5281 59.3559 20.2978 59.591L18.1053 61.8123C17.8462 62.0762 17.7023 62.2489 17.6735 62.3304C17.6447 62.412 17.6735 62.4888 17.7599 62.5751C17.8462 62.6567 17.9326 62.6807 18.0189 62.6423C18.1101 62.6039 18.2636 62.4744 18.4843 62.2489L20.7104 59.994Z" fill="white"/>
<path d="M24.8988 64.0335L23.6418 65.7607C23.3588 66.1541 23.1285 66.4227 22.9558 66.5715C22.7831 66.7202 22.572 66.8209 22.3273 66.8785C22.0778 66.9361 21.8379 66.9313 21.5981 66.8593C21.3582 66.7873 21.1231 66.6674 20.888 66.4995C20.581 66.274 20.3459 66.0533 20.1972 65.8326C20.0436 65.6119 19.9621 65.3817 19.9525 65.1418C19.9429 64.9019 19.9717 64.6812 20.0388 64.4749C20.1108 64.2686 20.2787 63.9855 20.5426 63.6209L21.8571 61.817C22.2026 61.3421 22.5 61.0158 22.7543 60.8383C23.0086 60.6608 23.3108 60.5888 23.6562 60.6272C24.0017 60.6608 24.3519 60.8047 24.6973 61.059C24.9804 61.2653 25.1963 61.5004 25.3498 61.7595C25.5033 62.0233 25.5801 62.2632 25.5897 62.4887C25.5945 62.7142 25.5561 62.9253 25.4649 63.1364C25.3738 63.3427 25.1819 63.6401 24.8988 64.0335ZM23.9249 62.6614C24.1264 62.3879 24.2367 62.2056 24.2607 62.1145C24.2847 62.0281 24.2463 61.9466 24.1504 61.8746C24.0544 61.8026 23.9633 61.7978 23.8817 61.8458C23.7954 61.8986 23.6562 62.0569 23.4643 62.3208L21.6268 64.8443C21.4062 65.1466 21.291 65.3385 21.2766 65.42C21.2622 65.5016 21.3006 65.5784 21.3966 65.6503C21.4925 65.7223 21.5837 65.7271 21.6652 65.6791C21.7468 65.6263 21.8811 65.4776 22.0634 65.2233L23.9249 62.6614Z" fill="white"/>
<path d="M29.9556 64.0768L24.7837 68.9368L24.2368 68.6681L29.4182 63.8129L29.9556 64.0768ZM27.7535 64.3454L27.2689 65.3338C27.1442 65.5928 27.0242 65.7751 26.9139 65.8759C26.8035 65.9814 26.6452 66.0438 26.4341 66.0582C26.2278 66.0774 25.9927 66.0198 25.7289 65.8903C25.4266 65.7415 25.2155 65.5832 25.1052 65.4153C24.99 65.2474 24.9373 65.0843 24.9469 64.9308C24.9517 64.7772 25.014 64.5805 25.134 64.3406L25.6425 63.3092C25.7816 63.0261 25.916 62.8294 26.0407 62.7239C26.1655 62.6183 26.3334 62.5607 26.5397 62.5559C26.746 62.5511 26.9714 62.6087 27.2161 62.7287C27.4848 62.863 27.6815 63.0165 27.8014 63.1892C27.9214 63.3667 27.9789 63.5346 27.9741 63.693C27.9598 63.8513 27.8878 64.072 27.7535 64.3454ZM26.9667 63.645C27.0386 63.4915 27.077 63.3955 27.0818 63.3523C27.0818 63.3092 27.0482 63.2708 26.981 63.2372C26.9187 63.2036 26.8659 63.2036 26.8275 63.2324C26.7891 63.2612 26.7364 63.3475 26.6644 63.4963L25.9544 64.9451C25.8728 65.1131 25.8344 65.2138 25.8344 65.257C25.8344 65.3002 25.868 65.3385 25.94 65.3721C26.0023 65.4009 26.0503 65.4009 26.0887 65.3721C26.1271 65.3433 26.175 65.257 26.247 65.1179L26.9667 63.645ZM29.0536 68.4282L28.5691 69.4165C28.4443 69.6708 28.3244 69.8531 28.214 69.9586C28.1037 70.0642 27.9406 70.1266 27.7343 70.1457C27.528 70.1649 27.2929 70.1074 27.029 69.9778C26.7268 69.8291 26.5205 69.6708 26.4053 69.5029C26.2902 69.3302 26.2374 69.1718 26.2422 69.0135C26.247 68.86 26.3094 68.6633 26.4293 68.4282L26.9379 67.3919C27.077 67.1089 27.2065 66.917 27.3313 66.8066C27.456 66.7011 27.6239 66.6435 27.8302 66.6387C28.0365 66.6339 28.262 66.6915 28.5067 66.8114C28.7801 66.9457 28.9768 67.0993 29.0968 67.2768C29.2167 67.4543 29.2743 67.6222 29.2647 67.7805C29.2599 67.9389 29.1879 68.1547 29.0536 68.4282ZM28.2668 67.7326C28.3388 67.579 28.3771 67.4831 28.3819 67.4399C28.3867 67.3967 28.3532 67.3583 28.2812 67.3248C28.2188 67.2912 28.1661 67.2912 28.1325 67.32C28.0941 67.3487 28.0413 67.4399 27.9694 67.5886L27.2593 69.0375C27.1777 69.2006 27.1394 69.3014 27.1394 69.3445C27.1394 69.3877 27.1729 69.4213 27.2449 69.4549C27.3073 69.4885 27.3601 69.4885 27.3936 69.4597C27.4272 69.4309 27.48 69.3445 27.552 69.2054L28.2668 67.7326Z" fill="white"/>
<path d="M35.3334 68.1979L33.7118 67.8189L33.8461 67.2528C33.9277 66.8978 33.9661 66.6675 33.9565 66.5716C33.9469 66.4756 33.8845 66.4132 33.7694 66.3844C33.6686 66.3605 33.5919 66.3844 33.5391 66.4516C33.4863 66.5188 33.4192 66.7155 33.3472 67.0321L32.6467 70.021C32.5796 70.2993 32.5556 70.4912 32.57 70.5872C32.5844 70.6831 32.6467 70.7455 32.7523 70.7695C32.8722 70.7982 32.9634 70.7647 33.0258 70.6735C33.0929 70.5823 33.1601 70.3952 33.2273 70.1026L33.4 69.3638L33.0737 69.287L33.2944 68.3419L35.1895 68.7881L34.4027 72.132L33.3856 71.8921L33.3424 71.4123C33.1889 71.5803 33.0114 71.6906 32.8243 71.7482C32.6324 71.8057 32.4261 71.8057 32.1958 71.753C31.9223 71.6906 31.6824 71.5611 31.4761 71.374C31.2698 71.1868 31.1259 70.9806 31.0491 70.7551C30.9724 70.5296 30.9436 70.3089 30.9628 70.0882C30.982 69.8675 31.0443 69.5413 31.1451 69.1143L31.5817 67.2624C31.7208 66.6675 31.8551 66.2405 31.9799 65.9863C32.1094 65.732 32.3493 65.5305 32.7043 65.377C33.0593 65.2234 33.4815 65.2042 33.9613 65.3194C34.4363 65.4297 34.8057 65.6216 35.0743 65.8903C35.343 66.159 35.4917 66.4372 35.5253 66.7299C35.5589 67.0177 35.5157 67.4207 35.3958 67.9293L35.3334 68.1979Z" fill="white"/>
<path d="M39.8767 66.2261L39.5505 70.4912C39.5121 70.9757 39.4737 71.3115 39.4257 71.5082C39.3777 71.7002 39.2722 71.8969 39.0995 72.0888C38.9268 72.2855 38.7109 72.4246 38.4518 72.5109C38.1879 72.5973 37.8857 72.6261 37.5451 72.6021C37.166 72.5733 36.835 72.4822 36.552 72.3382C36.2689 72.1895 36.0626 72.0072 35.9379 71.7961C35.8083 71.585 35.7412 71.3643 35.7316 71.134C35.722 70.9085 35.746 70.4336 35.7987 69.7139L36.0866 65.9382L37.7466 66.063L37.3819 70.8462C37.3627 71.1244 37.3627 71.302 37.3867 71.3835C37.4107 71.4651 37.4683 71.5082 37.5594 71.513C37.665 71.5226 37.737 71.4843 37.7705 71.4027C37.8089 71.3211 37.8377 71.1196 37.8617 70.803L38.2215 66.1014L39.8767 66.2261Z" fill="white"/>
<path d="M43.0048 66.0149L44.3961 72.3333L42.6978 72.4485L42.5299 71.3066L41.935 71.3498L41.9158 72.506L40.1982 72.626L40.6012 66.1828L43.0048 66.0149ZM42.4051 70.1792C42.2708 69.4644 42.1269 68.5768 41.9686 67.5165C41.8822 68.7495 41.839 69.6515 41.8342 70.2176L42.4051 70.1792Z" fill="white"/>
<path d="M43.8447 65.9478L44.9962 65.6935C45.7638 65.5256 46.2867 65.4392 46.5746 65.4392C46.8576 65.4392 47.1119 65.54 47.3374 65.7463C47.5629 65.9526 47.7308 66.322 47.8507 66.8545C47.9563 67.3391 47.9707 67.6797 47.8843 67.8764C47.798 68.0683 47.5821 68.2218 47.2366 68.3322C47.5773 68.3418 47.8171 68.3993 47.9563 68.5097C48.0954 68.62 48.1914 68.7256 48.2441 68.8311C48.2969 68.9367 48.3785 69.2437 48.4888 69.7475L48.8486 71.3978L47.3374 71.7289L46.8816 69.6515C46.8096 69.3157 46.7377 69.1142 46.6657 69.047C46.5938 68.9798 46.4498 68.9702 46.2243 69.0182L46.8432 71.8344L45.2168 72.1894L43.8447 65.9478ZM45.7062 66.6578L46.0132 68.0491C46.1956 68.0107 46.3203 67.9579 46.3827 67.8908C46.445 67.8236 46.445 67.6557 46.3875 67.3774L46.3107 67.032C46.2675 66.8353 46.2051 66.7106 46.1188 66.6674C46.0276 66.6194 45.8933 66.6194 45.7062 66.6578Z" fill="white"/>
<path d="M50.3981 64.0479L53.5645 69.6898L51.9765 70.2943L51.4824 69.2532L50.9258 69.4643L51.2425 70.5726L49.6353 71.1867L48.1528 64.9066L50.3981 64.0479ZM51.041 68.2026C50.7052 67.5549 50.307 66.7489 49.8464 65.7798C50.1246 66.984 50.3453 67.8619 50.5037 68.4041L51.041 68.2026Z" fill="white"/>
<path d="M54.4186 61.9177L57.5514 67.4973L56.28 68.2122L54.1019 66.1012L55.5268 68.6392L54.313 69.3204L51.1802 63.7408L52.394 63.0596L54.6201 65.1129L53.2096 62.6038L54.4186 61.9177Z" fill="white"/>
<path d="M57.3158 59.7014L58.093 60.7185L57.3062 61.3182L60.4103 65.3866L59.0861 66.3941L55.9821 62.3257L55.2001 62.9206L54.4229 61.9035L57.3158 59.7014Z" fill="white"/>
<path d="M57.3403 59.6438L59.3217 57.7056L60.2189 58.6219L59.4273 59.3991L60.2765 60.2675L61.0201 59.543L61.8693 60.4114L61.1256 61.1359L62.1091 62.1433L62.9823 61.2894L63.8795 62.2057L61.8165 64.2207L57.3403 59.6438Z" fill="white"/>
<path d="M59.5039 57.4945L61.2502 55.3403L62.2433 56.1463L61.5429 57.0099L62.488 57.7727L63.1405 56.9667L64.0856 57.7343L63.4331 58.5403L64.527 59.4279L65.2946 58.478L66.2877 59.284L64.4742 61.5244L59.5039 57.4945Z" fill="white"/>
<path d="M14.0277 20.5339L19.2859 24.1801L18.3743 25.4899L15.5581 23.5372C15.1503 23.2542 14.9008 23.0959 14.8049 23.0575C14.7089 23.0191 14.6082 23.0287 14.5074 23.0911C14.4067 23.1486 14.2484 23.3309 14.0373 23.6332L13.9461 23.7627L13.332 23.3357C13.6343 22.6065 13.6871 21.93 13.4904 21.3063L14.0277 20.5339Z" fill="white"/>
<path d="M18.9357 18.183L20.5093 19.6223C20.8691 19.9485 21.109 20.2076 21.2386 20.3947C21.3681 20.5818 21.4449 20.8025 21.4736 21.0568C21.5024 21.3111 21.4688 21.5509 21.3729 21.7812C21.2769 22.0115 21.133 22.2322 20.9363 22.4481C20.6772 22.7311 20.4326 22.9326 20.1975 23.0622C19.9624 23.1869 19.7225 23.2445 19.4826 23.2301C19.2428 23.2157 19.0269 23.1581 18.8302 23.067C18.6335 22.9758 18.3696 22.7743 18.0386 22.4721L16.393 20.9656C15.9612 20.5674 15.6685 20.2364 15.5198 19.9629C15.3711 19.6895 15.3375 19.3824 15.4095 19.0418C15.4814 18.7012 15.6637 18.3701 15.9564 18.0535C16.1915 17.7944 16.4506 17.6073 16.7288 17.4826C17.0071 17.3626 17.2566 17.3099 17.4772 17.329C17.6979 17.3482 17.909 17.4106 18.1057 17.5257C18.3024 17.6313 18.5807 17.852 18.9357 18.183ZM17.4628 18.9938C17.2134 18.7635 17.0455 18.634 16.9591 18.6004C16.8727 18.5668 16.7912 18.5956 16.7096 18.682C16.6281 18.7683 16.6089 18.8595 16.6521 18.9458C16.6952 19.037 16.8344 19.1905 17.079 19.4112L19.3819 21.5174C19.6554 21.7668 19.8329 21.906 19.9144 21.9299C19.996 21.9539 20.0727 21.9251 20.1543 21.8388C20.2359 21.7524 20.2551 21.6661 20.2119 21.5749C20.1687 21.4886 20.0344 21.3398 19.8041 21.1239L17.4628 18.9938Z" fill="white"/>
<path d="M22.6248 15.1365L23.9537 16.806C24.256 17.185 24.4575 17.4777 24.5534 17.684C24.6494 17.8903 24.6926 18.1206 24.683 18.3748C24.6734 18.6291 24.6014 18.8594 24.4719 19.0753C24.3423 19.2864 24.16 19.4831 23.9345 19.6654C23.6371 19.9053 23.3588 20.0684 23.1093 20.1547C22.8551 20.2411 22.6152 20.2603 22.3801 20.2075C22.145 20.1547 21.9387 20.0684 21.7612 19.9437C21.5837 19.8237 21.3534 19.5838 21.0704 19.2336L19.6791 17.4873C19.3144 17.0267 19.0794 16.6525 18.9738 16.3598C18.8731 16.0672 18.8827 15.7601 19.0074 15.4339C19.1321 15.1077 19.3624 14.8102 19.6983 14.5416C19.9717 14.3209 20.2548 14.1769 20.5474 14.1002C20.8401 14.0234 21.0944 14.0138 21.3102 14.0618C21.5261 14.1146 21.7228 14.2105 21.9004 14.3544C22.0827 14.4984 22.3225 14.7574 22.6248 15.1365ZM21.0416 15.7122C20.8305 15.4483 20.6866 15.29 20.605 15.242C20.5282 15.194 20.4371 15.2084 20.3459 15.2852C20.2548 15.3571 20.2212 15.4435 20.2452 15.5395C20.274 15.6354 20.3891 15.8129 20.5954 16.0672L22.5432 18.5092C22.7735 18.8018 22.927 18.9649 23.0038 19.0033C23.0806 19.0417 23.1621 19.0225 23.2581 18.9506C23.3492 18.8786 23.3828 18.7922 23.3588 18.7011C23.33 18.6099 23.2197 18.4372 23.023 18.1925L21.0416 15.7122Z" fill="white"/>
<path d="M24.9376 12.5027L25.4558 13.4718C25.5901 13.7261 25.6717 13.9276 25.6909 14.0811C25.7101 14.2346 25.6669 14.3977 25.5613 14.5752C25.4558 14.7527 25.2735 14.9111 25.0144 15.0502C24.7169 15.2085 24.4675 15.2853 24.2612 15.2805C24.0597 15.2757 23.8966 15.2229 23.7718 15.127C23.6519 15.031 23.5271 14.8679 23.4024 14.6328L22.8603 13.6205C22.7116 13.3423 22.63 13.1216 22.6156 12.9584C22.6012 12.7953 22.654 12.6274 22.7691 12.4547C22.8891 12.282 23.0666 12.1333 23.3065 12.0037C23.5703 11.8598 23.8102 11.7926 24.0261 11.7974C24.242 11.8022 24.4099 11.8502 24.5346 11.9509C24.6594 12.0469 24.7937 12.234 24.9376 12.5027ZM23.9158 12.733C23.8342 12.5842 23.7814 12.4979 23.7478 12.4691C23.7143 12.4403 23.6615 12.4451 23.5943 12.4835C23.5319 12.5171 23.5032 12.5554 23.5032 12.6034C23.5032 12.6514 23.5415 12.7474 23.6231 12.8913L24.3859 14.3114C24.4723 14.4745 24.5346 14.5656 24.5682 14.5896C24.6018 14.6136 24.6546 14.6088 24.7217 14.5704C24.7841 14.5369 24.8129 14.4985 24.8081 14.4505C24.8033 14.4025 24.7697 14.3114 24.693 14.177L23.9158 12.733ZM26.0027 10.55L26.9382 17.5881L26.4009 17.876L25.4702 10.8379L26.0027 10.55ZM29.0156 13.822L29.5385 14.7959C29.6729 15.0454 29.7496 15.2469 29.7736 15.4004C29.7928 15.5539 29.7496 15.7171 29.6441 15.8994C29.5385 16.0769 29.3562 16.2352 29.0972 16.3743C28.8045 16.5327 28.5502 16.6094 28.3487 16.5998C28.1424 16.595 27.9793 16.5423 27.8594 16.4463C27.7394 16.3503 27.6147 16.1872 27.49 15.9521L26.943 14.9351C26.7943 14.6568 26.7128 14.4409 26.6984 14.273C26.684 14.1099 26.7367 13.942 26.8519 13.7692C26.967 13.5965 27.1493 13.4478 27.3844 13.3183C27.6531 13.1743 27.893 13.1072 28.1089 13.112C28.3247 13.1168 28.4927 13.1695 28.6174 13.2703C28.7373 13.371 28.8717 13.5533 29.0156 13.822ZM27.9937 14.0571C27.9122 13.9084 27.8594 13.822 27.821 13.7932C27.7874 13.7644 27.7346 13.7692 27.6675 13.8076C27.6051 13.8412 27.5763 13.8796 27.5763 13.9276C27.5811 13.9755 27.6195 14.0715 27.6963 14.2154L28.4591 15.6355C28.5454 15.7938 28.603 15.8898 28.6366 15.9138C28.6702 15.9378 28.7229 15.933 28.7901 15.8946C28.8525 15.861 28.8813 15.8226 28.8813 15.7794C28.8765 15.7363 28.8381 15.6451 28.7661 15.5012L27.9937 14.0571Z" fill="white"/>
<path d="M34.2305 10.4062L32.6233 10.8283L32.4746 10.267C32.3834 9.912 32.3067 9.69611 32.2539 9.61455C32.2011 9.53299 32.1148 9.509 31.9996 9.53779C31.8989 9.56178 31.8413 9.61935 31.8269 9.7057C31.8125 9.79206 31.8461 9.99356 31.9277 10.3102L32.7049 13.2799C32.7768 13.5582 32.844 13.7357 32.9016 13.8125C32.9592 13.8892 33.0455 13.918 33.1511 13.8892C33.2662 13.8604 33.3334 13.7885 33.3526 13.6781C33.367 13.5678 33.3382 13.3663 33.2614 13.0784L33.0695 12.3444L32.7433 12.4307L32.4986 11.4904L34.384 10.9963L35.2524 14.3162L34.2401 14.5801L33.9762 14.1771C33.9187 14.3978 33.8179 14.5753 33.674 14.7144C33.5301 14.8535 33.3478 14.9543 33.1223 15.0119C32.8536 15.0838 32.5801 15.0838 32.3115 15.0119C32.0428 14.9447 31.8173 14.8247 31.6446 14.6664C31.4719 14.5033 31.3424 14.321 31.256 14.1147C31.1696 13.9084 31.0689 13.5966 30.9586 13.1696L30.4788 11.3321C30.3253 10.742 30.2437 10.3054 30.2389 10.0175C30.2341 9.73449 30.3493 9.44184 30.5939 9.13959C30.8386 8.83734 31.1984 8.62145 31.6782 8.49671C32.1484 8.37197 32.5658 8.36717 32.9256 8.48232C33.2854 8.59266 33.5493 8.77017 33.7124 9.01485C33.8755 9.25473 34.0242 9.62894 34.1586 10.1375L34.2305 10.4062Z" fill="white"/>
<path d="M38.8312 7.52271L39.2342 11.7782C39.2774 12.2627 39.2966 12.6034 39.2822 12.8001C39.2678 12.9968 39.1958 13.2079 39.0615 13.4286C38.9272 13.6492 38.7353 13.822 38.4954 13.9563C38.2507 14.0858 37.958 14.1674 37.6174 14.201C37.2384 14.2345 36.8978 14.2058 36.5907 14.105C36.2885 14.0043 36.0534 13.8651 35.8903 13.6732C35.7272 13.4861 35.6216 13.2798 35.5736 13.0591C35.5257 12.8384 35.4681 12.3683 35.4009 11.6486L35.0459 7.87773L36.7011 7.71941L37.152 12.493C37.176 12.7713 37.2096 12.9488 37.248 13.0208C37.2864 13.0975 37.3487 13.1263 37.4399 13.1215C37.5454 13.1119 37.6078 13.0639 37.6318 12.9728C37.6558 12.8864 37.651 12.6801 37.6222 12.3635L37.1808 7.67143L38.8312 7.52271Z" fill="white"/>
<path d="M43.1109 7.68112L43.6818 14.1243L41.9834 14.0236L41.9642 12.8721L41.3693 12.8385L41.2014 13.9804L39.4839 13.8796L40.7121 7.54199L43.1109 7.68112ZM41.9834 11.7351C41.9403 11.0059 41.9115 10.1087 41.8875 9.03884C41.6476 10.2526 41.4845 11.1402 41.4077 11.7015L41.9834 11.7351Z" fill="white"/>
<path d="M45.0972 7.89697L46.2486 8.14645C47.0162 8.31436 47.5295 8.45349 47.7886 8.57343C48.0477 8.69337 48.2348 8.89008 48.3547 9.17313C48.4747 9.4514 48.4747 9.85919 48.3595 10.3917C48.254 10.8763 48.1244 11.1929 47.9661 11.3321C47.8078 11.4712 47.5487 11.524 47.1841 11.4808C47.4864 11.6295 47.6831 11.783 47.7646 11.9413C47.8462 12.0997 47.8894 12.2388 47.8894 12.3539C47.8942 12.4739 47.8366 12.7809 47.731 13.2895L47.376 14.9399L45.8648 14.6136L46.3157 12.5363C46.3877 12.2004 46.4069 11.9893 46.3733 11.8982C46.3397 11.807 46.2102 11.7351 45.9847 11.6871L45.3754 14.5081L43.749 14.1578L45.0972 7.89697ZM46.4933 9.32186L46.191 10.7132C46.3733 10.7515 46.5076 10.7563 46.594 10.7228C46.6804 10.6892 46.7523 10.5357 46.8099 10.2574L46.8867 9.91197C46.9298 9.71526 46.9202 9.57613 46.8627 9.49937C46.8051 9.42261 46.6804 9.36024 46.4933 9.32186Z" fill="white"/>
<path d="M52.7636 10.1374L51.3483 16.4463L49.7603 15.8322L50.0913 14.7287L49.5348 14.5128L49.0262 15.5491L47.4238 14.9302L50.5183 9.26904L52.7636 10.1374ZM50.4607 13.6588C50.643 12.9536 50.8877 12.0852 51.1899 11.0585C50.5902 12.1428 50.1681 12.9392 49.9234 13.4526L50.4607 13.6588Z" fill="white"/>
<path d="M57.8154 12.8098L54.6202 18.351L53.3584 17.6218L54.0636 14.6713L52.61 17.19L51.4058 16.4944L54.601 10.9531L55.8052 11.6488L55.1719 14.6089L56.6112 12.1141L57.8154 12.8098Z" fill="white"/>
<path d="M61.5863 15.6977L60.7899 16.7004L60.0175 16.0863L56.8367 20.0971L55.5317 19.0657L58.7126 15.0549L57.9401 14.4456L58.7365 13.4429L61.5863 15.6977Z" fill="white"/>
<path d="M62.3206 16.4031L64.254 18.3893L63.3377 19.2816L62.5652 18.4852L61.6969 19.3296L62.4213 20.0732L61.5481 20.9224L60.8237 20.1788L59.8162 21.1623L60.6702 22.0355L59.7538 22.9278L57.7437 20.86L62.3206 16.4031Z" fill="white"/>
<path d="M65.0308 19.3008L66.7099 21.5077L65.6928 22.2849L65.0212 21.4021L64.0569 22.1362L64.6853 22.9614L63.7162 23.7002L63.0877 22.875L61.9699 23.729L62.7087 24.7029L61.6916 25.4801L59.9453 23.182L65.0308 19.3008Z" fill="white"/>
<path d="M40.0114 64.1824C53.3682 64.1824 64.1961 53.3545 64.1961 39.9977C64.1961 26.6409 53.3682 15.813 40.0114 15.813C26.6545 15.813 15.8267 26.6409 15.8267 39.9977C15.8267 53.3545 26.6545 64.1824 40.0114 64.1824Z" fill="#AF0A64"/>
<path d="M40.0113 63.717C53.1112 63.717 63.7307 53.0975 63.7307 39.9977C63.7307 26.8978 53.1112 16.2783 40.0113 16.2783C26.9115 16.2783 16.292 26.8978 16.292 39.9977C16.292 53.0975 26.9115 63.717 40.0113 63.717Z" fill="white"/>
<path d="M40.0113 63.2516C52.8541 63.2516 63.2653 52.8404 63.2653 39.9976C63.2653 27.1548 52.8541 16.7437 40.0113 16.7437C27.1685 16.7437 16.7573 27.1548 16.7573 39.9976C16.7573 52.8404 27.1685 63.2516 40.0113 63.2516Z" fill="#AF0A64"/>
<path d="M78.1522 49.3002H1.87514C0.848454 49.3002 0.0136719 48.4654 0.0136719 47.4387V32.5565C0.0136719 31.5299 0.848454 30.6951 1.87514 30.6951H78.1522C79.1789 30.6951 80.0137 31.5299 80.0137 32.5565V47.4387C80.0137 48.4702 79.1789 49.3002 78.1522 49.3002Z" fill="white"/>
<path d="M1.87507 48.3694C1.36173 48.3694 0.944336 47.952 0.944336 47.4386V32.5565C0.944336 32.0431 1.36173 31.6257 1.87507 31.6257H78.1521C78.6655 31.6257 79.0829 32.0431 79.0829 32.5565V47.4386C79.0829 47.952 78.6655 48.3694 78.1521 48.3694H1.87507Z" fill="#AF0A64"/>
<path d="M1.87504 47.904C1.62076 47.904 1.40967 47.6977 1.40967 47.4386V32.5564C1.40967 32.3022 1.61596 32.0911 1.87504 32.0911H78.1521C78.4064 32.0911 78.6175 32.2974 78.6175 32.5564V47.4386C78.6175 47.6929 78.4112 47.904 78.1521 47.904H1.87504Z" fill="white"/>
<path d="M40.0117 60.4643L41.3742 57.7057L44.4159 57.2643L42.2138 55.1198L42.7319 52.0925L40.0117 53.5222L37.2915 52.0925L37.8144 55.1198L35.6123 57.2643L38.654 57.7057L40.0117 60.4643Z" fill="white"/>
<path d="M49.314 56.0457L49.9953 54.6688L51.5161 54.4481L50.4174 53.3735L50.6765 51.8574L49.314 52.5723L47.9563 51.8574L48.2154 53.3735L47.1167 54.4481L48.6327 54.6688L49.314 56.0457Z" fill="white"/>
<path d="M30.709 56.0457L31.3903 54.6688L32.9111 54.4481L31.8125 53.3735L32.0715 51.8574L30.709 52.5723L29.3513 51.8574L29.6104 53.3735L28.5117 54.4481L30.0326 54.6688L30.709 56.0457Z" fill="white"/>
<path d="M40.0117 19.5359L41.3742 22.2897L44.4159 22.7311L42.2138 24.8756L42.7319 27.9077L40.0117 26.478L37.2915 27.9077L37.8144 24.8756L35.6123 22.7311L38.654 22.2897L40.0117 19.5359Z" fill="white"/>
<path d="M30.709 23.9546L31.3903 25.3315L32.9111 25.5522L31.8125 26.6269L32.0715 28.1381L30.709 27.4233L29.3513 28.1381L29.6104 26.6269L28.5117 25.5522L30.0326 25.3315L30.709 23.9546Z" fill="white"/>
<path d="M49.314 23.9546L49.9953 25.3315L51.5161 25.5522L50.4174 26.6269L50.6765 28.1381L49.314 27.4233L47.9563 28.1381L48.2154 26.6269L47.1167 25.5522L48.6327 25.3315L49.314 23.9546Z" fill="white"/>
<path d="M16.6039 42.8521C16.9638 43.1016 17.1988 43.2599 17.3092 43.3222C17.4723 43.4134 17.6978 43.5237 17.9761 43.6485L17.1749 45.2653C16.7719 45.0686 16.3737 44.8383 15.9803 44.5696C15.5869 44.301 15.3086 44.0995 15.1551 43.9603C14.517 44.2338 13.7206 44.3729 12.7659 44.3729C11.3506 44.3729 10.2327 44.0035 9.41714 43.2647C8.45282 42.3915 7.96826 41.1633 7.96826 39.5849C7.96826 38.0497 8.39045 36.8599 9.23483 36.0059C10.0792 35.1567 11.2642 34.7297 12.7803 34.7297C14.3299 34.7297 15.5197 35.1471 16.3641 35.9771C17.2036 36.8071 17.6258 37.9969 17.6258 39.5465C17.621 40.9234 17.2804 42.0269 16.6039 42.8521ZM14.397 41.3792C14.6273 40.9666 14.7425 40.3525 14.7425 39.5369C14.7425 38.5966 14.5698 37.9249 14.2195 37.5219C13.8693 37.1189 13.3896 36.9174 12.7707 36.9174C12.1997 36.9174 11.7344 37.1237 11.3794 37.5363C11.0243 37.9489 10.8468 38.5918 10.8468 39.465C10.8468 40.4821 11.0195 41.1969 11.3698 41.6095C11.7152 42.0221 12.1949 42.2284 12.7994 42.2284C12.9961 42.2284 13.1785 42.2092 13.3512 42.1708C13.1113 41.9357 12.7275 41.715 12.2045 41.5087L12.6555 40.4725C12.9098 40.5204 13.1065 40.578 13.2504 40.6452C13.3943 40.7123 13.6678 40.8899 14.0804 41.1777C14.1764 41.2353 14.2819 41.3072 14.397 41.3792Z" fill="#AF0A64"/>
<path d="M25.2395 34.8928H28.1133V40.4484C28.1133 41.0002 28.027 41.5183 27.8542 42.0077C27.6815 42.497 27.4129 42.924 27.0482 43.2934C26.6836 43.658 26.295 43.9171 25.892 44.0658C25.3307 44.2721 24.659 44.3777 23.877 44.3777C23.4213 44.3777 22.9271 44.3441 22.3946 44.2817C21.8572 44.2194 21.4111 44.0898 21.0512 43.9027C20.6914 43.7156 20.3604 43.4469 20.0629 43.0967C19.7655 42.7513 19.5592 42.3915 19.4488 42.0221C19.2713 41.4272 19.1802 40.9042 19.1802 40.4484V34.8928H22.0539V40.578C22.0539 41.0865 22.1931 41.4847 22.4761 41.7678C22.7592 42.0556 23.1478 42.1948 23.6515 42.1948C24.1457 42.1948 24.5343 42.0556 24.8174 41.7726C25.1004 41.4895 25.2395 41.0913 25.2395 40.5732V34.8928Z" fill="#AF0A64"/>
<path d="M35.3049 42.6745H32.0329L31.5772 44.2146H28.6362L32.1385 34.8928H35.2809L38.7832 44.2146H35.7655L35.3049 42.6745ZM34.71 40.6595L33.6833 37.3108L32.6662 40.6595H34.71Z" fill="#AF0A64"/>
<path d="M39.7041 34.8928H42.5827V41.9213H47.078V44.2146H39.7041V34.8928Z" fill="#AF0A64"/>
<path d="M48.5029 34.8928H51.3911V44.2146H48.5029V34.8928Z" fill="#AF0A64"/>
<path d="M52.8018 34.8928H61.5574V37.1957H58.6212V44.2146H55.7427V37.1957H52.8066V34.8928H52.8018Z" fill="#AF0A64"/>
<path d="M61.9219 34.8928H65.1219L66.9977 38.0401L68.8784 34.8928H72.0592L68.437 40.3093V44.2146H65.5489V40.3093L61.9219 34.8928Z" fill="#AF0A64"/>
</svg>
