<svg width="220" height="220" viewBox="0 0 220 220" fill="none" xmlns="http://www.w3.org/2000/svg">
<circle cx="110" cy="110" r="110" fill="white"/>
<path d="M143.773 94.1053L143.355 93.687C141.054 91.1772 140.845 87.6216 142.728 85.7392L151.303 77.5823C154.44 74.6541 158.832 74.2358 161.342 76.7457L161.761 77.164C164.061 79.6738 163.434 84.066 160.296 86.9941L151.721 94.9419C149.63 97.0334 146.074 96.6151 143.773 94.1053Z" fill="white" stroke="#248380" stroke-width="3" stroke-miterlimit="10"/>
<path d="M99.6423 159.779L106.753 152.668C128.087 154.341 136.662 140.537 138.963 138.027H78.0996L99.6423 159.779Z" fill="white"/>
<path d="M99.6426 159.779L106.754 152.668C128.087 154.341 136.663 140.537 138.963 138.027" stroke="#248380" stroke-width="3" stroke-miterlimit="10" stroke-linecap="round"/>
<path d="M142.309 138.027H104.662C100.061 138.027 96.2959 134.262 96.2959 129.661C96.2959 112.092 96.2959 71.9349 96.2959 54.3661C96.2959 49.7647 100.061 46 104.662 46H142.309C146.911 46 150.676 49.7647 150.676 54.3661C150.676 71.9349 150.676 112.092 150.676 129.661C150.676 134.262 146.911 138.027 142.309 138.027Z" fill="white" stroke="#248380" stroke-width="3" stroke-miterlimit="10"/>
<path d="M142.309 138.027H104.662C100.061 138.027 96.2959 134.262 96.2959 129.661V123.386H150.676V129.661C150.676 134.262 146.911 138.027 142.309 138.027Z" fill="#BEDAD9" stroke="#248380" stroke-width="3" stroke-miterlimit="10"/>
<path d="M72.0342 132.171C72.0342 132.171 74.7532 129.243 76.8447 127.151C78.5179 125.478 79.3545 123.595 79.3545 121.922C79.3545 118.367 79.1454 107.909 82.0735 100.17C84.7925 93.2683 85.6291 89.5036 89.8121 75.6995C90.8579 72.5622 95.6684 71.9348 97.5508 74.6538C99.4331 77.3728 101.316 81.1375 100.897 85.5297C100.27 93.2683 99.224 97.8697 97.1325 104.353C102.361 110.837 106.963 124.641 101.316 140.746L90.8579 151.204L72.0342 132.171Z" fill="white"/>
<path d="M149.421 136.145L149.002 135.726C146.702 133.635 145.865 130.707 147.12 129.243L152.558 122.968C154.44 120.667 157.996 120.458 160.506 122.55L160.924 122.968C163.225 125.06 163.643 128.615 161.552 130.916L156.114 137.19C154.859 138.655 151.931 138.236 149.421 136.145Z" fill="white" stroke="#248380" stroke-width="3" stroke-miterlimit="10"/>
<path d="M68.3925 128.281L57 139.664L91.2963 173.989L102.689 162.607L68.3925 128.281Z" fill="#BEDAD9" stroke="#248380" stroke-width="3" stroke-miterlimit="10" stroke-linejoin="round"/>
<path d="M149.63 121.504L149.211 121.086C146.911 118.994 145.865 116.066 147.329 114.602L152.976 108.119C155.068 105.818 158.623 105.609 160.924 107.7L161.342 108.119C163.643 110.21 164.061 113.766 161.97 116.066L156.323 122.55C155.068 124.014 151.93 123.596 149.63 121.504Z" fill="white" stroke="#248380" stroke-width="3" stroke-miterlimit="10"/>
<path d="M149.63 107.281L149.211 106.863C146.911 104.771 145.865 101.843 147.329 100.379L152.976 93.8954C155.068 91.5947 158.623 91.3856 160.924 93.4771L161.342 93.8954C163.643 95.9869 164.061 99.5425 161.97 101.843L156.323 108.327C155.068 109.791 151.93 109.373 149.63 107.281Z" fill="white" stroke="#248380" stroke-width="3" stroke-miterlimit="10"/>
<path d="M121.394 129.661H127.669" stroke="#248380" stroke-width="3" stroke-miterlimit="10" stroke-linecap="round" stroke-linejoin="round"/>
<path d="M101.734 140.955C107.381 124.642 102.78 111.047 97.5509 104.563C99.6425 98.0792 100.688 93.4778 101.316 85.7392C101.734 81.347 99.8516 77.5822 97.9692 74.8632C95.8777 72.1443 91.0672 72.7717 90.2306 75.909C85.8384 89.7131 85.2109 93.4778 82.492 100.38C79.5638 108.118 79.773 118.576 79.773 122.132C79.773 123.805 78.9364 125.687 77.2631 127.36C75.1716 129.452 72.4526 132.38 72.4526 132.38" stroke="#248380" stroke-width="3" stroke-miterlimit="10" stroke-linecap="round"/>
<path d="M142.753 64.301V69.0069H106.151V58.5493H131.772" stroke="#248380" stroke-width="3" stroke-miterlimit="10"/>
<path d="M142.753 83.1245V87.8304H106.151V77.3728H131.772" stroke="#248380" stroke-width="3" stroke-miterlimit="10"/>
<path d="M142.753 101.948V106.654H106.151V96.1965H131.772" stroke="#248380" stroke-width="3" stroke-miterlimit="10"/>
</svg>
