<svg width="220" height="220" viewBox="0 0 220 220" fill="none" xmlns="http://www.w3.org/2000/svg">
<circle cx="110" cy="110" r="110" fill="white"/>
<path d="M150.286 77.8235C150.286 59.6572 132.12 41 109.78 41C87.4407 41 69.2744 59.6572 69.2744 77.8235V104.827C69.2744 104.827 73.2023 107.282 79.094 109.737C79.094 123.976 86.7042 136.005 98.9787 143.369C99.2241 143.369 99.4696 143.615 99.7151 143.615C106.343 147.297 114.199 147.297 120.827 143.615C121.073 143.615 121.073 143.369 121.073 143.369C127.21 139.687 131.874 134.777 135.311 128.885C136.539 129.131 137.521 129.376 138.257 129.376C146.358 129.376 150.532 119.557 150.532 119.557V77.8235H150.286Z" fill="white"/>
<path d="M150.286 109.737V78.8055C150.286 60.6393 132.12 41.2456 109.78 41.2456C87.4407 41.2456 69.2744 60.8848 69.2744 78.8055V105.073" stroke="#248380" stroke-width="3" stroke-miterlimit="10"/>
<path d="M89.5273 134.607V149.336" stroke="#248380" stroke-width="3" stroke-miterlimit="10"/>
<path d="M131.261 134.607V149.336" stroke="#248380" stroke-width="3" stroke-miterlimit="10"/>
<path d="M135.623 144.162L111.147 168.638L121.041 178.532L145.517 154.057L135.623 144.162Z" stroke="#248380" stroke-width="3" stroke-miterlimit="10"/>
<path d="M84.2176 144.163L74.3232 154.057L98.7989 178.533L108.693 168.638L84.2176 144.163Z" stroke="#248380" stroke-width="3" stroke-miterlimit="10"/>
<path d="M67.556 114.647H69.2745V90.0979H67.556C62.1553 90.0979 57 95.2532 57 100.654V104.091C57 109.737 62.1553 114.647 67.556 114.647Z" fill="#BEDAD9" stroke="#248380" stroke-width="3" stroke-miterlimit="10"/>
<path d="M152.247 114.647H150.528V90.0979H152.247C158.138 90.0979 162.803 94.7622 162.803 100.654V104.091C162.557 109.983 157.893 114.647 152.247 114.647Z" fill="#BEDAD9" stroke="#248380" stroke-width="3" stroke-miterlimit="10"/>
<path d="M140.467 99.9176V108.755C140.467 122.994 133.102 136.005 120.827 143.369C120.582 143.369 120.582 143.615 120.582 143.615C114.199 147.543 106.098 147.543 99.4698 143.615C99.2243 143.615 98.9788 143.369 98.7333 143.369C86.4588 136.005 78.8486 122.994 78.8486 108.755V89.1912" stroke="#248380" stroke-width="3" stroke-miterlimit="10"/>
<path d="M93.8232 60.6392C93.8232 77.8234 127.946 99.9175 145.376 99.9175" stroke="#248380" stroke-width="3" stroke-miterlimit="10"/>
<path d="M79.0942 90.0979C81.3036 82.7332 91.3687 72.9136 98.7334 72.9136" stroke="#248380" stroke-width="3" stroke-miterlimit="10"/>
<path d="M111.008 129.376H125.737H136.048C141.694 129.376 146.604 125.939 148.568 120.784L150.041 117.102V112.192" stroke="#248380" stroke-width="3" stroke-miterlimit="10"/>
<path d="M113.462 134.286H106.098C103.397 134.286 101.188 132.077 101.188 129.376V126.922C101.188 124.221 103.397 122.012 106.098 122.012H113.462C116.163 122.012 118.372 124.221 118.372 126.922V129.376C118.372 132.077 116.163 134.286 113.462 134.286Z" fill="#BEDAD9" stroke="#248380" stroke-width="3" stroke-miterlimit="10"/>
</svg>
