<svg width="62" height="62" viewBox="0 0 62 62" fill="none" xmlns="http://www.w3.org/2000/svg">
<path d="M20.3773 15.8834C20.332 18.3785 20.2412 19.5127 20.9217 19.921C21.2393 20.1024 21.6022 20.0571 21.9198 19.9663C21.9198 19.9663 22.3735 26.5898 28.5887 28.5406C29.6321 28.8582 30.8116 28.9489 31.9004 28.6767C35.5297 27.8601 38.3878 24.4576 39.1137 19.921C39.3405 19.9664 39.6581 19.9663 39.9756 19.7849C40.6561 19.3312 40.4747 18.1517 40.4293 16.1555" stroke="white" stroke-width="1.5" stroke-miterlimit="10" stroke-linecap="round" stroke-linejoin="round"/>
<path d="M34.6762 19.6929C34.9222 19.9877 34.9946 20.5464 34.6328 20.7792C34.2275 21.0431 33.6775 20.8258 33.3157 20.6085C33.0117 20.4378 32.7512 20.174 32.4618 19.9567C31.8249 19.5066 30.9855 19.6929 30.5368 20.3602C30.0881 19.6774 29.2631 19.5066 28.6118 19.9567C28.3224 20.1585 28.0619 20.4223 27.7579 20.6085C27.3961 20.8258 26.8461 21.0275 26.4408 20.7792C26.079 20.5464 26.1514 20.0033 26.3974 19.6929" stroke="white" stroke-width="1.5" stroke-miterlimit="10" stroke-linecap="round" stroke-linejoin="round"/>
<path d="M27.1368 3.36096C27.6945 2.85885 28.4426 2.41596 29.4455 2.1486C30.0598 1.98981 30.7543 1.94446 31.3953 2.08057C32.3617 2.26525 33.2353 2.71443 33.9418 3.36096" stroke="white" stroke-width="1.5" stroke-miterlimit="10" stroke-linecap="round" stroke-linejoin="round"/>
<path d="M30.2218 36.7519L28.4525 34.9826C28.2256 34.7557 28.2256 34.3928 28.4525 34.166L30.2218 32.3967C30.4486 32.1699 30.8115 32.1699 31.0384 32.3967L32.8076 34.166C33.0345 34.3928 33.0345 34.7557 32.8076 34.9826L31.0384 36.7519C30.8115 36.9787 30.4486 36.9787 30.2218 36.7519Z" stroke="white" stroke-width="1.5" stroke-miterlimit="10" stroke-linecap="round" stroke-linejoin="round"/>
<path d="M23.9158 30.6729L28.4524 34.1661" stroke="white" stroke-width="1.5" stroke-miterlimit="10" stroke-linecap="round" stroke-linejoin="round"/>
<path d="M37.0266 30.6729L32.7168 34.03" stroke="white" stroke-width="1.5" stroke-miterlimit="10" stroke-linecap="round" stroke-linejoin="round"/>
<path d="M30.0404 36.5251L25.3677 44.9179" stroke="white" stroke-width="1.5" stroke-miterlimit="10" stroke-linecap="round" stroke-linejoin="round"/>
<path d="M35.4844 44.7816L31.3107 36.4796" stroke="white" stroke-width="1.5" stroke-miterlimit="10" stroke-linecap="round" stroke-linejoin="round"/>
<path d="M25.3677 44.9181H25.3223L12.2114 34.7107L12.3475 34.6653L21.8745 32.4877L25.3677 44.9181Z" stroke="white" stroke-width="1.5" stroke-miterlimit="10" stroke-linecap="round" stroke-linejoin="round"/>
<path d="M31.0384 59.526H30.5394H30.3579H29.995L11.6669 59.4353C7.49321 59.4353 4.09073 56.0329 4.04537 51.8592L4 43.5571C4 39.7917 6.35905 36.2984 9.943 35.2097C10.1245 35.1643 10.3513 35.0736 10.5328 35.0736L12.166 34.7106L25.2769 44.9634L25.3222 45.0088L25.3676 45.0996L30.494 58.3012" stroke="white" stroke-width="1.5" stroke-miterlimit="10" stroke-linecap="round" stroke-linejoin="round"/>
<path d="M30.993 59.5258H46.5084" stroke="white" stroke-width="1.5" stroke-miterlimit="10" stroke-linecap="round" stroke-linejoin="round"/>
<path d="M25.3677 44.9634V44.918" stroke="white" stroke-width="1.5" stroke-miterlimit="10" stroke-linecap="round" stroke-linejoin="round"/>
<path d="M23.8252 25.2744L24.0067 30.673" stroke="white" stroke-width="1.5" stroke-miterlimit="10" stroke-linecap="round" stroke-linejoin="round"/>
<path d="M23.9158 30.6729L21.8743 32.4875" stroke="white" stroke-width="1.5" stroke-miterlimit="10" stroke-linecap="round" stroke-linejoin="round"/>
<path d="M35.7112 44.9181L48.8221 34.7107L48.686 34.6653L39.159 32.4877L35.7112 44.9181Z" stroke="white" stroke-width="1.5" stroke-miterlimit="10" stroke-linecap="round" stroke-linejoin="round"/>
<path d="M30.5393 58.2556L35.6657 45.054L35.7111 44.9633L35.7565 44.9179L48.8673 34.6651L50.5005 35.028C50.682 35.0734 50.9088 35.1188 51.0903 35.1641C54.6742 36.2529 57.0333 39.7461 57.0333 43.5116L56.9879 51.8136C56.9426 55.9873 53.5855 59.3898 49.3664 59.3898L31.0383 59.4805H30.5393H30.0403" stroke="white" stroke-width="1.5" stroke-miterlimit="10" stroke-linecap="round" stroke-linejoin="round"/>
<path d="M37.2082 24.9112L37.0267 30.6727" stroke="white" stroke-width="1.5" stroke-miterlimit="10" stroke-linecap="round" stroke-linejoin="round"/>
<path d="M37.1174 30.6729L39.1589 32.4875" stroke="white" stroke-width="1.5" stroke-miterlimit="10" stroke-linecap="round" stroke-linejoin="round"/>
<path d="M20.039 11.5508C20.1075 7.194 20.8411 5.35409 22.872 4.64183C24.903 3.92958 26.6909 5.127 25.4936 6.91507C24.2963 8.70314 23.5623 10.5433 23.3198 12.4527C23.0772 14.3621 19.9706 15.9075 20.039 11.5508Z" stroke="white" stroke-width="1.5" stroke-linejoin="round"/>
<path d="M41.278 11.5508C41.2095 7.194 40.4759 5.35409 38.445 4.64183C36.414 3.92958 34.6262 5.127 35.8235 6.91507C37.0207 8.70314 37.7547 10.5433 37.9973 12.4527C38.2398 14.3621 41.3464 15.9075 41.278 11.5508Z" stroke="white" stroke-width="1.5" stroke-linejoin="round"/>
</svg>
