<svg width="62" height="62" viewBox="0 0 62 62" fill="none" xmlns="http://www.w3.org/2000/svg">
<path d="M31.0535 36.7046C31.2 37.1441 30.7238 37.6935 30.2111 37.6935C29.6983 37.6935 29.1855 37.1441 29.2954 36.7046" stroke="white" stroke-width="1.5" stroke-miterlimit="10" stroke-linecap="round" stroke-linejoin="round"/>
<path d="M45.6677 45.605C44.9718 46.6305 44.0195 47.5096 42.9206 48.1689C40.2103 49.8171 37.1336 50.1101 34.0203 50.2566C32.8116 50.3299 31.6029 50.3299 30.3942 50.3299C29.1855 50.3299 27.9769 50.2932 26.7682 50.2566C23.6549 50.1101 20.5782 49.8171 17.8678 48.1689C16.9887 47.6195 16.2196 46.9602 15.5603 46.191" stroke="white" stroke-width="1.5" stroke-miterlimit="10" stroke-linecap="round" stroke-linejoin="round"/>
<path d="M11.1652 13.007C11.1652 13.007 12.8866 13.3367 14.132 12.5309" stroke="white" stroke-width="1.5" stroke-miterlimit="10" stroke-linecap="round" stroke-linejoin="round"/>
<path d="M8.96761 7.00006C9.84666 8.6849 9.18737 9.12443 9.99316 11.1023C10.5059 12.311 10.9455 12.6406 11.4582 13.4464C11.4582 13.4464 11.7146 13.8493 11.971 14.472C12.5937 15.9737 11.8612 19.1236 11.7513 21.4311C11.6414 23.2258 12.4106 25.0205 12.3007 26.7786C12.2274 28.0972 11.1286 28.5001 10.4327 29.4158C9.6269 30.4413 9.55364 31.7599 8.96761 32.8587C8.30833 34.0674 7.79555 34.6168 7.68567 36.0819C7.53916 37.8033 6.6235 39.012 6.0741 40.5504C5.52469 42.0887 5.70781 43.8468 5.48805 45.4584C5.19504 47.3996 4.49912 49.6338 5.59793 51.5018L7.57579 55.897" stroke="white" stroke-width="1.5" stroke-miterlimit="10" stroke-linecap="round" stroke-linejoin="round"/>
<path d="M50.0997 13.0071C50.0997 13.0071 48.3783 13.3367 47.1329 12.5309" stroke="white" stroke-width="1.5" stroke-miterlimit="10" stroke-linecap="round" stroke-linejoin="round"/>
<path d="M52.2973 7.00018C51.4182 8.68502 52.0775 9.12455 51.2717 11.1024C50.759 12.3111 50.3194 12.6407 49.8067 13.4465C49.8067 13.4465 49.5503 13.8494 49.2939 14.4721C48.6712 15.9738 49.4038 19.1237 49.5137 21.4312C49.7334 25.2404 48.2317 26.8154 49.477 28.2072C50.2462 29.0862 51.2717 29.306 51.5281 30.588C51.6746 31.2106 51.6746 31.8333 51.931 32.3827C52.1874 32.9321 52.6269 33.3716 52.9932 33.8844C54.1287 35.496 53.5792 37.3273 54.2752 39.0488C55.0077 40.9167 56.1065 42.4551 55.5937 44.5428C55.5937 44.5428 57.0954 49.1944 55.7402 51.5019L53.7624 55.8972" stroke="white" stroke-width="1.5" stroke-miterlimit="10" stroke-linecap="round" stroke-linejoin="round"/>
</svg>
