<svg width="62" height="62" viewBox="0 0 62 62" fill="none" xmlns="http://www.w3.org/2000/svg">
<g clip-path="url(#clip0_9_3450)">
<path d="M44.3001 13.9001C43.3001 12.8668 41.8001 12.2001 40.3335 12.3334C39.3668 12.4334 38.5334 12.9334 37.8001 13.5668C36.1668 15.0334 36.2335 17.5001 37.1668 19.3001C37.6668 20.2667 38.4335 21.0334 39.2335 21.7667C40.2001 22.7001 41.2668 23.5001 42.3001 24.3667C42.9334 24.9001 44.2668 26.0334 44.3001 26.0334C44.3001 26.0334 45.6334 24.9334 46.3001 24.3667C47.3334 23.5001 48.4002 22.7001 49.3668 21.7667C50.1335 21.0334 50.9335 20.2667 51.4335 19.3001C52.3668 17.5001 52.4001 15.0001 50.8001 13.5668C50.1001 12.9334 49.2335 12.4334 48.2668 12.3334C46.8002 12.2001 45.3001 12.8668 44.3001 13.9001Z" stroke="white" stroke-width="1.5" stroke-miterlimit="10" stroke-linecap="round" stroke-linejoin="round"/>
<path d="M22.5333 41H60.6333V5H2V41H5.46667" stroke="white" stroke-width="1.5" stroke-miterlimit="10" stroke-linecap="round" stroke-linejoin="round"/>
<path d="M7.83352 50.1001H2.00018V38.2668" stroke="white" stroke-width="1.5" stroke-miterlimit="10" stroke-linecap="round" stroke-linejoin="round"/>
<path d="M60.6335 38.2668V50.1001H20.0002" stroke="white" stroke-width="1.5" stroke-miterlimit="10" stroke-linecap="round" stroke-linejoin="round"/>
<path d="M54.8669 32.9334H52.4668L50.7002 35.5001L48.9335 33.0001H44.9335L43.9001 30.6667L42.4001 34.8001L40.4668 32.9334L38.2668 34.5001L36.9001 31.7001L35.1335 33.6334H30.4668" stroke="white" stroke-width="1.5" stroke-miterlimit="10" stroke-linecap="round" stroke-linejoin="round"/>
<path d="M20.8002 26.9335L13.3669 27.0669" stroke="white" stroke-width="1.5" stroke-miterlimit="10" stroke-linecap="round" stroke-linejoin="round"/>
<path d="M7.83355 27.4335L10.0669 40.0335C10.4335 42.1668 12.3335 43.7335 14.5002 43.6668C16.6335 43.6335 18.4336 42.0668 18.7669 39.9335L20.8002 26.9002C22.1336 26.8668 23.1669 25.7668 23.1669 24.4335L23.1336 22.3002C23.1002 21.2335 22.5669 20.2668 21.6669 19.7335C20.0669 18.7668 17.4002 17.5668 13.9669 17.6668C10.6336 17.7668 8.06687 19.0668 6.56687 20.0668C5.7002 20.6668 5.16687 21.6668 5.20021 22.7001L5.2669 25.0668C5.30023 26.4335 6.43356 27.5002 7.80022 27.4002L7.83355 27.4335Z" stroke="white" stroke-width="1.5" stroke-miterlimit="10" stroke-linecap="round" stroke-linejoin="round"/>
<path d="M7.8335 16.3001C9.00016 15.7001 11.1335 14.8001 13.9668 14.7001C17.4335 14.5668 20.0335 15.7334 21.2002 16.3668" stroke="white" stroke-width="1.5" stroke-miterlimit="10" stroke-linecap="round" stroke-linejoin="round"/>
<path d="M5.46698 13.7001C7.03365 12.9001 9.93365 11.6334 13.8003 11.5334C18.467 11.3668 22.0003 12.9334 23.6003 13.8001" stroke="white" stroke-width="1.5" stroke-miterlimit="10" stroke-linecap="round" stroke-linejoin="round"/>
<path d="M26.7336 57.8667V50.1001" stroke="white" stroke-width="1.5" stroke-miterlimit="10" stroke-linecap="round" stroke-linejoin="round"/>
<path d="M35.9004 57.8667V50.1001" stroke="white" stroke-width="1.5" stroke-miterlimit="10" stroke-linecap="round" stroke-linejoin="round"/>
<path d="M14.5002 43.7001V54.1668C14.5002 56.2001 16.1668 57.8668 18.2002 57.8668H46.4002" stroke="white" stroke-width="1.5" stroke-miterlimit="10" stroke-linecap="round" stroke-linejoin="round"/>
<path d="M54.1667 45.9001C54.1667 46.6667 53.5667 47.2667 52.8 47.2667H51.8C51.0334 47.2667 50.4334 46.6667 50.4334 45.9001V45.1667C50.4334 44.4 51.0334 43.8 51.8 43.8H52.5667" stroke="white" stroke-width="1.5" stroke-miterlimit="10" stroke-linecap="round" stroke-linejoin="round"/>
<path d="M47.4669 45.5334H46.4002" stroke="white" stroke-width="1.5" stroke-miterlimit="10" stroke-linecap="round" stroke-linejoin="round"/>
<path d="M43.2668 45.5334H42.1668" stroke="white" stroke-width="1.5" stroke-miterlimit="10" stroke-linecap="round" stroke-linejoin="round"/>
<path d="M38.6002 45.5334H37.5335" stroke="white" stroke-width="1.5" stroke-miterlimit="10" stroke-linecap="round" stroke-linejoin="round"/>
</g>
<defs>
<clipPath id="clip0_9_3450">
<rect width="62" height="62" fill="white"/>
</clipPath>
</defs>
</svg>
