<svg width="62" height="62" viewBox="0 0 62 62" fill="none" xmlns="http://www.w3.org/2000/svg">
<path d="M18.8002 12.3334C18.8002 17.3334 22.7668 21.3667 27.6669 21.3667C32.5669 21.3667 36.5335 17.3001 36.5335 12.3334" stroke="white" stroke-width="1.5" stroke-miterlimit="10" stroke-linecap="round" stroke-linejoin="round"/>
<path d="M35.2336 21.0667C33.2003 22.8667 30.5669 23.9667 27.6669 23.9667C24.7336 23.9667 22.0669 22.8334 20.0336 21.0001" stroke="white" stroke-width="1.5" stroke-miterlimit="10" stroke-linecap="round" stroke-linejoin="round"/>
<path d="M27.6335 12.3334V16.1334" stroke="white" stroke-width="1.5" stroke-miterlimit="10" stroke-linecap="round" stroke-linejoin="round"/>
<path d="M24.7003 12.3334V14.8" stroke="white" stroke-width="1.5" stroke-miterlimit="10" stroke-linecap="round" stroke-linejoin="round"/>
<path d="M21.9669 12.3334V14.0334" stroke="white" stroke-width="1.5" stroke-miterlimit="10" stroke-linecap="round" stroke-linejoin="round"/>
<path d="M30.5336 12.3334V14.8" stroke="white" stroke-width="1.5" stroke-miterlimit="10" stroke-linecap="round" stroke-linejoin="round"/>
<path d="M33.2668 12.3334V14.0334" stroke="white" stroke-width="1.5" stroke-miterlimit="10" stroke-linecap="round" stroke-linejoin="round"/>
<path d="M45.5001 9H9.06667C7.36667 9 6 10.3667 6 12.0667V49.2334C6 50.9334 7.36667 52.3001 9.06667 52.3001L44.7667 52.2667C50.5668 52.3001 52.1668 48.9334 52.1668 44.8667V24.3334H56.4334L48.3334 9.03333L40.1334 24.3334H44.4667V45.3001C44.4667 47.3334 42.8334 48.9667 40.8001 48.9667H10.1333C9.70001 48.9667 9.36667 48.6001 9.36667 48.2001V13.1C9.36667 12.6667 9.73334 12.3 10.1667 12.3H43.0334" stroke="white" stroke-width="1.5" stroke-miterlimit="10" stroke-linecap="round" stroke-linejoin="round"/>
</svg>
