<svg width="62" height="62" viewBox="0 0 62 62" fill="none" xmlns="http://www.w3.org/2000/svg">
<path d="M38.8391 12.0432C42.1922 12.2261 45.4843 13.0796 48.4716 14.5733C52.9526 16.829 56.7629 20.6089 58.5309 25.3337C58.8967 26.3396 58.1347 27.437 57.0678 27.437H17.7145C16.6476 27.437 15.8551 26.3701 16.2514 25.3337C18.2632 19.9382 22.8356 15.8536 28.1092 13.7503C31.4927 12.409 35.1811 11.8298 38.8391 12.0432Z" stroke="white" stroke-width="1.5" stroke-miterlimit="10" stroke-linecap="round" stroke-linejoin="round"/>
<path d="M30.3953 36.0331H27.2251H18.7814C17.4097 36.0331 16.2818 34.57 16.2818 32.802C16.2818 31.8875 16.5562 31.0949 17.0134 30.5158C17.4706 29.9366 18.0803 29.5708 18.7814 29.5708H22.2869H33.0168" stroke="white" stroke-width="1.5" stroke-miterlimit="10" stroke-linecap="round" stroke-linejoin="round"/>
<path d="M52.6478 29.5708H56.0923C57.464 29.5708 58.5919 31.034 58.5919 32.802" stroke="white" stroke-width="1.5" stroke-miterlimit="10" stroke-linecap="round" stroke-linejoin="round"/>
<path d="M50.0262 29.5708C50.0262 29.5708 39.723 36.0941 37.3759 39.5082C35.0592 36.0941 24.7255 29.5708 24.7255 29.5708" stroke="white" stroke-width="1.5" stroke-miterlimit="10" stroke-linecap="round" stroke-linejoin="round"/>
<path d="M30.3953 16.4024C30.5173 16.0671 30.9135 15.8842 31.2488 16.0366C31.4013 16.0975 31.4927 16.189 31.5841 16.3414" stroke="white" stroke-width="1.5" stroke-miterlimit="10" stroke-linecap="round" stroke-linejoin="round"/>
<path d="M36.7052 18.3838C36.8271 18.0485 37.2234 17.8656 37.5587 18.018C37.7111 18.079 37.8026 18.1704 37.894 18.3228" stroke="white" stroke-width="1.5" stroke-miterlimit="10" stroke-linecap="round" stroke-linejoin="round"/>
<path d="M25.7314 20.4566C25.8533 20.1212 26.2496 19.9384 26.5849 20.0908C26.7373 20.1517 26.8288 20.2432 26.9202 20.3956" stroke="white" stroke-width="1.5" stroke-miterlimit="10" stroke-linecap="round" stroke-linejoin="round"/>
<path d="M32.8035 20.4566C32.9254 20.1212 33.3217 19.9384 33.657 20.0908C33.8094 20.1517 33.9009 20.2432 33.9923 20.3956" stroke="white" stroke-width="1.5" stroke-miterlimit="10" stroke-linecap="round" stroke-linejoin="round"/>
<path d="M28.5054 23.8095C28.6273 23.4741 29.0236 23.2913 29.3589 23.4437C29.5113 23.5046 29.6027 23.5961 29.6942 23.7485" stroke="white" stroke-width="1.5" stroke-miterlimit="10" stroke-linecap="round" stroke-linejoin="round"/>
<path d="M36.7052 23.8095C36.8271 23.4741 37.2234 23.2913 37.5587 23.4437C37.7111 23.5046 37.8026 23.5961 37.894 23.7485" stroke="white" stroke-width="1.5" stroke-miterlimit="10" stroke-linecap="round" stroke-linejoin="round"/>
<path d="M43.7772 23.8095C43.8992 23.4741 44.2954 23.2913 44.6307 23.4437C44.7831 23.5046 44.8746 23.5961 44.9661 23.7485" stroke="white" stroke-width="1.5" stroke-miterlimit="10" stroke-linecap="round" stroke-linejoin="round"/>
<path d="M40.6985 20.4566C40.8204 20.1212 41.2167 19.9384 41.552 20.0908C41.7044 20.1517 41.7959 20.2432 41.8873 20.3956" stroke="white" stroke-width="1.5" stroke-miterlimit="10" stroke-linecap="round" stroke-linejoin="round"/>
<path d="M46.8864 20.4566C47.0083 20.1212 47.4046 19.9384 47.7399 20.0908C47.8923 20.1517 47.9838 20.2432 48.0752 20.3956" stroke="white" stroke-width="1.5" stroke-miterlimit="10" stroke-linecap="round" stroke-linejoin="round"/>
<path d="M42.1312 16.4024C42.2532 16.0671 42.6494 15.8842 42.9847 16.0366C43.1372 16.0975 43.2286 16.189 43.32 16.3414" stroke="white" stroke-width="1.5" stroke-miterlimit="10" stroke-linecap="round" stroke-linejoin="round"/>
<path d="M53.3183 48.958H33.0472" stroke="white" stroke-width="1.5" stroke-miterlimit="10" stroke-linecap="round" stroke-linejoin="round"/>
<path d="M10.2767 48.0433L2.01588 46.001C1.31478 45.8181 0.857535 45.117 1.04043 44.3854L1.25381 43.5624C1.43671 42.8613 2.13781 42.404 2.8694 42.5869L10.7949 44.5073" stroke="white" stroke-width="1.5" stroke-miterlimit="10" stroke-linecap="round" stroke-linejoin="round"/>
<path d="M16.2818 43.2576L8.8135 40.4532C8.1124 40.2094 7.7771 39.4473 8.02096 38.7462L8.32579 37.9536C8.56965 37.2525 9.33171 36.9172 10.0328 37.1611L19.4215 40.6361" stroke="white" stroke-width="1.5" stroke-miterlimit="10" stroke-linecap="round" stroke-linejoin="round"/>
<path d="M28.2921 43.9891L39.3268 41.6725C40.0584 41.52 40.7595 41.9773 40.9119 42.7089L41.0948 43.5624C41.2472 44.294 40.79 44.9951 40.0584 45.1475L33.657 46.3668" stroke="white" stroke-width="1.5" stroke-miterlimit="10" stroke-linecap="round" stroke-linejoin="round"/>
<path d="M19.2386 43.7452L26.3716 38.2279C26.9507 37.7706 27.7738 37.862 28.231 38.4412L28.7797 39.1118C29.2369 39.691 29.1455 40.5141 28.5663 40.9713L24.2682 44.172" stroke="white" stroke-width="1.5" stroke-miterlimit="10" stroke-linecap="round" stroke-linejoin="round"/>
<path d="M11.7399 47.6166C11.7399 48.1958 12.1972 48.6835 12.7763 48.6835L30.4563 49.0798C31.1879 49.0798 31.7671 48.4701 31.7671 47.7386V46.885C31.7671 46.1535 31.1574 45.5743 30.4258 45.5743L12.8373 45.4828C12.2581 45.4828 11.8009 45.9401 11.7704 46.5193L11.7399 47.6166Z" stroke="white" stroke-width="1.5" stroke-miterlimit="10" stroke-linecap="round" stroke-linejoin="round"/>
<path d="M46.3378 44.4464C45.9111 43.4709 45.6367 42.4041 45.6367 41.2762C45.6367 37.0391 49.0813 33.5945 53.3184 33.5945C57.5555 33.5945 61 37.0391 61 41.2762C61 45.5133 57.5555 48.9578 53.3184 48.9578" stroke="white" stroke-width="1.5" stroke-miterlimit="10" stroke-linecap="round" stroke-linejoin="round"/>
<path d="M49.2642 37.2217L57.3726 45.3302" stroke="white" stroke-width="1.5" stroke-miterlimit="10" stroke-linecap="round" stroke-linejoin="round"/>
<path d="M57.3726 37.2217L49.2642 45.3302" stroke="white" stroke-width="1.5" stroke-miterlimit="10" stroke-linecap="round" stroke-linejoin="round"/>
</svg>
