<svg width="62" height="62" viewBox="0 0 62 62" fill="none" xmlns="http://www.w3.org/2000/svg">
<g clip-path="url(#clip0_9_3547)">
<path d="M16.2109 50.0666L19.4109 47.4333L24.5776 43.1666C28.4443 39.9666 32.3443 36.7999 36.211 33.5999" stroke="white" stroke-width="1.5" stroke-miterlimit="10" stroke-linecap="round" stroke-linejoin="round"/>
<path d="M25.611 20.6999L15.5109 28.9999L8.7776 34.5333L5.7776 36.9999C4.87759 37.7333 4.44428 38.9333 4.71094 40.0666C5.07761 41.7666 11.6109 49.6999 13.1443 50.3666" stroke="white" stroke-width="1.5" stroke-miterlimit="10" stroke-linecap="round" stroke-linejoin="round"/>
<path d="M32.2777 26.0666C32.5443 26.3999 32.811 26.7332 33.0777 27.0666C35.5444 30.2332 36.9444 33.0666 36.2777 33.6333C35.5444 34.2333 32.5777 31.8332 29.6443 28.2666C28.1443 26.4332 26.911 24.6332 26.211 23.2332C25.5443 21.9332 25.311 20.9999 25.6777 20.6999C26.011 20.4332 26.8443 20.7999 27.911 21.5999" stroke="white" stroke-width="1.5" stroke-miterlimit="10" stroke-linecap="round" stroke-linejoin="round"/>
<path d="M2.14454 40C1.24454 40.7333 0.81122 41.9333 1.07789 43.0667C1.44455 44.7667 7.97788 52.7 9.51121 53.3667C10.6112 53.8334 11.8446 53.6667 12.7779 52.9334" stroke="white" stroke-width="1.5" stroke-miterlimit="10" stroke-linecap="round" stroke-linejoin="round"/>
<path d="M5.61121 37.1667L2.14453 40" stroke="white" stroke-width="1.5" stroke-miterlimit="10" stroke-linecap="round" stroke-linejoin="round"/>
<path d="M16.2112 50.0667L12.7778 52.9001" stroke="white" stroke-width="1.5" stroke-miterlimit="10" stroke-linecap="round" stroke-linejoin="round"/>
<path d="M31.2448 34.3334C29.4782 34.3667 28.2782 34.9 27.6115 35.2667C25.7115 36.3334 24.4448 38.2334 24.1781 38.6667C23.5781 39.6001 23.2448 40.3667 22.2115 41.1C21.3115 41.7667 20.6781 41.8001 20.4448 41.8001C20.2781 41.8001 19.2115 41.7334 18.7448 41.0001C18.0448 39.8667 19.4115 38.5334 18.6781 37.3667C18.3448 36.8334 17.7115 36.5667 17.1781 36.5334C16.5115 36.5 15.8781 36.7667 15.4781 37.2667C15.1115 37.7 15.1781 38.2667 15.1448 38.8001C15.1115 39.7334 15.1448 41.2 14.4448 41.9334C13.7781 42.6001 12.5448 42.6667 11.8115 42.1334C11.2781 41.7334 10.9448 41.0667 10.9781 40.3667C11.0448 39.6 11.6448 39.1334 12.0781 38.5334C12.7781 37.5667 13.0448 37.0667 13.1781 36.4C13.3448 35.6 13.0781 34.8 12.5114 34.3667" stroke="white" stroke-width="1.5" stroke-miterlimit="10" stroke-linecap="round" stroke-linejoin="round"/>
<path d="M60.4783 56.1001C58.6116 52.4334 55.0117 49.9667 50.9116 49.5667L47.4783 49.2001C47.2783 49.1001 42.3783 48.7334 40.3783 48.6001C39.4783 48.5334 38.645 48.1334 38.0783 47.4667C37.7783 47.1001 37.5449 46.6667 37.4449 46.1001C37.3116 45.3334 37.7449 42.9 37.9449 42.2C38.6449 39.4667 38.8783 37.5334 36.9783 35.8" stroke="white" stroke-width="1.5" stroke-miterlimit="10" stroke-linecap="round" stroke-linejoin="round"/>
<path d="M52.0783 5L49.5449 9.16667C49.1783 9.73334 48.7449 10.2667 48.2449 10.7333C47.7449 11.1667 47.1783 11.5333 46.5783 11.8333C43.7449 13.2 40.5782 14.9 37.8449 16.1667C37.5449 16.3 37.3782 16.5 37.2449 16.7C36.8449 17.4 37.2783 18.2334 37.3783 18.4C37.8449 19.2667 38.5782 19.2 39.3449 19.9334C40.1782 20.7334 40.3116 21.8334 40.3783 22.3334C40.6449 24.3667 39.5116 25.9 38.9782 26.6334C38.5782 27.1667 37.8449 28 36.6782 28.7" stroke="white" stroke-width="1.5" stroke-miterlimit="10" stroke-linecap="round" stroke-linejoin="round"/>
<path d="M40.0784 21.1668C40.7784 21.8668 41.8117 22.1001 42.7117 21.7334C43.7117 21.3334 44.345 20.3001 44.2784 19.2001" stroke="white" stroke-width="1.5" stroke-miterlimit="10" stroke-linecap="round" stroke-linejoin="round"/>
<path d="M53.7117 50.2002C55.745 50.5669 58.645 50.8335 61.6117 50.4669" stroke="white" stroke-width="1.5" stroke-miterlimit="10" stroke-linecap="round" stroke-linejoin="round"/>
<path d="M38.1782 33.0668H42.0116" stroke="white" stroke-width="1.5" stroke-miterlimit="10" stroke-linecap="round" stroke-linejoin="round"/>
</g>
<defs>
<clipPath id="clip0_9_3547">
<rect width="62" height="62" fill="white"/>
</clipPath>
</defs>
</svg>
